<?xml version="1.0" encoding="UTF-8" standalone="no"?>
<!-- Generator: flash2svg, http://dissentgraphics.com/tools/flash2svg -->

<svg
   xmlns:dc="http://purl.org/dc/elements/1.1/"
   xmlns:cc="http://creativecommons.org/ns#"
   xmlns:rdf="http://www.w3.org/1999/02/22-rdf-syntax-ns#"
   xmlns:svg="http://www.w3.org/2000/svg"
   xmlns="http://www.w3.org/2000/svg"
   xmlns:xlink="http://www.w3.org/1999/xlink"
   xmlns:sodipodi="http://sodipodi.sourceforge.net/DTD/sodipodi-0.dtd"
   xmlns:inkscape="http://www.inkscape.org/namespaces/inkscape"
   id="Preview"
   image-rendering="optimizeSpeed"
   version="1.1"
   style="background-color:#FFFFFF"
   x="0px"
   y="0px"
   width="1024px"
   height="1024px"
   viewBox="0 0 1024 1024"
   enable-background="new 0 0 1024 1024"
   sodipodi:docname="eog.svg"
   inkscape:version="0.92.4 (5da689c313, 2019-01-14)">
  <metadata
     id="metadata61">
    <rdf:RDF>
      <cc:Work
         rdf:about="">
        <dc:format>image/svg+xml</dc:format>
        <dc:type
           rdf:resource="http://purl.org/dc/dcmitype/StillImage" />
        <dc:title />
      </cc:Work>
    </rdf:RDF>
  </metadata>
  <sodipodi:namedview
     pagecolor="#ffffff"
     bordercolor="#666666"
     borderopacity="1"
     objecttolerance="10"
     gridtolerance="10"
     guidetolerance="10"
     inkscape:pageopacity="0"
     inkscape:pageshadow="2"
     inkscape:window-width="1920"
     inkscape:window-height="944"
     id="namedview59"
     showgrid="true"
     inkscape:pagecheckerboard="true"
     inkscape:zoom="0.7109375"
     inkscape:cx="257.40659"
     inkscape:cy="502.15385"
     inkscape:window-x="0"
     inkscape:window-y="25"
     inkscape:window-maximized="1"
     inkscape:current-layer="Preview">
    <inkscape:grid
       type="xygrid"
       id="grid879" />
  </sodipodi:namedview>
  <defs
     transform="matrix(1 0 0 1 0 0) "
     id="defs2">
    <linearGradient
       id="linearGradient1135"
       inkscape:collect="always">
      <stop
         style="stop-color:#0077e1;stop-opacity:1"
         offset="0"
         id="stop1133" />
      <stop
         style="stop-color:#0dbeea;stop-opacity:1"
         offset="1"
         id="stop1131" />
    </linearGradient>
    <linearGradient
       inkscape:collect="always"
       id="linearGradient875">
      <stop
         style="stop-color:#55ddff;stop-opacity:1"
         offset="0"
         id="stop871" />
      <stop
         style="stop-color:#1873f0;stop-opacity:1"
         offset="1"
         id="stop873" />
    </linearGradient>
    <linearGradient
       inkscape:collect="always"
       xlink:href="#linearGradient875"
       id="linearGradient877"
       x1="520"
       y1="4"
       x2="520"
       y2="1024"
       gradientUnits="userSpaceOnUse"
       gradientTransform="matrix(0.99609375,0,0,0.99609375,2,2)" />
    <circle
       id="SVGID_1_"
       r="15.999"
       cy="-31.965"
       cx="73.957001" />
    <linearGradient
       inkscape:collect="always"
       xlink:href="#linearGradient1135"
       id="linearGradient1081"
       x1="519.20001"
       y1="1024.8"
       x2="519.20001"
       y2="4.8000002"
       gradientUnits="userSpaceOnUse"
       gradientTransform="matrix(0.9972446,0,0,0.99719176,0.91076708,1.9627512)" />
    <filter
       inkscape:collect="always"
       style="color-interpolation-filters:sRGB"
       id="filter861"
       x="-0.069795921"
       width="1.1395918"
       y="-0.10546255"
       height="1.2109251">
      <feGaussianBlur
         inkscape:collect="always"
         stdDeviation="18.824192"
         id="feGaussianBlur863" />
    </filter>
    <radialGradient
       inkscape:collect="always"
       xlink:href="#linearGradient4657"
       id="radialGradient6921"
       cx="100"
       cy="82.38073"
       fx="100"
       fy="82.38073"
       r="100"
       gradientUnits="userSpaceOnUse"
       gradientTransform="matrix(4.705,0,0,3.533613,40.99998,118.41875)" />
    <linearGradient
       id="linearGradient4657">
      <stop
         id="stop4653"
         offset="0"
         style="stop-color:#ffffff;stop-opacity:1" />
      <stop
         id="stop4655"
         offset="1"
         style="stop-color:#ffffff;stop-opacity:0;" />
    </linearGradient>
  </defs>
  <path
     id="path"
     d="m 984.88455,316.75212 q -9.29236,-22.5286 -20.9619,-44.13877 c -4.37603,-8.15784 -9.02221,-16.26166 -13.93853,-24.20339 C 928.86017,214.15784 903.09004,181.79661 872.67373,151.38029 773.10487,51.811441 652.84428,2 512,2 371.15572,2 250.94915,51.811441 151.38029,151.38029 51.811441,250.94915 2,371.15572 2,512 2,652.84428 51.811441,773.10487 151.38029,872.67373 250.94915,972.24259 371.15572,1022 512,1022 652.84428,1022 773.10487,972.24259 872.67373,872.67373 927.50953,817.7839 967.27222,756.62712 991.90781,689.25741 1011.9513,634.31356 1022,575.26377 1022,512 c 0,-48.51483 -5.8888,-94.59852 -17.7203,-138.25106 -1.3507,-4.91631 -2.7553,-9.83263 -4.214,-14.69491 -4.43011,-14.37077 -9.50849,-28.4714 -15.18115,-42.30191 z"
     style="fill:url(#linearGradient877);fill-opacity:1;stroke-width:1.08050847"
     inkscape:connector-curvature="0" />
  <path
     id="path1"
     d="M 797.7092,139.12648 Q 737.17646,92.507762 665.27512,67.677688 590.9804,42 511.54986,42 C 251.66792,42 41,252.65675 41,512.52493 c 0,237.73051 176.36271,434.17729 405.33007,465.93785 11.16914,1.54565 22.48786,2.74228 33.85645,3.44031 C 490.55787,982.55126 500.97907,983 511.54986,983 771.38195,983 982,772.34324 982,512.52493 c 0,-20.54215 -1.29641,-40.835 -3.83939,-60.62925 -2.94187,-23.13486 -7.72864,-45.62153 -13.8617,-67.50989 Q 943.4565,310.8429 900.27581,247.52123 857.59374,185.14688 797.7092,139.12648 Z"
     style="fill:url(#linearGradient1081);fill-opacity:1;stroke-width:0.99721819"
     inkscape:connector-curvature="0" />
  <circle
     style="color:#000000;display:inline;overflow:visible;visibility:visible;opacity:0.2;fill:url(#radialGradient6921);fill-opacity:1;fill-rule:nonzero;stroke:none;stroke-width:42.97708511;marker:none;enable-background:accumulate"
     id="path4188-6-4"
     cx="511.5"
     cy="512.5"
     r="470.5" />
  <g
     id="g4814"
     style="opacity:0.25;filter:url(#filter861)"
     transform="translate(0,30)">
    <path
       transform="rotate(92.503139,444.60149,457.74468)"
       inkscape:transform-center-y="0.66528092"
       inkscape:transform-center-x="-11.579967"
       d="M 699.47443,715.24356 499.21163,610.86534 298.94884,506.48712 489.47443,385.24356 680.00001,264 l 9.73721,225.62179 z"
       inkscape:randomized="0"
       inkscape:rounded="0"
       inkscape:flatsided="false"
       sodipodi:arg2="2.0512647"
       sodipodi:arg1="1.0040671"
       sodipodi:r2="130.38405"
       sodipodi:r1="260.7681"
       sodipodi:cy="495.24356"
       sodipodi:cx="559.47443"
       sodipodi:sides="3"
       id="path4801"
       style="opacity:0.5;fill:#000000;fill-opacity:1;stroke:none;stroke-opacity:1"
       sodipodi:type="star" />
    <path
       sodipodi:type="star"
       style="opacity:1;fill:#000000;fill-opacity:1;stroke:none;stroke-opacity:1"
       id="path4805"
       sodipodi:sides="3"
       sodipodi:cx="559.47443"
       sodipodi:cy="495.24356"
       sodipodi:r1="260.7681"
       sodipodi:r2="130.38405"
       sodipodi:arg1="1.0040671"
       sodipodi:arg2="2.0512647"
       inkscape:flatsided="false"
       inkscape:rounded="0"
       inkscape:randomized="0"
       d="M 699.47443,715.24356 499.21163,610.86534 298.94884,506.48712 489.47443,385.24356 680.00001,264 l 9.73721,225.62179 z"
       inkscape:transform-center-x="-9.3551582"
       inkscape:transform-center-y="0.53746341"
       transform="matrix(-0.03528306,0.8071003,-0.8071003,-0.03528306,1019.3337,160.58872)" />
    <circle
       r="60"
       cy="333.00009"
       cx="763.50494"
       id="path4809"
       style="opacity:1;fill:#000000;fill-opacity:1;stroke:none;stroke-opacity:1" />
  </g>
  <g
     id="g4822">
    <path
       sodipodi:type="star"
       style="opacity:1;fill:#3ac1ff;fill-opacity:1;stroke:none;stroke-opacity:1"
       id="path4816"
       sodipodi:sides="3"
       sodipodi:cx="559.47443"
       sodipodi:cy="495.24356"
       sodipodi:r1="260.7681"
       sodipodi:r2="130.38405"
       sodipodi:arg1="1.0040671"
       sodipodi:arg2="2.0512647"
       inkscape:flatsided="false"
       inkscape:rounded="0"
       inkscape:randomized="0"
       d="M 699.47443,715.24356 499.21163,610.86534 298.94884,506.48712 489.47443,385.24356 680.00001,264 l 9.73721,225.62179 z"
       inkscape:transform-center-x="-11.579967"
       inkscape:transform-center-y="0.66528092"
       transform="rotate(92.503139,444.60149,457.74468)" />
    <path
       transform="matrix(-0.03528306,0.8071003,-0.8071003,-0.03528306,1019.3337,160.58872)"
       inkscape:transform-center-y="0.53746341"
       inkscape:transform-center-x="-9.3551582"
       d="M 699.47443,715.24356 499.21163,610.86534 298.94884,506.48712 489.47443,385.24356 680.00001,264 l 9.73721,225.62179 z"
       inkscape:randomized="0"
       inkscape:rounded="0"
       inkscape:flatsided="false"
       sodipodi:arg2="2.0512647"
       sodipodi:arg1="1.0040671"
       sodipodi:r2="130.38405"
       sodipodi:r1="260.7681"
       sodipodi:cy="495.24356"
       sodipodi:cx="559.47443"
       sodipodi:sides="3"
       id="path4818"
       style="opacity:1;fill:#abe4ff;fill-opacity:1;stroke:none;stroke-opacity:1"
       sodipodi:type="star" />
    <circle
       style="opacity:1;fill:#abe4ff;fill-opacity:1;stroke:none;stroke-opacity:1"
       id="circle4820"
       cx="763.50494"
       cy="333.00009"
       r="60" />
  </g>
</svg>
