<?xml version="1.0" encoding="UTF-8" standalone="no"?>
<!-- Generator: flash2svg, http://dissentgraphics.com/tools/flash2svg -->

<svg
   xmlns:dc="http://purl.org/dc/elements/1.1/"
   xmlns:cc="http://creativecommons.org/ns#"
   xmlns:rdf="http://www.w3.org/1999/02/22-rdf-syntax-ns#"
   xmlns:svg="http://www.w3.org/2000/svg"
   xmlns="http://www.w3.org/2000/svg"
   xmlns:xlink="http://www.w3.org/1999/xlink"
   xmlns:sodipodi="http://sodipodi.sourceforge.net/DTD/sodipodi-0.dtd"
   xmlns:inkscape="http://www.inkscape.org/namespaces/inkscape"
   id="Apps-Visual-Studio-Community"
   image-rendering="optimizeSpeed"
   version="1.1"
   style="background-color:#ffffff"
   x="0px"
   y="0px"
   width="1024px"
   height="1024px"
   viewBox="0 0 1024 1024"
   enable-background="new 0 0 1024 1024"
   sodipodi:docname="file-manager.svg"
   inkscape:export-filename="/home/unc/OSX/filemanager-app.png"
   inkscape:export-xdpi="4.5"
   inkscape:export-ydpi="4.5"
   inkscape:version="0.92.4 (5da689c313, 2019-01-14)">
  <metadata
     id="metadata24">
    <rdf:RDF>
      <cc:Work
         rdf:about="">
        <dc:format>image/svg+xml</dc:format>
        <dc:type
           rdf:resource="http://purl.org/dc/dcmitype/StillImage" />
        <dc:title />
      </cc:Work>
    </rdf:RDF>
  </metadata>
  <sodipodi:namedview
     pagecolor="#ffffff"
     bordercolor="#666666"
     borderopacity="1"
     objecttolerance="10"
     gridtolerance="10"
     guidetolerance="10"
     inkscape:pageopacity="0"
     inkscape:pageshadow="2"
     inkscape:window-width="1920"
     inkscape:window-height="944"
     id="namedview22"
     showgrid="true"
     inkscape:pagecheckerboard="true"
     inkscape:zoom="0.76770361"
     inkscape:cx="511.04907"
     inkscape:cy="566.04916"
     inkscape:window-x="0"
     inkscape:window-y="25"
     inkscape:window-maximized="1"
     inkscape:current-layer="Apps-Visual-Studio-Community">
    <inkscape:grid
       type="xygrid"
       id="grid848" />
  </sodipodi:namedview>
  <defs
     transform="matrix(1 0 0 1 0 0) "
     id="defs2">
    <linearGradient
       inkscape:collect="always"
       id="linearGradient1045">
      <stop
         style="stop-color:#d9d5d5;stop-opacity:1;"
         offset="0"
         id="stop1041" />
      <stop
         style="stop-color:#d9d5d5;stop-opacity:0;"
         offset="1"
         id="stop1043" />
    </linearGradient>
    <linearGradient
       inkscape:collect="always"
       id="linearGradient857">
      <stop
         id="stop854"
         offset="0"
         style="stop-color:#00ccff;stop-opacity:1" />
      <stop
         id="stop849"
         offset="1"
         style="stop-color:#0066ff;stop-opacity:1" />
    </linearGradient>
    <linearGradient
       id="linearGradient855">
      <stop
         id="stop851"
         offset="0"
         style="stop-color:#00cbff;stop-opacity:1" />
      <stop
         id="stop853"
         offset="1"
         style="stop-color:#006eff;stop-opacity:1" />
    </linearGradient>
    <linearGradient
       inkscape:collect="always"
       id="linearGradient889">
      <stop
         style="stop-color:#000000;stop-opacity:1;"
         offset="0"
         id="stop885" />
      <stop
         style="stop-color:#464646;stop-opacity:1"
         offset="1"
         id="stop887" />
    </linearGradient>
    <linearGradient
       inkscape:collect="always"
       id="linearGradient862">
      <stop
         style="stop-color:#ffffff;stop-opacity:1"
         offset="0"
         id="stop858" />
      <stop
         style="stop-color:#d7d7d7;stop-opacity:1"
         offset="1"
         id="stop860" />
    </linearGradient>
    <linearGradient
       inkscape:collect="always"
       xlink:href="#linearGradient3912"
       id="linearGradient3918"
       x1="440"
       y1="509.37595"
       x2="965.06538"
       y2="509.37595"
       gradientUnits="userSpaceOnUse"
       gradientTransform="matrix(5.2367436,0,0,4.9626223,-16.253633,21.382464)" />
    <linearGradient
       id="linearGradient3912">
      <stop
         style="stop-color:#ffffff;stop-opacity:1"
         offset="0"
         id="stop3914" />
      <stop
         style="stop-color:#d9d5d5;stop-opacity:1"
         offset="1"
         id="stop3916" />
    </linearGradient>
    <linearGradient
       gradientTransform="matrix(4.6950762,0,0,4.6871456,40.999895,45.571012)"
       inkscape:collect="always"
       xlink:href="#linearGradient855"
       id="linearGradient6197"
       gradientUnits="userSpaceOnUse"
       x1="-0.21296664"
       y1="85.004608"
       x2="170.1783"
       y2="85.004608" />
    <linearGradient
       id="linearGradient5423">
      <stop
         style="stop-color:#15c4fc;stop-opacity:1;"
         offset="0"
         id="stop5425" />
      <stop
         style="stop-color:#1863ee;stop-opacity:1"
         offset="1"
         id="stop5427" />
    </linearGradient>
    <linearGradient
       inkscape:collect="always"
       xlink:href="#linearGradient3912"
       id="linearGradient856"
       x1="540.1098"
       y1="2.0078433"
       x2="540.1098"
       y2="1041.9823"
       gradientUnits="userSpaceOnUse"
       gradientTransform="matrix(0.99609375,0,0,0.99609375,2,2)" />
    <linearGradient
       inkscape:collect="always"
       xlink:href="#linearGradient889"
       id="linearGradient891"
       x1="272.14883"
       y1="364.09537"
       x2="328.60097"
       y2="364.09537"
       gradientUnits="userSpaceOnUse" />
    <linearGradient
       inkscape:collect="always"
       xlink:href="#linearGradient889"
       id="linearGradient899"
       x1="734.59076"
       y1="364.09537"
       x2="791.04291"
       y2="364.09537"
       gradientUnits="userSpaceOnUse" />
    <linearGradient
       inkscape:collect="always"
       xlink:href="#linearGradient889"
       id="linearGradient915"
       x1="240.0564"
       y1="602.34344"
       x2="863.34766"
       y2="864.16589"
       gradientUnits="userSpaceOnUse" />
    <linearGradient
       inkscape:collect="always"
       xlink:href="#linearGradient857"
       id="linearGradient945"
       gradientUnits="userSpaceOnUse"
       x1="40.049999"
       y1="512.04999"
       x2="984.04999"
       y2="512.04999"
       gradientTransform="matrix(0.99471953,0,0,0.99303933,1.1614828,5.7499951)" />
    <linearGradient
       inkscape:collect="always"
       xlink:href="#linearGradient862"
       id="linearGradient979"
       gradientUnits="userSpaceOnUse"
       gradientTransform="matrix(0.99471953,0,0,0.99303933,1.1614828,5.7499951)"
       x1="762.86682"
       y1="78.798492"
       x2="736.58942"
       y2="1043.2198" />
    <linearGradient
       inkscape:collect="always"
       xlink:href="#linearGradient857"
       id="linearGradient987"
       gradientUnits="userSpaceOnUse"
       gradientTransform="matrix(0.99471953,0,0,0.99303933,1.1614828,5.7499951)"
       x1="-61.48616"
       y1="501.74246"
       x2="803.07916"
       y2="501.74246" />
    <linearGradient
       inkscape:collect="always"
       xlink:href="#linearGradient862"
       id="linearGradient997"
       gradientUnits="userSpaceOnUse"
       gradientTransform="matrix(1.0442295,0,0,1.0424657,-34.354525,-18.30462)"
       x1="762.86682"
       y1="78.798492"
       x2="736.58942"
       y2="1043.2198" />
    <linearGradient
       inkscape:collect="always"
       xlink:href="#linearGradient857"
       id="linearGradient1001"
       gradientUnits="userSpaceOnUse"
       gradientTransform="matrix(1.1258652,0,0,1.1239635,-56.695811,-63.35865)"
       x1="352.34753"
       y1="59.929569"
       x2="352.34753"
       y2="967.43237" />
    <linearGradient
       inkscape:collect="always"
       xlink:href="#linearGradient1045"
       id="linearGradient1047"
       x1="1.7999992"
       y1="512.95093"
       x2="1020.2981"
       y2="512.95093"
       gradientUnits="userSpaceOnUse" />
    <filter
       inkscape:collect="always"
       style="color-interpolation-filters:sRGB"
       id="filter1103"
       x="-0.10122571"
       width="1.2024514"
       y="-0.045101181"
       height="1.0902024">
      <feGaussianBlur
         inkscape:collect="always"
         stdDeviation="18.259921"
         id="feGaussianBlur1105" />
    </filter>
  </defs>
  <path
     id="path"
     d="m 984.88455,316.75212 q -9.29236,-22.5286 -20.9619,-44.13877 c -4.37603,-8.15784 -9.02221,-16.26166 -13.93853,-24.20339 C 928.86017,214.15784 903.09004,181.79661 872.67373,151.38029 773.10487,51.811441 652.84428,2 512,2 371.15572,2 250.94915,51.811441 151.38029,151.38029 51.811441,250.94915 2,371.15572 2,512 2,652.84428 51.811441,773.10487 151.38029,872.67373 250.94915,972.24259 371.15572,1022 512,1022 652.84428,1022 773.10487,972.24259 872.67373,872.67373 927.50953,817.7839 967.27222,756.62712 991.90781,689.25741 1011.9513,634.31356 1022,575.26377 1022,512 c 0,-48.51483 -5.8888,-94.59852 -17.7203,-138.25106 -1.3507,-4.91631 -2.7553,-9.83263 -4.214,-14.69491 -4.43011,-14.37077 -9.50849,-28.4714 -15.18115,-42.30191 z"
     style="fill:url(#linearGradient856);fill-opacity:1;stroke-width:1.08050847"
     inkscape:connector-curvature="0" />
  <ellipse
     cy="514.28546"
     cx="510.50763"
     style="color:#000000;display:inline;overflow:visible;visibility:visible;fill:url(#linearGradient6197);fill-opacity:1;fill-rule:nonzero;stroke:none;stroke-width:42.85020447;marker:none;enable-background:accumulate"
     id="path4188-6"
     rx="469.50763"
     ry="468.71457" />
  <path
     style="fill:url(#linearGradient945);fill-opacity:1;stroke-width:0.99387908"
     d="M 979.93945 518.89453 C 979.95224 517.3288 980.01562 515.81006 980.01562 514.23633 L 980.01562 512.25 L 980.01562 511.25586 C 980.00284 508.66201 979.80994 506.1378 979.75977 503.55859 C 979.85524 508.6276 979.91445 513.73951 979.93945 518.89453 z "
     id="path977" />
  <path
     style="fill:url(#linearGradient987);fill-opacity:1;stroke-width:0.99387908"
     d="M 529.23242 46.048828 C 523.01913 45.827949 516.88405 45.521484 510.50781 45.521484 C 501.20718 45.521484 492.00675 45.769105 482.75586 46.265625 C 365.03081 52.323165 263.61779 97.854077 178.51953 182.80859 C 86.839551 274.33372 41 384.81021 41 514.23633 C 41 643.67901 86.856131 754.20432 178.51953 845.71289 C 234.92013 901.96857 298.43386 940.94405 368.61133 962.44336 C 405.16727 973.61505 443.01682 980.17048 482.75586 982.25586 L 483.15234 982.25586 C 491.60746 982.70273 499.66516 982.95117 507.52344 982.95117 L 510.50781 982.95117 C 520.75342 982.95117 530.89991 982.65277 540.44922 982.15625 C 542.93601 982.00729 545.17294 981.85793 547.36133 981.70898 C 567.45466 980.26907 587.05123 977.68709 605.75195 974.0625 C 609.47244 973.33834 613.04221 972.45798 616.70312 971.65625 C 616.49395 970.83542 616.26524 970.07728 616.05859 969.24805 C 614.79291 964.16898 613.57485 958.93323 612.40234 953.55664 C 610.05732 942.80347 607.89563 931.48525 605.90234 919.72656 C 603.90906 907.96788 602.08353 895.76815 600.41406 883.25 C 598.7446 870.73185 597.23098 857.89483 595.85742 844.86328 C 594.48386 831.83173 593.25205 818.60554 592.14648 805.30664 C 591.04092 792.00774 590.0608 778.63659 589.19531 765.31641 C 588.32982 751.99622 587.57715 738.72823 586.92383 725.63281 C 586.2705 712.53739 585.71712 699.61483 585.24805 686.99023 C 584.3099 661.74103 583.71239 637.68059 583.34375 615.79102 C 582.97511 593.90144 582.83495 574.18259 582.8125 557.62109 C 582.76761 524.49809 583.19141 504 583.19141 504 L 440 504 C 440 488.86301 440.27067 473.9642 440.78711 459.32031 C 441.30355 444.67642 442.06502 430.28793 443.04492 416.16797 C 444.02482 402.04801 445.22484 388.19801 446.61523 374.63281 C 448.00563 361.06762 449.58801 347.78624 451.33594 334.80664 C 453.08386 321.82704 454.99634 309.14832 457.04883 296.78516 C 459.10131 284.42199 461.29358 272.37411 463.59766 260.6582 C 465.90173 248.9423 468.31762 237.55929 470.82031 226.52148 C 473.323 215.48368 475.91221 204.79177 478.56055 194.46289 C 481.20889 184.13401 483.91718 174.16725 486.6582 164.57812 C 489.39922 154.989 492.17239 145.77751 494.95312 136.95898 C 497.73386 128.14046 500.52159 119.71437 503.28906 111.69727 C 506.05654 103.68016 508.80462 96.071564 511.50586 88.886719 C 514.2071 81.701874 516.86131 74.940895 519.44336 68.619141 C 522.02541 62.297387 524.53543 56.416112 526.94531 50.988281 C 527.74391 49.189583 528.4566 47.747106 529.23242 46.048828 z "
     id="path975" />
  <path
     style="fill:url(#linearGradient979);fill-opacity:1;stroke-width:0.99387908"
     d="M 529.23242 46.048828 C 528.4566 47.747106 527.74391 49.189583 526.94531 50.988281 C 524.53543 56.416112 522.02541 62.297387 519.44336 68.619141 C 516.86131 74.940895 514.2071 81.701874 511.50586 88.886719 C 508.80462 96.071564 506.05654 103.68016 503.28906 111.69727 C 500.52159 119.71437 497.73386 128.14046 494.95312 136.95898 C 492.17239 145.77751 489.39922 154.989 486.6582 164.57812 C 483.91718 174.16725 481.20889 184.13401 478.56055 194.46289 C 475.91221 204.79177 473.323 215.48368 470.82031 226.52148 C 468.31762 237.55929 465.90173 248.9423 463.59766 260.6582 C 461.29358 272.37411 459.10131 284.42199 457.04883 296.78516 C 454.99634 309.14832 453.08386 321.82704 451.33594 334.80664 C 449.58801 347.78624 448.00563 361.06762 446.61523 374.63281 C 445.22484 388.19801 444.02482 402.04801 443.04492 416.16797 C 442.06502 430.28793 441.30355 444.67642 440.78711 459.32031 C 440.27067 473.9642 440 488.86301 440 504 L 583.19141 504 C 583.19141 504 582.76761 524.49809 582.8125 557.62109 C 582.83495 574.18259 582.97511 593.90144 583.34375 615.79102 C 583.71239 637.68059 584.3099 661.74103 585.24805 686.99023 C 585.71712 699.61483 586.2705 712.53739 586.92383 725.63281 C 587.57715 738.72823 588.32982 751.99622 589.19531 765.31641 C 590.0608 778.63659 591.04092 792.00774 592.14648 805.30664 C 593.25205 818.60554 594.48386 831.83173 595.85742 844.86328 C 597.23098 857.89483 598.7446 870.73185 600.41406 883.25 C 602.08353 895.76815 603.90906 907.96788 605.90234 919.72656 C 607.89563 931.48525 610.05732 942.80347 612.40234 953.55664 C 613.57485 958.93323 614.79291 964.16898 616.05859 969.24805 C 616.26524 970.07728 616.49395 970.83542 616.70312 971.65625 C 620.8236 970.75387 625.02612 969.92203 629.0293 968.94922 C 709.40264 948.79052 780.37495 907.77785 842.54492 845.71289 C 890.88829 797.45118 926.49932 743.92629 949.32812 685.03906 C 967.6807 637.72073 977.82683 586.92667 979.7168 532.60742 C 979.86529 528.1229 979.9018 523.50374 979.93945 518.89453 C 979.91445 513.73951 979.85524 508.6276 979.75977 503.55859 C 979.02913 465.99862 974.49401 429.91644 965.79102 395.07031 C 964.69683 390.75059 963.4533 386.13439 962.16016 381.56641 C 961.16544 378.19008 960.17127 374.76326 959.02734 371.13867 C 957.43579 366.02451 955.64388 360.7112 953.75391 355.39844 C 947.33797 337.27548 939.67904 319.60055 930.72656 302.12305 C 926.94663 294.77456 922.81922 287.27706 918.49219 279.87891 C 898.29939 245.61906 872.9336 213.14594 842.54492 182.80859 C 770.32828 110.71393 686.22481 66.97054 590.23438 51.677734 C 574.07019 49.095832 557.60813 47.308621 540.44922 46.365234 C 536.83454 46.160625 532.95444 46.181144 529.23242 46.048828 z "
     id="path1" />
  <g
     transform="matrix(0.99471953,0,0,0.99303933,46.35779,-132.9513)"
     style="opacity:1"
     id="g855" />
  <path
     id="path995"
     d="m 520,24 c -0.81444,1.782806 -1.5626,3.29708 -2.40095,5.185304 -2.52982,5.697989 -5.16477,11.871992 -7.87534,18.508398 -2.71057,6.636405 -5.49689,13.733897 -8.33257,21.276352 -2.83569,7.542455 -5.72055,15.529751 -8.62578,23.9459 -2.90521,8.416126 -5.83169,17.261606 -8.75083,26.519056 -2.91915,9.25746 -5.83034,18.92743 -8.70779,28.99383 -2.87745,10.06641 -5.72053,20.52924 -8.50069,31.37222 -2.78016,10.84297 -5.49824,22.06705 -8.1255,33.65423 -2.62725,11.58719 -5.16339,23.53676 -7.58214,35.83581 -2.41876,12.29904 -4.72015,24.94658 -6.87478,37.92509 -2.15465,12.97851 -4.16232,26.28829 -5.99724,39.91392 -1.83493,13.62563 -3.49607,27.56806 -4.95567,41.80843 -1.45959,14.24038 -2.71935,28.77974 -3.74801,43.60249 -1.02868,14.82274 -1.82805,29.92739 -2.37019,45.30015 -0.54215,15.37276 -0.82629,31.01312 -0.82629,46.90352 h 150.31845 c 0,0 -0.44489,21.51834 -0.39777,56.28996 0.0236,17.38582 0.1707,38.08613 0.55769,61.06522 0.387,22.97907 1.01424,48.23707 1.99908,74.743 0.49242,13.25296 1.07335,26.81871 1.75919,40.56592 0.68584,13.74722 1.47597,27.6756 2.38454,41.65878 0.90857,13.98315 1.93748,28.01983 3.09806,41.98065 1.16059,13.96082 2.45372,27.84531 3.89564,41.52549 1.44193,13.68017 3.03088,27.15612 4.78345,40.29733 1.75256,13.14122 3.66894,25.94816 5.76144,38.2921 2.0925,12.34396 4.36179,24.22551 6.82352,35.5139 1.23087,5.6442 2.50956,11.14055 3.83823,16.47241 0.21693,0.87051 0.45703,1.66638 0.67661,2.52807 4.32557,-0.94729 8.73726,-1.82054 12.93969,-2.84177 C 709.1378,971.67371 783.6426,928.61972 848.90695,863.46561 899.6565,812.80178 937.04,756.6128 961.00506,694.79459 c 19.26603,-49.6735 29.91716,-102.99572 31.90121,-160.01859 0.15588,-4.70773 0.1942,-9.5568 0.23372,-14.39543 -0.0262,-5.41159 -0.0884,-10.77793 -0.18862,-16.09924 -0.76701,-39.42945 -5.52785,-77.30753 -14.66402,-113.88806 -1.14865,-4.53472 -2.45407,-9.38068 -3.81157,-14.17602 -1.04423,-3.54438 -2.08788,-7.14177 -3.28875,-10.94676 -1.67077,-5.36871 -3.55187,-10.94647 -5.5359,-16.52366 -6.73528,-19.025 -14.77542,-37.57966 -24.17349,-55.92707 -3.96807,-7.71424 -8.30091,-15.58491 -12.84331,-23.35129 C 907.43648,233.50342 880.80816,199.41401 848.90695,167.56669 773.09588,91.883664 684.80634,45.963046 584.0382,29.909073 567.06947,27.198662 549.78805,25.322496 531.77509,24.332155 527.9805,24.117362 523.90728,24.138902 520,24 Z"
     style="fill:url(#linearGradient997);fill-opacity:1;stroke-width:1.04334724"
     inkscape:connector-curvature="0" />
  <path
     style="fill:url(#linearGradient1001);fill-opacity:1;stroke-width:1.12491405"
     d="M 532.19336 2.4511719 C 525.49619 2.2194402 518.79294 2 512 2 C 503.19723 2 494.47552 2.1948457 485.83398 2.5839844 C 477.19245 2.9731231 468.63069 3.5557334 460.15039 4.3339844 C 451.67009 5.1122354 443.27024 6.0865693 434.95117 7.2539062 C 426.6321 8.4212432 418.39417 9.7814942 410.23633 11.337891 C 402.07849 12.894287 394.00051 14.646367 386.00391 16.591797 C 378.0073 18.537226 370.09123 20.677282 362.25586 23.011719 C 354.42048 25.346155 346.66633 27.874239 338.99219 30.597656 C 331.31804 33.321073 323.72385 36.239192 316.21094 39.351562 C 308.69803 42.463933 301.26574 45.770186 293.91406 49.271484 C 286.56238 52.772783 279.29201 56.469175 272.10156 60.359375 C 264.91112 64.249575 257.8007 68.334207 250.77148 72.613281 C 243.74227 76.892356 236.79376 81.36528 229.92578 86.033203 C 223.0578 90.701126 216.2712 95.564349 209.56445 100.62109 C 202.8577 105.67784 196.23106 110.92946 189.68555 116.375 C 183.14003 121.82054 176.6753 127.46061 170.29102 133.29492 C 163.90673 139.12923 157.60391 145.15781 151.38086 151.38086 C 145.15781 157.60391 139.12923 163.90673 133.29492 170.29102 C 127.46061 176.6753 121.82054 183.14003 116.375 189.68555 C 110.92946 196.23106 105.67784 202.8577 100.62109 209.56445 C 95.564349 216.2712 90.701126 223.0578 86.033203 229.92578 C 81.36528 236.79376 76.892356 243.74227 72.613281 250.77148 C 68.334207 257.8007 64.249575 264.91112 60.359375 272.10156 C 56.469175 279.29201 52.772783 286.56238 49.271484 293.91406 C 45.770186 301.26574 42.463933 308.69803 39.351562 316.21094 C 36.239192 323.72385 33.321073 331.31804 30.597656 338.99219 C 27.874239 346.66633 25.346155 354.42048 23.011719 362.25586 C 20.677282 370.09123 18.537226 378.0073 16.591797 386.00391 C 14.646367 394.00051 12.894287 402.07849 11.337891 410.23633 C 9.7814942 418.39417 8.4212432 426.6321 7.2539062 434.95117 C 6.0865693 443.27024 5.1122354 451.67009 4.3339844 460.15039 C 3.5557334 468.63069 2.9731231 477.19245 2.5839844 485.83398 C 2.1948457 494.47552 2 503.19723 2 512 C 2 520.80277 2.1948457 529.52604 2.5839844 538.16797 C 2.9731231 546.8099 3.5557334 555.37052 4.3339844 563.85156 C 5.1122354 572.3326 6.0865693 580.73263 7.2539062 589.05273 C 8.4212432 597.37283 9.7814942 605.61238 11.337891 613.77148 C 12.894287 621.93059 14.646367 630.00975 16.591797 638.00781 C 18.537226 646.00587 20.677282 653.92281 23.011719 661.75977 C 25.346155 669.59672 27.874239 677.35349 30.597656 685.0293 C 33.321073 692.7051 36.239192 700.29985 39.351562 707.81445 C 42.463933 715.32905 45.770186 722.76385 49.271484 730.11719 C 52.772783 737.47053 56.469175 744.74352 60.359375 751.93555 C 64.249575 759.12758 68.334207 766.23887 72.613281 773.26953 C 76.892356 780.3002 81.36528 787.24989 86.033203 794.11914 C 90.701126 800.98839 95.564349 807.7766 100.62109 814.48438 C 105.67784 821.19215 110.92946 827.81898 116.375 834.36523 C 121.82054 840.91149 127.46061 847.37704 133.29492 853.76172 C 139.12923 860.1464 145.15781 866.45077 151.38086 872.67383 C 157.60391 878.89688 163.90673 884.92585 170.29102 890.75977 C 176.6753 896.59368 183.14003 902.23293 189.68555 907.67773 C 196.23106 913.12254 202.8577 918.37202 209.56445 923.42773 C 216.2712 928.48345 223.0578 933.34506 229.92578 938.01172 C 236.79376 942.67838 243.74227 947.15011 250.77148 951.42773 C 257.8007 955.70536 264.91112 959.78912 272.10156 963.67773 C 279.29201 967.56635 286.56238 971.26013 293.91406 974.75977 C 301.26574 978.2594 308.69803 981.5651 316.21094 984.67578 C 323.72385 987.78646 331.31804 990.70207 338.99219 993.42383 C 346.66633 996.14558 354.42048 998.67301 362.25586 1001.0059 C 370.09123 1003.3387 378.0073 1005.4779 386.00391 1007.4219 C 394.00051 1009.3659 402.07849 1011.1148 410.23633 1012.6699 C 418.39417 1014.2251 426.6321 1015.5856 434.95117 1016.752 C 443.27024 1017.9183 451.67009 1018.8905 460.15039 1019.668 C 468.63069 1020.4455 477.19245 1021.0273 485.83398 1021.416 C 494.47552 1021.8048 503.19723 1022 512 1022 C 520.80277 1022 529.52604 1021.8048 538.16797 1021.416 C 546.8099 1021.0273 555.37052 1020.4455 563.85156 1019.668 C 572.3326 1018.8905 580.73263 1017.9183 589.05273 1016.752 C 597.37283 1015.5856 605.61238 1014.2251 613.77148 1012.6699 C 620.87786 1011.3154 627.89665 1009.7491 634.88086 1008.0996 C 632.33107 996.30266 629.95437 983.97321 627.77539 971.11914 C 625.51931 957.81017 623.45207 944.0006 621.5625 929.83203 C 619.67294 915.66346 617.96091 901.13441 616.40625 886.38477 C 614.8516 871.63511 613.45642 856.66552 612.20508 841.61328 C 610.95376 826.56103 609.84482 811.42594 608.86523 796.34961 C 607.88563 781.27326 607.03438 766.25749 606.29492 751.43555 C 605.55545 736.6136 604.92936 721.98632 604.39844 707.69727 C 603.33661 679.11917 602.65943 651.88686 602.24219 627.11133 C 601.82494 602.33579 601.66602 580.01647 601.64062 561.27148 C 601.58983 523.78147 602.07031 500.58203 602.07031 500.58203 L 440 500.58203 C 440 483.44935 440.30609 466.58629 440.89062 450.01172 C 441.47515 433.43716 442.33818 417.15148 443.44727 401.16992 C 444.55637 385.18835 445.91459 369.51186 447.48828 354.1582 C 449.062 338.80455 450.8517 323.7729 452.83008 309.08203 C 454.80845 294.39118 456.97379 280.04003 459.29688 266.04688 C 461.61996 252.05374 464.10112 238.41682 466.70898 225.15625 C 469.31683 211.89571 472.05016 199.01258 474.88281 186.51953 C 477.71545 174.02648 480.64703 161.92503 483.64453 150.23438 C 486.64202 138.5437 489.70815 127.26355 492.81055 116.41016 C 495.91296 105.55679 499.05187 95.129609 502.19922 85.148438 C 505.34658 75.167265 508.50046 65.630731 511.63281 56.556641 C 514.76515 47.482539 517.87622 38.870388 520.93359 30.738281 C 523.99097 22.606172 526.9955 14.954054 529.91797 7.7988281 C 530.70115 5.8813193 531.4225 4.2967892 532.19336 2.4511719 z "
     id="path1035" />
  <circle
     style="opacity:0.2;fill:none;fill-opacity:1;fill-rule:evenodd;stroke:url(#linearGradient1047);stroke-width:62.4;stroke-linejoin:round;stroke-miterlimit:4;stroke-dasharray:none;stroke-opacity:1;paint-order:stroke markers fill;stroke-linecap:round"
     id="path1039"
     cx="511.04907"
     cy="512.95093"
     r="478.04907" />
  <g
     id="g847"
     transform="matrix(0.99471953,0,0,0.99303933,1.2112188,5.849299)">
    <path
       sodipodi:nodetypes="cc"
       inkscape:connector-curvature="0"
       id="path3873"
       d="m 300.3749,327.24923 v 73.69229"
       style="fill:none;fill-opacity:1;stroke:url(#linearGradient891);stroke-width:56.44649124;stroke-linecap:round;stroke-linejoin:miter;stroke-miterlimit:4;stroke-dasharray:none;stroke-opacity:1" />
    <path
       sodipodi:nodetypes="cc"
       inkscape:connector-curvature="0"
       id="path3873-4"
       d="m 762.81681,327.24923 v 73.69229"
       style="fill:none;stroke:url(#linearGradient899);stroke-width:56.44649124;stroke-linecap:round;stroke-linejoin:miter;stroke-miterlimit:4;stroke-dasharray:none;stroke-opacity:1" />
    <path
       sodipodi:nodetypes="ccc"
       inkscape:connector-curvature="0"
       id="path3893"
       d="m 254.98867,782.39731 c 0,0 117.19571,93.01478 326.55434,36.91731 C 778.18902,766.62348 843.24149,622.4836 843.24149,622.4836"
       style="color:#000000;display:inline;overflow:visible;visibility:visible;fill:none;stroke:url(#linearGradient915);stroke-width:47.36750793;stroke-linecap:round;stroke-linejoin:miter;stroke-miterlimit:4;stroke-dasharray:none;stroke-dashoffset:0;stroke-opacity:1;marker:none;enable-background:accumulate" />
  </g>
  <path
     style="opacity:0.2;fill:#100000;fill-opacity:1;stroke-width:1.04334724;filter:url(#filter1103)"
     d="M 500 44 C 499.18556 45.782806 498.43796 47.297323 497.59961 49.185547 C 495.06979 54.883536 492.43518 61.056959 489.72461 67.693359 C 487.01404 74.329769 484.2263 81.428253 481.39062 88.970703 C 478.55494 96.513163 475.67085 104.49988 472.76562 112.91602 C 469.86041 121.33215 466.93281 130.1781 464.01367 139.43555 C 461.09452 148.69301 458.18409 158.36329 455.30664 168.42969 C 452.42919 178.4961 449.5868 188.9578 446.80664 199.80078 C 444.02648 210.64375 441.30695 221.8679 438.67969 233.45508 C 436.05244 245.04227 433.51641 256.99197 431.09766 269.29102 C 428.6789 281.59006 426.37729 294.23829 424.22266 307.2168 C 422.06801 320.19531 420.06148 333.50523 418.22656 347.13086 C 416.39163 360.75649 414.73108 374.69908 413.27148 388.93945 C 411.81189 403.17983 410.5521 417.71827 409.52344 432.54102 C 408.49476 447.36376 407.69448 462.46904 407.15234 477.8418 C 406.61019 493.21456 406.32617 508.85374 406.32617 524.74414 L 556.64453 524.74414 C 556.64453 524.74414 556.19897 546.26354 556.24609 581.03516 C 556.26969 598.42098 556.4177 619.12052 556.80469 642.09961 C 557.19169 665.07868 557.81789 690.33782 558.80273 716.84375 C 559.29515 730.09671 559.87666 743.66099 560.5625 757.4082 C 561.24834 771.15542 562.0387 785.08518 562.94727 799.06836 C 563.85584 813.05151 564.88434 827.08801 566.04492 841.04883 C 567.20551 855.00965 568.49949 868.89404 569.94141 882.57422 C 571.38334 896.25439 572.97204 909.72988 574.72461 922.87109 C 576.47717 936.01231 578.39383 948.82017 580.48633 961.16406 C 582.57883 973.50806 584.84686 985.38933 587.30859 996.67773 C 588.53946 1002.3218 589.81977 1007.8185 591.14844 1013.1504 C 591.36537 1014.0209 591.60464 1014.816 591.82422 1015.6777 C 596.14979 1014.7304 600.56124 1013.8571 604.76367 1012.8359 C 689.13742 991.67384 763.6419 948.61895 828.90625 883.46484 C 832.42332 879.95372 835.86915 876.41384 839.25781 872.84961 C 776.32407 932.76216 705.0113 972.70877 624.76367 992.83594 C 620.56124 993.85717 616.14979 994.73044 611.82422 995.67773 C 611.60464 994.81604 611.36537 994.0209 611.14844 993.15039 C 609.81977 987.81853 608.53946 982.32193 607.30859 976.67773 C 604.84686 965.38934 602.57883 953.50802 600.48633 941.16406 C 598.39383 928.82012 596.47717 916.01231 594.72461 902.87109 C 592.97204 889.72988 591.38334 876.25439 589.94141 862.57422 C 588.49949 848.89404 587.20551 835.00965 586.04492 821.04883 C 584.88434 807.08801 583.85584 793.05151 582.94727 779.06836 C 582.0387 765.08518 581.24834 751.15542 580.5625 737.4082 C 579.87666 723.66099 579.29515 710.09671 578.80273 696.84375 C 577.81789 670.33782 577.19169 645.07868 576.80469 622.09961 C 576.4177 599.12052 576.26969 578.42098 576.24609 561.03516 C 576.19897 526.26354 576.64453 504.74414 576.64453 504.74414 L 426.32617 504.74414 C 426.32617 488.85374 426.61019 473.21456 427.15234 457.8418 C 427.69448 442.46904 428.49476 427.36376 429.52344 412.54102 C 430.5521 397.71827 431.81189 383.17983 433.27148 368.93945 C 434.73108 354.69908 436.39163 340.75649 438.22656 327.13086 C 440.06148 313.50523 442.06801 300.19531 444.22266 287.2168 C 446.37729 274.23829 448.6789 261.59006 451.09766 249.29102 C 453.51641 236.99197 456.05244 225.04227 458.67969 213.45508 C 461.30695 201.8679 464.02648 190.64375 466.80664 179.80078 C 469.5868 168.9578 472.42919 158.4961 475.30664 148.42969 C 478.18409 138.36329 481.09452 128.69301 484.01367 119.43555 C 486.93281 110.1781 489.86041 101.33214 492.76562 92.916016 C 495.67086 84.499867 498.55494 76.513158 501.39062 68.970703 C 504.22631 61.428248 507.01404 54.329764 509.72461 47.693359 C 510.20271 46.522795 510.66348 45.446405 511.13672 44.304688 C 507.52393 44.125282 503.69145 44.131229 500 44 z "
     id="path1049" />
</svg>
