<?xml version="1.0" encoding="UTF-8" standalone="no"?>
<!-- Created with Inkscape (http://www.inkscape.org/) -->

<svg
   xmlns:dc="http://purl.org/dc/elements/1.1/"
   xmlns:cc="http://creativecommons.org/ns#"
   xmlns:rdf="http://www.w3.org/1999/02/22-rdf-syntax-ns#"
   xmlns:svg="http://www.w3.org/2000/svg"
   xmlns="http://www.w3.org/2000/svg"
   xmlns:xlink="http://www.w3.org/1999/xlink"
   xmlns:sodipodi="http://sodipodi.sourceforge.net/DTD/sodipodi-0.dtd"
   xmlns:inkscape="http://www.inkscape.org/namespaces/inkscape"
   width="1024"
   height="1024"
   id="svg2"
   version="1.1"
   inkscape:version="0.92.4 (5da689c313, 2019-01-14)"
   sodipodi:docname="slingscold2.svg">
  <defs
     id="defs4">
    <linearGradient
       id="linearGradient851">
      <stop
         id="stop847"
         offset="0"
         style="stop-color:#c7dde2;stop-opacity:1" />
      <stop
         id="stop849"
         offset="1"
         style="stop-color:#7a7a7a;stop-opacity:1" />
    </linearGradient>
    <linearGradient
       id="linearGradient10271">
      <stop
         style="stop-color:#cbe2e7;stop-opacity:1;"
         offset="0"
         id="stop10273" />
      <stop
         style="stop-color:#797979;stop-opacity:1;"
         offset="1"
         id="stop10275" />
    </linearGradient>
    <inkscape:perspective
       sodipodi:type="inkscape:persp3d"
       inkscape:vp_x="13.534465 : 111.04854 : 1"
       inkscape:vp_y="0 : 1000 : 0"
       inkscape:vp_z="213.53447 : 111.04854 : 1"
       inkscape:persp3d-origin="113.53447 : 77.71521 : 1"
       id="perspective3135" />
    <linearGradient
       id="linearGradient4829">
      <stop
         style="stop-color:#f4fbfc;stop-opacity:1;"
         offset="0"
         id="stop4831" />
      <stop
         style="stop-color:#d6d6d6;stop-opacity:1;"
         offset="1"
         id="stop4833" />
    </linearGradient>
    <clipPath
       clipPathUnits="userSpaceOnUse"
       id="clipPath4282">
      <rect
         style="color:#000000;display:inline;overflow:visible;visibility:visible;fill:#4d4d4d;fill-opacity:1;fill-rule:nonzero;stroke:none;stroke-width:9.13434315;marker:none;enable-background:accumulate"
         id="rect4284"
         width="246.875"
         height="234.375"
         x="462.5"
         y="1646.1122"
         ry="17"
         rx="17" />
    </clipPath>
    <linearGradient
       inkscape:collect="always"
       xlink:href="#linearGradient851"
       id="linearGradient4835"
       x1="102.29776"
       y1="-0.42686829"
       x2="102.29776"
       y2="199.16539"
       gradientUnits="userSpaceOnUse"
       gradientTransform="matrix(5.1,0,0,5.1,2,30.362177)" />
    <linearGradient
       inkscape:collect="always"
       xlink:href="#linearGradient5423"
       id="linearGradient5429"
       x1="408.66196"
       y1="44.604382"
       x2="408.66196"
       y2="562.04968"
       gradientUnits="userSpaceOnUse" />
    <linearGradient
       id="linearGradient5423">
      <stop
         style="stop-color:#db8451;stop-opacity:1;"
         offset="0"
         id="stop5425" />
      <stop
         style="stop-color:#c85c29;stop-opacity:1;"
         offset="1"
         id="stop5427" />
    </linearGradient>
    <linearGradient
       inkscape:collect="always"
       xlink:href="#linearGradient10271"
       id="linearGradient5473"
       x1="99.036476"
       y1="-0.50471628"
       x2="99.036476"
       y2="199.83986"
       gradientUnits="userSpaceOnUse"
       gradientTransform="matrix(4.7049998,0,0,4.7049998,40.99999,70.362144)" />
    <linearGradient
       inkscape:collect="always"
       xlink:href="#linearGradient3986"
       id="linearGradient3992"
       x1="78.5625"
       y1="993.6615"
       x2="120.28125"
       y2="993.6615"
       gradientUnits="userSpaceOnUse" />
    <linearGradient
       inkscape:collect="always"
       id="linearGradient3986">
      <stop
         style="stop-color:#000000;stop-opacity:1;"
         offset="0"
         id="stop3988" />
      <stop
         style="stop-color:#000000;stop-opacity:0;"
         offset="1"
         id="stop3990" />
    </linearGradient>
    <linearGradient
       inkscape:collect="always"
       xlink:href="#linearGradient5423-1"
       id="linearGradient5473-2"
       x1="99.036476"
       y1="-0.50471628"
       x2="99.036476"
       y2="199.83986"
       gradientUnits="userSpaceOnUse" />
    <linearGradient
       id="linearGradient5423-1">
      <stop
         style="stop-color:#51b9db;stop-opacity:1;"
         offset="0"
         id="stop5425-2" />
      <stop
         style="stop-color:#2fabd4;stop-opacity:1;"
         offset="1"
         id="stop5427-3" />
    </linearGradient>
    <linearGradient
       y2="199.83986"
       x2="99.036476"
       y1="-0.50471628"
       x1="99.036476"
       gradientUnits="userSpaceOnUse"
       id="linearGradient4119"
       xlink:href="#linearGradient5423-1"
       inkscape:collect="always" />
    <linearGradient
       inkscape:collect="always"
       xlink:href="#linearGradient4829"
       id="linearGradient4159"
       x1="100"
       y1="852.36218"
       x2="100"
       y2="1052.3622"
       gradientUnits="userSpaceOnUse" />
    <linearGradient
       inkscape:collect="always"
       xlink:href="#linearGradient10271"
       id="linearGradient10277"
       x1="-1130.8994"
       y1="763.31989"
       x2="-1130.8994"
       y2="823.06317"
       gradientUnits="userSpaceOnUse" />
  </defs>
  <sodipodi:namedview
     id="base"
     pagecolor="#ffffff"
     bordercolor="#666666"
     borderopacity="1.0"
     inkscape:pageopacity="0.0"
     inkscape:pageshadow="2"
     inkscape:zoom="0.7109375"
     inkscape:cx="512"
     inkscape:cy="512"
     inkscape:document-units="px"
     inkscape:current-layer="layer1"
     showgrid="false"
     inkscape:window-width="1920"
     inkscape:window-height="944"
     inkscape:window-x="0"
     inkscape:window-y="25"
     inkscape:window-maximized="1"
     inkscape:snap-from-guide="true"
     showguides="true"
     inkscape:guide-bbox="true"
     inkscape:pagecheckerboard="true">
    <sodipodi:guide
       position="200,0"
       orientation="-200,0"
       id="guide3766"
       inkscape:locked="false" />
    <sodipodi:guide
       position="0,200"
       orientation="200,0"
       id="guide3127"
       inkscape:locked="false" />
    <sodipodi:guide
       position="0,-2.6171874e-06"
       orientation="0,100"
       id="guide3129"
       inkscape:locked="false" />
    <sodipodi:guide
       position="100,-2.6171874e-06"
       orientation="-200,0"
       id="guide3131"
       inkscape:locked="false" />
    <sodipodi:guide
       position="100,200"
       orientation="0,-100"
       id="guide3133"
       inkscape:locked="false" />
  </sodipodi:namedview>
  <metadata
     id="metadata7">
    <rdf:RDF>
      <cc:Work
         rdf:about="">
        <dc:format>image/svg+xml</dc:format>
        <dc:type
           rdf:resource="http://purl.org/dc/dcmitype/StillImage" />
        <dc:title />
      </cc:Work>
    </rdf:RDF>
  </metadata>
  <g
     inkscape:label="Layer 1"
     inkscape:groupmode="layer"
     id="layer1"
     transform="translate(0,-28.36218)">
    <circle
       style="color:#000000;display:inline;overflow:visible;visibility:visible;fill:url(#linearGradient4835);fill-opacity:1;fill-rule:nonzero;stroke:none;stroke-width:46.58515167;marker:none;enable-background:accumulate"
       id="path4188"
       cx="512"
       cy="540.36218"
       r="510" />
    <circle
       style="color:#000000;display:inline;overflow:visible;visibility:visible;fill:url(#linearGradient5473);fill-opacity:1;fill-rule:nonzero;stroke:none;stroke-width:42.97708511;marker:none;enable-background:accumulate"
       id="path4188-6"
       cx="511.5"
       cy="540.86218"
       r="470.5" />
    <path
       inkscape:connector-curvature="0"
       style="fill:#44494c;fill-opacity:1;stroke:none;stroke-width:5.0999999"
       d="m 785.45445,251.2521 c -218.21707,0 -370.91552,201.28706 -370.91552,201.28706 -157.66087,20.882 -252.31908,129.4663 -252.31908,129.4663 43.85449,-1.04478 87.48975,-9.45009 156.39985,-9.45009 68.9101,0 11.34011,63.78814 11.34011,63.78814 20.88245,41.76401 80.79908,88.83093 80.79908,88.83093 28.18699,-30.27885 60.48062,-19.84521 60.48062,-19.84521 V 864.09085 C 581.91453,769.0779 585.11242,627.83845 585.11242,627.83845 787.66806,495.23804 785.45445,251.2521 785.45445,251.2521 Z M 606.84766,376.46588 c 35.17552,0 63.78738,28.61309 63.78738,63.78814 0,35.17511 -28.61186,63.78815 -63.78738,63.78815 -35.17557,0 -63.78743,-28.61304 -63.78743,-63.78815 0,-35.17505 28.61186,-63.78814 63.78743,-63.78814 z M 299.7195,679.34146 c 0,0 -67.56743,64.65607 -67.56894,125.21402 61.60253,0 88.57235,-8.5272 126.15955,-68.04093 0,0 -21.65056,17.95516 -62.37064,17.95516 0,0 -10.83813,-23.96739 3.78003,-75.12825 z"
       id="path9721" />
    <path
       inkscape:connector-curvature="0"
       style="opacity:0.46231157;fill:#292b2a;fill-opacity:1;stroke:none;stroke-width:5.0999999"
       d="m 784.9827,251.2521 c -1.72522,32.65167 -19.83308,248.88953 -206.95861,371.38878 0,0 -4.23061,139.82135 -106.78458,234.83475 v 6.61522 C 581.91453,769.07733 585.11242,627.83845 585.11242,627.83845 787.66806,495.23773 785.45445,251.2521 785.45445,251.2521 c -0.16626,0 -0.31772,0 -0.46869,0 z M 606.84766,369.85082 c -35.17557,0 -63.78743,28.61411 -63.78743,63.78815 0,1.14459 0.408,2.17821 0.46869,3.30755 1.7781,-33.59472 29.28471,-60.48064 63.31563,-60.48064 34.03092,0 61.53752,26.88592 63.31563,60.48064 0,-1.1295 0.46869,-2.16358 0.46869,-3.30755 0,-35.17404 -28.61187,-63.78815 -63.78739,-63.78815 z M 318.6197,565.94031 c -65.4612,0 -108.08491,7.32391 -149.78327,8.97758 -4.02952,4.10621 -6.61658,7.08757 -6.61658,7.08757 43.85449,-1.04326 87.48975,-9.45009 156.39985,-9.45009 23.33795,0 32.07438,7.33252 33.54859,17.01018 1.64357,-12.70604 -5.20435,-23.62524 -33.54859,-23.62524 z m 13.70188,67.56822 c -0.5292,0.61837 -2.36177,2.83498 -2.36177,2.83498 20.88245,41.76339 80.79908,88.83093 80.79908,88.83093 28.18548,-30.27961 60.48062,-19.84521 60.48062,-19.84521 v -6.61506 c 0,0 -32.29514,-10.4344 -60.48062,19.84522 0,0 -55.96876,-44.29676 -78.43731,-85.05086 z m -32.60208,45.83293 c 0,0 -1.56796,2.04668 -1.89002,2.36252 -4.54965,18.75551 -6.07225,33.30606 -5.67005,43.94298 0.24194,-11.70741 2.07902,-27.11966 7.56007,-46.3055 z m 58.59061,57.17309 c 0,0 -3.42775,2.11273 -8.03184,4.72505 -33.58034,48.47336 -60.82989,56.65733 -117.65445,56.70068 -0.16631,2.21289 -0.46874,4.40945 -0.46874,6.6152 61.60405,0 88.57235,-8.52821 126.15954,-68.04093 z"
       id="path9721-8" />
  </g>
</svg>
