<?xml version="1.0" encoding="UTF-8" standalone="no"?>
<svg
   xmlns:dc="http://purl.org/dc/elements/1.1/"
   xmlns:cc="http://creativecommons.org/ns#"
   xmlns:rdf="http://www.w3.org/1999/02/22-rdf-syntax-ns#"
   xmlns:svg="http://www.w3.org/2000/svg"
   xmlns="http://www.w3.org/2000/svg"
   xmlns:sodipodi="http://sodipodi.sourceforge.net/DTD/sodipodi-0.dtd"
   xmlns:inkscape="http://www.inkscape.org/namespaces/inkscape"
   height="48"
   viewBox="0 0 48 48"
   width="48"
   version="1.1"
   id="svg74"
   sodipodi:docname="system-lock-screen.svg"
   inkscape:version="0.92.4 5da689c313, 2019-01-14">
  <metadata
     id="metadata80">
    <rdf:RDF>
      <cc:Work
         rdf:about="">
        <dc:format>image/svg+xml</dc:format>
        <dc:type
           rdf:resource="http://purl.org/dc/dcmitype/StillImage" />
      </cc:Work>
    </rdf:RDF>
  </metadata>
  <defs
     id="defs78" />
  <sodipodi:namedview
     pagecolor="#ffffff"
     bordercolor="#666666"
     borderopacity="1"
     objecttolerance="10"
     gridtolerance="10"
     guidetolerance="10"
     inkscape:pageopacity="0"
     inkscape:pageshadow="2"
     inkscape:window-width="640"
     inkscape:window-height="480"
     id="namedview76"
     showgrid="false"
     inkscape:zoom="4.9166667"
     inkscape:cx="24"
     inkscape:cy="24"
     inkscape:window-x="0"
     inkscape:window-y="32"
     inkscape:window-maximized="0"
     inkscape:current-layer="svg74" />
  <linearGradient
     id="a"
     gradientUnits="userSpaceOnUse"
     x1="399.57144"
     x2="399.57144"
     y1="545.79797"
     y2="517.79797">
    <stop
       offset="0"
       stop-color="#e6e6e6"
       id="stop30" />
    <stop
       offset="1"
       stop-color="#cccccc"
       id="stop32" />
  </linearGradient>
  <linearGradient
     id="b"
     gradientUnits="userSpaceOnUse"
     x1="15.883406"
     x2="14.337673"
     y1="55.641636"
     y2="-7.895216">
    <stop
       offset="0"
       stop-color="#cccccc"
       id="stop35" />
    <stop
       offset="1"
       stop-color="#aaaaaa"
       id="stop37" />
  </linearGradient>
  <g
     stroke-width="1.3"
     transform="matrix(1.6428582 0 0 1.6428582 -634.082028260334 -849.668606204923)"
     id="g70">
    <circle
       cx="400.57144"
       cy="531.79797"
       fill="none"
       r="13.999958"
       id="circle66" />
    <circle
       cx="400.57138"
       cy="531.79791"
       fill="url(#a)"
       r="0"
       id="circle68" />
  </g>
  <path
     d="m299.022 161.265h-185.845v-46.285c0-41.344 33.635-74.979 74.979-74.979 33.758 0 63.513 22.716 72.359 55.241 2.898 10.657 13.888 16.946 24.547 14.05 10.659-2.898 16.949-13.889 14.05-24.548-13.57-49.896-59.196-84.744-110.956-84.744-63.4 0-114.979 51.58-114.979 114.979v46.715c-9.061 1.902-15.888 9.952-15.888 19.571v175.047c0 11.028 8.972 20 20 20h221.733c11.028 0 20-8.972 20-20v-175.047c0-11.029-8.972-20-20-20zm-84.004 149.647c.408 2.162-1.058 3.931-3.258 3.931h-46.677c-2.2 0-3.666-1.769-3.258-3.931l7.432-39.387c-5.626-5.131-9.157-12.52-9.157-20.734 0-15.495 12.561-28.056 28.056-28.056s28.056 12.561 28.056 28.056c0 7.991-3.346 15.195-8.707 20.305zm306.87114-119.00361a330.80311 330.80311 0 0 1 -330.80317 330.80316 330.80311 330.80311 0 0 1 -330.80316-330.80316 330.80311 330.80311 0 0 1 330.80316-330.80316 330.80311 330.80311 0 0 1 330.80317 330.80316z"
     fill="url(#b)"
     transform="matrix(.069527597479 0 0 .069527597479 10.714198228825 10.657022258799)"
     id="path72"
     style="fill:#e6e6e6" />
</svg>
