<?xml version="1.0" encoding="UTF-8" standalone="no"?>
<svg
   xmlns:dc="http://purl.org/dc/elements/1.1/"
   xmlns:cc="http://creativecommons.org/ns#"
   xmlns:rdf="http://www.w3.org/1999/02/22-rdf-syntax-ns#"
   xmlns:svg="http://www.w3.org/2000/svg"
   xmlns="http://www.w3.org/2000/svg"
   xmlns:xlink="http://www.w3.org/1999/xlink"
   xmlns:sodipodi="http://sodipodi.sourceforge.net/DTD/sodipodi-0.dtd"
   xmlns:inkscape="http://www.inkscape.org/namespaces/inkscape"
   height="48"
   width="48"
   version="1.1"
   id="svg145"
   sodipodi:docname="system-restart.svg"
   inkscape:version="0.92.4 5da689c313, 2019-01-14">
  <metadata
     id="metadata151">
    <rdf:RDF>
      <cc:Work
         rdf:about="">
        <dc:format>image/svg+xml</dc:format>
        <dc:type
           rdf:resource="http://purl.org/dc/dcmitype/StillImage" />
      </cc:Work>
    </rdf:RDF>
  </metadata>
  <defs
     id="defs149" />
  <sodipodi:namedview
     pagecolor="#ffffff"
     bordercolor="#666666"
     borderopacity="1"
     objecttolerance="10"
     gridtolerance="10"
     guidetolerance="10"
     inkscape:pageopacity="0"
     inkscape:pageshadow="2"
     inkscape:window-width="640"
     inkscape:window-height="480"
     id="namedview147"
     showgrid="false"
     inkscape:zoom="4.9166667"
     inkscape:cx="24"
     inkscape:cy="24"
     inkscape:window-x="0"
     inkscape:window-y="32"
     inkscape:window-maximized="0"
     inkscape:current-layer="svg145" />
  <linearGradient
     id="a"
     gradientUnits="userSpaceOnUse"
     x1="399.57144"
     x2="399.57144"
     y1="545.79797"
     y2="517.79797">
    <stop
       offset="0"
       stop-color="#e6e6e6"
       id="stop125" />
    <stop
       offset="1"
       stop-color="#cccccc"
       id="stop127" />
  </linearGradient>
  <linearGradient
     id="b"
     gradientUnits="userSpaceOnUse"
     x1="274.25348"
     x2="271.00607"
     xlink:href="#d"
     y1="555.45978"
     y2="7.880092" />
  <linearGradient
     id="c"
     gradientUnits="userSpaceOnUse"
     x1="287.5155"
     x2="281.45969"
     xlink:href="#d"
     y1="711.76459"
     y2="-158.68048" />
  <linearGradient
     id="d">
    <stop
       offset="0"
       stop-color="#cccccc"
       id="stop132" />
    <stop
       offset="1"
       stop-color="#aaaaaa"
       id="stop134" />
  </linearGradient>
  <g
     stroke-width="1.3"
     transform="matrix(1.6383893 0 0 1.6383893 -632.272255549686 -847.229487736137)"
     id="g141">
    <circle
       cx="400.57144"
       cy="531.79797"
       fill="none"
       r="13.999958"
       id="circle137" />
    <circle
       cx="400.57138"
       cy="531.79791"
       fill="url(#a)"
       r="0"
       id="circle139" />
  </g>
  <path
     d="m506.367 293.097h-43.836c-11.092 0-20.043 8.874-20.426 19.813-9.104 84.609-80.707 150.476-167.84 150.476-93.253 0-168.759-75.429-168.759-168.529 0-92.258 76.041-167.229 168.071-168.529v27.387c0 12.47 8.874 18.054 19.737 12.47l140.684-71.986c10.863-5.585 10.863-14.612 0-20.196l-140.684-71.835c-10.863-5.584-19.737 0-19.737 12.393v27.616c-138.695 1.301-252.45 114.062-252.45 252.833 0 139.612 113.296 252.832 253.139 252.832 133.723 0 243.27-103.504 252.449-234.778.076-11.016-9.18-19.967-20.348-19.967zm206.44088-17.84639a433.48605 433.48605 0 0 1 -433.48611 433.48611 433.48605 433.48605 0 0 1 -433.48612-433.48611 433.48605 433.48605 0 0 1 433.48612-433.48612 433.48605 433.48605 0 0 1 433.48611 433.48612z"
     fill="url(#b)"
     stroke="url(#c)"
     transform="matrix(.052852958487 0 0 .052852958487 9.217373205195 9.389644933513)"
     id="path143"
     style="fill:#e6e6e6" />
</svg>
