<?xml version="1.0" encoding="UTF-8" standalone="no"?>
<!-- Generator: flash2svg, http://dissentgraphics.com/tools/flash2svg -->

<svg
   xmlns:dc="http://purl.org/dc/elements/1.1/"
   xmlns:cc="http://creativecommons.org/ns#"
   xmlns:rdf="http://www.w3.org/1999/02/22-rdf-syntax-ns#"
   xmlns:svg="http://www.w3.org/2000/svg"
   xmlns="http://www.w3.org/2000/svg"
   xmlns:xlink="http://www.w3.org/1999/xlink"
   xmlns:sodipodi="http://sodipodi.sourceforge.net/DTD/sodipodi-0.dtd"
   xmlns:inkscape="http://www.inkscape.org/namespaces/inkscape"
   id="SimpleNote"
   image-rendering="optimizeSpeed"
   version="1.1"
   style="background-color:#ffffff"
   x="0px"
   y="0px"
   width="1024px"
   height="1024px"
   viewBox="0 0 1024 1024"
   enable-background="new 0 0 1024 1024"
   sodipodi:docname="text-editor.svg"
   inkscape:version="0.92.4 (5da689c313, 2019-01-14)">
  <metadata
     id="metadata42">
    <rdf:RDF>
      <cc:Work
         rdf:about="">
        <dc:format>image/svg+xml</dc:format>
        <dc:type
           rdf:resource="http://purl.org/dc/dcmitype/StillImage" />
        <dc:title />
      </cc:Work>
    </rdf:RDF>
  </metadata>
  <sodipodi:namedview
     pagecolor="#ffffff"
     bordercolor="#666666"
     borderopacity="1"
     objecttolerance="10"
     gridtolerance="10"
     guidetolerance="10"
     inkscape:pageopacity="0"
     inkscape:pageshadow="2"
     inkscape:window-width="1920"
     inkscape:window-height="944"
     id="namedview40"
     showgrid="true"
     inkscape:pagecheckerboard="true"
     inkscape:zoom="0.7109375"
     inkscape:cx="512"
     inkscape:cy="512"
     inkscape:window-x="0"
     inkscape:window-y="25"
     inkscape:window-maximized="1"
     inkscape:current-layer="SimpleNote">
    <inkscape:grid
       type="xygrid"
       id="grid857" />
  </sodipodi:namedview>
  <defs
     transform="matrix(1 0 0 1 0 0) "
     id="defs2">
    <linearGradient
       id="linearGradient869"
       inkscape:collect="always">
      <stop
         style="stop-color:#16ded3;stop-opacity:1"
         offset="0"
         id="stop863" />
      <stop
         style="stop-color:#d39380;stop-opacity:1"
         offset="1"
         id="stop867" />
    </linearGradient>
    <linearGradient
       inkscape:collect="always"
       id="linearGradient888">
      <stop
         id="stop886"
         offset="0"
         style="stop-color:#14bdcb;stop-opacity:1" />
      <stop
         style="stop-color:#89a39d;stop-opacity:1;"
         offset="0.45901641"
         id="stop852" />
      <stop
         id="stop882"
         offset="1"
         style="stop-color:#ff8a6f;stop-opacity:1" />
    </linearGradient>
    <linearGradient
       inkscape:collect="always"
       id="linearGradient911">
      <stop
         style="stop-color:#ffffff;stop-opacity:1;"
         offset="0"
         id="stop907" />
      <stop
         style="stop-color:#d7d7d7;stop-opacity:1"
         offset="1"
         id="stop909" />
    </linearGradient>
    <linearGradient
       inkscape:collect="always"
       xlink:href="#linearGradient869"
       id="linearGradient855"
       x1="520.03137"
       y1="2.0078433"
       x2="519.31427"
       y2="1024"
       gradientUnits="userSpaceOnUse"
       gradientTransform="matrix(0.99609375,0,0,0.99609375,2,2)" />
    <linearGradient
       inkscape:collect="always"
       xlink:href="#linearGradient911"
       id="linearGradient995"
       x1="218.7718"
       y1="-271.72171"
       x2="218.7718"
       y2="766.82446"
       gradientUnits="userSpaceOnUse"
       gradientTransform="translate(21.417001,-32.203861)" />
    <filter
       inkscape:collect="always"
       style="color-interpolation-filters:sRGB"
       id="filter1015"
       x="-0.03599975"
       width="1.0719995"
       y="-0.03600025"
       height="1.0720005">
      <feGaussianBlur
         inkscape:collect="always"
         stdDeviation="7.2782306"
         id="feGaussianBlur1017" />
    </filter>
    <linearGradient
       inkscape:collect="always"
       xlink:href="#linearGradient888"
       id="linearGradient854"
       gradientUnits="userSpaceOnUse"
       gradientTransform="matrix(0.99682199,0,0,0.99682199,1.971278,1.1832775)"
       x1="519.6803"
       y1="-37.301823"
       x2="519.6803"
       y2="1186.5876" />
    <radialGradient
       inkscape:collect="always"
       xlink:href="#linearGradient4657"
       id="radialGradient6921"
       cx="100"
       cy="82.38073"
       fx="100"
       fy="82.38073"
       r="100"
       gradientUnits="userSpaceOnUse"
       gradientTransform="matrix(4.705,0,0,3.533613,-1364.1868,145.14405)" />
    <linearGradient
       id="linearGradient4657">
      <stop
         id="stop4653"
         offset="0"
         style="stop-color:#ffffff;stop-opacity:1" />
      <stop
         id="stop4655"
         offset="1"
         style="stop-color:#ffffff;stop-opacity:0;" />
    </linearGradient>
    <radialGradient
       inkscape:collect="always"
       xlink:href="#linearGradient4657"
       id="radialGradient6921-3"
       cx="100"
       cy="82.38073"
       fx="100"
       fy="82.38073"
       r="100"
       gradientUnits="userSpaceOnUse"
       gradientTransform="matrix(4.705,0,0,3.533613,40.99998,118.41875)" />
  </defs>
  <path
     id="path"
     d="m 984.88455,316.75212 q -9.29236,-22.5286 -20.9619,-44.13877 c -4.37603,-8.15784 -9.02221,-16.26166 -13.93853,-24.20339 C 928.86017,214.15784 903.09004,181.79661 872.67373,151.38029 773.10487,51.811441 652.84428,2 512,2 371.15572,2 250.94915,51.811441 151.38029,151.38029 51.811441,250.94915 2,371.15572 2,512 2,652.84428 51.811441,773.10487 151.38029,872.67373 250.94915,972.24259 371.15572,1022 512,1022 652.84428,1022 773.10487,972.24259 872.67373,872.67373 927.50953,817.7839 967.27222,756.62712 991.90781,689.25741 1011.9513,634.31356 1022,575.26377 1022,512 c 0,-48.51483 -5.8888,-94.59852 -17.7203,-138.25106 -1.3507,-4.91631 -2.7553,-9.83263 -4.214,-14.69491 -4.43011,-14.37077 -9.50849,-28.4714 -15.18115,-42.30191 z"
     style="fill:url(#linearGradient855);fill-opacity:1;stroke-width:1.08050847"
     inkscape:connector-curvature="0" />
  <path
     inkscape:connector-curvature="0"
     style="opacity:1;fill:url(#linearGradient854);fill-opacity:1;stroke-width:0.996822"
     d="m 968.63945,391.98736 c -1.09651,-4.33619 -2.34254,-8.97141 -3.6384,-13.55679 -0.99683,-3.38919 -1.99365,-6.82823 -3.13999,-10.46663 -1.59492,-5.13363 -3.3892,-10.46663 -5.28316,-15.79962 -6.4295,-18.19201 -14.10503,-35.93544 -23.07643,-53.47951 -3.78792,-7.37648 -7.92474,-14.90249 -12.26091,-22.32882 C 901.00507,241.96564 875.58611,209.36956 845.1332,178.91664 772.76392,106.54736 688.48261,62.637356 592.28929,47.286297 576.09092,44.694559 559.59352,42.90028 542.39834,41.953298 532.72917,41.405046 522.61143,41.106 512.394,41.106 c -9.32028,0 -18.54089,0.249206 -27.81133,0.747616 C 366.60878,47.934231 264.98277,93.638521 179.70465,178.91664 Q 41.894,316.72729 41.894,511.606 c 0,129.93575 45.953496,240.88204 137.81065,332.7392 56.5198,56.46996 120.1669,95.59522 190.49269,117.17642 36.63321,11.21425 74.56229,17.79327 114.38533,19.8866 0.14952,0 0.2492,0 0.39873,0 8.47298,0.44857 16.54724,0.69778 24.42213,0.69778 1.19619,0 2.09333,0 2.99047,0 10.26727,0 20.43485,-0.29905 30.00434,-0.79746 2.49206,-0.14952 4.73491,-0.29904 6.92791,-0.44857 20.13581,-1.44539 39.77321,-4.03713 58.51346,-7.67553 7.92473,-1.54508 15.74978,-3.28952 23.32563,-5.13363 80.54323,-20.23549 151.66647,-61.40424 213.96786,-123.70561 48.44554,-48.44556 84.13178,-102.17427 107.00884,-161.28581 18.39137,-47.49857 28.55895,-98.48602 30.45291,-153.01218 0.19937,-6.03078 0.29905,-12.21108 0.29905,-18.44121 0,-0.64793 0,-1.34572 0,-1.99365 0,-0.34889 0,-0.64794 0,-0.99682 -0.19936,-40.52081 -4.93427,-79.24735 -14.25455,-116.62817 z"
     id="path852" />
  <circle
     style="color:#000000;display:inline;overflow:visible;visibility:visible;opacity:0.2;fill:url(#radialGradient6921-3);fill-opacity:1;fill-rule:nonzero;stroke:none;stroke-width:42.97708511;marker:none;enable-background:accumulate"
     id="path4188-6-4-5"
     cx="511.5"
     cy="512.5"
     r="470.5" />
  <circle
     style="color:#000000;display:inline;overflow:visible;visibility:visible;opacity:0.2;fill:url(#radialGradient6921);fill-opacity:1;fill-rule:nonzero;stroke:none;stroke-width:42.97708511;marker:none;enable-background:accumulate"
     id="path4188-6-4"
     cx="-893.68683"
     cy="539.22528"
     r="470.5" />
  <g
     id="g987"
     transform="matrix(1.1535039,0,0,1.1535039,215.02488,252.23048)">
    <g
       id="g931">
      <path
         style="opacity:0.2;fill:#000000;fill-opacity:1;filter:url(#filter1015)"
         inkscape:connector-curvature="0"
         d="m 488.893,132.38031 -21.445,21.455 L 338.767,25.172331 360.212,3.7153308 c 23.689,-23.6920008 62.104,-23.6920008 85.795,0 l 42.886,42.8970002 c 23.657,23.679 23.657,62.077979 0,85.767979 z m -300.243,257.31 c -5.922,5.922 -5.922,15.513 0,21.436 5.925,5.955 15.521,5.955 21.443,0 l 235.914,-235.849 -21.469,-21.457 z M 81.417001,282.48231 c -5.925,5.927 -5.925,15.514 0,21.44 5.922,5.923 15.518,5.923 21.442999,0 L 338.767,68.055331 317.331,46.612331 Z M 360.184,89.482319 124.298,325.36331 c -11.845,11.822 -11.815,31.041 0,42.886 11.85,11.846 31.038,11.901 42.914,-0.032 l 235.886,-235.837 z M 167.151,432.51431 c -7.253,-7.262 -10.749,-16.465 -12.05,-25.948 -3.083,0.476 -6.188,0.919 -9.36,0.919 -16.202,0 -31.419,-6.333 -42.881,-17.795 -11.461999,-11.491 -17.769999,-26.687 -17.769999,-42.887 0,-2.954 0.443,-5.833 0.859,-8.703 -9.803,-1.335 -18.864,-5.629 -25.972,-12.737 -0.682,-0.677 -0.917,-1.596 -1.538,-2.338 l -37.022,148.133 147.747999,-36.986 c -0.651,-0.593 -1.388,-1.037 -2.014,-1.658 z"
         id="path997" />
      <path
         id="path929"
         d="m 488.893,114.23413 -21.445,21.455 L 338.767,7.0261398 360.212,-14.430861 c 23.689,-23.691999 62.104,-23.691999 85.795,0 l 42.886,42.897001 c 23.657,23.679 23.657,62.077999 0,85.76799 z m -300.243,257.31 c -5.922,5.922 -5.922,15.513 0,21.436 5.925,5.955 15.521,5.955 21.443,0 l 235.914,-235.849 -21.469,-21.457 z M 81.417001,264.33613 c -5.925,5.927 -5.925,15.514 0,21.44 5.922,5.923 15.518,5.923 21.442999,0 L 338.767,49.90914 317.331,28.46614 Z M 360.184,71.33614 124.298,307.21713 c -11.845,11.822 -11.815,31.041 0,42.886 11.85,11.846 31.038,11.901 42.914,-0.032 l 235.886,-235.837 z M 167.151,414.36813 c -7.253,-7.262 -10.749,-16.465 -12.05,-25.948 -3.083,0.476 -6.188,0.919 -9.36,0.919 -16.202,0 -31.419,-6.333 -42.881,-17.795 -11.461999,-11.491 -17.769999,-26.687 -17.769999,-42.887 0,-2.954 0.443,-5.833 0.859,-8.703 -9.803,-1.335 -18.864,-5.629 -25.972,-12.737 -0.682,-0.677 -0.917,-1.596 -1.538,-2.338 l -37.022,148.133 147.747999,-36.986 c -0.651,-0.593 -1.388,-1.037 -2.014,-1.658 z"
         inkscape:connector-curvature="0"
         style="fill:url(#linearGradient995);fill-opacity:1" />
    </g>
    <g
       id="g933" />
    <g
       id="g935" />
    <g
       id="g937" />
    <g
       id="g939" />
    <g
       id="g941" />
    <g
       id="g943" />
    <g
       id="g945" />
    <g
       id="g947" />
    <g
       id="g949" />
    <g
       id="g951" />
    <g
       id="g953" />
    <g
       id="g955" />
    <g
       id="g957" />
    <g
       id="g959" />
    <g
       id="g961" />
  </g>
</svg>
