<?xml version="1.0" encoding="UTF-8" standalone="no"?>
<!-- Generator: flash2svg, http://dissentgraphics.com/tools/flash2svg -->

<svg
   xmlns:osb="http://www.openswatchbook.org/uri/2009/osb"
   xmlns:dc="http://purl.org/dc/elements/1.1/"
   xmlns:cc="http://creativecommons.org/ns#"
   xmlns:rdf="http://www.w3.org/1999/02/22-rdf-syntax-ns#"
   xmlns:svg="http://www.w3.org/2000/svg"
   xmlns="http://www.w3.org/2000/svg"
   xmlns:xlink="http://www.w3.org/1999/xlink"
   xmlns:sodipodi="http://sodipodi.sourceforge.net/DTD/sodipodi-0.dtd"
   xmlns:inkscape="http://www.inkscape.org/namespaces/inkscape"
   id="Gimp"
   image-rendering="optimizeSpeed"
   version="1.1"
   style="background-color:#ffffff"
   x="0px"
   y="0px"
   width="1024px"
   height="1024px"
   viewBox="0 0 1024 1024"
   enable-background="new 0 0 1024 1024"
   sodipodi:docname="gimp.svg"
   inkscape:version="0.92.4 (5da689c313, 2019-01-14)">
  <metadata
     id="metadata58">
    <rdf:RDF>
      <cc:Work
         rdf:about="">
        <dc:format>image/svg+xml</dc:format>
        <dc:type
           rdf:resource="http://purl.org/dc/dcmitype/StillImage" />
        <dc:title />
      </cc:Work>
    </rdf:RDF>
  </metadata>
  <sodipodi:namedview
     pagecolor="#ffffff"
     bordercolor="#666666"
     borderopacity="1"
     objecttolerance="10"
     gridtolerance="10"
     guidetolerance="10"
     inkscape:pageopacity="0"
     inkscape:pageshadow="2"
     inkscape:window-width="1920"
     inkscape:window-height="944"
     id="namedview56"
     showgrid="true"
     inkscape:zoom="0.7109375"
     inkscape:cx="512"
     inkscape:cy="512"
     inkscape:window-x="0"
     inkscape:window-y="25"
     inkscape:window-maximized="1"
     inkscape:current-layer="Gimp"
     inkscape:pagecheckerboard="true">
    <inkscape:grid
       type="xygrid"
       id="grid868" />
  </sodipodi:namedview>
  <defs
     transform="matrix(1 0 0 1 0 0) "
     id="defs2">
    <linearGradient
       id="linearGradient947"
       gradientUnits="userSpaceOnUse"
       x1="33"
       y1="7.333"
       x2="33"
       y2="48.752"
       spreadMethod="reflect"
       gradientTransform="matrix(11.945463,0,0,11.945463,-90.813337,-107.26611)">
      <stop
         offset="0"
         style="stop-color:#1aaaff;stop-opacity:1"
         id="stop943" />
      <stop
         offset="1"
         style="stop-color:#c84bff;stop-opacity:1"
         id="stop945" />
    </linearGradient>
    <linearGradient
       id="linear0"
       gradientUnits="userSpaceOnUse"
       x1="27.5"
       y1="7.333"
       x2="27.5"
       y2="48.752"
       spreadMethod="reflect"
       gradientTransform="matrix(11.945463,0,0,11.945463,-90.813337,-107.26611)">
      <stop
         offset="0"
         style="stop-color:#ffffff;stop-opacity:1"
         id="stop912" />
      <stop
         offset="1"
         style="stop-color:#cccccc;stop-opacity:1"
         id="stop914" />
    </linearGradient>
    <linearGradient
       inkscape:collect="always"
       id="linearGradient2681">
      <stop
         style="stop-color:#ac9393;stop-opacity:1"
         offset="0"
         id="stop2677" />
      <stop
         id="stop2685"
         offset="0.49006578"
         style="stop-color:#7a6565;stop-opacity:1;" />
      <stop
         id="stop2683"
         offset="0.88264573"
         style="stop-color:#ac9393;stop-opacity:1" />
      <stop
         style="stop-color:#483737;stop-opacity:1"
         offset="1"
         id="stop2679" />
    </linearGradient>
    <linearGradient
       id="linearGradient2293"
       osb:paint="solid">
      <stop
         style="stop-color:#bcb8a9;stop-opacity:1;"
         offset="0"
         id="stop2291" />
    </linearGradient>
    <linearGradient
       inkscape:collect="always"
       xlink:href="#linearGradient947"
       id="linearGradient873"
       x1="520.03137"
       y1="2.0078433"
       x2="520.03137"
       y2="1026.0078"
       gradientUnits="userSpaceOnUse"
       gradientTransform="matrix(0.99609375,0,0,0.99609375,2,2)"
       spreadMethod="pad" />
    <linearGradient
       id="linearGradient4657">
      <stop
         id="stop4653"
         offset="0"
         style="stop-color:#ffffff;stop-opacity:1" />
      <stop
         id="stop4655"
         offset="1"
         style="stop-color:#ffffff;stop-opacity:0;" />
    </linearGradient>
    <linearGradient
       inkscape:collect="always"
       xlink:href="#linear5"
       id="linearGradient2617"
       gradientUnits="userSpaceOnUse"
       x1="499.95294"
       y1="42.164707"
       x2="499.95294"
       y2="1046.0863"
       gradientTransform="matrix(0.99609375,0,0,0.99609375,2,2)"
       spreadMethod="pad" />
    <radialGradient
       inkscape:collect="always"
       xlink:href="#linearGradient2681"
       id="radialGradient2675"
       cx="511.5"
       cy="512.5"
       fx="511.5"
       fy="512.5"
       r="470.5"
       gradientTransform="translate(2174.7097,69.165572)"
       gradientUnits="userSpaceOnUse" />
    <linearGradient
       gradientTransform="matrix(11.945463,0,0,11.945463,-90.813337,-107.26611)"
       spreadMethod="reflect"
       y2="48.752"
       x2="27.5"
       y1="7.333"
       x1="27.5"
       gradientUnits="userSpaceOnUse"
       id="linear0-3">
      <stop
         id="stop836"
         style="stop-color:#ffffff;stop-opacity:1"
         offset="0" />
      <stop
         id="stop838"
         style="stop-color:#cccccc;stop-opacity:1"
         offset="1" />
    </linearGradient>
    <linearGradient
       gradientTransform="matrix(12.878558,0,0,12.878558,244.62944,222.96474)"
       spreadMethod="reflect"
       y2="48.752"
       x2="7"
       y1="7.333"
       x1="7"
       gradientUnits="userSpaceOnUse"
       id="linear1">
      <stop
         id="stop841"
         style="stop-color:rgb(10.196078%,42.745098%,100%);stop-opacity:1;"
         offset="0" />
      <stop
         id="stop843"
         style="stop-color:rgb(78.431373%,13.333333%,100%);stop-opacity:1;"
         offset="1" />
    </linearGradient>
    <linearGradient
       gradientTransform="matrix(11.945463,0,0,11.945463,-90.813337,-107.26611)"
       spreadMethod="reflect"
       y2="48.751999"
       x2="32"
       y1="7.3330002"
       x1="32"
       gradientUnits="userSpaceOnUse"
       id="linear2"
       xlink:href="#linear0-3">
      <stop
         id="stop846"
         style="stop-color:#ffffff;stop-opacity:1"
         offset="0" />
      <stop
         id="stop848"
         style="stop-color:#e6e6e6;stop-opacity:1"
         offset="1" />
    </linearGradient>
    <linearGradient
       gradientTransform="matrix(11.945463,0,0,11.945463,-90.813337,-107.26611)"
       spreadMethod="reflect"
       y2="48.751999"
       x2="20.5"
       y1="7.3330002"
       x1="20.5"
       gradientUnits="userSpaceOnUse"
       id="linear3">
      <stop
         id="stop851"
         style="stop-color:rgb(10.196078%,42.745098%,100%);stop-opacity:1;"
         offset="0" />
      <stop
         id="stop853"
         style="stop-color:rgb(78.431373%,13.333333%,100%);stop-opacity:1;"
         offset="1" />
    </linearGradient>
    <linearGradient
       gradientTransform="matrix(7.8125,0,0,7.8125,126.27344,148.10156)"
       spreadMethod="reflect"
       y2="56.285"
       x2="48.512"
       y1="39"
       x1="48.512"
       gradientUnits="userSpaceOnUse"
       id="linear4">
      <stop
         id="stop856"
         style="stop-color:rgb(42.745098%,78.039216%,100%);stop-opacity:1;"
         offset="0" />
      <stop
         id="stop858"
         style="stop-color:rgb(90.196078%,67.058824%,100%);stop-opacity:1;"
         offset="1" />
    </linearGradient>
    <linearGradient
       gradientTransform="matrix(11.945463,0,0,11.945463,-90.813337,-107.26611)"
       spreadMethod="reflect"
       y2="48.752"
       x2="33"
       y1="7.333"
       x1="33"
       gradientUnits="userSpaceOnUse"
       id="linear5">
      <stop
         id="stop861"
         style="stop-color:#1a8cff;stop-opacity:1"
         offset="0" />
      <stop
         id="stop863"
         style="stop-color:#c83cff;stop-opacity:1"
         offset="1" />
    </linearGradient>
    <linearGradient
       inkscape:collect="always"
       xlink:href="#linear0-3"
       id="linearGradient939"
       gradientUnits="userSpaceOnUse"
       gradientTransform="matrix(13.798455,0,0,13.798455,130.63186,132.96309)"
       x1="27.5"
       y1="7.333"
       x2="27.5"
       y2="48.752"
       spreadMethod="reflect" />
    <filter
       inkscape:collect="always"
       style="color-interpolation-filters:sRGB"
       id="filter866"
       x="-0.054723091"
       width="1.1094462"
       y="-0.066403215"
       height="1.1328064">
      <feGaussianBlur
         inkscape:collect="always"
         stdDeviation="13.89221"
         id="feGaussianBlur868" />
    </filter>
    <radialGradient
       inkscape:collect="always"
       xlink:href="#linearGradient4657"
       id="radialGradient6921"
       cx="100"
       cy="82.38073"
       fx="100"
       fy="82.38073"
       r="100"
       gradientUnits="userSpaceOnUse"
       gradientTransform="matrix(4.705,0,0,3.533613,40.999977,118.41875)" />
  </defs>
  <path
     id="path"
     d="m 984.88455,316.75212 q -9.29236,-22.5286 -20.9619,-44.13877 c -4.37603,-8.15784 -9.02221,-16.26166 -13.93853,-24.20339 C 928.86017,214.15784 903.09004,181.79661 872.67373,151.38029 773.10487,51.811441 652.84428,2 512,2 371.15572,2 250.94915,51.811441 151.38029,151.38029 51.811441,250.94915 2,371.15572 2,512 2,652.84428 51.811441,773.10487 151.38029,872.67373 250.94915,972.24259 371.15572,1022 512,1022 652.84428,1022 773.10487,972.24259 872.67373,872.67373 927.50953,817.7839 967.27222,756.62712 991.90781,689.25741 1011.9513,634.31356 1022,575.26377 1022,512 c 0,-48.51483 -5.8888,-94.59852 -17.7203,-138.25106 -1.3507,-4.91631 -2.7553,-9.83263 -4.214,-14.69491 -4.43011,-14.37077 -9.50849,-28.4714 -15.18115,-42.30191 z"
     style="fill:url(#linearGradient873);fill-opacity:1.0;stroke-width:1.08050847"
     inkscape:connector-curvature="0" />
  <path
     id="path1"
     d="m 725.29028,94.83443 c -8.64517,-4.3228 -17.7375,-8.595913 -27.07826,-12.620589 -8.5458,-3.726552 -17.04192,-7.15498 -25.73677,-10.334972 C 630.64058,56.22735 588.75623,46.687376 546.82219,43.408011 477.85957,37.843026 408.74791,48.774246 339.23877,76.201669 315.93656,85.44352 293.87647,95.97724 273.05851,107.90221 232.0188,131.45403 195.94757,160.223 165.24231,194.06009 q -51.27479,56.2461 -84.017122,131.72121 c -20.122376,46.3583 -32.642965,92.86568 -37.611453,138.7768 -0.447165,4.42217 -0.844644,8.54622 -1.192438,12.67027 -3.676681,45.31488 -0.19874,90.18257 10.1854,135.14963 5.664077,24.3965 13.166494,48.44518 22.606621,72.39449 27.525422,69.51261 66.826162,127.59714 117.802852,174.00514 31.25178,28.47087 66.77647,52.51954 106.62374,72.3448 0.14906,0.0497 0.24843,0.0994 0.3478,0.14906 3.08046,1.54031 6.06155,2.98124 8.59548,4.12406 4.86912,2.3353 9.19171,4.32279 13.51429,6.21091 1.09307,0.4472 1.88802,0.8447 2.73267,1.19249 9.39044,4.07437 18.78088,7.80092 27.72416,11.12998 2.33519,0.84468 4.47164,1.63968 6.55841,2.38499 18.92993,6.65811 37.95924,12.07403 56.54139,16.19808 7.85021,1.68938 15.70042,3.22969 23.35189,4.52155 0.94401,0.19875 1.93771,0.29813 2.68298,0.44719 11.57658,1.83844 23.05379,3.22968 34.53099,4.17374 69.36009,5.41592 138.32271,-5.51529 207.53375,-32.84335 24.19653,-9.53997 47.00189,-20.52087 68.36639,-32.94272 34.87878,-20.22275 66.03121,-44.22176 93.50694,-72.04667 4.12385,-4.17374 8.14832,-8.44686 12.1728,-12.81935 8.34706,-9.19216 16.396,-18.8315 24.09716,-28.91805 19.92364,-25.98648 37.31335,-54.75546 52.2685,-86.15788 2.58361,-5.46561 5.11754,-11.03058 7.60179,-16.74464 0.24841,-0.59625 0.54652,-1.24219 0.79495,-1.83843 0.14906,-0.29813 0.24843,-0.59625 0.39748,-0.89438 2.78235,-6.55873 5.41565,-13.16714 8.04895,-19.87494 11.57658,-30.45835 20.02301,-61.26452 25.19023,-92.46818 0.69559,-4.37248 1.39119,-9.09279 2.08677,-13.81309 0.89433,-7.30404 1.73897,-14.75715 2.33519,-22.45869 0.0994,-1.44094 0.24843,-3.1303 0.39748,-4.91905 1.29181,-19.17931 1.29181,-38.45801 0.0994,-58.03483 -0.44716,-6.35999 -0.9937,-12.81934 -1.68928,-19.47745 -0.19874,-1.83843 -0.44717,-3.82592 -0.6956,-5.81342 -1.98739,-16.29746 -4.9188,-32.6446 -8.89359,-49.38923 -5.41565,-23.00526 -12.76901,-46.45769 -22.06009,-69.95981 -27.37636,-69.31388 -66.57774,-127.24934 -117.85253,-174.00515 -18.63183,-16.99307 -39.102,-32.59491 -61.16209,-46.65643 -13.76271,-8.84435 -28.12164,-16.99307 -43.47426,-24.74431 z"
     style="fill:url(#linearGradient2617);fill-opacity:1.0;stroke-width:0.99372238"
     inkscape:connector-curvature="0" />
  <circle
     style="color:#000000;display:inline;overflow:visible;visibility:visible;opacity:0.2;fill:url(#radialGradient6921);fill-opacity:1;fill-rule:nonzero;stroke:none;stroke-width:42.97708511;marker:none;enable-background:accumulate"
     id="path4188-6-4"
     cx="511.5"
     cy="512.5"
     r="470.5" />
  <path
     inkscape:connector-curvature="0"
     style="opacity:0.26000001;fill:url(#radialGradient2675);fill-opacity:1;stroke-width:0.99372238"
     d="m 2900,164 c -8.6452,-4.3228 -17.7375,-8.59591 -27.0783,-12.62059 -8.5458,-3.72655 -17.0419,-7.15498 -25.7367,-10.33497 -41.8347,-15.65152 -83.7191,-25.19149 -125.6531,-28.47086 -68.9626,-5.56498 -138.0743,5.36624 -207.5834,32.79366 -23.3022,9.24185 -45.3623,19.77557 -66.1803,31.70054 -41.0397,23.55182 -77.1109,52.32079 -107.8162,86.15788 q -51.2748,56.2461 -84.0171,131.72121 c -20.1224,46.3583 -32.643,92.86568 -37.6114,138.7768 -0.4472,4.42217 -0.8447,8.54622 -1.1925,12.67027 -3.6767,45.31488 -0.1987,90.18257 10.1854,135.14963 5.6641,24.3965 13.1665,48.44518 22.6066,72.39449 27.5255,69.51261 66.8262,127.59714 117.8029,174.00514 31.2518,28.47087 66.7765,52.51954 106.6237,72.3448 0.1491,0.05 0.2485,0.099 0.3478,0.1491 3.0805,1.5403 6.0616,2.9812 8.5955,4.124 4.8691,2.3353 9.1917,4.3228 13.5143,6.2109 1.0931,0.4472 1.888,0.8447 2.7327,1.1925 9.3904,4.0744 18.7808,7.8009 27.7241,11.13 2.3352,0.8447 4.4717,1.6397 6.5584,2.385 18.93,6.6581 37.9593,12.074 56.5414,16.1981 7.8502,1.6894 15.7005,3.2297 23.3519,4.5215 0.944,0.1988 1.9377,0.2981 2.683,0.4472 11.5766,1.8385 23.0538,3.2297 34.531,4.1737 69.3601,5.416 138.3227,-5.5152 207.5337,-32.8433 24.1966,-9.54 47.0019,-20.52087 68.3664,-32.94272 34.8788,-20.22275 66.0312,-44.22176 93.507,-72.04667 4.1238,-4.17374 8.1483,-8.44686 12.1728,-12.81935 8.347,-9.19216 16.396,-18.8315 24.0971,-28.91805 19.9237,-25.98648 37.3134,-54.75546 52.2685,-86.15788 2.5836,-5.46561 5.1176,-11.03058 7.6018,-16.74464 0.2484,-0.59625 0.5465,-1.24219 0.795,-1.83843 0.149,-0.29813 0.2484,-0.59625 0.3974,-0.89438 2.7824,-6.55873 5.4157,-13.16714 8.049,-19.87494 11.5766,-30.45835 20.023,-61.26452 25.1902,-92.46818 0.6956,-4.37248 1.3912,-9.09279 2.0868,-13.81309 0.8943,-7.30404 1.739,-14.75715 2.3352,-22.45869 0.099,-1.44094 0.2484,-3.1303 0.3975,-4.91905 1.2918,-19.17931 1.2918,-38.45801 0.099,-58.03483 -0.4472,-6.35999 -0.9937,-12.81934 -1.6893,-19.47745 -0.1988,-1.83843 -0.4472,-3.82592 -0.6956,-5.81342 -1.9874,-16.29746 -4.9188,-32.6446 -8.8936,-49.38923 -5.4157,-23.00526 -12.769,-46.45769 -22.0601,-69.95981 -27.3764,-69.31388 -66.5777,-127.24934 -117.8525,-174.00515 -18.6319,-16.99307 -39.102,-32.59491 -61.1621,-46.65643 C 2929.7116,179.89996 2915.3526,171.75124 2900,164 Z"
     id="path2673" />
  <g
     transform="matrix(1.155121,0,0,1.155121,235.53226,299.97085)"
     id="g921"
     style="opacity:0.2;fill:#000000;fill-opacity:1;filter:url(#filter866)">
    <path
       inkscape:connector-curvature="0"
       style="fill:#000000;fill-opacity:1;fill-rule:nonzero;stroke:none;stroke-width:1.52901816"
       d="m 538.29435,21.040017 c -3.0344,-23.926757 -5.43525,-42.824439 -20.40308,-44.580469 -13.5819,-1.54094 -22.00331,13.48643 -32.71857,41.868859 C 462.15387,79.393624 395.84476,128.5493 315.52344,144.6875 c -14.1196,-8.24246 -30.48489,-13.04442 -47.97318,-13.04442 -20.40278,0 -39.28854,6.47397 -54.81747,17.41636 C 140.0089,142.69247 86.85137,66.014703 86.31394,65.214225 L 64.47753,33.092986 V 182.16041 c -5.27979,8.46927 -8.98284,17.94202 -10.72693,28.08372 -30.58037,-20.57013 -66.261463,-25.19305 -91.693335,-8.62462 -14.525677,9.47281 -24.046219,24.34487 -27.546226,43.02791 -5.088778,27.17559 3.201368,58.36509 22.7561,85.57686 23.174173,32.26471 57.362115,51.0908 88.145491,51.93893 l -0.51354,0.62095 c 20.60586,17.13008 55.65382,40.86551 87.5001,55.24797 59.77537,27.02015 115.4411,40.43538 165.49265,40.42337 72.65227,0 133.44267,-28.26302 177.72449,-84.19167 C 553.6204,295.7376 544.68504,71.306433 538.29435,21.040017 Z M 339.22319,227.20682 c 0,39.527 -32.14551,71.67263 -71.67293,71.67263 -39.52743,0 -71.67256,-32.14563 -71.67256,-71.67263 0,-39.52782 32.14513,-71.67284 71.67256,-71.67284 39.52742,0 71.67293,32.14502 71.67293,71.67284 z m -251.1534,16.43655 c -3.48797,-4.86159 -7.28651,-9.34104 -11.22871,-13.59369 -0.26268,-2.18615 -0.418,-4.37208 -0.418,-6.57002 0,-30.87891 26.05307,-56.0002 58.07889,-56.0002 17.96594,0 34.64162,8.0511 45.55989,21.40612 -5.16037,11.7421 -8.07509,24.69134 -8.07509,38.32124 0,11.2644 2.05457,22.02736 5.64985,32.07328 -11.64659,17.59571 -27.19955,27.65385 -43.42143,27.65385 -10.09393,0 -20.04444,-4.04957 -29.01543,-11.43179 -4.04963,-10.9062 -9.79533,-21.6572 -17.12997,-31.85879 z m 44.60453,-99.95928 c -16.40117,0.35826 -31.63174,5.37535 -44.3058,13.82084 v -52.1299 c 11.09725,11.93319 26.12469,26.02913 44.3058,38.30906 z M -23.333441,316.28398 c -15.529087,-21.62131 -22.505232,-46.75451 -18.670756,-67.24098 1.576783,-8.44558 5.829367,-20.05648 17.105899,-27.40289 6.581937,-4.28809 14.394277,-6.30724 22.791934,-6.30724 23.568434,0 51.819314,15.87563 70.776394,42.25122 15.51766,21.60942 22.50567,46.73055 18.67108,67.21689 -1.57668,8.45753 -5.82914,20.06842 -17.10574,27.4268 -25.01383,16.31747 -67.862188,-0.15531 -93.568811,-35.9438 z M 456.874,379.45143 c -67.3009,85.02791 -179.05052,98.08439 -314.64344,36.82829 -22.91122,-10.35704 -47.59062,-25.89807 -66.6079,-39.86251 2.62807,-1.20635 5.19636,-2.56823 7.65718,-4.16878 14.52562,-9.4728 24.05808,-24.36877 27.54623,-43.05145 1.3617,-7.27479 1.68423,-14.83618 1.17058,-22.52916 7.20306,2.61606 14.62115,4.15706 22.21854,4.15706 20.80894,0 40.32784,-10.12974 55.66578,-28.15535 17.34482,24.22529 45.65555,40.10079 77.66929,40.10079 52.69146,0 95.5638,-42.87222 95.5638,-95.5635 0,-24.36895 -9.24539,-46.56369 -24.30875,-63.45439 79.81934,-21.31078 144.69518,-73.273475 168.71745,-137.002485 2.12621,-5.626309 3.97776,-10.141696 5.55451,-13.76116 0.6331,4.228699 1.1587,8.349872 1.49331,11.061496 5.10063,40.041056 15.5529,262.883669 -57.69658,355.401149 z m 0,0"
       id="path917" />
  </g>
  <path
     inkscape:connector-curvature="0"
     style="fill:url(#linearGradient939);fill-rule:nonzero;stroke:none;stroke-width:1.76620102"
     d="m 857.32736,281.17219 c -3.5051,-27.63829 -6.27837,-49.46741 -23.56802,-51.49583 -15.68874,-1.77997 -25.41649,15.57846 -37.79391,48.3636 C 769.37589,348.57767 692.78085,405.35843 600,424 c -16.30984,-9.52104 -35.21373,-15.06789 -55.41482,-15.06789 -23.56768,0 -45.38302,7.47822 -63.32081,20.11801 -84.0049,-7.35463 -145.40828,-95.92672 -146.02907,-96.85137 l -25.22369,-37.10391 v 172.19091 c -6.0988,9.78303 -10.37627,20.7252 -12.3909,32.44009 -35.32404,-23.76099 -76.54001,-29.10102 -105.9169,-9.96249 -16.77892,10.94225 -27.77629,28.12128 -31.81922,49.70245 -5.87816,31.39109 3.69796,67.41875 26.28604,98.85163 26.76898,37.26965 66.26019,59.01606 101.81871,59.99575 l -0.5932,0.71727 c 23.80226,19.78731 64.28689,47.2046 101.0732,63.81809 69.04778,31.21154 133.34843,46.70775 191.16404,46.69389 83.92216,0 154.14242,-32.64722 205.29328,-97.25157 90.10414,-113.80972 79.78272,-373.05487 72.4007,-431.11867 z m -229.95127,238.1476 c 0,45.65847 -37.13196,82.79057 -82.79091,82.79057 -45.65897,0 -82.79048,-37.1321 -82.79048,-82.79057 0,-45.65941 37.13151,-82.79079 82.79048,-82.79079 45.65895,0 82.79091,37.13138 82.79091,82.79079 z M 337.26352,538.306 c -4.02903,-5.61572 -8.4168,-10.79003 -12.97052,-15.70235 -0.30343,-2.52527 -0.48284,-5.05029 -0.48284,-7.58918 0,-35.66887 30.09445,-64.687 67.08815,-64.687 20.75283,0 40.01526,9.29999 52.62718,24.72666 -5.96085,13.56354 -9.3277,28.52148 -9.3277,44.26566 0,13.01175 2.37327,25.44427 6.52625,37.04853 -13.45322,20.32517 -31.41876,31.94354 -50.157,31.94354 -11.65971,0 -23.15375,-4.67774 -33.51633,-13.2051 -4.67782,-12.59798 -11.31479,-25.01668 -19.78719,-36.80076 z m 51.52363,-115.46506 c -18.94534,0.41384 -36.53849,6.20918 -51.17856,15.96474 v -60.21634 c 12.81867,13.78428 30.17718,30.06679 51.17856,44.2516 z M 208.57931,622.2147 c -17.93797,-24.97523 -25.99626,-54.00712 -21.56699,-77.67147 1.82138,-9.75567 6.73363,-23.16766 19.75939,-31.65366 7.60293,-4.95326 16.62713,-7.28563 26.32744,-7.28563 27.22439,0 59.85758,18.33829 81.7553,48.80528 17.92477,24.96149 25.99677,53.97944 21.56736,77.64364 -1.82126,9.76947 -6.73336,23.18145 -19.7592,31.68127 -28.894,18.84866 -78.38904,-0.1794 -108.0833,-41.51943 z M 763.277,695.18074 c -77.74068,98.21753 -206.82501,113.29934 -363.45124,42.54114 -26.46523,-11.96364 -54.97292,-29.91541 -76.94018,-46.04603 3.03574,-1.39348 6.00243,-2.96661 8.84497,-4.81545 16.77885,-10.94222 27.79,-28.14887 31.81923,-49.72963 1.57292,-8.40326 1.94549,-17.13758 1.35215,-26.02391 8.32042,3.02187 16.8892,4.80191 25.66511,4.80191 24.03684,0 46.58353,-11.70107 64.30071,-32.52283 20.03537,27.98313 52.73768,46.32127 89.71743,46.32127 60.86501,0 110.38775,-49.52261 110.38775,-110.38742 0,-28.14908 -10.67954,-53.78669 -28.07954,-73.29749 92.20099,-24.61653 167.14044,-84.63973 194.88906,-158.25445 2.45603,-6.49907 4.5948,-11.71488 6.41613,-15.8958 0.73131,4.88466 1.33844,9.64511 1.72496,12.77737 5.89185,46.25226 17.96547,303.66244 -66.64654,410.53132 z m 0,0"
     id="path868" />
</svg>
