<?xml version="1.0" encoding="UTF-8" standalone="no"?>
<!-- Created with Inkscape (http://www.inkscape.org/) -->

<svg
   xmlns:dc="http://purl.org/dc/elements/1.1/"
   xmlns:cc="http://creativecommons.org/ns#"
   xmlns:rdf="http://www.w3.org/1999/02/22-rdf-syntax-ns#"
   xmlns:svg="http://www.w3.org/2000/svg"
   xmlns="http://www.w3.org/2000/svg"
   xmlns:xlink="http://www.w3.org/1999/xlink"
   xmlns:sodipodi="http://sodipodi.sourceforge.net/DTD/sodipodi-0.dtd"
   xmlns:inkscape="http://www.inkscape.org/namespaces/inkscape"
   width="1024"
   height="1024"
   id="svg2"
   version="1.1"
   inkscape:version="0.92.4 (5da689c313, 2019-01-14)"
   sodipodi:docname="livepatch.svg">
  <defs
     id="defs4">
    <linearGradient
       id="linearGradient961">
      <stop
         style="stop-color:#fe793d;stop-opacity:1"
         offset="0"
         id="stop959" />
      <stop
         style="stop-color:#ffce74;stop-opacity:1"
         offset="1"
         id="stop957" />
    </linearGradient>
    <linearGradient
       id="linearGradient1169">
      <stop
         style="stop-color:#ffce74;stop-opacity:1"
         offset="0"
         id="stop1165" />
      <stop
         style="stop-color:#fe793d;stop-opacity:1"
         offset="1"
         id="stop1167" />
    </linearGradient>
    <linearGradient
       id="linearGradient966">
      <stop
         id="stop960"
         offset="0"
         style="stop-color:#ff7b7e;stop-opacity:1" />
      <stop
         id="stop964"
         offset="1"
         style="stop-color:#f73358;stop-opacity:1" />
    </linearGradient>
    <linearGradient
       id="linearGradient1034">
      <stop
         style="stop-color:#1a1a1a;stop-opacity:1"
         offset="0"
         id="stop1032" />
      <stop
         style="stop-color:#4d4d4d;stop-opacity:1"
         offset="1"
         id="stop1030" />
    </linearGradient>
    <linearGradient
       id="linearGradient1028">
      <stop
         style="stop-color:#d7d7d7;stop-opacity:1"
         offset="0"
         id="stop1026" />
      <stop
         style="stop-color:#ffffff;stop-opacity:1"
         offset="1"
         id="stop1024" />
    </linearGradient>
    <linearGradient
       id="linearGradient947">
      <stop
         id="stop943"
         offset="0"
         style="stop-color:#fa9664;stop-opacity:1" />
      <stop
         id="stop945"
         offset="1"
         style="stop-color:#f47648;stop-opacity:1" />
    </linearGradient>
    <linearGradient
       inkscape:collect="always"
       id="linearGradient911">
      <stop
         style="stop-color:#ffffff;stop-opacity:1"
         offset="0"
         id="stop907" />
      <stop
         style="stop-color:#d7d7d7;stop-opacity:1"
         offset="1"
         id="stop909" />
    </linearGradient>
    <linearGradient
       id="linearGradient876">
      <stop
         id="stop872"
         offset="0"
         style="stop-color:#ffce80;stop-opacity:1" />
      <stop
         id="stop874"
         offset="1"
         style="stop-color:#fe8155;stop-opacity:1" />
    </linearGradient>
    <linearGradient
       id="linearGradient3867">
      <stop
         style="stop-color:#ebd79a;stop-opacity:1;"
         offset="0"
         id="stop3869" />
      <stop
         style="stop-color:#f0d34e;stop-opacity:1;"
         offset="1"
         id="stop3871" />
    </linearGradient>
    <linearGradient
       id="linearGradient3846">
      <stop
         id="stop3848"
         offset="0"
         style="stop-color:#d8dc8e;stop-opacity:1;" />
      <stop
         id="stop3850"
         offset="1"
         style="stop-color:#ebebc2;stop-opacity:1;" />
    </linearGradient>
    <linearGradient
       id="linearGradient3828">
      <stop
         style="stop-color:#f1c035;stop-opacity:1;"
         offset="0"
         id="stop3830" />
      <stop
         style="stop-color:#c09a00;stop-opacity:1;"
         offset="1"
         id="stop3832" />
    </linearGradient>
    <linearGradient
       id="linearGradient3792">
      <stop
         style="stop-color:#552000;stop-opacity:1;"
         offset="0"
         id="stop3794" />
      <stop
         style="stop-color:#431900;stop-opacity:1;"
         offset="1"
         id="stop3796" />
    </linearGradient>
    <inkscape:perspective
       sodipodi:type="inkscape:persp3d"
       inkscape:vp_x="13.534465 : 111.04854 : 1"
       inkscape:vp_y="0 : 1000 : 0"
       inkscape:vp_z="213.53447 : 111.04854 : 1"
       inkscape:persp3d-origin="113.53447 : 77.71521 : 1"
       id="perspective3135" />
    <linearGradient
       id="linearGradient4829">
      <stop
         style="stop-color:#f4fbfc;stop-opacity:1;"
         offset="0"
         id="stop4831" />
      <stop
         style="stop-color:#d6d6d6;stop-opacity:1;"
         offset="1"
         id="stop4833" />
    </linearGradient>
    <clipPath
       clipPathUnits="userSpaceOnUse"
       id="clipPath4282">
      <rect
         style="color:#000000;display:inline;overflow:visible;visibility:visible;fill:#4d4d4d;fill-opacity:1;fill-rule:nonzero;stroke:none;stroke-width:9.13434315;marker:none;enable-background:accumulate"
         id="rect4284"
         width="246.875"
         height="234.375"
         x="462.5"
         y="1646.1122"
         ry="17"
         rx="17" />
    </clipPath>
    <linearGradient
       inkscape:collect="always"
       xlink:href="#linearGradient1169"
       id="linearGradient4835"
       x1="102.29776"
       y1="-0.42686829"
       x2="102.29776"
       y2="199.16539"
       gradientUnits="userSpaceOnUse"
       gradientTransform="matrix(5.1,0,0,5.1,2,2.000007)" />
    <linearGradient
       inkscape:collect="always"
       xlink:href="#linearGradient5423"
       id="linearGradient5429"
       x1="408.66196"
       y1="44.604382"
       x2="408.66196"
       y2="562.04968"
       gradientUnits="userSpaceOnUse" />
    <linearGradient
       id="linearGradient5423">
      <stop
         style="stop-color:#db5151;stop-opacity:1;"
         offset="0"
         id="stop5425" />
      <stop
         style="stop-color:#951e1e;stop-opacity:1;"
         offset="1"
         id="stop5427" />
    </linearGradient>
    <linearGradient
       inkscape:collect="always"
       xlink:href="#linearGradient876"
       id="linearGradient5473"
       x1="101.80659"
       y1="-33.581291"
       x2="101.80659"
       y2="200.21254"
       gradientUnits="userSpaceOnUse"
       gradientTransform="matrix(4.7050002,0,0,4.7050002,40.999985,70.362158)" />
    <linearGradient
       inkscape:collect="always"
       xlink:href="#linearGradient3986"
       id="linearGradient3992"
       x1="78.5625"
       y1="993.6615"
       x2="120.28125"
       y2="993.6615"
       gradientUnits="userSpaceOnUse" />
    <linearGradient
       inkscape:collect="always"
       id="linearGradient3986">
      <stop
         style="stop-color:#000000;stop-opacity:1;"
         offset="0"
         id="stop3988" />
      <stop
         style="stop-color:#000000;stop-opacity:0;"
         offset="1"
         id="stop3990" />
    </linearGradient>
    <linearGradient
       inkscape:collect="always"
       xlink:href="#linearGradient5423-1"
       id="linearGradient5473-2"
       x1="99.036476"
       y1="-0.50471628"
       x2="99.036476"
       y2="199.83986"
       gradientUnits="userSpaceOnUse" />
    <linearGradient
       id="linearGradient5423-1">
      <stop
         style="stop-color:#51b9db;stop-opacity:1;"
         offset="0"
         id="stop5425-2" />
      <stop
         style="stop-color:#2fabd4;stop-opacity:1;"
         offset="1"
         id="stop5427-3" />
    </linearGradient>
    <linearGradient
       y2="199.83986"
       x2="99.036476"
       y1="-0.50471628"
       x1="99.036476"
       gradientUnits="userSpaceOnUse"
       id="linearGradient4119"
       xlink:href="#linearGradient5423-1"
       inkscape:collect="always" />
    <linearGradient
       inkscape:collect="always"
       xlink:href="#linearGradient4829"
       id="linearGradient4159"
       x1="100"
       y1="852.36218"
       x2="100"
       y2="1052.3622"
       gradientUnits="userSpaceOnUse" />
    <linearGradient
       inkscape:collect="always"
       xlink:href="#linearGradient3828"
       id="linearGradient3834"
       x1="100"
       y1="26.268389"
       x2="100"
       y2="138.13489"
       gradientUnits="userSpaceOnUse" />
    <linearGradient
       inkscape:collect="always"
       xlink:href="#linearGradient3846"
       id="linearGradient3844"
       x1="100"
       y1="852.36218"
       x2="100"
       y2="1052.3622"
       gradientUnits="userSpaceOnUse"
       gradientTransform="matrix(1,0,0,0.60126583,0,364.42686)" />
    <linearGradient
       inkscape:collect="always"
       xlink:href="#linearGradient3867"
       id="linearGradient3865"
       x1="100"
       y1="0"
       x2="100"
       y2="200"
       gradientUnits="userSpaceOnUse" />
    <linearGradient
       inkscape:collect="always"
       xlink:href="#linearGradient5423-5"
       id="linearGradient5473-3"
       x1="99.036476"
       y1="-0.50471628"
       x2="99.036476"
       y2="199.83986"
       gradientUnits="userSpaceOnUse" />
    <linearGradient
       id="linearGradient5423-5">
      <stop
         style="stop-color:#db8451;stop-opacity:1;"
         offset="0"
         id="stop5425-22" />
      <stop
         style="stop-color:#c85c29;stop-opacity:1;"
         offset="1"
         id="stop5427-6" />
    </linearGradient>
    <linearGradient
       inkscape:collect="always"
       xlink:href="#linearGradient3792"
       id="linearGradient3908"
       gradientUnits="userSpaceOnUse"
       x1="100"
       y1="852.36218"
       x2="100"
       y2="1052.3622"
       gradientTransform="translate(0,-852.36218)" />
    <linearGradient
       inkscape:collect="always"
       xlink:href="#linearGradient3828"
       id="linearGradient3969"
       gradientUnits="userSpaceOnUse"
       x1="100"
       y1="26.268389"
       x2="100"
       y2="138.13489" />
    <linearGradient
       inkscape:collect="always"
       xlink:href="#linearGradient3867"
       id="linearGradient3971"
       gradientUnits="userSpaceOnUse"
       x1="100"
       y1="0"
       x2="100"
       y2="200" />
    <linearGradient
       inkscape:collect="always"
       xlink:href="#linearGradient3846"
       id="linearGradient3973"
       gradientUnits="userSpaceOnUse"
       gradientTransform="matrix(1,0,0,0.60126583,0,364.42686)"
       x1="100"
       y1="852.36218"
       x2="100"
       y2="1052.3622" />
    <clipPath
       id="clipPath-536897967">
      <g
         transform="translate(0,-1004.3622)"
         id="g17">
        <path
           style="fill:#1890d0"
           inkscape:connector-curvature="0"
           d="m -24,13 c 0,1.105 -0.672,2 -1.5,2 -0.828,0 -1.5,-0.895 -1.5,-2 0,-1.105 0.672,-2 1.5,-2 0.828,0 1.5,0.895 1.5,2 z"
           transform="matrix(15.333333,0,0,11.5,414.99999,878.8622)"
           id="path19" />
      </g>
    </clipPath>
    <linearGradient
       inkscape:collect="always"
       xlink:href="#linearGradient911"
       id="linearGradient913"
       x1="50.625"
       y1="-27.424999"
       x2="50.625"
       y2="131.95"
       gradientUnits="userSpaceOnUse" />
    <linearGradient
       id="linearGradient4657">
      <stop
         id="stop4653"
         offset="0"
         style="stop-color:#ffffff;stop-opacity:1" />
      <stop
         id="stop4655"
         offset="1"
         style="stop-color:#ffffff;stop-opacity:0;" />
    </linearGradient>
    <radialGradient
       inkscape:collect="always"
       xlink:href="#linearGradient4657"
       id="radialGradient6921"
       cx="100"
       cy="82.38073"
       fx="100"
       fy="82.38073"
       r="100"
       gradientUnits="userSpaceOnUse"
       gradientTransform="matrix(4.7049999,0,0,3.5336129,41.000002,146.78095)" />
    <linearGradient
       inkscape:collect="always"
       xlink:href="#linearGradient1034"
       id="linearGradient1236"
       x1="520"
       y1="32.362179"
       x2="540"
       y2="1092.3622"
       gradientUnits="userSpaceOnUse" />
    <filter
       inkscape:collect="always"
       style="color-interpolation-filters:sRGB"
       id="filter1252"
       x="-0.057"
       width="1.114"
       y="-0.041454545"
       height="1.0829091">
      <feGaussianBlur
         inkscape:collect="always"
         stdDeviation="12.666667"
         id="feGaussianBlur1254" />
    </filter>
    <linearGradient
       inkscape:collect="always"
       xlink:href="#linearGradient1034"
       id="linearGradient946"
       gradientUnits="userSpaceOnUse"
       gradientTransform="matrix(5.1,0,0,5.1,2,2.000007)"
       x1="102.29776"
       y1="-0.42686829"
       x2="102.29776"
       y2="199.16539" />
    <linearGradient
       inkscape:collect="always"
       xlink:href="#linearGradient876"
       id="linearGradient971"
       x1="-213.2377"
       y1="978.49951"
       x2="171.6998"
       y2="978.49951"
       gradientUnits="userSpaceOnUse" />
    <linearGradient
       inkscape:collect="always"
       xlink:href="#linearGradient1169"
       id="linearGradient975"
       gradientUnits="userSpaceOnUse"
       gradientTransform="matrix(5.1,0,0,5.1,1677.0881,-67.364722)"
       x1="102.29776"
       y1="-0.42686829"
       x2="102.29776"
       y2="199.16539" />
    <linearGradient
       inkscape:collect="always"
       xlink:href="#linearGradient1169"
       id="linearGradient1148"
       x1="74.322998"
       y1="210.57721"
       x2="363.35501"
       y2="210.57721"
       gradientUnits="userSpaceOnUse" />
  </defs>
  <sodipodi:namedview
     id="base"
     pagecolor="#ffffff"
     bordercolor="#666666"
     borderopacity="1.0"
     inkscape:pageopacity="0.0"
     inkscape:pageshadow="2"
     inkscape:zoom="0.70117188"
     inkscape:cx="512"
     inkscape:cy="508.43454"
     inkscape:document-units="px"
     inkscape:current-layer="layer1"
     showgrid="true"
     inkscape:window-width="1920"
     inkscape:window-height="955"
     inkscape:window-x="0"
     inkscape:window-y="25"
     inkscape:window-maximized="1"
     inkscape:snap-from-guide="true"
     showguides="true"
     inkscape:guide-bbox="true"
     inkscape:pagecheckerboard="true">
    <sodipodi:guide
       position="200,0"
       orientation="-200,0"
       id="guide3766"
       inkscape:locked="false" />
    <sodipodi:guide
       position="0,200"
       orientation="200,0"
       id="guide3127"
       inkscape:locked="false" />
    <sodipodi:guide
       position="0,-2.6171874e-06"
       orientation="0,100"
       id="guide3129"
       inkscape:locked="false" />
    <sodipodi:guide
       position="100,-2.6171874e-06"
       orientation="-200,0"
       id="guide3131"
       inkscape:locked="false" />
    <sodipodi:guide
       position="100,200"
       orientation="0,-100"
       id="guide3133"
       inkscape:locked="false" />
    <inkscape:grid
       type="xygrid"
       id="grid880" />
  </sodipodi:namedview>
  <metadata
     id="metadata7">
    <rdf:RDF>
      <cc:Work
         rdf:about="">
        <dc:format>image/svg+xml</dc:format>
        <dc:type
           rdf:resource="http://purl.org/dc/dcmitype/StillImage" />
        <dc:title />
      </cc:Work>
    </rdf:RDF>
  </metadata>
  <g
     inkscape:label="Layer 1"
     inkscape:groupmode="layer"
     id="layer1"
     transform="translate(0,-28.36218)">
    <path
       id="path4188"
       transform="translate(0,28.36218)"
       style="color:#000000;display:inline;overflow:visible;visibility:visible;fill:url(#linearGradient4835);fill-opacity:1;fill-rule:nonzero;stroke:none;stroke-width:46.58515167;marker:none;enable-background:accumulate"
       d="M 512,2 A 510,510 0 0 0 2,512 510,510 0 0 0 171.58203,891.01367 c 2.92079,-2.42437 6.04807,-4.62426 9.24024,-6.61719 -0.23533,-0.1533 -0.1272,-0.17126 0.17187,-0.10937 0.32221,-0.20034 0.64181,-0.41098 0.96484,-0.60742 0.0603,-0.0366 0.13483,-0.0534 0.22071,-0.0527 0.6207,0.004 1.86042,0.92969 3.09961,1.99414 0.0593,0.0302 0.12195,0.0622 0.1875,0.0977 -2.95716,-3.88284 1.68956,0.19851 4.89062,3.17578 1.30926,-1.15658 3.8167,0.46126 6.25977,2.82031 0.48776,0.19945 1.02294,0.41573 1.7539,0.68946 0.64575,0.24181 -2.51927,-1.1148 -1.86718,-0.89063 2.33119,0.8014 4.29913,2.28442 6.57421,3.21289 1.57732,0.96545 3.25003,1.73769 4.85938,2.65039 0.47398,0.2688 0.94612,0.54326 1.4082,0.83203 0.0797,0.0498 0.30828,0.19156 0.21485,0.18164 -0.15376,-0.0163 -0.30154,-0.0575 -0.44922,-0.10546 3.07508,0.98916 0.66965,0.15725 6.59179,3.125 0.51314,0.25715 -0.99113,-0.5787 -1.49609,-0.85157 -1.25487,-0.67811 2.55684,1.27649 3.75977,2.04297 0.5412,0.34485 1.03365,0.75833 1.52148,1.17774 0.0314,0.0159 0.0624,0.0329 0.0937,0.0488 3.70549,1.87663 7.45238,3.65522 11.13672,5.57813 4.00594,1.85227 8.10992,3.46963 12.01563,5.55859 3.10863,1.78852 1.119,0.60309 3.43554,2.33008 0.032,6.2e-4 0.0422,-0.0123 0.0606,-0.004 1.7846,0.82768 3.54941,1.69645 5.32422,2.54492 -0.0581,-0.0669 -0.25081,-0.24508 -0.17383,-0.20117 6.68348,3.81193 0.29843,0.21159 5.77539,3.77734 0.20584,0.13401 0.47935,0.13522 0.6875,0.26562 1.4502,0.9085 3.89818,2.63517 5.47656,3.73829 0.36722,0.18718 0.75559,0.33844 1.10157,0.5625 5.11335,3.31185 1.85659,1.45528 5.73046,3.87695 3.71259,2.32085 2.34081,1.25872 6.51172,4.08203 1.25841,0.85183 2.47899,1.75601 3.71875,2.63477 4.59069,2.8704 9.04505,6.34009 12.19141,10.81835 0.0661,0.0498 0.1565,0.1175 0.20312,0.1504 0.89655,0.63253 1.80115,1.25753 2.64649,1.95703 1.85122,1.53185 3.62127,3.80452 5.875,4.82226 2.52214,1.64022 5.47028,2.32656 8.12109,3.69727 2.62297,1.3563 3.12009,1.73656 3.27149,1.88476 l 0.002,0.002 c 0.49184,0.19832 0.81699,0.33696 1.19141,0.49609 0.0116,0.004 0.008,0.002 0.0195,0.006 0.20817,0.0752 0.41184,0.16083 0.61718,0.24219 -0.40258,-0.30396 -0.0703,-0.0827 0.9336,0.32226 0.0338,0.008 0.10364,0.0198 0.13281,0.0274 0.0536,0.0138 0.0678,0.032 0.15234,0.0664 1.6956,0.57518 1.26848,1.07166 2.0293,0.1836 6.45856,1.60081 -0.16466,-0.17668 6.65625,2.10547 0.10526,0.0352 -0.34673,-0.2458 -0.23633,-0.23438 0.60909,0.063 1.1976,0.26167 1.79493,0.39648 3.19643,0.7215 1.73096,0.52348 4.02148,0.74024 0.97186,0.1673 1.95265,0.29122 2.91602,0.50195 3.61288,0.7903 3.23934,0.83381 5.66406,1.66602 0.89129,0.0244 1.77073,0.25768 2.65625,0.37695 1.80921,0.708 3.6744,1.28585 5.43359,2.10742 0.0656,0.0128 0.0457,0.006 0.11524,0.0195 1.18382,0.23321 2.35307,0.53773 3.52929,0.80665 0.44951,0.086 0.89526,0.20301 1.34961,0.25781 0.0336,0 0.0134,-0.0949 0.0469,-0.0899 3.24355,0.4824 4.2567,0.70343 7.50976,2.16993 0.74253,0.33476 1.42934,0.77804 2.12696,1.20117 0.0151,0.006 0.0298,0.012 0.0449,0.0176 -0.31957,-0.19125 -0.41665,-0.25556 -0.625,-0.38282 1.7707,0.5423 0.66284,0.18907 2.19531,0.88477 0.0149,-0.0142 0.0376,-0.0259 0.0762,-0.0352 0.23681,-0.057 5.52451,1.68914 5.68164,1.74024 0.75534,0.28899 0.62023,0.23957 0.69922,0.28711 0.74133,0.11259 1.49858,0.15201 2.21875,0.35937 8.52208,2.4533 3.15874,1.46871 6.41016,2.03711 3.66926,1.4077 7.45021,2.41773 11.25586,3.36133 2.93317,0.7273 1.77012,0.7819 3.14453,0.6582 3.51998,1.3464 7.26059,1.65018 10.83398,2.79688 1.69508,0.5439 3.34306,1.22336 5.01953,1.82226 0.50961,0.1695 3.59755,1.20507 4.04102,1.32227 0.0474,0.013 0.0684,-0.0948 0.11719,-0.0898 1.54506,0.1518 3.90134,0.7458 5.17187,1.1211 1.06331,0.3142 2.09369,0.7307 3.14063,1.0957 1.89581,0.20301 3.73492,1.2309 5.43554,2.25391 1.44558,-0.25133 2.89363,-0.48136 4.35352,-0.625 1.27028,-0.125 2.54006,0.25987 3.80664,0.41797 1.71119,0.2137 3.41577,0.46846 5.125,0.69726 4.25934,0.5701 8.54438,0.94942 12.79102,1.60742 3.03508,0.4703 6.04609,1.09403 9.06836,1.64063 4.47187,0.67641 8.9264,1.49752 13.38867,2.26948 8.61001,-9.59555 5.74763,-6.79203 1.48242,0.254 0.99074,0.1683 1.98061,0.3352 2.97265,0.4941 1.25037,0.093 2.49098,0.2458 3.72071,0.4746 1.28178,-2.72983 2.57168,-4.92407 3.87109,-5.91992 -0.81871,0.0184 -1.63795,0.0453 -2.45508,0 -4.02669,-0.22195 5.12992,-7.20879 6.63672,-0.0195 5.64788,-0.0233 11.29646,-0.0236 16.94141,0.18555 2.03233,0.028 -0.11671,0.0359 3.52344,-0.28125 1.618,-0.1411 3.23751,-0.27132 4.85937,-0.35742 1.4899,-0.079 2.98489,-0.0544 4.47461,-0.13672 3.03387,-0.1683 6.05586,-0.53008 9.0918,-0.67188 4.2239,-0.8009 8.44479,-1.73689 12.71289,-2.27929 1.00602,-0.1279 2.01912,-0.17818 3.0293,-0.26758 0.54493,-0.018 1.09536,0.0103 1.63671,-0.0547 1.36343,-0.164 2.71335,-0.42191 4.07032,-0.63281 3.5626,-0.5285 9.95649,-1.47172 13.22851,-1.98242 3.06412,-0.4783 6.11205,-1.07376 9.1875,-1.47266 11.6011,-1.5046 23.32208,-2.26691 35.01563,-2.38281 0.54495,-0.0102 1.08982,-0.0236 1.63476,-0.0352 1.23492,-0.28569 2.47007,-0.57231 3.71875,-0.78711 1.19493,-0.2055 2.41144,-0.25531 3.61719,-0.38281 1.02002,-0.1118 2.04906,-0.15214 3.05859,-0.33594 10.58694,-1.9274 -1.31873,-0.32912 10.56446,-2.19922 2.33825,-0.368 4.72775,-0.35073 7.0625,-0.74023 1.52364,-0.2542 3.02205,-0.64074 4.5332,-0.96094 1.67195,-0.2975 3.34368,-0.59498 5.01562,-0.89258 0.74457,-0.057 1.49603,-0.0605 2.23438,-0.17187 1.30059,-0.197 2.58216,-0.51121 3.875,-0.75391 4.27368,-0.8025 8.55869,-1.54826 12.86328,-2.16601 3.43284,-0.88407 6.91749,-1.16752 10.16016,-2.89453 0.68199,-0.095 1.3599,-0.23746 2.04687,-0.28516 0.0492,0 -0.003,0.15253 0.0449,0.14062 0.86349,-0.21599 1.69845,-0.53461 2.55079,-0.79101 3.08897,-0.92923 6.18661,-1.84332 9.32421,-2.5957 3.97389,-0.90982 3.93392,-1.00881 7.94532,-1.50391 0.9168,-0.11315 1.8399,-0.17841 2.76172,-0.23828 0.40828,-0.0265 0.82317,0.0488 1.22656,-0.0195 1.14205,-0.19345 5.54331,-1.31266 6.60156,-1.57617 3.6945,-1.07226 7.40876,-2.06098 11.13281,-3.02344 -0.62907,-1.16284 -1.2709,-2.31675 -1.93554,-3.45508 1.54106,-1.04568 3.02488,-2.18058 4.62304,-3.13672 0.24594,-0.14714 0.93492,-0.42921 1.67969,-0.7207 0.10337,-0.0482 0.20782,-0.0965 0.29883,-0.15625 1.07746,-0.70748 2.10149,-1.50122 3.2207,-2.14063 7.7043,-4.40145 8.61151,-4.4471 17.4082,-8.18359 28.28387,-11.57233 -7.76485,3.07942 21.93555,-8.66406 3.42277,-1.35336 6.80656,-2.80581 10.21875,-4.18555 0.33309,-0.20326 0.67468,-0.40394 1.00391,-0.60938 7.41824,-4.6286 6.29845,-3.97293 13.94336,-9.10156 2.48789,-1.67433 4.93657,-3.40393 7.37109,-5.15234 0.1035,-0.29876 0.21547,-0.60337 0.29883,-0.88867 0.57727,-1.97572 2.10807,-3.54733 3.35937,-5.18164 1.65406,-2.16033 7.7143,-8.46926 9.44532,-10.30274 2.23528,-2.39699 4.39654,-4.86488 6.70508,-7.1914 3.3432,-3.36927 18.09632,-17.28901 20.9082,-19.9336 4.06067,-3.81908 8.10331,-7.65937 12.21289,-11.42578 7.53102,-6.90212 13.63137,-12.18372 21.19726,-18.81445 5.98442,-5.25454 7.80058,-6.6845 13.16993,-11.95117 1.24222,-1.21846 2.47302,-2.45154 3.62695,-3.75391 1.06985,-1.20746 1.13834,-1.04551 0.88086,-1.95898 2.34882,-4.95841 6.15448,-8.90886 9.25781,-13.35547 0.48607,-0.69647 0.88903,-1.44651 1.33399,-2.16993 0.78408,-1.10438 1.56749,-2.20813 2.35156,-3.3125 0.38386,-0.4933 4.01542,-5.18497 4.54492,-5.76757 0.34455,-0.37911 0.71017,-0.73742 1.07031,-1.10157 0.35488,-0.57581 0.71555,-1.14816 1.0625,-1.72851 0.70023,-1.17126 1.41245,-2.33667 2.04297,-3.54688 0.41934,-0.80485 0.74251,-1.65758 1.10352,-2.49023 1.4898,-3.43614 2.84499,-6.92243 4.30078,-10.37305 0.45774,-1.07561 0.8992,-2.15795 1.37305,-3.22656 1.09477,-2.46898 1.85576,-3.91446 2.88476,-6.36133 0.69779,-1.08801 0.79743,-2.38961 1.26367,-3.55859 0.30036,-0.75306 0.62822,-1.49595 0.95899,-2.23633 0.0608,-1.69008 0.5045,-2.82156 2.24023,-6.72852 3.45785,-4.83773 4.47093,-6.00061 8.53516,-9.24804 0.11513,-0.46612 0.1732,-0.46257 1.95312,-3.94922 0.13133,-0.14651 0.378,-0.63551 0.39453,-0.43946 0.01,0.11387 -5e-5,0.22535 -0.0137,0.3379 0.003,-0.005 0.005,-0.009 0.008,-0.0137 0.30146,-2.45881 0.39324,-4.30895 1.26758,-7.24804 0.47875,-1.04248 0.94367,-2.09081 1.43164,-3.12891 0.0776,-0.57927 0.15878,-1.15797 0.22071,-1.73828 0.40145,-1.14845 0.77999,-2.3054 1.20507,-3.44531 0.0371,-0.0995 -0.0245,0.21093 -0.0371,0.3164 0.13729,-0.3822 0.27284,-0.76429 0.41015,-1.14648 0.96987,-3.12698 1.78402,-6.31566 3.1582,-9.30274 1.04458,-1.62248 0.24814,-0.22898 1.20118,-3.88671 0.9406,-3.60998 2.16981,-7.13123 3.50781,-10.61133 0.25173,-0.65598 0.48877,-1.31693 0.75586,-1.9668 0.17767,-0.43231 0.26597,-0.57658 0.31054,-0.55664 0.01,-1.16627 7.5e-4,-2.16459 -0.0898,-1.00195 -0.13212,-5.14319 -0.30178,-6.92226 2.67774,-8.28516 -0.2686,-0.002 -0.53852,-0.0118 -0.80664,-0.0117 -0.20837,2e-5 1.03772,-1.87414 0.3789,-0.49609 1.31835,-3.03232 2.65699,-6.03253 3.88281,-9.10547 0.41467,-1.03949 3.36699,-8.51866 3.58008,-8.98828 0.81032,-1.78579 1.76921,-3.50005 2.6543,-5.25 0.92439,-1.48503 1.81847,-2.98951 2.77344,-4.45508 0.53895,-0.82712 1.16407,-1.59542 1.70703,-2.41992 1.9294,-2.92987 3.61069,-6.02996 4.80273,-9.33399 0.66394,-1.46698 1.27176,-2.96226 1.99219,-4.40234 3.19443,-6.3854 7.67921,-12.0507 11.03906,-18.34375 2.83169,-4.58846 4.34894,-7.09714 7.23242,-11.50195 0.10058,-0.28186 0.24445,-0.64612 0.33204,-0.90235 1.50453,-4.40228 2.75792,-8.8881 4.23632,-13.30078 0.25094,-0.99553 0.53452,-1.98295 0.75196,-2.98633 0.18872,-0.87088 0.25985,-1.76563 0.46484,-2.63281 0.5945,-2.51423 1.5061,-4.95159 2.0059,-7.48633 0.1021,-0.51761 0.058,-1.05522 0.1113,-1.58008 0.094,-0.92295 0.2202,-1.84249 0.3301,-2.76367 0.1479,-1.14438 0.3305,-2.28302 0.5254,-3.41992 0,-2.52379 -0.01,-5.04847 0,-7.57226 0.01,-7.75054 -0.039,-15.4995 -0.033,-23.25 0.01,-0.55462 0.013,-1.10938 0.019,-1.66407 -0.1352,-0.67172 -0.2598,-1.34213 -0.3848,-2.0039 -0.8394,-4.06569 -0.2236,-8.21071 -0.3418,-12.3086 -0.093,-3.23445 -0.5359,-6.22128 -0.9199,-9.44726 -0.8258,-5.83416 -0.8588,-11.6923 -0.7285,-17.55469 -0.7261,-5.20935 -0.1082,-1.4564 -0.3887,-5.46289 -0.1637,-2.33854 -0.74721,-4.68429 -0.52147,-7.03516 -0.23226,-3.32558 0.0282,-0.20557 -0.61719,-5.11523 -0.80411,-6.11717 -1.94187,-12.20185 -2.12891,-18.38867 -0.12794,-2.26036 -0.31846,-4.51819 -0.38281,-6.78125 -0.0636,-2.23741 -2.1e-4,-4.47653 0,-6.71485 9.2e-4,-10.05025 0.007,-20.10014 0.004,-30.15039 -0.001,-2.07548 -0.007,-4.151 -0.0117,-6.22656 -0.23309,-1.22043 -0.47288,-2.43977 -0.68359,-3.66406 -0.2614,-1.51878 -0.41461,-3.05522 -0.7168,-4.56641 -0.49595,-2.4801 -1.57176,-4.83542 -2.26953,-7.25781 -0.36583,-1.27007 -0.67062,-2.55745 -1.00586,-3.83594 -1.71532,-6.61451 -4.16617,-12.99891 -6.05274,-19.56445 -3.16764,-11.02384 -0.47395,-2.89686 -3.375,-11.28906 -1.24393,-5.21606 -3.4095,-10.1247 -4.87304,-15.2754 -1.24795,-4.39192 -0.31247,-1.64791 -1.05078,-3.75585 -0.25466,-1.28549 -0.44471,-2.58636 -0.76368,-3.85743 -0.0901,-0.35919 0.21061,1.45368 0.0742,1.10938 -0.20174,-0.50931 -1.41764,-4.89557 -1.62109,-5.86133 -0.84608,-4.01642 -0.13127,-2.22923 -0.71094,-3.62891 -0.17117,-0.16367 -0.6934,-1.99611 -1.07226,-3.67187 -1.42184,-3.30837 -2.0805,-4.36018 -2.67188,-7.87891 -0.23259,-1.38393 -0.25276,-2.79854 -0.49023,-4.18164 -0.0302,-0.17569 -0.22437,-0.2813 -0.30274,-0.4414 -0.47149,-0.96323 -0.83081,-1.97803 -1.24609,-2.9668 -0.38075,-1.08145 -0.75862,-2.16383 -1.14258,-3.24414 -0.53822,-1.51437 -1.00778,-2.67498 -1.31836,-4.17774 -0.88135,-1.05493 -1.77042,-2.14921 -2.76172,-3.45507 -3.48816,-4.59503 -3.66903,-5.32879 -6.87695,-10.08594 -12.67872,-18.80175 3.9987,6.3462 -8.57813,-12.69336 -4.85798,-7.66537 -1.00316,-1.81111 -6.20117,-9.11523 -0.73228,-1.02898 -1.39928,-2.10395 -2.14258,-3.125 -1.16112,-1.59503 -2.44018,-3.10358 -3.57031,-4.72071 -0.97799,-1.39943 -1.83865,-2.87609 -2.7168,-4.34179 -0.79634,-0.7635 -1.35836,-1.29188 -3.95507,-3.85157 -1.0009,-0.98663 -1.93274,-2.03944 -2.89844,-3.06054 -3.29299,-3.48186 -6.56725,-6.98553 -9.13672,-11.06055 -0.47282,-0.64951 -0.92369,-1.31515 -1.41406,-1.95117 -1.74961,-0.43639 -3.65304,-1.42857 -5.33789,-2.63672 -0.0281,0.0696 -0.28132,-0.14828 -0.55274,-0.38672 -0.49173,-0.37866 -0.95706,-0.77377 -1.38672,-1.17969 -0.5702,-0.17003 -3.10291,-2.68014 -2.33984,-2.19726 0.1034,0.0654 0.60228,0.43481 0.90625,0.65429 -0.0854,-0.0791 -0.21073,-0.20877 -0.2832,-0.27148 0.31537,0.23721 -0.0416,-0.0308 0.23828,0.17969 -0.28297,-0.37513 -0.5335,-0.74957 -0.72461,-1.11524 -0.49363,-0.94451 0.56959,-0.0805 1.74805,1.14453 -1.68329,-4.25029 -3.86129,-8.30812 -6.13672,-12.27343 -0.56535,-0.98522 0.27592,3.64397 0.20703,3.40039 0.74417,1.63594 1.52321,3.2568 2.23242,4.9082 0.0926,0.21556 -0.23699,-0.40694 -0.37891,-0.59375 -0.62275,-0.81979 -1.28909,-1.60424 -1.91211,-2.42383 -2.09559,-2.75675 -4.07201,-5.60929 -6.41992,-8.16797 -1.89089,-2.21461 -4.88014,-5.69098 -6.64648,-7.875 -1.06983,-1.32281 -2.0622,-2.70798 -3.13867,-4.02539 -1.58188,-1.93594 -3.30116,-3.75937 -4.83399,-5.73437 -3.14223,-4.04869 -5.1972,-7.45269 -7.94726,-11.74024 -0.97745,-1.82169 -2.02582,-3.60649 -2.93164,-5.46484 -0.63686,-1.30658 -1.13193,-2.678 -1.69141,-4.01953 -1.36671,-3.27715 -2.7861,-6.53298 -4.07422,-9.8418 -6.09939,-15.66764 1.92767,3.88962 -4.86328,-12.43359 -1.30323,-3.15305 -2.67286,-6.24606 -3.62109,-9.51953 -0.8496,-2.93302 -6.11383,-4.67529 -2.83008,-8.76954 2.15511,-2.68703 4.89685,-4.74065 7.83984,-6.57812 0.14974,-0.96132 0.37151,-1.83974 0.6836,-2.62109 A 510,510 0 0 0 512,2 Z m 394.28125,242.81445 c 0.022,0.0203 0.0496,0.049 0.0723,0.0703 -0.01,-0.0121 -0.0159,-0.025 -0.0254,-0.0371 -0.016,-0.0116 -0.0312,-0.0219 -0.0469,-0.0332 z m 0.0723,0.0703 c 0.38872,0.49503 0.85009,0.98967 1.36132,1.47265 0.0637,0.019 0.1201,0.0279 0.12696,-0.0195 -0.54543,-0.54741 -1.05284,-1.04499 -1.48828,-1.45312 z M 490.97656,995.81445 c -0.44532,0.002 -0.8906,-3.8e-4 -1.33594,0.002 0.51201,0.4261 1.02561,1.10302 1.54102,2.07812 -0.008,-0.79806 -0.0808,-1.48691 -0.20508,-2.08008 z m -1.33594,0.002 c -0.95422,-0.79417 -1.9023,-0.70551 -2.8457,0.0176 0.23039,-0.005 0.46112,-0.0126 0.69141,-0.0137 0.71806,-0.004 1.43623,-4e-5 2.15429,-0.004 z m -13.41015,4.96879 c -0.49425,-0.084 -0.98839,-0.1684 -1.48242,-0.254 -0.1941,0.2165 -0.37412,0.4116 -0.58008,0.6407 0.18764,-0.01 0.37468,-0.028 0.5625,-0.029 0.4259,0 0.85016,0.019 1.27539,0.021 0.0745,-0.1244 0.15079,-0.257 0.22461,-0.3789 z M 315.74023,963.06445 c -0.0481,-0.0163 -0.11827,-0.0324 -0.16992,-0.0488 0.18191,0.072 0.33421,0.13725 0.55664,0.2168 0.13222,0.0473 -0.17214,-0.0807 -0.38672,-0.16797 z m -0.16992,-0.0488 c -0.0377,-0.0149 -0.0793,-0.0304 -0.11523,-0.0449 -0.0374,-0.009 -0.10422,-0.0216 -0.14649,-0.0312 0.0885,0.0254 0.18209,0.0509 0.26172,0.0762 z M 190.35742,888.89453 c -0.0239,0.0212 -0.0472,0.0434 -0.0703,0.0664 0.0567,0.0646 0.11472,0.13923 0.17187,0.20703 0.44746,0.4143 0.90428,0.8187 1.35743,1.22656 0.0339,0.002 0.11002,0.006 0.14257,0.008 -0.44399,-0.42731 -0.96868,-0.91918 -1.60156,-1.50781 z m -0.0703,0.0664 c -0.32847,-0.37425 -0.65175,-0.71041 -0.95313,-0.95313 -0.59668,-0.48055 -1.25777,-0.84862 -1.95507,-1.15625 0.57692,0.35065 1.12337,0.67781 1.5,0.85938 0.46406,0.42196 0.92266,0.849 1.38281,1.27539 0.008,-0.009 0.0168,-0.0168 0.0254,-0.0254 z m -2.9082,-2.10938 c -0.67711,-0.41154 -1.38432,-0.84731 -1.91211,-1.13281 0.0547,0.0719 0.12742,0.16278 0.1875,0.24023 0.15395,0.1358 0.29296,0.2643 0.44336,0.4004 0.43559,0.14967 0.86569,0.30885 1.28125,0.49218 z m -6.38477,-2.56445 c -0.0576,0.0358 -0.11433,0.0734 -0.17187,0.10937 0.0692,0.0451 0.14828,0.0939 0.28125,0.16407 1.04075,0.54954 2.18512,0.90698 3.33007,1.25976 -0.84632,-0.49701 -1.45412,-0.83063 -1.94921,-1.10156 -0.57171,-0.17831 -1.16309,-0.36395 -1.49024,-0.43164 z M 856.5,153.71094 c -0.50108,-0.25724 0.76778,4.82502 1.50391,4.86133 -0.36393,-0.80901 -0.72763,-1.75231 -1.10157,-3.00391 -0.0538,-0.72213 -0.0724,-0.91233 -0.11914,-1.49805 -0.0526,-0.0755 -0.0887,-0.13205 -0.14258,-0.20898 -0.0575,-0.0821 -0.1035,-0.13134 -0.14062,-0.15039 z m 2.91016,7.83594 c -0.29414,-0.2788 0.39305,0.45732 0.92187,1.00781 -0.0154,-0.0499 -0.0274,-0.0758 -0.043,-0.12696 -0.29086,-0.29576 -0.57793,-0.59558 -0.8789,-0.88085 z m 1.1914,1.23632 c 8.2e-4,0.001 0.0164,0.008 0.0176,0.01 -0.002,-0.003 -0.005,-0.005 -0.008,-0.008 4.8e-4,9.7e-4 -0.0105,-0.003 -0.01,-0.002 z m 94.10352,133.86914 c -0.0472,0.44239 0.48033,1.16317 0.87109,1.8086 -0.0379,-0.10164 -0.0744,-0.18827 -0.11328,-0.29492 -0.27214,-0.49586 -0.53463,-0.99549 -0.75781,-1.51368 z m 4.23047,411.46094 c -1.41487,0.24229 -2.89479,0.51763 -4.53711,0.875 -1.32993,0.28939 0.19816,2.50928 1.8789,3.65625 0.91616,-1.49377 1.83531,-2.98713 2.65821,-4.53125 z m -17.33399,28.8711 c -0.0327,0.0841 -0.0836,0.20235 -0.10351,0.26171 -0.047,0.14052 -0.11733,0.57999 -0.0703,0.43946 0.0511,-0.15281 0.1129,-0.44128 0.17383,-0.70117 z m -15.75976,31.34765 c -0.13392,1.97926 0.16658,6.62897 0.15039,4.95703 -0.0231,-2.38925 -0.11389,-3.83702 -0.15039,-4.95703 z M 196.88672,900.08789 c 0.0133,0.0497 0.024,0.0895 0.0371,0.13867 0.0999,0.16328 0.19848,0.32725 0.29883,0.49024 -0.002,-0.006 -0.004,-0.0131 -0.006,-0.0195 -0.12082,-0.22281 -0.21984,-0.40527 -0.33008,-0.60938 z m 49.62305,17.45313 c 0.42909,0.31558 0.6444,0.48874 1.36718,1 0.0961,0.068 -0.0848,-0.23364 -0.18164,-0.30079 -0.3768,-0.26143 -0.78528,-0.47447 -1.18554,-0.69921 z m -2.28321,13.96875 c 0.11337,0.17792 0.22407,0.35755 0.32813,0.54101 0.17152,0.15211 0.42629,0.38561 0.52539,0.46875 0.0482,0.0147 0.18913,0.0583 0.23437,0.0723 -0.24728,-0.25701 -0.61911,-0.62501 -1.08789,-1.08203 z m 1.15039,1.70703 c 0.005,0.005 0.0107,0.009 0.0156,0.0137 0.0139,0.005 0.0177,0.007 0.0312,0.0117 -0.009,-0.006 -0.0167,-0.0133 -0.0254,-0.0195 -0.008,-0.003 -0.0139,-0.003 -0.0215,-0.006 z m 93.92188,35.45117 c 0.12419,0.0409 0.1602,0.0573 0.29687,0.10156 0.12933,0.0419 0.53482,0.0849 0.4043,0.0469 -0.15365,-0.0448 -0.44281,-0.0975 -0.70117,-0.14844 z m 32.14453,9.93555 c -0.0277,-0.007 -0.0111,0.008 0.0664,0.0527 0.0913,0.0528 0.18577,0.1 0.27734,0.15234 0.55733,0.25194 1.1127,0.50933 1.67578,0.74805 0.57748,0.24483 -1.82527,-0.903 -2.01953,-0.95312 z m 58.38867,15.99804 c 0.12902,0.0209 0.29581,0.0557 0.375,0.0899 0.0347,0.015 -0.0963,0.0947 -0.0586,0.0957 0.89287,0.0359 1.12738,0.0306 1.65625,0.043 -0.36763,-0.35776 -1.32476,-0.13981 -1.97266,-0.22852 z" />
    <circle
       style="color:#000000;display:inline;overflow:visible;visibility:visible;fill:url(#linearGradient5473);fill-opacity:1;fill-rule:nonzero;stroke:none;stroke-width:42.97708511;marker:none;enable-background:accumulate;opacity:1"
       id="path4188-6"
       cx="511.5"
       cy="540.86218"
       r="470.5" />
    <g
       id="g3964"
       transform="matrix(1.5025318,0,0,1.5025318,-50.25318,-477.79922)" />
    <g
       transform="matrix(5.0292968,0,0,5.0292968,-18.68544,815.98523)"
       id="g51">
      <g
         clip-path="url(#clipPath-536897967)"
         id="g53">
        <!-- color: #db363f -->
      </g>
    </g>
    <g
       id="g938"
       transform="translate(244.774,299.43518)" />
    <g
       id="g940"
       transform="translate(244.774,299.43518)" />
    <g
       id="g942"
       transform="translate(244.774,299.43518)" />
    <g
       id="g944"
       transform="translate(244.774,299.43518)" />
    <g
       id="g946"
       transform="translate(244.774,299.43518)" />
    <g
       id="g948"
       transform="translate(244.774,299.43518)" />
    <g
       id="g950"
       transform="translate(244.774,299.43518)" />
    <g
       id="g952"
       transform="translate(244.774,299.43518)" />
    <g
       id="g954"
       transform="translate(244.774,299.43518)" />
    <g
       id="g956"
       transform="translate(244.774,299.43518)" />
    <g
       id="g958"
       transform="translate(244.774,299.43518)" />
    <g
       id="g960"
       transform="translate(244.774,299.43518)" />
    <g
       id="g962"
       transform="translate(244.774,299.43518)" />
    <g
       id="g964"
       transform="translate(244.774,299.43518)" />
    <g
       id="g966"
       transform="translate(244.774,299.43518)" />
    <g
       id="g1008"
       transform="translate(715.635,418.02618)" />
    <g
       id="g1010"
       transform="translate(715.635,418.02618)" />
    <g
       id="g1012"
       transform="translate(715.635,418.02618)" />
    <g
       id="g1014"
       transform="translate(715.635,418.02618)" />
    <g
       id="g1016"
       transform="translate(715.635,418.02618)" />
    <g
       id="g1018"
       transform="translate(715.635,418.02618)" />
    <g
       id="g1020"
       transform="translate(715.635,418.02618)" />
    <g
       id="g1022"
       transform="translate(715.635,418.02618)" />
    <g
       id="g1024"
       transform="translate(715.635,418.02618)" />
    <g
       id="g1026"
       transform="translate(715.635,418.02618)" />
    <g
       id="g1028"
       transform="translate(715.635,418.02618)" />
    <g
       id="g1030"
       transform="translate(715.635,418.02618)" />
    <g
       id="g1032"
       transform="translate(715.635,418.02618)" />
    <g
       id="g1034"
       transform="translate(715.635,418.02618)" />
    <g
       id="g1036"
       transform="translate(715.635,418.02618)" />
    <circle
       style="color:#000000;display:inline;overflow:visible;visibility:visible;opacity:0.2;fill:url(#radialGradient6921);fill-opacity:1;fill-rule:nonzero;stroke:none;stroke-width:42.97700119;stroke-miterlimit:4;stroke-dasharray:none;marker:none;enable-background:accumulate"
       id="path4188-6-4"
       cx="511.5"
       cy="540.86218"
       r="470.5" />
    <path
       style="opacity:0.15;fill:#000000;fill-opacity:1;stroke-width:16.66666794;filter:url(#filter1252)"
       id="path1238"
       d="M 520,372.36218 V 472.36219 L 653.33333,339.02885 520,205.69551 v 100.00001 c -147.33334,0 -266.66667,119.33333 -266.66667,266.66667 0,52.33333 15.33333,100.83333 41.33333,142 l 48.66667,-48.66667 c -14.83334,-27.83333 -23.33334,-59.5 -23.33334,-93.33333 0,-110.5 89.50001,-200.00001 200.00001,-200.00001 z m 225.33334,58.00001 -48.66667,48.66666 C 711.5,506.86219 720,538.52885 720,572.36219 c 0,110.5 -89.5,200 -200,200 v -100 L 386.66666,805.69553 520,939.02886 v -100 c 147.33333,0 266.66667,-119.33334 266.66667,-266.66667 0,-52.33334 -15.33333,-100.83334 -41.33333,-142 z"
       inkscape:connector-curvature="0" />
    <path
       inkscape:connector-curvature="0"
       d="M 520,352.36218 V 452.36219 L 653.33333,319.02885 520,185.69551 v 100.00001 c -147.33334,0 -266.66667,119.33333 -266.66667,266.66667 0,52.33333 15.33333,100.83333 41.33333,142 l 48.66667,-48.66667 c -14.83334,-27.83333 -23.33334,-59.5 -23.33334,-93.33333 0,-110.5 89.50001,-200.00001 200.00001,-200.00001 z m 225.33334,58.00001 -48.66667,48.66666 C 711.5,486.86219 720,518.52885 720,552.36219 c 0,110.5 -89.5,200 -200,200 v -100 L 386.66666,785.69553 520,919.02886 v -100 c 147.33333,0 266.66667,-119.33334 266.66667,-266.66667 0,-52.33334 -15.33333,-100.83334 -41.33333,-142 z"
       id="path1204"
       style="stroke-width:16.66666794;fill-opacity:1.0;fill:url(#linearGradient1236)" />
    <path
       style="fill:none;stroke-width:16.66666794"
       inkscape:connector-curvature="0"
       d="M -840.00001,132.36217 H -39.99999 V 932.36219 H -840.00001 Z"
       id="path1206" />
    <path
       style="color:#000000;display:inline;overflow:visible;visibility:visible;fill:url(#linearGradient946);fill-opacity:1.0;fill-rule:nonzero;stroke:none;stroke-width:46.58515167;marker:none;enable-background:accumulate;opacity:1"
       d="M 859.08203 139.19336 L 169.92969 889.47656 A 510 510 0 0 0 512 1022 A 510 510 0 0 0 1022 512 A 510 510 0 0 0 859.08203 139.19336 z "
       transform="translate(0,28.36218)"
       id="circle944" />
    <circle
       r="510"
       cy="442.63525"
       cx="2187.0881"
       id="circle973"
       style="color:#000000;display:inline;overflow:visible;visibility:visible;fill:url(#linearGradient975);fill-opacity:1;fill-rule:nonzero;stroke:none;stroke-width:46.58515167;marker:none;enable-background:accumulate" />
    <g
       id="g1025"
       transform="matrix(1.0735871,-1.0735871,1.0735871,1.0735871,223.69142,731.06314)"
       style="fill:url(#linearGradient1148);fill-opacity:1.0">
      <path
         inkscape:connector-curvature="0"
         style="fill:url(#linearGradient1148);fill-opacity:1.0"
         d="M 132.129,243.613 H 90.839 V 169.29 c 0,-4.565 -3.694,-8.258 -8.258,-8.258 -4.565,0 -8.258,3.694 -8.258,8.258 v 82.581 c 0,4.565 3.694,8.258 8.258,8.258 h 49.548 c 4.565,0 8.258,-3.694 8.258,-8.258 0,-4.564 -3.693,-8.258 -8.258,-8.258 z"
         id="path1017" />
      <path
         inkscape:connector-curvature="0"
         style="fill:url(#linearGradient1148);fill-opacity:1.0"
         d="m 163.782,161.032 c -4.565,0 -8.258,3.694 -8.258,8.258 v 82.581 c 0,4.565 3.694,8.258 8.258,8.258 4.564,0 8.258,-3.694 8.258,-8.258 V 169.29 c 0,-4.564 -3.693,-8.258 -8.258,-8.258 z"
         id="path1019" />
      <path
         inkscape:connector-curvature="0"
         style="fill:url(#linearGradient1148);fill-opacity:1.0"
         d="m 271.089,161.758 c -4.161,-1.863 -9.04,-0.016 -10.919,4.145 l -29.63,65.847 -29.629,-65.847 c -1.871,-4.169 -6.766,-6.024 -10.919,-4.145 -4.161,1.871 -6.016,6.758 -4.145,10.919 l 37.161,82.581 c 1.339,2.968 4.282,4.871 7.532,4.871 3.25,0 6.194,-1.903 7.532,-4.871 l 37.161,-82.581 c 1.872,-4.161 0.017,-9.048 -4.144,-10.919 z"
         id="path1021" />
      <path
         inkscape:connector-curvature="0"
         style="fill:url(#linearGradient1148);fill-opacity:1.0"
         d="m 355.097,243.613 h -49.548 v -24.774 h 41.29 c 4.565,0 8.258,-3.694 8.258,-8.258 0,-4.564 -3.694,-8.258 -8.258,-8.258 h -41.29 v -24.774 h 49.548 c 4.565,0 8.258,-3.694 8.258,-8.258 0,-4.565 -3.694,-8.258 -8.258,-8.258 H 297.29 c -4.565,0 -8.258,3.694 -8.258,8.258 v 82.581 c 0,4.565 3.694,8.258 8.258,8.258 h 57.806 c 4.565,0 8.258,-3.694 8.258,-8.258 0,-4.564 -3.693,-8.259 -8.257,-8.259 z"
         id="path1023" />
    </g>
    <g
       id="g1039"
       transform="translate(1876.0781,-598.82208)" />
    <g
       id="g1041"
       transform="translate(1876.0781,-598.82208)" />
    <g
       id="g1043"
       transform="translate(1876.0781,-598.82208)" />
    <g
       id="g1045"
       transform="translate(1876.0781,-598.82208)" />
    <g
       id="g1047"
       transform="translate(1876.0781,-598.82208)" />
    <g
       id="g1049"
       transform="translate(1876.0781,-598.82208)" />
    <g
       id="g1051"
       transform="translate(1876.0781,-598.82208)" />
    <g
       id="g1053"
       transform="translate(1876.0781,-598.82208)" />
    <g
       id="g1055"
       transform="translate(1876.0781,-598.82208)" />
    <g
       id="g1057"
       transform="translate(1876.0781,-598.82208)" />
    <g
       id="g1059"
       transform="translate(1876.0781,-598.82208)" />
    <g
       id="g1061"
       transform="translate(1876.0781,-598.82208)" />
    <g
       id="g1063"
       transform="translate(1876.0781,-598.82208)" />
    <g
       id="g1065"
       transform="translate(1876.0781,-598.82208)" />
    <g
       id="g1067"
       transform="translate(1876.0781,-598.82208)" />
    <circle
       r="480.06143"
       cy="540.36218"
       cx="512"
       id="circle965"
       style="display:inline;opacity:0.02;fill:none;fill-opacity:1;fill-rule:nonzero;stroke:#ffffff;stroke-width:59.87713242;stroke-linecap:round;stroke-linejoin:miter;stroke-miterlimit:0;stroke-dasharray:none;stroke-opacity:1;paint-order:stroke fill markers" />
  </g>
</svg>
