<?xml version="1.0" encoding="UTF-8" standalone="no"?>
<!-- Generator: flash2svg, http://dissentgraphics.com/tools/flash2svg -->

<svg
   xmlns:dc="http://purl.org/dc/elements/1.1/"
   xmlns:cc="http://creativecommons.org/ns#"
   xmlns:rdf="http://www.w3.org/1999/02/22-rdf-syntax-ns#"
   xmlns:svg="http://www.w3.org/2000/svg"
   xmlns="http://www.w3.org/2000/svg"
   xmlns:xlink="http://www.w3.org/1999/xlink"
   xmlns:sodipodi="http://sodipodi.sourceforge.net/DTD/sodipodi-0.dtd"
   xmlns:inkscape="http://www.inkscape.org/namespaces/inkscape"
   id="Apps-Visual-Studio-Code"
   image-rendering="optimizeSpeed"
   version="1.1"
   style="background-color:#FFFFFF"
   x="0px"
   y="0px"
   width="1024px"
   height="1024px"
   viewBox="0 0 1024 1024"
   enable-background="new 0 0 1024 1024"
   sodipodi:docname="preferences-system.svg"
   inkscape:export-filename="/home/unc/OSX/system-settings.png"
   inkscape:export-xdpi="4.5"
   inkscape:export-ydpi="4.5"
   inkscape:version="0.92.4 (5da689c313, 2019-01-14)">
  <metadata
     id="metadata24">
    <rdf:RDF>
      <cc:Work
         rdf:about="">
        <dc:format>image/svg+xml</dc:format>
        <dc:type
           rdf:resource="http://purl.org/dc/dcmitype/StillImage" />
        <dc:title />
      </cc:Work>
    </rdf:RDF>
  </metadata>
  <sodipodi:namedview
     pagecolor="#ffffff"
     bordercolor="#666666"
     borderopacity="1"
     objecttolerance="10"
     gridtolerance="10"
     guidetolerance="10"
     inkscape:pageopacity="0"
     inkscape:pageshadow="2"
     inkscape:window-width="1920"
     inkscape:window-height="944"
     id="namedview22"
     showgrid="true"
     inkscape:pagecheckerboard="true"
     inkscape:zoom="0.7109375"
     inkscape:cx="823.45499"
     inkscape:cy="507.78022"
     inkscape:window-x="0"
     inkscape:window-y="25"
     inkscape:window-maximized="1"
     inkscape:current-layer="Apps-Visual-Studio-Code">
    <inkscape:grid
       type="xygrid"
       id="grid914" />
  </sodipodi:namedview>
  <defs
     transform="matrix(1 0 0 1 0 0) "
     id="defs2">
    <linearGradient
       inkscape:collect="always"
       id="linearGradient952">
      <stop
         style="stop-color:#959595;stop-opacity:1"
         offset="0"
         id="stop948" />
      <stop
         style="stop-color:#666666;stop-opacity:0;"
         offset="1"
         id="stop950" />
    </linearGradient>
    <linearGradient
       inkscape:collect="always"
       id="linearGradient919">
      <stop
         style="stop-color:#999999;stop-opacity:1"
         offset="0"
         id="stop915" />
      <stop
         style="stop-color:#666666;stop-opacity:1"
         offset="1"
         id="stop917" />
    </linearGradient>
    <linearGradient
       id="linearGradient5232"
       y2="288"
       xlink:href="#linearGradient5226"
       gradientUnits="userSpaceOnUse"
       x2="602"
       y1="288"
       x1="104" />
    <linearGradient
       id="linearGradient5226">
      <stop
         id="stop5228"
         offset="0" />
      <stop
         id="stop5230"
         style="stop-opacity:0"
         offset="1" />
    </linearGradient>
    <clipPath
       id="clipPath5222"
       clipPathUnits="userSpaceOnUse">
      <circle
         id="circle5224"
         r="184"
         style="color:#000000;opacity:0.2;fill:#df382c;enable-background:accumulate"
         cx="288"
         cy="288" />
    </clipPath>
    <filter
       id="filter5264"
       style="color-interpolation-filters:sRGB"
       height="1.192"
       width="1.192"
       y="-0.096000001"
       x="-0.096000001">
      <feGaussianBlur
         id="feGaussianBlur5266"
         stdDeviation="14.72" />
    </filter>
    <linearGradient
       id="linearGradient5234"
       y2="288"
       xlink:href="#linearGradient5226"
       gradientUnits="userSpaceOnUse"
       x2="564.59998"
       y1="288"
       x1="104" />
    <filter
       id="filter4314"
       style="color-interpolation-filters:sRGB"
       height="1.1440001"
       width="1.1440001"
       y="-0.071999997"
       x="-0.071999997">
      <feGaussianBlur
         id="feGaussianBlur4316"
         stdDeviation="8.9561581" />
    </filter>
    <linearGradient
       id="linearGradient5066"
       y2="387.59"
       gradientUnits="userSpaceOnUse"
       x2="318"
       y1="199.95"
       x1="287.72">
      <stop
         id="stop5062"
         style="stop-color:#adadad"
         offset="0" />
      <stop
         id="stop5064"
         style="stop-color:#b9b9b9"
         offset="1" />
    </linearGradient>
    <linearGradient
       id="linearGradient5070"
       y2="194.21001"
       xlink:href="#linearGradient4515"
       gradientUnits="userSpaceOnUse"
       x2="243.09"
       y1="357.54999"
       x1="327.54999" />
    <linearGradient
       id="linearGradient4515">
      <stop
         id="stop4740"
         style="stop-color:#fff;stop-opacity:0"
         offset="0" />
      <stop
         id="stop4742"
         style="stop-color:#fff"
         offset=".5" />
      <stop
         id="stop4744"
         style="stop-color:#fff;stop-opacity:0"
         offset="1" />
    </linearGradient>
    <linearGradient
       id="linearGradient4840"
       y2="355.07001"
       xlink:href="#linearGradient5226"
       gradientUnits="userSpaceOnUse"
       x2="293.04999"
       y1="187.14"
       x1="293.04999" />
    <clipPath
       id="clipPath4830"
       clipPathUnits="userSpaceOnUse">
      <path
         inkscape:connector-curvature="0"
         id="path4832"
         d="M 288,184 A 104,104 0 0 0 184,288 104,104 0 0 0 288,392 104,104 0 0 0 392,288 104,104 0 0 0 288,184 Z m -0.2793,15.955 c 15.536,-0.0507 30.852,4.0261 44.305,11.791 l -18.033,31.236 18.035,-31.236 c 21.521,12.428 37.253,33.711 42.266,58.912 1.4964,7.3088 -3.3238,9.4744 -8.0469,9.3438 h -20.301 c -5.9712,0 -6.9906,-2.8506 -8.0976,-6.6973 -3.8245,-13.016 -12.521,-23.761 -23.855,-30.322 -11.35,-6.5356 -25.003,-8.6942 -38.188,-5.498 -3.8848,0.96464 -6.864,1.5071 -9.8496,-3.6641 l -10.15,-17.582 c -2.4747,-4.025 -3.0095,-9.2821 4.0684,-11.641 9.1243,-3.0972 18.526,-4.6122 27.848,-4.6426 z m -52.193,19.443 c 2.8158,0.0624 5.0166,2.2426 6.4219,4.8398 l 10.15,17.582 c 2.9856,5.1712 1.0259,7.4793 -1.752,10.361 -9.3603,9.8202 -14.317,22.723 -14.332,35.82 0.015,13.097 4.9718,26 14.332,35.82 2.7778,2.882 4.7375,5.1902 1.752,10.361 l -10.15,17.582 c -2.2484,4.1557 -6.5338,7.2472 -12.115,2.2969 -7.2444,-6.3533 -13.258,-13.737 -17.945,-21.795 -7.812,-13.429 -11.939,-28.733 -11.941,-44.266 0.003,-24.852 10.568,-49.118 29.887,-66.061 2.093,-1.8564 4.0039,-2.5804 5.6934,-2.543 z m 110.42,76.6 h 20.301 c 4.7231,-0.13064 9.5433,2.0349 8.0469,9.3438 -1.8799,9.4505 -5.2678,18.349 -9.9024,26.438 -7.7242,13.48 -18.912,24.707 -32.363,32.475 l -18.035,-31.236 18.033,31.236 c -21.524,12.424 -47.821,15.408 -72.152,7.1484 -7.0778,-2.3585 -6.543,-7.6156 -4.0684,-11.641 l 10.15,-17.582 c 2.9856,-5.1712 5.9648,-4.6287 9.8496,-3.6641 13.185,3.1961 26.838,1.0375 38.188,-5.498 11.335,-6.5614 20.031,-17.306 23.855,-30.322 1.107,-3.8467 2.1265,-6.6973 8.0976,-6.6973 z"
         style="color:#000000;opacity:0.2;fill:#d11f47;enable-background:accumulate" />
    </clipPath>
    <filter
       id="filter4846"
       style="color-interpolation-filters:sRGB"
       height="1.024"
       width="1.024"
       y="-0.012"
       x="-0.012">
      <feGaussianBlur
         id="feGaussianBlur4848"
         stdDeviation="1.0400197" />
    </filter>
    <clipPath
       id="clipPath5047"
       clipPathUnits="userSpaceOnUse">
      <path
         inkscape:connector-curvature="0"
         id="path5049"
         style="color:#000000;opacity:0.2;fill:#d11f47;enable-background:accumulate"
         d="M 288,184 A 104,104 0 0 0 184,288 104,104 0 0 0 288,392 104,104 0 0 0 392,288 104,104 0 0 0 288,184 Z m -0.2793,15.955 c 15.536,-0.0507 30.852,4.0261 44.305,11.791 l -18.033,31.236 18.035,-31.236 c 21.521,12.428 37.253,33.711 42.266,58.912 1.4964,7.3088 -3.3238,9.4744 -8.0469,9.3438 h -20.301 c -5.9712,0 -6.9906,-2.8506 -8.0976,-6.6973 -3.8245,-13.016 -12.521,-23.761 -23.855,-30.322 -11.35,-6.5356 -25.003,-8.6942 -38.188,-5.498 -3.8848,0.96464 -6.864,1.5071 -9.8496,-3.6641 l -10.15,-17.582 c -2.4747,-4.025 -3.0095,-9.2821 4.0684,-11.641 9.1243,-3.0972 18.526,-4.6122 27.848,-4.6426 z m -52.193,19.443 c 2.8158,0.0624 5.0166,2.2426 6.4219,4.8398 l 10.15,17.582 c 2.9856,5.1712 1.0259,7.4793 -1.752,10.361 -9.3603,9.8202 -14.317,22.723 -14.332,35.82 0.015,13.097 4.9718,26 14.332,35.82 2.7778,2.882 4.7375,5.1902 1.752,10.361 l -10.15,17.582 c -2.2484,4.1557 -6.5338,7.2472 -12.115,2.2969 -7.2444,-6.3533 -13.258,-13.737 -17.945,-21.795 -7.812,-13.429 -11.939,-28.733 -11.941,-44.266 0.003,-24.852 10.568,-49.118 29.887,-66.061 2.093,-1.8564 4.0039,-2.5804 5.6934,-2.543 z m 110.42,76.6 h 20.301 c 4.7231,-0.13064 9.5433,2.0349 8.0469,9.3438 -1.8799,9.4505 -5.2678,18.349 -9.9024,26.438 -7.7242,13.48 -18.912,24.707 -32.363,32.475 l -18.035,-31.236 18.033,31.236 c -21.524,12.424 -47.821,15.408 -72.152,7.1484 -7.0778,-2.3585 -6.543,-7.6156 -4.0684,-11.641 l 10.15,-17.582 c 2.9856,-5.1712 5.9648,-4.6287 9.8496,-3.6641 13.185,3.1961 26.838,1.0375 38.188,-5.498 11.335,-6.5614 20.031,-17.306 23.855,-30.322 1.107,-3.8467 2.1265,-6.6973 8.0976,-6.6973 z" />
    </clipPath>
    <filter
       id="filter5051"
       style="color-interpolation-filters:sRGB"
       height="1.0227"
       width="1.0254"
       y="-0.011365"
       x="-0.01271">
      <feGaussianBlur
         id="feGaussianBlur5053"
         stdDeviation="1.0803332" />
    </filter>
    <linearGradient
       id="linearGradient4928"
       y2="288"
       xlink:href="#linearGradient5226"
       gradientUnits="userSpaceOnUse"
       x2="192"
       y1="312"
       x1="192" />
    <linearGradient
       id="linearGradient4936"
       y2="-404.26001"
       xlink:href="#linearGradient5226"
       gradientUnits="userSpaceOnUse"
       x2="-3.7995999"
       y1="-416.84"
       x1="17.99" />
    <linearGradient
       id="linearGradient4944"
       y2="96.056"
       xlink:href="#linearGradient5226"
       gradientUnits="userSpaceOnUse"
       x2="-489.63"
       y1="84.056"
       x1="-510.41" />
    <linearGradient
       id="linearGradient4511"
       y2="154.5"
       gradientUnits="userSpaceOnUse"
       x2="223.02"
       y1="424"
       x1="322">
      <stop
         id="stop4507"
         style="stop-color:#c0c0c0"
         offset="0" />
      <stop
         id="stop4509"
         style="stop-color:#d3d3d3"
         offset="1" />
    </linearGradient>
    <linearGradient
       id="linearGradient4521"
       y2="352.07001"
       xlink:href="#linearGradient4515"
       gradientUnits="userSpaceOnUse"
       x2="340"
       y1="223.39999"
       x1="235.53" />
    <linearGradient
       id="linearGradient4636"
       y2="297.42001"
       xlink:href="#linearGradient5226"
       gradientUnits="userSpaceOnUse"
       x2="184.38"
       y1="272.44"
       x1="184.38" />
    <clipPath
       id="clipPath4626"
       clipPathUnits="userSpaceOnUse">
      <path
         inkscape:connector-curvature="0"
         id="path4628"
         style="color:#000000;fill:#b3b5be;enable-background:accumulate"
         d="m 184,272 a 16,16 0 0 0 -16,16 16,16 0 0 0 16,16 16,16 0 0 0 16,-16 16,16 0 0 0 -16,-16 z" />
    </clipPath>
    <filter
       id="filter4858"
       style="color-interpolation-filters:sRGB"
       height="1.168"
       width="1.168"
       y="-0.083999999"
       x="-0.083999999">
      <feGaussianBlur
         id="feGaussianBlur4860"
         stdDeviation="1.12" />
    </filter>
    <clipPath
       id="clipPath1020"
       clipPathUnits="userSpaceOnUse">
      <path
         inkscape:connector-curvature="0"
         id="path1018"
         style="color:#000000;fill:#b3b5be;enable-background:accumulate"
         d="m 184,272 a 16,16 0 0 0 -16,16 16,16 0 0 0 16,16 16,16 0 0 0 16,-16 16,16 0 0 0 -16,-16 z" />
    </clipPath>
    <filter
       id="filter4870"
       style="color-interpolation-filters:sRGB"
       height="1.168"
       width="1.168"
       y="-0.083999999"
       x="-0.083999999">
      <feGaussianBlur
         id="feGaussianBlur4872"
         stdDeviation="1.12" />
    </filter>
    <clipPath
       id="clipPath1042"
       clipPathUnits="userSpaceOnUse">
      <path
         inkscape:connector-curvature="0"
         id="path1040"
         style="color:#000000;fill:#b3b5be;enable-background:accumulate"
         d="m 184,272 a 16,16 0 0 0 -16,16 16,16 0 0 0 16,16 16,16 0 0 0 16,-16 16,16 0 0 0 -16,-16 z" />
    </clipPath>
    <filter
       id="filter4882"
       style="color-interpolation-filters:sRGB"
       height="1.168"
       width="1.168"
       y="-0.083999999"
       x="-0.083999999">
      <feGaussianBlur
         id="feGaussianBlur4884"
         stdDeviation="1.12" />
    </filter>
    <filter
       id="filter5181"
       style="color-interpolation-filters:sRGB"
       height="1.24"
       width="1.24"
       y="-0.12"
       x="-0.12">
      <feGaussianBlur
         id="feGaussianBlur5183"
         stdDeviation="1.5999999" />
    </filter>
    <linearGradient
       id="linearGradient5115"
       y2="304"
       gradientUnits="userSpaceOnUse"
       x2="304"
       gradientTransform="translate(0,-576)"
       y1="304.89999"
       x1="272">
      <stop
         id="stop5111"
         style="stop-color:#c8c8c8;stop-opacity:1"
         offset="0" />
      <stop
         id="stop5113"
         style="stop-color:#dcdcdc;stop-opacity:1"
         offset="1" />
    </linearGradient>
    <linearGradient
       inkscape:collect="always"
       xlink:href="#linearGradient919"
       id="linearGradient921"
       x1="499.95294"
       y1="2.0078433"
       x2="499.95294"
       y2="1026.0078"
       gradientUnits="userSpaceOnUse"
       gradientTransform="matrix(0.99609375,0,0,0.99609375,2,2)" />
    <clipPath
       clipPathUnits="userSpaceOnUse"
       id="cp12">
      <path
         inkscape:connector-curvature="0"
         d="m 2328.32,421.51 c 97.42,0 176.4,-78.98 176.4,-176.4 0,-97.42 -78.98,-176.4 -176.4,-176.4 -97.42,0 -176.4,78.98 -176.4,176.4 0,97.42 78.98,176.4 176.4,176.4 z"
         id="path499" />
    </clipPath>
    <filter
       x="-0.5"
       y="-0.5"
       width="2"
       height="2"
       id="flt4">
      <feGaussianBlur
         stdDeviation="8.82"
         id="feGaussianBlur502" />
    </filter>
    <filter
       x="-0.5"
       y="-0.5"
       width="2"
       height="2"
       id="filter1955">
      <feGaussianBlur
         stdDeviation="8.82"
         id="feGaussianBlur1953" />
    </filter>
    <linearGradient
       id="grd68"
       gradientUnits="userSpaceOnUse"
       x1="2331.2749"
       y1="435.5072"
       x2="2331.2749"
       y2="45.72554"
       xlink:href="#linearGradient5115" />
    <clipPath
       clipPathUnits="userSpaceOnUse"
       id="cp13">
      <path
         inkscape:connector-curvature="0"
         d="m 2410.46,112.38 -6.45,17.23 c -0.42,1.13 0.01,2.63 0.96,3.36 l 7.59,5.81 c 0.93,0.71 2.52,0.75 3.5,0.05 l 14.96,-10.68 c 0.98,-0.7 2.47,-0.58 3.32,0.28 l 6.27,6.27 c 0.87,0.87 0.98,2.34 0.28,3.32 l -10.68,14.95 c -0.7,0.98 -0.67,2.55 0.06,3.5 l 5.82,7.59 c 0.71,0.93 2.24,1.38 3.36,0.96 l 17.21,-6.45 c 1.13,-0.42 2.53,0.08 3.13,1.13 l 4.43,7.67 c 0.62,1.07 0.34,2.51 -0.59,3.28 l -14.2,11.69 c -0.93,0.77 -1.31,2.29 -0.85,3.39 l 3.65,8.83 c 0.45,1.08 1.8,1.91 3,1.8 l 18.31,-1.78 c 1.2,-0.12 2.43,0.73 2.74,1.9 l 2.29,8.56 c 0.32,1.19 -0.32,2.51 -1.42,3.01 l -16.75,7.62 c -1.1,0.5 -1.86,1.87 -1.7,3.06 l 1.25,9.47 c 0.15,1.16 1.25,2.31 2.44,2.51 l 18.14,3.02 c 1.19,0.2 2.15,1.34 2.15,2.54 v 8.86 c 0,1.23 -0.96,2.35 -2.15,2.54 l -18.12,3.02 c -1.19,0.2 -2.28,1.32 -2.43,2.51 l -1.24,9.48 c -0.15,1.16 0.61,2.56 1.7,3.06 l 16.72,7.61 c 1.09,0.5 1.73,1.85 1.42,3.01 l -2.29,8.56 c -0.32,1.19 -1.54,2.02 -2.74,1.9 l -18.29,-1.77 c -1.2,-0.12 -2.54,0.69 -3,1.8 l -3.67,8.83 c -0.45,1.08 -0.08,2.63 0.85,3.39 l 14.2,11.69 c 0.93,0.77 1.2,2.23 0.59,3.28 l -4.43,7.67 c -0.62,1.07 -2.01,1.55 -3.14,1.13 l -17.23,-6.45 c -1.13,-0.42 -2.63,0.01 -3.36,0.96 l -5.81,7.59 c -0.71,0.93 -0.75,2.52 -0.05,3.5 l 10.68,14.96 c 0.7,0.98 0.58,2.47 -0.28,3.32 l -6.27,6.27 c -0.87,0.87 -2.34,0.98 -3.32,0.28 l -14.95,-10.68 c -0.98,-0.7 -2.55,-0.67 -3.5,0.06 l -7.59,5.82 c -0.93,0.71 -1.38,2.24 -0.96,3.36 l 6.45,17.21 c 0.42,1.13 -0.08,2.53 -1.13,3.13 l -7.67,4.43 c -1.07,0.62 -2.51,0.34 -3.28,-0.59 l -11.69,-14.2 c -0.77,-0.93 -2.29,-1.31 -3.39,-0.85 l -8.83,3.65 c -1.08,0.45 -1.91,1.8 -1.8,3 l 1.78,18.31 c 0.12,1.2 -0.73,2.43 -1.9,2.74 l -8.56,2.29 c -1.19,0.32 -2.51,-0.32 -3.01,-1.42 l -7.62,-16.75 c -0.5,-1.1 -1.87,-1.86 -3.06,-1.7 l -9.47,1.25 c -1.16,0.15 -2.31,1.25 -2.51,2.44 l -3.02,18.14 c -0.2,1.19 -1.34,2.15 -2.54,2.15 h -8.86 c -1.23,0 -2.35,-0.96 -2.54,-2.15 l -3.02,-18.12 c -0.2,-1.19 -1.32,-2.28 -2.51,-2.43 l -9.48,-1.24 c -1.16,-0.15 -2.56,0.61 -3.06,1.7 l -7.61,16.72 c -0.5,1.09 -1.85,1.73 -3.01,1.42 l -8.56,-2.29 c -1.19,-0.32 -2.02,-1.54 -1.9,-2.74 l 1.77,-18.29 c 0.12,-1.2 -0.69,-2.54 -1.8,-3 l -8.83,-3.67 c -1.08,-0.45 -2.63,-0.08 -3.39,0.85 l -11.69,14.2 c -0.77,0.93 -2.23,1.2 -3.28,0.59 l -7.67,-4.43 c -1.07,-0.62 -1.55,-2.01 -1.13,-3.14 l 6.45,-17.23 c 0.42,-1.13 -0.01,-2.63 -0.96,-3.36 l -7.59,-5.81 c -0.93,-0.71 -2.52,-0.75 -3.5,-0.05 l -14.96,10.68 c -0.98,0.7 -2.47,0.58 -3.32,-0.28 l -6.27,-6.27 c -0.87,-0.87 -0.98,-2.34 -0.28,-3.32 l 10.68,-14.95 c 0.7,-0.98 0.67,-2.55 -0.06,-3.5 l -5.82,-7.59 c -0.71,-0.93 -2.24,-1.38 -3.36,-0.96 l -17.21,6.45 c -1.13,0.42 -2.53,-0.08 -3.13,-1.13 l -4.43,-7.67 c -0.62,-1.07 -0.34,-2.51 0.59,-3.28 l 14.2,-11.69 c 0.93,-0.77 1.31,-2.29 0.85,-3.39 l -3.65,-8.83 c -0.45,-1.08 -1.8,-1.91 -3,-1.8 l -18.31,1.78 c -1.2,0.12 -2.43,-0.73 -2.74,-1.9 l -2.29,-8.56 c -0.32,-1.19 0.32,-2.51 1.42,-3.01 l 16.75,-7.62 c 1.1,-0.5 1.86,-1.87 1.7,-3.06 l -1.25,-9.47 c -0.15,-1.16 -1.25,-2.31 -2.44,-2.51 l -18.14,-3.02 c -1.19,-0.2 -2.15,-1.34 -2.15,-2.54 v -8.86 c 0,-1.23 0.96,-2.35 2.15,-2.54 l 18.12,-3.02 c 1.19,-0.2 2.28,-1.32 2.43,-2.51 l 1.24,-9.48 c 0.15,-1.16 -0.61,-2.56 -1.7,-3.06 l -16.72,-7.61 c -1.09,-0.5 -1.73,-1.85 -1.42,-3.01 l 2.29,-8.56 c 0.32,-1.19 1.54,-2.02 2.74,-1.9 l 18.29,1.77 c 1.2,0.12 2.54,-0.69 3,-1.8 l 3.67,-8.83 c 0.45,-1.08 0.08,-2.63 -0.85,-3.39 l -14.2,-11.69 c -0.93,-0.77 -1.2,-2.23 -0.59,-3.28 l 4.43,-7.67 c 0.62,-1.07 2.01,-1.55 3.14,-1.13 l 17.23,6.45 c 1.13,0.42 2.63,-0.01 3.36,-0.96 l 5.81,-7.59 c 0.71,-0.93 0.75,-2.52 0.05,-3.5 l -10.68,-14.96 c -0.7,-0.98 -0.58,-2.47 0.28,-3.32 l 6.27,-6.27 c 0.87,-0.87 2.34,-0.98 3.32,-0.28 l 14.95,10.68 c 0.98,0.7 2.55,0.67 3.5,-0.06 l 7.59,-5.82 c 0.93,-0.71 1.38,-2.24 0.96,-3.36 l -6.45,-17.21 c -0.42,-1.13 0.08,-2.53 1.13,-3.13 l 7.67,-4.43 c 1.07,-0.62 2.51,-0.34 3.28,0.59 l 11.69,14.2 c 0.77,0.93 2.29,1.31 3.39,0.85 l 8.83,-3.65 c 1.08,-0.45 1.91,-1.8 1.8,-3 L 2282.2,95.5 c -0.12,-1.2 0.73,-2.43 1.9,-2.74 l 8.56,-2.29 c 1.19,-0.32 2.51,0.32 3.01,1.42 l 7.62,16.75 c 0.5,1.1 1.87,1.86 3.06,1.7 l 9.47,-1.25 c 1.16,-0.15 2.31,-1.25 2.51,-2.44 l 3.02,-18.14 c 0.2,-1.19 1.34,-2.15 2.54,-2.15 h 8.86 c 1.23,0 2.35,0.96 2.54,2.15 l 3.02,18.12 c 0.2,1.19 1.32,2.28 2.51,2.43 l 9.48,1.24 c 1.16,0.15 2.56,-0.61 3.06,-1.7 l 7.61,-16.72 c 0.5,-1.09 1.85,-1.73 3.01,-1.42 l 8.56,2.29 c 1.19,0.32 2.02,1.54 1.9,2.74 l -1.77,18.29 c -0.12,1.2 0.69,2.54 1.8,3 l 8.83,3.67 c 1.08,0.45 2.63,0.08 3.39,-0.85 l 11.69,-14.2 c 0.77,-0.93 2.23,-1.2 3.28,-0.59 l 7.67,4.43 c 1.07,0.62 1.55,2.01 1.13,3.14 z m -29.36,36.71 c -24.86,-14.36 -53.13,-17.48 -78.92,-10.94 -4.97,1.26 -2.05,0.57 -2.05,0.57 -6.92,2.36 -9.68,9.49 -6.19,15.85 0,0 -2.01,-3.67 0.16,0.28 10.34,18.87 31.04,56.63 31.04,56.63 4.68,8.54 16.37,15.3 26.12,15.1 0,0 45.86,-0.95 68.8,-1.43 4.26,-0.09 0,0 0,0 7.06,-0.15 11.65,-6.09 10.11,-12.74 -7.16,-25.78 -24.05,-48.88 -49.06,-63.32 z m -1.73,184.17 c 25.11,-13.92 42.34,-36.54 50.02,-62.02 1.48,-4.91 0.57,-2.05 0.57,-2.05 1.54,-7.15 -3.15,-13.18 -10.4,-13.47 0,0 4.18,0.17 -0.32,-0.01 -21.5,-0.85 -64.52,-2.56 -64.52,-2.56 -9.73,-0.39 -21.55,6.15 -26.4,14.61 0,0 -22.8,39.8 -34.21,59.71 -2.12,3.7 0,0 0,0 -3.51,6.13 -0.77,13.12 5.72,15.23 0,0 -4.1,-1.14 0,0 25.79,7.14 54.29,4.56 79.54,-9.44 z m -125.19,-16.85 c 5.07,4.57 12.5,3.44 16.05,-2.67 0,0 -2.14,3.68 0,0 11.54,-19.83 34.6,-59.48 34.6,-59.48 4.9,-8.43 4.66,-21.93 -0.54,-30.17 0,0 -22.99,-36.41 -34.48,-54.6 -2.41,-3.81 -0.17,-0.27 -0.17,-0.27 -3.87,-6.13 -11.44,-7.18 -16.86,-2.27 0,0 2.02,-2.22 -1.49,1.52 -18.22,19.39 -29.2,45.62 -28.7,74.33 0.5,28.87 12.52,54.84 31.6,73.6 z"
         id="path520" />
    </clipPath>
    <radialGradient
       id="grd69"
       gradientUnits="userSpaceOnUse"
       cx="2331.2749"
       cy="240.61638"
       r="152.27299"
       fx="2331.2749"
       fy="240.61638">
      <stop
         id="stop525"
         stop-color="#918b84"
         offset="0" />
      <stop
         id="stop523"
         stop-color="#d3d3d3"
         offset="1" />
    </radialGradient>
    <linearGradient
       id="grd70"
       gradientUnits="userSpaceOnUse"
       x1="2429.542"
       y1="181.16299"
       x2="2293.041"
       y2="181.16299">
      <stop
         offset="0.339"
         stop-color="#908c83"
         id="stop528" />
      <stop
         offset="0.562"
         stop-color="#bdbfba"
         id="stop530" />
      <stop
         offset="0.677"
         stop-color="#acb3ac"
         id="stop532" />
      <stop
         offset="0.854"
         stop-color="#cfd6cf"
         id="stop534" />
      <stop
         offset="0.953"
         stop-color="#c2c7c1"
         id="stop536" />
      <stop
         offset="0.125"
         stop-color="#7e736d"
         id="stop538" />
    </linearGradient>
    <linearGradient
       id="grd71"
       gradientUnits="userSpaceOnUse"
       x1="2429.75"
       y1="300.233"
       x2="2293.04"
       y2="300.233">
      <stop
         offset="0.339"
         stop-color="#908c83"
         id="stop541" />
      <stop
         offset="0.562"
         stop-color="#bdbfba"
         id="stop543" />
      <stop
         offset="0.677"
         stop-color="#acb3ac"
         id="stop545" />
      <stop
         offset="0.854"
         stop-color="#cfd6cf"
         id="stop547" />
      <stop
         offset="0.953"
         stop-color="#c2c7c1"
         id="stop549" />
      <stop
         offset="0.125"
         stop-color="#7e736d"
         id="stop551" />
    </linearGradient>
    <linearGradient
       id="grd72"
       gradientUnits="userSpaceOnUse"
       x1="2306.27"
       y1="242.90199"
       x2="2222.48"
       y2="242.90199">
      <stop
         offset="0.339"
         stop-color="#908c83"
         id="stop554" />
      <stop
         offset="0.562"
         stop-color="#bdbfba"
         id="stop556" />
      <stop
         offset="0.677"
         stop-color="#acb3ac"
         id="stop558" />
      <stop
         offset="0.854"
         stop-color="#cfd6cf"
         id="stop560" />
      <stop
         offset="0.953"
         stop-color="#c2c7c1"
         id="stop562" />
      <stop
         offset="0.125"
         stop-color="#7e736d"
         id="stop564" />
    </linearGradient>
    <linearGradient
       id="grd73"
       gradientUnits="userSpaceOnUse"
       x1="2703.0659"
       y1="427.52399"
       x2="2394.3359"
       y2="432.91299">
      <stop
         offset="0.52"
         stop-color="#77695f"
         id="stop567" />
      <stop
         offset="0.585"
         stop-color="#79726d"
         id="stop569" />
      <stop
         offset="0.677"
         stop-color="#797574"
         id="stop571" />
      <stop
         offset="0.854"
         stop-color="#cfd6cf"
         id="stop573" />
      <stop
         offset="0.953"
         stop-color="#c3c6bb"
         id="stop575" />
      <stop
         offset="0.125"
         stop-color="#7e736d"
         id="stop577" />
    </linearGradient>
    <radialGradient
       id="grd74"
       gradientUnits="userSpaceOnUse"
       cx="2555.801"
       cy="362.66599"
       r="186.71201">
      <stop
         offset="0"
         stop-color="#868686"
         id="stop580" />
      <stop
         offset="1"
         stop-color="#565350"
         id="stop582" />
    </radialGradient>
    <linearGradient
       id="grd75"
       gradientUnits="userSpaceOnUse"
       x1="2421.2246"
       y1="338.0618"
       x2="1978.9723"
       y2="375.5408">
      <stop
         offset="0.37387827"
         stop-color="#908c83"
         id="stop585" />
      <stop
         offset="0.48766735"
         stop-color="#bdbfba"
         id="stop587" />
      <stop
         offset="0.677"
         stop-color="#acb3ac"
         id="stop589" />
      <stop
         offset="0.854"
         stop-color="#8e8b85"
         id="stop591" />
      <stop
         offset="0.933"
         stop-color="#7f7c75"
         id="stop593" />
      <stop
         offset="0.024"
         stop-color="#746f68"
         id="stop595" />
    </linearGradient>
    <radialGradient
       id="grd76"
       gradientUnits="userSpaceOnUse"
       cx="2101.021"
       cy="359.564"
       r="186.731">
      <stop
         offset="0"
         stop-color="#868686"
         id="stop598" />
      <stop
         offset="1"
         stop-color="#565350"
         id="stop600" />
    </radialGradient>
    <filter
       inkscape:collect="always"
       style="color-interpolation-filters:sRGB"
       id="filter982"
       x="-0.048"
       width="1.096"
       y="-0.048"
       height="1.096">
      <feGaussianBlur
         inkscape:collect="always"
         stdDeviation="6.174"
         id="feGaussianBlur984" />
    </filter>
    <linearGradient
       inkscape:collect="always"
       xlink:href="#linearGradient952"
       id="linearGradient954"
       x1="2323.9231"
       y1="57.124584"
       x2="2323.9231"
       y2="769.22571"
       gradientUnits="userSpaceOnUse" />
    <radialGradient
       inkscape:collect="always"
       xlink:href="#linearGradient4657"
       id="radialGradient6921"
       cx="100"
       cy="82.38073"
       fx="100"
       fy="82.38073"
       r="100"
       gradientUnits="userSpaceOnUse"
       gradientTransform="matrix(4.705,0,0,3.533613,2299.989,200.00117)" />
    <linearGradient
       id="linearGradient4657">
      <stop
         id="stop4653"
         offset="0"
         style="stop-color:#ffffff;stop-opacity:1" />
      <stop
         id="stop4655"
         offset="1"
         style="stop-color:#ffffff;stop-opacity:0;" />
    </linearGradient>
  </defs>
  <path
     id="path"
     d="m 984.88455,316.75212 q -9.29236,-22.5286 -20.9619,-44.13877 c -4.37603,-8.15784 -9.02221,-16.26166 -13.93853,-24.20339 C 928.86017,214.15784 903.09004,181.79661 872.67373,151.38029 773.10487,51.811441 652.84428,2 512,2 371.15572,2 250.94915,51.811441 151.38029,151.38029 51.811441,250.94915 2,371.15572 2,512 2,652.84428 51.811441,773.10487 151.38029,872.67373 250.94915,972.24259 371.15572,1022 512,1022 652.84428,1022 773.10487,972.24259 872.67373,872.67373 927.50953,817.7839 967.27222,756.62712 991.90781,689.25741 1011.9513,634.31356 1022,575.26377 1022,512 c 0,-48.51483 -5.8888,-94.59852 -17.7203,-138.25106 -1.3507,-4.91631 -2.7553,-9.83263 -4.214,-14.69491 -4.43011,-14.37077 -9.50849,-28.4714 -15.18115,-42.30191 z"
     style="fill:url(#linearGradient921);fill-opacity:1;stroke-width:1.08050847"
     inkscape:connector-curvature="0" />
  <g
     style="enable-background:new"
     id="layer1"
     transform="matrix(2.2603666,0,0,2.2603666,-138.98558,-138.9856)">
    <circle
       id="path4238"
       r="208"
       style="color:#000000;fill:#666666;enable-background:accumulate"
       cx="288"
       cy="288" />
  </g>
  <g
     style="enable-background:new;opacity:0.51"
     id="layer2"
     transform="matrix(2.5570652,0,0,2.5570652,-224.93478,-223.93477)">
    <g
       id="g5219"
       style="opacity:0.6;stroke:url(#linearGradient5232);filter:url(#filter5264)"
       transform="rotate(90,288,288)"
       clip-path="url(#clipPath5222)">
      <circle
         id="circle5217"
         r="184"
         style="color:#000000;opacity:1;fill:none;stroke:url(#linearGradient5234);stroke-width:64;enable-background:accumulate"
         cx="288"
         cy="288" />
    </g>
  </g>
  <circle
     style="color:#000000;display:inline;overflow:visible;visibility:visible;opacity:0.2;fill:url(#radialGradient6921);fill-opacity:1;fill-rule:nonzero;stroke:none;stroke-width:42.97708511;marker:none;enable-background:accumulate"
     id="path4188-6-4"
     cx="2770.489"
     cy="594.0824"
     r="470.5" />
  <g
     transform="matrix(2.6681604,0,0,2.6681604,-5699.7072,-137.68432)"
     id="Mask by oval"
     clip-path="url(#cp12)">
    <g
       id="gear mid"
       transform="translate(-0.33455928,3.4730925)">
      <path
         inkscape:connector-curvature="0"
         style="opacity:0.75;fill:#050505;fill-opacity:1;filter:url(#filter982)"
         d="m 2410.46,116.87748 -6.45,17.23 c -0.42,1.13 0.01,2.63 0.96,3.36 l 7.59,5.81 c 0.93,0.71 2.52,0.75 3.5,0.05 l 14.96,-10.68 c 0.98,-0.7 2.47,-0.58 3.32,0.28 l 6.27,6.27 c 0.87,0.87 0.98,2.34 0.28,3.32 l -10.68,14.95 c -0.7,0.98 -0.67,2.55 0.06,3.5 l 5.82,7.59 c 0.71,0.93 2.24,1.38 3.36,0.96 l 17.21,-6.45 c 1.13,-0.42 2.53,0.08 3.13,1.13 l 4.43,7.67 c 0.62,1.07 0.34,2.51 -0.59,3.28 l -14.2,11.69 c -0.93,0.77 -1.31,2.29 -0.85,3.39 l 3.65,8.83 c 0.45,1.08 1.8,1.91 3,1.8 l 18.31,-1.78 c 1.2,-0.12 2.43,0.73 2.74,1.9 l 2.29,8.56 c 0.32,1.19 -0.32,2.51 -1.42,3.01 l -16.75,7.62 c -1.1,0.5 -1.86,1.87 -1.7,3.06 l 1.25,9.47 c 0.15,1.16 1.25,2.31 2.44,2.51 l 18.14,3.02 c 1.19,0.2 2.15,1.34 2.15,2.54 v 8.86 c 0,1.23 -0.96,2.35 -2.15,2.54 l -18.12,3.02 c -1.19,0.2 -2.28,1.32 -2.43,2.51 l -1.24,9.48 c -0.15,1.16 0.61,2.56 1.7,3.06 l 16.72,7.61 c 1.09,0.5 1.73,1.85 1.42,3.01 l -2.29,8.56 c -0.32,1.19 -1.54,2.02 -2.74,1.9 l -18.29,-1.77 c -1.2,-0.12 -2.54,0.69 -3,1.8 l -3.67,8.83 c -0.45,1.08 -0.08,2.63 0.85,3.39 l 14.2,11.69 c 0.93,0.77 1.2,2.23 0.59,3.28 l -4.43,7.67 c -0.62,1.07 -2.01,1.55 -3.14,1.13 l -17.23,-6.45 c -1.13,-0.42 -2.63,0.01 -3.36,0.96 l -5.81,7.59 c -0.71,0.93 -0.75,2.52 -0.05,3.5 l 10.68,14.96 c 0.7,0.98 0.58,2.47 -0.28,3.32 l -6.27,6.27 c -0.87,0.87 -2.34,0.98 -3.32,0.28 l -14.95,-10.68 c -0.98,-0.7 -2.55,-0.67 -3.5,0.06 l -7.59,5.82 c -0.93,0.71 -1.38,2.24 -0.96,3.36 l 6.45,17.21 c 0.42,1.13 -0.08,2.53 -1.13,3.13 l -7.67,4.43 c -1.07,0.62 -2.51,0.34 -3.28,-0.59 l -11.69,-14.2 c -0.77,-0.93 -2.29,-1.31 -3.39,-0.85 l -8.83,3.65 c -1.08,0.45 -1.91,1.8 -1.8,3 l 1.78,18.31 c 0.12,1.2 -0.73,2.43 -1.9,2.74 l -8.56,2.29 c -1.19,0.32 -2.51,-0.32 -3.01,-1.42 l -7.62,-16.75 c -0.5,-1.1 -1.87,-1.86 -3.06,-1.7 l -9.47,1.25 c -1.16,0.15 -2.31,1.25 -2.51,2.44 l -3.02,18.14 c -0.2,1.19 -1.34,2.15 -2.54,2.15 h -8.86 c -1.23,0 -2.35,-0.96 -2.54,-2.15 l -3.02,-18.12 c -0.2,-1.19 -1.32,-2.28 -2.51,-2.43 l -9.48,-1.24 c -1.16,-0.15 -2.56,0.61 -3.06,1.7 l -7.61,16.72 c -0.5,1.09 -1.85,1.73 -3.01,1.42 l -8.56,-2.29 c -1.19,-0.32 -2.02,-1.54 -1.9,-2.74 l 1.77,-18.29 c 0.12,-1.2 -0.69,-2.54 -1.8,-3 l -8.83,-3.67 c -1.08,-0.45 -2.63,-0.08 -3.39,0.85 l -11.69,14.2 c -0.77,0.93 -2.23,1.2 -3.28,0.59 l -7.67,-4.43 c -1.07,-0.62 -1.55,-2.01 -1.13,-3.14 l 6.45,-17.23 c 0.42,-1.13 -0.01,-2.63 -0.96,-3.36 l -7.59,-5.81 c -0.93,-0.71 -2.52,-0.75 -3.5,-0.05 l -14.96,10.68 c -0.98,0.7 -2.47,0.58 -3.32,-0.28 l -6.27,-6.27 c -0.87,-0.87 -0.98,-2.34 -0.28,-3.32 l 10.68,-14.95 c 0.7,-0.98 0.67,-2.55 -0.06,-3.5 l -5.82,-7.59 c -0.71,-0.93 -2.24,-1.38 -3.36,-0.96 l -17.21,6.45 c -1.13,0.42 -2.53,-0.08 -3.13,-1.13 l -4.43,-7.67 c -0.62,-1.07 -0.34,-2.51 0.59,-3.28 l 14.2,-11.69 c 0.93,-0.77 1.31,-2.29 0.85,-3.39 l -3.65,-8.83 c -0.45,-1.08 -1.8,-1.91 -3,-1.8 l -18.31,1.78 c -1.2,0.12 -2.43,-0.73 -2.74,-1.9 l -2.29,-8.56 c -0.32,-1.19 0.32,-2.51 1.42,-3.01 l 16.75,-7.62 c 1.1,-0.5 1.86,-1.87 1.7,-3.06 l -1.25,-9.47 c -0.15,-1.16 -1.25,-2.31 -2.44,-2.51 l -18.14,-3.02 c -1.19,-0.2 -2.15,-1.34 -2.15,-2.54 v -8.86 c 0,-1.23 0.96,-2.35 2.15,-2.54 l 18.12,-3.02 c 1.19,-0.2 2.28,-1.32 2.43,-2.51 l 1.24,-9.48 c 0.15,-1.16 -0.61,-2.56 -1.7,-3.06 l -16.72,-7.61 c -1.09,-0.5 -1.73,-1.85 -1.42,-3.01 l 2.29,-8.56 c 0.32,-1.19 1.54,-2.02 2.74,-1.9 l 18.29,1.77 c 1.2,0.12 2.54,-0.69 3,-1.8 l 3.67,-8.83 c 0.45,-1.08 0.08,-2.63 -0.85,-3.39 l -14.2,-11.69 c -0.93,-0.77 -1.2,-2.23 -0.59,-3.28 l 4.43,-7.67 c 0.62,-1.07 2.01,-1.55 3.14,-1.13 l 17.23,6.45 c 1.13,0.42 2.63,-0.01 3.36,-0.96 l 5.81,-7.59 c 0.71,-0.93 0.75,-2.52 0.05,-3.5 l -10.68,-14.96 c -0.7,-0.98 -0.58,-2.47 0.28,-3.32 l 6.27,-6.27 c 0.87,-0.87 2.34,-0.98 3.32,-0.28 l 14.95,10.68 c 0.98,0.7 2.55,0.67 3.5,-0.06 l 7.59,-5.82 c 0.93,-0.71 1.38,-2.24 0.96,-3.36 l -6.45,-17.21 c -0.42,-1.13 0.08,-2.53 1.13,-3.13 l 7.67,-4.43 c 1.07,-0.62 2.51,-0.34 3.28,0.59 l 11.69,14.2 c 0.77,0.93 2.29,1.31 3.39,0.85 l 8.83,-3.65 c 1.08,-0.45 1.91,-1.8 1.8,-3 l -1.78,-18.31 c -0.12,-1.2 0.73,-2.43 1.9,-2.74 l 8.56,-2.29 c 1.19,-0.32 2.51,0.32 3.01,1.42 l 7.62,16.75 c 0.5,1.1 1.87,1.86 3.06,1.7 l 9.47,-1.25 c 1.16,-0.15 2.31,-1.25 2.51,-2.44 l 3.02,-18.14 c 0.2,-1.19 1.34,-2.15 2.54,-2.15 h 8.86 c 1.23,0 2.35,0.96 2.54,2.15 l 3.02,18.12 c 0.2,1.19 1.32,2.28 2.51,2.43 l 9.48,1.24 c 1.16,0.15 2.56,-0.61 3.06,-1.7 l 7.61,-16.72 c 0.5,-1.09 1.85,-1.73 3.01,-1.42 l 8.56,2.29 c 1.19,0.32 2.02,1.54 1.9,2.74 l -1.77,18.29 c -0.12,1.2 0.69,2.54 1.8,3 l 8.83,3.67 c 1.08,0.45 2.63,0.08 3.39,-0.85 l 11.69,-14.2 c 0.77,-0.93 2.23,-1.2 3.28,-0.59 l 7.67,4.43 c 1.07,0.62 1.55,2.01 1.13,3.14 z m -29.36,36.71 c -24.86,-14.36 -53.13,-17.48 -78.92,-10.94 -4.97,1.26 -2.05,0.57 -2.05,0.57 -6.92,2.36 -9.68,9.49 -6.19,15.85 0,0 -2.01,-3.67 0.16,0.28 10.34,18.87 31.04,56.63 31.04,56.63 4.68,8.54 16.37,15.3 26.12,15.1 0,0 45.86,-0.95 68.8,-1.43 4.26,-0.09 0,0 0,0 7.06,-0.15 11.65,-6.09 10.11,-12.74 -7.16,-25.78 -24.05,-48.88 -49.06,-63.32 z m -1.73,184.17 c 25.11,-13.92 42.34,-36.54 50.02,-62.02 1.48,-4.91 0.57,-2.05 0.57,-2.05 1.54,-7.15 -3.15,-13.18 -10.4,-13.47 0,0 4.18,0.17 -0.32,-0.01 -21.5,-0.85 -64.52,-2.56 -64.52,-2.56 -9.73,-0.39 -21.55,6.15 -26.4,14.61 0,0 -22.8,39.8 -34.21,59.71 -2.12,3.7 0,0 0,0 -3.51,6.13 -0.77,13.12 5.72,15.23 0,0 -4.1,-1.14 0,0 25.79,7.14 54.29,4.56 79.54,-9.44 z m -125.19,-16.85 c 5.07,4.57 12.5,3.44 16.05,-2.67 0,0 -2.14,3.68 0,0 11.54,-19.83 34.6,-59.48 34.6,-59.48 4.9,-8.43 4.66,-21.93 -0.54,-30.17 0,0 -22.99,-36.41 -34.48,-54.6 -2.41,-3.81 -0.17,-0.27 -0.17,-0.27 -3.87,-6.13 -11.44,-7.18 -16.86,-2.27 0,0 2.02,-2.22 -1.49,1.52 -18.22,19.39 -29.2,45.62 -28.7,74.33 0.5,28.87 12.52,54.84 31.6,73.6 z"
         class="shp86"
         id="path956" />
      <path
         id="gear"
         class="shp86"
         d="m 2410.46,112.38 -6.45,17.23 c -0.42,1.13 0.01,2.63 0.96,3.36 l 7.59,5.81 c 0.93,0.71 2.52,0.75 3.5,0.05 l 14.96,-10.68 c 0.98,-0.7 2.47,-0.58 3.32,0.28 l 6.27,6.27 c 0.87,0.87 0.98,2.34 0.28,3.32 l -10.68,14.95 c -0.7,0.98 -0.67,2.55 0.06,3.5 l 5.82,7.59 c 0.71,0.93 2.24,1.38 3.36,0.96 l 17.21,-6.45 c 1.13,-0.42 2.53,0.08 3.13,1.13 l 4.43,7.67 c 0.62,1.07 0.34,2.51 -0.59,3.28 l -14.2,11.69 c -0.93,0.77 -1.31,2.29 -0.85,3.39 l 3.65,8.83 c 0.45,1.08 1.8,1.91 3,1.8 l 18.31,-1.78 c 1.2,-0.12 2.43,0.73 2.74,1.9 l 2.29,8.56 c 0.32,1.19 -0.32,2.51 -1.42,3.01 l -16.75,7.62 c -1.1,0.5 -1.86,1.87 -1.7,3.06 l 1.25,9.47 c 0.15,1.16 1.25,2.31 2.44,2.51 l 18.14,3.02 c 1.19,0.2 2.15,1.34 2.15,2.54 v 8.86 c 0,1.23 -0.96,2.35 -2.15,2.54 l -18.12,3.02 c -1.19,0.2 -2.28,1.32 -2.43,2.51 l -1.24,9.48 c -0.15,1.16 0.61,2.56 1.7,3.06 l 16.72,7.61 c 1.09,0.5 1.73,1.85 1.42,3.01 l -2.29,8.56 c -0.32,1.19 -1.54,2.02 -2.74,1.9 l -18.29,-1.77 c -1.2,-0.12 -2.54,0.69 -3,1.8 l -3.67,8.83 c -0.45,1.08 -0.08,2.63 0.85,3.39 l 14.2,11.69 c 0.93,0.77 1.2,2.23 0.59,3.28 l -4.43,7.67 c -0.62,1.07 -2.01,1.55 -3.14,1.13 l -17.23,-6.45 c -1.13,-0.42 -2.63,0.01 -3.36,0.96 l -5.81,7.59 c -0.71,0.93 -0.75,2.52 -0.05,3.5 l 10.68,14.96 c 0.7,0.98 0.58,2.47 -0.28,3.32 l -6.27,6.27 c -0.87,0.87 -2.34,0.98 -3.32,0.28 l -14.95,-10.68 c -0.98,-0.7 -2.55,-0.67 -3.5,0.06 l -7.59,5.82 c -0.93,0.71 -1.38,2.24 -0.96,3.36 l 6.45,17.21 c 0.42,1.13 -0.08,2.53 -1.13,3.13 l -7.67,4.43 c -1.07,0.62 -2.51,0.34 -3.28,-0.59 l -11.69,-14.2 c -0.77,-0.93 -2.29,-1.31 -3.39,-0.85 l -8.83,3.65 c -1.08,0.45 -1.91,1.8 -1.8,3 l 1.78,18.31 c 0.12,1.2 -0.73,2.43 -1.9,2.74 l -8.56,2.29 c -1.19,0.32 -2.51,-0.32 -3.01,-1.42 l -7.62,-16.75 c -0.5,-1.1 -1.87,-1.86 -3.06,-1.7 l -9.47,1.25 c -1.16,0.15 -2.31,1.25 -2.51,2.44 l -3.02,18.14 c -0.2,1.19 -1.34,2.15 -2.54,2.15 h -8.86 c -1.23,0 -2.35,-0.96 -2.54,-2.15 l -3.02,-18.12 c -0.2,-1.19 -1.32,-2.28 -2.51,-2.43 l -9.48,-1.24 c -1.16,-0.15 -2.56,0.61 -3.06,1.7 l -7.61,16.72 c -0.5,1.09 -1.85,1.73 -3.01,1.42 l -8.56,-2.29 c -1.19,-0.32 -2.02,-1.54 -1.9,-2.74 l 1.77,-18.29 c 0.12,-1.2 -0.69,-2.54 -1.8,-3 l -8.83,-3.67 c -1.08,-0.45 -2.63,-0.08 -3.39,0.85 l -11.69,14.2 c -0.77,0.93 -2.23,1.2 -3.28,0.59 l -7.67,-4.43 c -1.07,-0.62 -1.55,-2.01 -1.13,-3.14 l 6.45,-17.23 c 0.42,-1.13 -0.01,-2.63 -0.96,-3.36 l -7.59,-5.81 c -0.93,-0.71 -2.52,-0.75 -3.5,-0.05 l -14.96,10.68 c -0.98,0.7 -2.47,0.58 -3.32,-0.28 l -6.27,-6.27 c -0.87,-0.87 -0.98,-2.34 -0.28,-3.32 l 10.68,-14.95 c 0.7,-0.98 0.67,-2.55 -0.06,-3.5 l -5.82,-7.59 c -0.71,-0.93 -2.24,-1.38 -3.36,-0.96 l -17.21,6.45 c -1.13,0.42 -2.53,-0.08 -3.13,-1.13 l -4.43,-7.67 c -0.62,-1.07 -0.34,-2.51 0.59,-3.28 l 14.2,-11.69 c 0.93,-0.77 1.31,-2.29 0.85,-3.39 l -3.65,-8.83 c -0.45,-1.08 -1.8,-1.91 -3,-1.8 l -18.31,1.78 c -1.2,0.12 -2.43,-0.73 -2.74,-1.9 l -2.29,-8.56 c -0.32,-1.19 0.32,-2.51 1.42,-3.01 l 16.75,-7.62 c 1.1,-0.5 1.86,-1.87 1.7,-3.06 l -1.25,-9.47 c -0.15,-1.16 -1.25,-2.31 -2.44,-2.51 l -18.14,-3.02 c -1.19,-0.2 -2.15,-1.34 -2.15,-2.54 v -8.86 c 0,-1.23 0.96,-2.35 2.15,-2.54 l 18.12,-3.02 c 1.19,-0.2 2.28,-1.32 2.43,-2.51 l 1.24,-9.48 c 0.15,-1.16 -0.61,-2.56 -1.7,-3.06 l -16.72,-7.61 c -1.09,-0.5 -1.73,-1.85 -1.42,-3.01 l 2.29,-8.56 c 0.32,-1.19 1.54,-2.02 2.74,-1.9 l 18.29,1.77 c 1.2,0.12 2.54,-0.69 3,-1.8 l 3.67,-8.83 c 0.45,-1.08 0.08,-2.63 -0.85,-3.39 l -14.2,-11.69 c -0.93,-0.77 -1.2,-2.23 -0.59,-3.28 l 4.43,-7.67 c 0.62,-1.07 2.01,-1.55 3.14,-1.13 l 17.23,6.45 c 1.13,0.42 2.63,-0.01 3.36,-0.96 l 5.81,-7.59 c 0.71,-0.93 0.75,-2.52 0.05,-3.5 l -10.68,-14.96 c -0.7,-0.98 -0.58,-2.47 0.28,-3.32 l 6.27,-6.27 c 0.87,-0.87 2.34,-0.98 3.32,-0.28 l 14.95,10.68 c 0.98,0.7 2.55,0.67 3.5,-0.06 l 7.59,-5.82 c 0.93,-0.71 1.38,-2.24 0.96,-3.36 l -6.45,-17.21 c -0.42,-1.13 0.08,-2.53 1.13,-3.13 l 7.67,-4.43 c 1.07,-0.62 2.51,-0.34 3.28,0.59 l 11.69,14.2 c 0.77,0.93 2.29,1.31 3.39,0.85 l 8.83,-3.65 c 1.08,-0.45 1.91,-1.8 1.8,-3 L 2282.2,95.5 c -0.12,-1.2 0.73,-2.43 1.9,-2.74 l 8.56,-2.29 c 1.19,-0.32 2.51,0.32 3.01,1.42 l 7.62,16.75 c 0.5,1.1 1.87,1.86 3.06,1.7 l 9.47,-1.25 c 1.16,-0.15 2.31,-1.25 2.51,-2.44 l 3.02,-18.14 c 0.2,-1.19 1.34,-2.15 2.54,-2.15 h 8.86 c 1.23,0 2.35,0.96 2.54,2.15 l 3.02,18.12 c 0.2,1.19 1.32,2.28 2.51,2.43 l 9.48,1.24 c 1.16,0.15 2.56,-0.61 3.06,-1.7 l 7.61,-16.72 c 0.5,-1.09 1.85,-1.73 3.01,-1.42 l 8.56,2.29 c 1.19,0.32 2.02,1.54 1.9,2.74 l -1.77,18.29 c -0.12,1.2 0.69,2.54 1.8,3 l 8.83,3.67 c 1.08,0.45 2.63,0.08 3.39,-0.85 l 11.69,-14.2 c 0.77,-0.93 2.23,-1.2 3.28,-0.59 l 7.67,4.43 c 1.07,0.62 1.55,2.01 1.13,3.14 z m -29.36,36.71 c -24.86,-14.36 -53.13,-17.48 -78.92,-10.94 -4.97,1.26 -2.05,0.57 -2.05,0.57 -6.92,2.36 -9.68,9.49 -6.19,15.85 0,0 -2.01,-3.67 0.16,0.28 10.34,18.87 31.04,56.63 31.04,56.63 4.68,8.54 16.37,15.3 26.12,15.1 0,0 45.86,-0.95 68.8,-1.43 4.26,-0.09 0,0 0,0 7.06,-0.15 11.65,-6.09 10.11,-12.74 -7.16,-25.78 -24.05,-48.88 -49.06,-63.32 z m -1.73,184.17 c 25.11,-13.92 42.34,-36.54 50.02,-62.02 1.48,-4.91 0.57,-2.05 0.57,-2.05 1.54,-7.15 -3.15,-13.18 -10.4,-13.47 0,0 4.18,0.17 -0.32,-0.01 -21.5,-0.85 -64.52,-2.56 -64.52,-2.56 -9.73,-0.39 -21.55,6.15 -26.4,14.61 0,0 -22.8,39.8 -34.21,59.71 -2.12,3.7 0,0 0,0 -3.51,6.13 -0.77,13.12 5.72,15.23 0,0 -4.1,-1.14 0,0 25.79,7.14 54.29,4.56 79.54,-9.44 z m -125.19,-16.85 c 5.07,4.57 12.5,3.44 16.05,-2.67 0,0 -2.14,3.68 0,0 11.54,-19.83 34.6,-59.48 34.6,-59.48 4.9,-8.43 4.66,-21.93 -0.54,-30.17 0,0 -22.99,-36.41 -34.48,-54.6 -2.41,-3.81 -0.17,-0.27 -0.17,-0.27 -3.87,-6.13 -11.44,-7.18 -16.86,-2.27 0,0 2.02,-2.22 -1.49,1.52 -18.22,19.39 -29.2,45.62 -28.7,74.33 0.5,28.87 12.52,54.84 31.6,73.6 z"
         style="fill:url(#grd68);fill-opacity:1.0"
         inkscape:connector-curvature="0" />
      <g
         id="Mask by gear"
         clip-path="url(#cp13)"
         style="fill:url(#linearGradient954);fill-opacity:1">
        <path
           id="path1031"
           class="shp87"
           d="m 2328.32,359.77 c 65.76,0 119.07,-53.31 119.07,-119.07 0,-65.76 -53.31,-119.07 -119.07,-119.07 -65.76,0 -119.07,53.31 -119.07,119.07 0,65.76 53.31,119.07 119.07,119.07 z"
           style="fill:url(#linearGradient954);fill-opacity:1"
           inkscape:connector-curvature="0" />
        <path
           id="Path 8"
           class="shp88"
           d="m 2380.74,149.2 c -24.59,-14.5 -52.54,-17.65 -78.05,-11.04 -4.91,1.27 -2.03,0.58 -2.03,0.58 -6.85,2.38 -9.57,9.58 -6.12,16.01 0,0 -1.99,-3.71 0.15,0.29 10.23,19.05 30.69,57.19 30.69,57.19 4.63,8.63 16.19,15.45 25.83,15.25 0,0 45.35,-0.96 68.04,-1.44 6.98,-0.15 11.52,-6.15 10,-12.87 -7.08,-26.04 -23.78,-49.37 -48.51,-63.95 z"
           style="fill:url(#linearGradient954);fill-opacity:1"
           inkscape:connector-curvature="0" />
        <path
           id="Path 7"
           class="shp89"
           d="m 2300.25,342.72 c 25.61,7.08 53.9,4.52 78.98,-9.35 24.93,-13.8 42.04,-36.22 49.67,-61.48 1.47,-4.87 0.57,-2.04 0.57,-2.04 1.53,-7.09 -3.13,-13.07 -10.32,-13.35 0,0 4.15,0.16 -0.32,-0.01 -21.34,-0.85 -64.07,-2.54 -64.07,-2.54 -9.66,-0.38 -21.39,6.1 -26.21,14.49 0,0 -22.64,39.45 -33.97,59.19 -2.1,3.67 0,0 0,0 -3.49,6.07 -0.77,13.01 5.68,15.1 0,0 -4.07,-1.13 0,0 v 0 z"
           style="fill:url(#linearGradient954);fill-opacity:1"
           inkscape:connector-curvature="0" />
        <path
           id="Path 6"
           class="shp90"
           d="m 2253.36,317.3 c 4.95,4.54 12.21,3.42 15.67,-2.65 11.27,-19.7 33.8,-59.1 33.8,-59.1 4.79,-8.38 4.55,-21.79 -0.53,-29.97 0,0 -22.46,-36.18 -33.84,-54.52 -3.78,-6.09 -11.18,-7.13 -16.47,-2.25 0,0 1.97,-2.2 -1.46,1.51 -17.8,19.26 -28.52,45.33 -28.03,73.85 0.49,28.68 12.23,54.48 30.86,73.13 z"
           style="fill:url(#linearGradient954);fill-opacity:1"
           inkscape:connector-curvature="0" />
      </g>
    </g>
  </g>
</svg>
