<?xml version="1.0" encoding="UTF-8" standalone="no"?>
<svg
   xmlns:dc="http://purl.org/dc/elements/1.1/"
   xmlns:cc="http://creativecommons.org/ns#"
   xmlns:rdf="http://www.w3.org/1999/02/22-rdf-syntax-ns#"
   xmlns:svg="http://www.w3.org/2000/svg"
   xmlns="http://www.w3.org/2000/svg"
   xmlns:sodipodi="http://sodipodi.sourceforge.net/DTD/sodipodi-0.dtd"
   xmlns:inkscape="http://www.inkscape.org/namespaces/inkscape"
   height="48"
   width="48"
   version="1.1"
   id="svg240"
   sodipodi:docname="system-switch-user.svg"
   inkscape:version="0.92.4 5da689c313, 2019-01-14">
  <metadata
     id="metadata246">
    <rdf:RDF>
      <cc:Work
         rdf:about="">
        <dc:format>image/svg+xml</dc:format>
        <dc:type
           rdf:resource="http://purl.org/dc/dcmitype/StillImage" />
      </cc:Work>
    </rdf:RDF>
  </metadata>
  <defs
     id="defs244" />
  <sodipodi:namedview
     pagecolor="#ffffff"
     bordercolor="#666666"
     borderopacity="1"
     objecttolerance="10"
     gridtolerance="10"
     guidetolerance="10"
     inkscape:pageopacity="0"
     inkscape:pageshadow="2"
     inkscape:window-width="640"
     inkscape:window-height="480"
     id="namedview242"
     showgrid="false"
     inkscape:zoom="4.9166667"
     inkscape:cx="24"
     inkscape:cy="24"
     inkscape:window-x="787"
     inkscape:window-y="224"
     inkscape:window-maximized="0"
     inkscape:current-layer="svg240" />
  <linearGradient
     id="a"
     gradientUnits="userSpaceOnUse"
     x1="399.57144"
     x2="399.57144"
     y1="545.79797"
     y2="517.79797">
    <stop
       offset="0"
       stop-color="#e6e6e6"
       id="stop30" />
    <stop
       offset="1"
       stop-color="#cccccc"
       id="stop32" />
  </linearGradient>
  <path
     d="m16.428 15.744c-.159-.052-1.164-.505-.536-2.414h-.009c1.637-1.686 2.888-4.399 2.888-7.07 0-4.107-2.731-6.26-5.905-6.26-3.176 0-5.892 2.152-5.892 6.26 0 2.682 1.244 5.406 2.891 7.088.642 1.684-.506 2.309-.746 2.396-2.2377833.723652-8.32535247 4.33152-8.2290391 9.585718h24.0505821c.107339-5.019251-4.707828-8.278585-8.512543-9.585718zm21.817305-3.079196a25.329718 25.329718 0 0 1 -25.329718 25.329718 25.329718 25.329718 0 0 1 -25.329718-25.329718 25.329718 25.329718 0 0 1 25.329718-25.329718 25.329718 25.329718 0 0 1 25.329718 25.329718z"
     fill="url(#a)"
     transform="matrix(.908024294857 0 0 .908024294857 12.272331891738 12.500046429678)"
     id="path238"
     style="fill:#e6e6e6" />
</svg>
