<?xml version="1.0" encoding="UTF-8" standalone="no"?>
<svg
   xmlns:dc="http://purl.org/dc/elements/1.1/"
   xmlns:cc="http://creativecommons.org/ns#"
   xmlns:rdf="http://www.w3.org/1999/02/22-rdf-syntax-ns#"
   xmlns:svg="http://www.w3.org/2000/svg"
   xmlns="http://www.w3.org/2000/svg"
   xmlns:sodipodi="http://sodipodi.sourceforge.net/DTD/sodipodi-0.dtd"
   xmlns:inkscape="http://www.inkscape.org/namespaces/inkscape"
   height="48"
   width="48"
   version="1.1"
   id="svg48"
   sodipodi:docname="system-hibernate.svg"
   inkscape:version="0.92.4 5da689c313, 2019-01-14">
  <metadata
     id="metadata54">
    <rdf:RDF>
      <cc:Work
         rdf:about="">
        <dc:format>image/svg+xml</dc:format>
        <dc:type
           rdf:resource="http://purl.org/dc/dcmitype/StillImage" />
      </cc:Work>
    </rdf:RDF>
  </metadata>
  <defs
     id="defs52" />
  <sodipodi:namedview
     pagecolor="#ffffff"
     bordercolor="#666666"
     borderopacity="1"
     objecttolerance="10"
     gridtolerance="10"
     guidetolerance="10"
     inkscape:pageopacity="0"
     inkscape:pageshadow="2"
     inkscape:window-width="640"
     inkscape:window-height="480"
     id="namedview50"
     showgrid="false"
     inkscape:zoom="4.9166667"
     inkscape:cx="24"
     inkscape:cy="24"
     inkscape:window-x="0"
     inkscape:window-y="32"
     inkscape:window-maximized="0"
     inkscape:current-layer="svg48" />
  <linearGradient
     id="a"
     gradientUnits="userSpaceOnUse"
     x1="399.57144"
     x2="399.57144"
     y1="545.79797"
     y2="517.79797">
    <stop
       offset="0"
       stop-color="#e6e6e6"
       id="stop30" />
    <stop
       offset="1"
       stop-color="#cccccc"
       id="stop32" />
  </linearGradient>
  <linearGradient
     id="b"
     gradientUnits="userSpaceOnUse"
     x1="15.883406"
     x2="14.337673"
     y1="55.641636"
     y2="-7.895216">
    <stop
       offset="0"
       stop-color="#cccccc"
       id="stop35" />
    <stop
       offset="1"
       stop-color="#aaaaaa"
       id="stop37" />
  </linearGradient>
  <g
     stroke-width="1.3"
     transform="matrix(1.6383916 0 0 1.6383916 -632.273205494467 -847.230747560362)"
     id="g44">
    <circle
       cx="400.57144"
       cy="531.79797"
       fill="none"
       r="13.999958"
       id="circle40" />
    <circle
       cx="400.57138"
       cy="531.79791"
       fill="url(#a)"
       r="0"
       id="circle42" />
  </g>
  <path
     d="m12.2 15.267c0-3.322.896-6.43 2.448-9.113.376-.649-.191-1.451-.918-1.265-8.38 2.152-14.441 10.072-13.663 19.29.736 8.701 7.768 15.803 16.463 16.617 6.033.565 11.517-1.811 15.221-5.848.5-.546.073-1.432-.666-1.401-.196.009-.395.013-.594.013-10.102 0-18.291-8.189-18.291-18.293zm34.924912 7.772636a31.088175 31.088175 0 0 1 -31.08818 31.088179 31.088175 31.088175 0 0 1 -31.088179-31.088179 31.088175 31.088175 0 0 1 31.088179-31.0881797 31.088175 31.088175 0 0 1 31.08818 31.0881797z"
     fill="url(#b)"
     transform="matrix(.737817950497 0 0 .737817950497 12.148137773017 6.938360403786)"
     id="path46" />
</svg>
