<?xml version="1.0" encoding="UTF-8" standalone="no"?>
<!-- Generator: flash2svg, http://dissentgraphics.com/tools/flash2svg -->

<svg
   xmlns:dc="http://purl.org/dc/elements/1.1/"
   xmlns:cc="http://creativecommons.org/ns#"
   xmlns:rdf="http://www.w3.org/1999/02/22-rdf-syntax-ns#"
   xmlns:svg="http://www.w3.org/2000/svg"
   xmlns="http://www.w3.org/2000/svg"
   xmlns:xlink="http://www.w3.org/1999/xlink"
   xmlns:sodipodi="http://sodipodi.sourceforge.net/DTD/sodipodi-0.dtd"
   xmlns:inkscape="http://www.inkscape.org/namespaces/inkscape"
   id="Spotify"
   image-rendering="optimizeSpeed"
   version="1.1"
   style="background-color:#FFFFFF"
   x="0px"
   y="0px"
   width="1024px"
   height="1024px"
   viewBox="0 0 1024 1024"
   enable-background="new 0 0 1024 1024"
   sodipodi:docname="uget-icon.svg"
   inkscape:version="0.92.4 (5da689c313, 2019-01-14)">
  <metadata
     id="metadata152">
    <rdf:RDF>
      <cc:Work
         rdf:about="">
        <dc:format>image/svg+xml</dc:format>
        <dc:type
           rdf:resource="http://purl.org/dc/dcmitype/StillImage" />
        <dc:title />
      </cc:Work>
    </rdf:RDF>
  </metadata>
  <sodipodi:namedview
     pagecolor="#ffffff"
     bordercolor="#666666"
     borderopacity="1"
     objecttolerance="10"
     gridtolerance="10"
     guidetolerance="10"
     inkscape:pageopacity="0"
     inkscape:pageshadow="2"
     inkscape:window-width="1920"
     inkscape:window-height="944"
     id="namedview150"
     showgrid="true"
     inkscape:zoom="0.7109375"
     inkscape:cx="512"
     inkscape:cy="512"
     inkscape:window-x="0"
     inkscape:window-y="25"
     inkscape:window-maximized="1"
     inkscape:current-layer="Spotify"
     inkscape:pagecheckerboard="true">
    <inkscape:grid
       type="xygrid"
       id="grid959" />
  </sodipodi:namedview>
  <defs
     transform="matrix(1 0 0 1 0 0) "
     id="defs2">
    <linearGradient
       inkscape:collect="always"
       id="linearGradient852">
      <stop
         style="stop-color:#08e537;stop-opacity:1;"
         offset="0"
         id="stop848" />
      <stop
         style="stop-color:#07cb37;stop-opacity:1"
         offset="1"
         id="stop850" />
    </linearGradient>
    <linearGradient
       id="linearGradient859"
       inkscape:collect="always">
      <stop
         id="stop855"
         offset="0"
         style="stop-color:#ffffff;stop-opacity:1" />
      <stop
         id="stop857"
         offset="1"
         style="stop-color:#d7d7d7;stop-opacity:1" />
    </linearGradient>
    <linearGradient
       id="linearGradient872"
       inkscape:collect="always">
      <stop
         id="stop868"
         offset="0"
         style="stop-color:#a6d74f;stop-opacity:1" />
      <stop
         id="stop870"
         offset="1"
         style="stop-color:#46a926;stop-opacity:1" />
    </linearGradient>
    <linearGradient
       id="linearGradient867"
       inkscape:collect="always">
      <stop
         id="stop863"
         offset="0"
         style="stop-color:#82eb78;stop-opacity:1" />
      <stop
         id="stop865"
         offset="1"
         style="stop-color:#4fbb32;stop-opacity:1" />
    </linearGradient>
    <linearGradient
       inkscape:collect="always"
       xlink:href="#linearGradient872"
       id="linearGradient4642"
       gradientUnits="userSpaceOnUse"
       x1="520.5271"
       y1="-158.63126"
       x2="505.45465"
       y2="1331.27"
       gradientTransform="matrix(0.99682199,0,0,0.99682199,1.1271186,2.1271186)" />
    <linearGradient
       inkscape:collect="always"
       xlink:href="#linearGradient867"
       id="linearGradient4646"
       gradientUnits="userSpaceOnUse"
       x1="540"
       y1="-16"
       x2="540"
       y2="1024"
       gradientTransform="matrix(0.99609375,0,0,0.99609375,2,2)" />
    <linearGradient
       inkscape:collect="always"
       xlink:href="#linearGradient859"
       id="linearGradient853"
       x1="520.03137"
       y1="283.1059"
       x2="520.03137"
       y2="825.22351"
       gradientUnits="userSpaceOnUse"
       gradientTransform="matrix(1.2475491,0,0,1.2475491,-128.95997,-139.87208)" />
    <filter
       inkscape:collect="always"
       style="color-interpolation-filters:sRGB"
       id="filter858"
       x="-0.036000001"
       width="1.072"
       y="-0.035999999"
       height="1.072">
      <feGaussianBlur
         inkscape:collect="always"
         stdDeviation="7.5294119"
         id="feGaussianBlur860" />
    </filter>
    <linearGradient
       inkscape:collect="always"
       xlink:href="#linearGradient852"
       id="linearGradient854"
       x1="520.03137"
       y1="2.0078433"
       x2="520.03137"
       y2="1026.0078"
       gradientUnits="userSpaceOnUse"
       gradientTransform="matrix(0.99609375,0,0,0.99609375,2,2)" />
    <radialGradient
       inkscape:collect="always"
       xlink:href="#linearGradient4657"
       id="radialGradient6921"
       cx="100"
       cy="82.38073"
       fx="100"
       fy="82.38073"
       r="100"
       gradientUnits="userSpaceOnUse"
       gradientTransform="matrix(4.705,0,0,3.533613,40.999953,118.41879)" />
    <linearGradient
       id="linearGradient4657">
      <stop
         id="stop4653"
         offset="0"
         style="stop-color:#ffffff;stop-opacity:1" />
      <stop
         id="stop4655"
         offset="1"
         style="stop-color:#ffffff;stop-opacity:0;" />
    </linearGradient>
  </defs>
  <path
     id="path"
     d="m 984.88455,316.75212 q -9.29236,-22.5286 -20.9619,-44.13877 c -4.37603,-8.15784 -9.02221,-16.26166 -13.93853,-24.20339 C 928.86017,214.15784 903.09004,181.79661 872.67373,151.38029 773.10487,51.811441 652.84428,2 512,2 371.15572,2 250.94915,51.811441 151.38029,151.38029 51.811441,250.94915 2,371.15572 2,512 2,652.84428 51.811441,773.10487 151.38029,872.67373 250.94915,972.24259 371.15572,1022 512,1022 652.84428,1022 773.10487,972.24259 872.67373,872.67373 927.50953,817.7839 967.27222,756.62712 991.90781,689.25741 1011.9513,634.31356 1022,575.26377 1022,512 c 0,-48.51483 -5.8888,-94.59852 -17.7203,-138.25106 -1.3507,-4.91631 -2.7553,-9.83263 -4.214,-14.69491 -4.43011,-14.37077 -9.50849,-28.4714 -15.18115,-42.30191 z"
     style="fill:url(#linearGradient4646);fill-opacity:1;stroke-width:1.08050847"
     inkscape:connector-curvature="0" />
  <path
     id="path1"
     d="m 967.74544,392.88136 c -1.0965,-4.33618 -2.34253,-8.97141 -3.6384,-13.55678 -2.49206,-8.7222 -5.333,-17.54407 -8.42315,-26.26626 C 949.2544,334.86631 941.57887,317.12288 932.60747,299.57881 928.81954,292.20233 924.68274,284.67633 920.34656,277.25 900.11107,242.85964 874.69211,210.26356 844.23919,179.81064 771.86991,107.44136 687.58861,63.531357 591.39529,48.180297 575.19693,45.588559 558.69952,43.79428 541.50435,42.847299 531.83517,42.299047 521.71742,42 511.5,42 502.17971,42 492.95911,42.249206 483.68866,42.747616 365.71478,48.828231 264.08877,94.532521 178.81064,179.81064 Q 41,317.62129 41,512.5 c 0,129.93576 45.953496,240.88204 137.81064,332.7392 85.27813,85.22828 186.90414,130.93257 304.87802,137.06303 0.14953,0 0.24921,0 0.39873,0 8.47299,0.44857 16.54725,0.69777 24.42214,0.69777 1.19619,0 2.09333,0 2.99047,0 10.26727,0 20.43485,-0.29905 30.00435,-0.79745 2.49204,-0.14953 4.7349,-0.29905 6.92791,-0.44857 20.1358,-1.44539 39.7732,-4.03714 58.51344,-7.67553 7.92475,-1.54508 15.7498,-3.28952 23.32564,-5.13364 80.54323,-20.23549 151.66648,-61.40424 213.96785,-123.70561 48.44556,-48.44556 84.13178,-102.17427 107.00885,-161.28581 18.39137,-47.49857 28.55895,-98.48602 30.45292,-153.01218 C 981.90031,524.91043 982,518.73014 982,512.5 c 0,-0.64793 0,-1.34571 0,-1.99364 0,-0.34889 0,-0.64794 0,-0.99682 -0.19937,-40.52082 -4.93427,-79.24736 -14.25456,-116.62818 z"
     style="fill:url(#linearGradient4642);fill-opacity:1;stroke-width:0.996822"
     inkscape:connector-curvature="0" />
  <circle
     style="color:#000000;display:inline;overflow:visible;visibility:visible;opacity:0.2;fill:url(#radialGradient6921);fill-opacity:1;fill-rule:nonzero;stroke:none;stroke-width:42.97708511;marker:none;enable-background:accumulate"
     id="path4188-6-4"
     cx="511.5"
     cy="512.5"
     r="470.5" />
  <path
     inkscape:connector-curvature="0"
     style="opacity:0.2;fill:url(#linearGradient854);fill-opacity:1;stroke-width:0.996822"
     d="m 967.74544,392.88136 c -1.0965,-4.33618 -2.34253,-8.97141 -3.6384,-13.55678 -2.49206,-8.7222 -5.333,-17.54407 -8.42315,-26.26626 C 949.2544,334.86631 941.57887,317.12288 932.60747,299.57881 928.81954,292.20233 924.68274,284.67633 920.34656,277.25 900.11107,242.85964 874.69211,210.26356 844.23919,179.81064 771.86991,107.44136 687.58861,63.531359 591.39529,48.180298 575.19693,45.588561 558.69952,43.794278 541.50435,42.847302 531.83517,42.299052 521.71742,42.000004 511.5,42.000004 c -9.32029,0 -18.54089,0.249203 -27.81134,0.747608 C 365.71478,48.828227 264.08877,94.532526 178.81064,179.81064 Q 41,317.62129 41,512.5 c 0,129.93576 45.953496,240.88204 137.81064,332.7392 85.27813,85.22833 186.90414,130.93256 304.87802,137.06305 0.14953,0 0.24921,0 0.39873,0 8.47299,0.44854 16.54725,0.69776 24.42214,0.69776 1.19619,0 2.09333,0 2.99047,0 10.26727,0 20.43485,-0.29903 30.00435,-0.79747 2.49204,-0.14952 4.7349,-0.29903 6.92791,-0.44854 20.1358,-1.44543 39.7732,-4.0372 58.51344,-7.67553 7.92475,-1.54514 15.7498,-3.2895 23.32564,-5.13367 80.54323,-20.23548 151.66648,-61.40423 213.96785,-123.7056 48.44556,-48.44556 84.13178,-102.17427 107.00885,-161.28581 18.39137,-47.49857 28.55895,-98.48602 30.45292,-153.01218 C 981.90031,524.91043 982,518.73014 982,512.5 c 0,-0.64793 0,-1.34571 0,-1.99364 0,-0.34889 0,-0.64794 0,-0.99682 -0.19937,-40.52082 -4.93427,-79.24736 -14.25456,-116.62818 z"
     id="path843" />
  <path
     style="opacity:0.15;fill:#000000;fill-opacity:1;stroke:none;stroke-width:0.9807353;stroke-miterlimit:4;stroke-dasharray:none;stroke-opacity:1;filter:url(#filter858)"
     inkscape:connector-curvature="0"
     d="m 509.76398,281.05244 c -139.18003,0 -250.98038,111.80036 -250.98038,250.9804 0,139.18 111.80035,250.9804 250.98038,250.9804 139.18004,0 250.9804,-111.8004 250.9804,-250.9804 0,-139.18004 -111.80036,-250.9804 -250.9804,-250.9804 z m 110.65955,293.19068 -102.6738,102.67383 c -2.28164,2.28165 -5.7041,3.42247 -7.98575,3.42247 -3.42245,0 -5.70409,-1.14082 -7.98573,-3.42247 L 399.10446,574.24312 c -2.28165,-2.28158 -3.42248,-4.56322 -3.42248,-7.98568 0,-3.42246 1.14083,-5.70411 3.42248,-7.98573 l 15.97148,-15.97151 c 4.56328,-4.56326 11.40819,-4.56326 15.97147,0 l 45.6328,45.63278 c 3.42245,3.42244 10.26738,1.1408 10.26738,-4.5633 V 395.13445 c 0,-6.84493 4.56328,-11.4082 11.4082,-11.4082 h 22.8164 c 6.84492,0 11.4082,4.56327 11.4082,11.4082 v 189.37606 c 0,4.56327 5.70411,7.98574 10.26738,4.56327 l 45.63279,-45.63276 c 4.56327,-4.56325 11.4082,-4.56325 15.97148,0 l 15.97149,15.97149 c 2.28162,2.28164 3.42244,4.56328 3.42244,7.98575 0,2.28164 -1.14082,4.56328 -3.42244,6.84486 z"
     id="path848"
     transform="matrix(0.99609375,0,0,0.99609375,2,22)" />
  <path
     id="path874"
     d="m 509.77271,271.95459 c -138.63635,0 -249.99998,111.36364 -249.99998,250.00001 0,138.63633 111.36363,250.00001 249.99998,250.00001 138.63637,0 250.00001,-111.36368 250.00001,-250.00001 0,-138.63637 -111.36364,-250.00001 -250.00001,-250.00001 z M 620,564 517.72727,666.27276 c -2.27273,2.27274 -5.68182,3.4091 -7.95456,3.4091 -3.40908,0 -5.6818,-1.13636 -7.95453,-3.4091 L 399.54546,564 c -2.27274,-2.27267 -3.40911,-4.5454 -3.40911,-7.95449 0,-3.40909 1.13637,-5.68183 3.40911,-7.95453 l 15.90909,-15.90912 c 4.54545,-4.54544 11.36363,-4.54544 15.90908,0 l 45.45455,45.45452 c 3.40908,3.40907 10.22727,1.13635 10.22727,-4.54547 V 385.59097 c 0,-6.81819 4.54546,-11.36364 11.36364,-11.36364 h 22.72727 c 6.81818,0 11.36364,4.54545 11.36364,11.36364 v 188.63631 c 0,4.54545 5.68183,7.95455 10.22727,4.54545 l 45.45454,-45.45451 c 4.54544,-4.54543 11.36363,-4.54543 15.90909,0 L 620,549.22732 c 2.27271,2.27273 3.40907,4.54546 3.40907,7.95456 0,2.27272 -1.13636,4.54545 -3.40907,6.81812 z"
     inkscape:connector-curvature="0"
     style="opacity:1;fill:url(#linearGradient853);fill-opacity:1;stroke:none;stroke-width:0.97690433;stroke-miterlimit:4;stroke-dasharray:none;stroke-opacity:1" />
</svg>
