<?xml version="1.0" encoding="UTF-8" standalone="no"?>
<!-- Created with Inkscape (http://www.inkscape.org/) -->

<svg
   xmlns:dc="http://purl.org/dc/elements/1.1/"
   xmlns:cc="http://creativecommons.org/ns#"
   xmlns:rdf="http://www.w3.org/1999/02/22-rdf-syntax-ns#"
   xmlns:svg="http://www.w3.org/2000/svg"
   xmlns="http://www.w3.org/2000/svg"
   xmlns:xlink="http://www.w3.org/1999/xlink"
   xmlns:sodipodi="http://sodipodi.sourceforge.net/DTD/sodipodi-0.dtd"
   xmlns:inkscape="http://www.inkscape.org/namespaces/inkscape"
   width="1024"
   height="1024"
   id="svg2"
   version="1.1"
   inkscape:version="0.92.4 (5da689c313, 2019-01-14)"
   sodipodi:docname="steam.svg">
  <defs
     id="defs4">
    <linearGradient
       id="linearGradient909">
      <stop
         id="stop905"
         offset="0"
         style="stop-color:#cccccc;stop-opacity:1" />
      <stop
         id="stop907"
         offset="1"
         style="stop-color:#d6d6d6;stop-opacity:1;" />
    </linearGradient>
    <linearGradient
       id="linearGradient894"
       x2="50%"
       x1="50%"
       y2="100%">
      <stop
         id="stop892"
         offset="0"
         stop-color="#1387B8" />
      <stop
         id="stop890"
         offset="0.12721"
         stop-color="#136497" />
      <stop
         id="stop888"
         offset="0.2624"
         stop-color="#144B7E" />
      <stop
         id="stop886"
         offset="0.4189"
         stop-color="#132E62" />
      <stop
         id="stop884"
         offset="0.59305"
         stop-color="#0A1B48" />
      <stop
         id="stop882"
         offset="0.78752"
         stop-color="#051839" />
      <stop
         id="stop880"
         offset="1"
         stop-color="#111D2E" />
    </linearGradient>
    <linearGradient
       id="linearGradient1026">
      <stop
         id="stop1024"
         offset="0"
         style="stop-color:#d7d7d7;stop-opacity:1" />
      <stop
         id="stop1022"
         offset="1"
         style="stop-color:#ffffff;stop-opacity:1" />
    </linearGradient>
    <linearGradient
       id="linearGradient1016">
      <stop
         id="stop1012"
         offset="0"
         style="stop-color:#ffffff;stop-opacity:1" />
      <stop
         id="stop1014"
         offset="1"
         style="stop-color:#d7d7d7;stop-opacity:1" />
    </linearGradient>
    <linearGradient
       id="linearGradient1010">
      <stop
         id="stop1006"
         offset="0"
         style="stop-color:#ffffff;stop-opacity:1" />
      <stop
         id="stop1008"
         offset="1"
         style="stop-color:#d7d7d7;stop-opacity:1" />
    </linearGradient>
    <linearGradient
       id="linearGradient998">
      <stop
         style="stop-color:#d6d6d6;stop-opacity:1;"
         offset="0"
         id="stop996" />
      <stop
         style="stop-color:#f4fbfc;stop-opacity:1;"
         offset="1"
         id="stop994" />
    </linearGradient>
    <linearGradient
       id="linearGradient953">
      <stop
         style="stop-color:#d7d7d7;stop-opacity:1"
         offset="0"
         id="stop951" />
      <stop
         style="stop-color:#ffffff;stop-opacity:1"
         offset="1"
         id="stop949" />
    </linearGradient>
    <linearGradient
       id="linearGradient849">
      <stop
         id="stop845"
         offset="0"
         style="stop-color:#333333;stop-opacity:1;" />
      <stop
         id="stop847"
         offset="1"
         style="stop-color:#2f4065;stop-opacity:1;" />
    </linearGradient>
    <linearGradient
       id="linearGradient4829">
      <stop
         style="stop-color:#f4fbfc;stop-opacity:1;"
         offset="0"
         id="stop4831" />
      <stop
         style="stop-color:#d6d6d6;stop-opacity:1;"
         offset="1"
         id="stop4833" />
    </linearGradient>
    <clipPath
       clipPathUnits="userSpaceOnUse"
       id="clipPath4282">
      <rect
         style="color:#000000;display:inline;overflow:visible;visibility:visible;fill:#4d4d4d;fill-opacity:1;fill-rule:nonzero;stroke:none;stroke-width:9.13434315;marker:none;enable-background:accumulate"
         id="rect4284"
         width="246.875"
         height="234.375"
         x="462.5"
         y="1646.1122"
         ry="17"
         rx="17" />
    </clipPath>
    <linearGradient
       inkscape:collect="always"
       xlink:href="#linearGradient894"
       id="linearGradient4835"
       x1="101.56863"
       y1="8.2352924"
       x2="93.725487"
       y2="408.23529"
       gradientUnits="userSpaceOnUse"
       gradientTransform="matrix(5.1,0,0,5.1,2,30.362187)" />
    <linearGradient
       inkscape:collect="always"
       xlink:href="#linearGradient5423"
       id="linearGradient5429"
       x1="408.66196"
       y1="44.604382"
       x2="408.66196"
       y2="562.04968"
       gradientUnits="userSpaceOnUse" />
    <linearGradient
       id="linearGradient5423">
      <stop
         style="stop-color:#333333;stop-opacity:1;"
         offset="0"
         id="stop5425" />
      <stop
         style="stop-color:#2f4065;stop-opacity:1;"
         offset="1"
         id="stop5427" />
    </linearGradient>
    <linearGradient
       inkscape:collect="always"
       xlink:href="#a"
       id="linearGradient6197"
       gradientUnits="userSpaceOnUse"
       x1="101.81326"
       y1="-21.302322"
       x2="101.81326"
       y2="431.04916"
       gradientTransform="matrix(4.6866211,0,0,4.6866211,42.839828,72.198096)" />
    <clipPath
       clipPathUnits="userSpaceOnUse"
       id="clipPath6245">
      <rect
         style="color:#000000;display:inline;overflow:visible;visibility:visible;opacity:0.85;fill:#ffffff;fill-opacity:1;fill-rule:nonzero;stroke:none;stroke-width:1.5;marker:none;enable-background:accumulate"
         id="rect6247"
         width="300"
         height="259.375"
         x="-901.5625"
         y="792.98718"
         rx="16.46875"
         ry="16.46875" />
    </clipPath>
    <linearGradient
       inkscape:collect="always"
       xlink:href="#linearGradient4829"
       id="linearGradient6392"
       x1="106.6204"
       y1="868.99115"
       x2="106.6204"
       y2="1041.3843"
       gradientUnits="userSpaceOnUse" />
    <linearGradient
       inkscape:collect="always"
       xlink:href="#linearGradient4829"
       id="linearGradient6523"
       x1="142.68672"
       y1="731.52191"
       x2="142.68672"
       y2="1204.222"
       gradientUnits="userSpaceOnUse" />
    <linearGradient
       inkscape:collect="always"
       xlink:href="#linearGradient4829"
       id="linearGradient4515"
       x1="100.61381"
       y1="852.36218"
       x2="100.61381"
       y2="1052.3622"
       gradientUnits="userSpaceOnUse" />
    <linearGradient
       inkscape:collect="always"
       xlink:href="#linearGradient4829"
       id="linearGradient4544"
       x1="42.216808"
       y1="62.831554"
       x2="105.62117"
       y2="62.831554"
       gradientUnits="userSpaceOnUse" />
    <linearGradient
       inkscape:collect="always"
       xlink:href="#linearGradient4829-4"
       id="linearGradient4544-4"
       x1="42.216808"
       y1="62.831554"
       x2="105.62117"
       y2="62.831554"
       gradientUnits="userSpaceOnUse" />
    <linearGradient
       id="linearGradient4829-4">
      <stop
         style="stop-color:#f4fbfc;stop-opacity:1;"
         offset="0"
         id="stop4831-5" />
      <stop
         style="stop-color:#d6d6d6;stop-opacity:1;"
         offset="1"
         id="stop4833-8" />
    </linearGradient>
    <linearGradient
       gradientTransform="rotate(180,100.69968,526.37395)"
       y2="62.831554"
       x2="105.62117"
       y1="62.831554"
       x1="42.216808"
       gradientUnits="userSpaceOnUse"
       id="linearGradient4561"
       xlink:href="#linearGradient4829-4"
       inkscape:collect="always" />
    <linearGradient
       inkscape:collect="always"
       xlink:href="#linearGradient4829"
       id="linearGradient4588"
       x1="64.375336"
       y1="101.32469"
       x2="142.63159"
       y2="101.32469"
       gradientUnits="userSpaceOnUse" />
    <linearGradient
       inkscape:collect="always"
       xlink:href="#linearGradient4829"
       id="linearGradient4595"
       x1="106.21929"
       y1="852.36218"
       x2="106.21929"
       y2="1052.3622"
       gradientUnits="userSpaceOnUse" />
    <linearGradient
       y2="100%"
       x1="50%"
       x2="50%"
       id="a">
      <stop
         stop-color="#1387B8"
         offset="0"
         id="stop871" />
      <stop
         stop-color="#136497"
         offset="0.12721"
         id="stop869" />
      <stop
         stop-color="#144B7E"
         offset="0.2624"
         id="stop867" />
      <stop
         stop-color="#132E62"
         offset="0.4189"
         id="stop865" />
      <stop
         stop-color="#0A1B48"
         offset="0.59305"
         id="stop863" />
      <stop
         stop-color="#051839"
         offset="0.78752"
         id="stop861" />
      <stop
         stop-color="#111D2E"
         offset="1"
         id="stop859" />
    </linearGradient>
    <linearGradient
       inkscape:collect="always"
       xlink:href="#linearGradient953"
       id="linearGradient992"
       x1="540"
       y1="452.36218"
       x2="540"
       y2="632.36218"
       gradientUnits="userSpaceOnUse"
       gradientTransform="translate(85.571031,-8.5571031)" />
    <linearGradient
       y2="232.87497"
       x1="116.68872"
       x2="116.68872"
       id="a-3"
       gradientTransform="matrix(0.99946338,0,0,1.0005369,1186.25,320.72218)"
       y1="0"
       gradientUnits="userSpaceOnUse">
      <stop
         id="stop910"
         offset="0"
         stop-color="#111D2E" />
      <stop
         id="stop912"
         offset=".21248"
         stop-color="#051839" />
      <stop
         id="stop914"
         offset=".40695"
         stop-color="#0A1B48" />
      <stop
         id="stop916"
         offset=".58110"
         stop-color="#132E62" />
      <stop
         id="stop918"
         offset=".73760"
         stop-color="#144B7E" />
      <stop
         id="stop920"
         offset=".87279"
         stop-color="#136497" />
      <stop
         id="stop922"
         offset="1"
         stop-color="#1387B8" />
    </linearGradient>
    <linearGradient
       inkscape:collect="always"
       xlink:href="#linearGradient4829"
       id="linearGradient954"
       gradientUnits="userSpaceOnUse"
       gradientTransform="matrix(5.1,0,0,5.1,2,2.000007)"
       x1="102.29776"
       y1="-0.42686829"
       x2="102.29776"
       y2="199.16539" />
    <filter
       inkscape:collect="always"
       style="color-interpolation-filters:sRGB"
       id="filter967"
       x="-0.031787818"
       width="1.0635756"
       y="-0.041499005"
       height="1.082998">
      <feGaussianBlur
         inkscape:collect="always"
         stdDeviation="10.504493"
         id="feGaussianBlur969" />
    </filter>
    <linearGradient
       inkscape:collect="always"
       xlink:href="#linearGradient909"
       id="linearGradient903"
       gradientUnits="userSpaceOnUse"
       gradientTransform="matrix(5.1,0,0,5.1,2,2.000007)"
       x1="-47.450981"
       y1="82.745094"
       x2="172.15686"
       y2="180.78432" />
  </defs>
  <sodipodi:namedview
     id="base"
     pagecolor="#ffffff"
     bordercolor="#666666"
     borderopacity="1.0"
     inkscape:pageopacity="0.0"
     inkscape:pageshadow="2"
     inkscape:zoom="0.70882353"
     inkscape:cx="512"
     inkscape:cy="512"
     inkscape:document-units="px"
     inkscape:current-layer="layer1"
     showgrid="true"
     inkscape:window-width="1920"
     inkscape:window-height="955"
     inkscape:window-x="0"
     inkscape:window-y="25"
     inkscape:window-maximized="1"
     inkscape:snap-from-guide="true"
     showguides="true"
     inkscape:guide-bbox="true"
     inkscape:pagecheckerboard="true">
    <sodipodi:guide
       position="0,0"
       orientation="0,200"
       id="guide3764"
       inkscape:locked="false" />
    <sodipodi:guide
       position="200,0"
       orientation="-200,0"
       id="guide3766"
       inkscape:locked="false" />
    <sodipodi:guide
       position="200,200"
       orientation="0,-200"
       id="guide3768"
       inkscape:locked="false" />
    <sodipodi:guide
       position="0,200"
       orientation="200,0"
       id="guide3770"
       inkscape:locked="false" />
    <inkscape:grid
       type="xygrid"
       id="grid910" />
  </sodipodi:namedview>
  <metadata
     id="metadata7">
    <rdf:RDF>
      <cc:Work
         rdf:about="">
        <dc:format>image/svg+xml</dc:format>
        <dc:type
           rdf:resource="http://purl.org/dc/dcmitype/StillImage" />
        <dc:title />
      </cc:Work>
    </rdf:RDF>
  </metadata>
  <g
     inkscape:label="Layer 1"
     inkscape:groupmode="layer"
     id="layer1"
     transform="translate(0,-28.36218)">
    <circle
       style="color:#000000;display:inline;overflow:visible;visibility:visible;fill:url(#linearGradient4835);fill-opacity:1;fill-rule:nonzero;stroke:none;stroke-width:46.58515167;marker:none;enable-background:accumulate"
       id="path4188"
       cx="512"
       cy="540.36218"
       r="510" />
    <circle
       style="color:#000000;display:inline;overflow:visible;visibility:visible;fill:url(#linearGradient6197);fill-opacity:1;fill-rule:nonzero;stroke:none;stroke-width:42.8092041;marker:none;enable-background:accumulate"
       id="path4188-6"
       cx="511.50195"
       cy="540.86023"
       r="468.66211" />
    <path
       id="path957"
       d="M 644.02344,375.7489 C 545.85902,375.7489 466,455.73827 466,554.06335 l 0.002,0.002 c 0,0.78742 7.1e-4,1.57651 0.0371,2.31641 L 351.3477,722.98723 c -18.5798,-0.845 -37.22167,2.41538 -54.90039,9.69727 -7.79234,3.17808 -15.09399,7.07983 -21.94532,11.58593 L 28.951172,643.18445 a 510,510 0 0 0 71.998048,189.41992 l 118.20703,48.77343 c 8.93943,39.95043 36.34469,74.99402 76.77734,91.84961 66.15194,27.63869 142.42721,-3.86257 169.94532,-70.04296 7.1606,-17.29922 10.50034,-35.44477 10.01757,-53.54883 L 640,732.36218 c 1.32743,0.0349 2.69517,0.0781 4.02344,0.0781 98.20462,0 178.02344,-80.06062 178.02344,-178.37695 0,-98.32508 -79.81882,-178.31445 -178.02344,-178.31445 z m 0.004,59.51758 c 65.41678,0 118.64258,53.32255 118.64258,118.79882 0,65.52889 -53.2258,118.83399 -118.64258,118.83399 -65.37554,0 -118.60351,-53.30511 -118.60351,-118.83399 0,-65.47626 53.22797,-118.79882 118.60351,-118.79882 z m 0.20118,29.33984 c -49.16236,0 -89.07227,39.98157 -89.07227,89.27734 0,49.299 39.90991,89.24414 89.07227,89.24414 49.20347,0 89.11132,-39.94514 89.11132,-89.24414 0,-49.29577 -39.90785,-89.27734 -89.11132,-89.27734 z M 346.99219,752.67859 c 12.52855,0.10058 25.23705,2.57408 37.51367,7.68359 24.75428,10.29921 43.96034,29.69066 54.13867,54.47461 10.17866,24.78265 10.13841,52.13965 -0.16015,76.8418 -21.29843,51.13414 -80.06121,75.39177 -131.13868,54.10937 -23.56369,-9.81699 -41.35367,-27.79886 -51.61718,-49.24219 l 57.95312,24.01758 c 37.66824,15.69061 80.88438,-2.17184 96.54297,-39.82812 15.70674,-37.6967 -2.11124,-80.98534 -39.75977,-96.67578 l -59.9082,-24.82227 c 11.55841,-4.38527 23.907,-6.65918 36.43555,-6.55859 z"
       style="color:#000000;display:inline;overflow:visible;visibility:visible;opacity:0.2;fill:#000000;fill-opacity:1;fill-rule:nonzero;stroke:none;stroke-width:46.58515167;marker:none;filter:url(#filter967);enable-background:accumulate"
       inkscape:connector-curvature="0" />
    <path
       style="color:#000000;display:inline;overflow:visible;visibility:visible;fill:url(#linearGradient954);fill-opacity:1.0;fill-rule:nonzero;stroke:none;stroke-width:46.58515167;marker:none;enable-background:accumulate"
       d="M 624.02344 327.38672 C 525.85902 327.38672 446 407.37609 446 505.70117 L 446.00195 505.70312 C 446.00195 506.49054 446.00266 507.27963 446.03906 508.01953 L 331.34766 674.625 C 312.76786 673.78 294.12599 677.04038 276.44727 684.32227 C 268.65493 687.50035 261.35328 691.4021 254.50195 695.9082 L 8.9511719 594.82227 A 510 510 0 0 0 80.949219 784.24219 L 199.15625 833.01562 C 208.09568 872.96605 235.50094 908.00964 275.93359 924.86523 C 342.08553 952.50396 418.3608 921.00266 445.87891 854.82227 C 453.03951 837.52305 456.37925 819.3775 455.89648 801.27344 L 620 684 C 621.32743 684.0349 622.69517 684.07812 624.02344 684.07812 C 722.22806 684.07812 802.04688 604.0175 802.04688 505.70117 C 802.04688 407.37609 722.22806 327.38672 624.02344 327.38672 z M 624.02734 386.9043 C 689.44412 386.9043 742.66992 440.22685 742.66992 505.70312 C 742.66992 571.23201 689.44412 624.53711 624.02734 624.53711 C 558.6518 624.53711 505.42383 571.232 505.42383 505.70312 C 505.42383 440.22686 558.6518 386.9043 624.02734 386.9043 z M 624.22852 416.24414 C 575.06616 416.24414 535.15625 456.22571 535.15625 505.52148 C 535.15625 554.82048 575.06616 594.76562 624.22852 594.76562 C 673.43199 594.76562 713.33984 554.82048 713.33984 505.52148 C 713.33984 456.22571 673.43199 416.24414 624.22852 416.24414 z M 326.99219 704.31641 C 339.52074 704.41699 352.22924 706.89049 364.50586 712 C 389.26014 722.29921 408.4662 741.69066 418.64453 766.47461 C 428.82319 791.25726 428.78294 818.61426 418.48438 843.31641 C 397.18595 894.45055 338.42317 918.70818 287.3457 897.42578 C 263.78201 887.60879 245.99203 869.62692 235.72852 848.18359 L 293.68164 872.20117 C 331.34988 887.89178 374.56602 870.02933 390.22461 832.37305 C 405.93135 794.67635 388.11337 751.38771 350.46484 735.69727 L 290.55664 710.875 C 302.11505 706.48973 314.46364 704.21582 326.99219 704.31641 z "
       id="circle951"
       transform="translate(0,28.36218)" />
    <path
       id="path901"
       d="M 624.02344 327.38672 C 525.85902 327.38672 446 407.37609 446 505.70117 L 446.00195 505.70312 C 446.00195 506.49054 446.00266 507.27963 446.03906 508.01953 L 331.34766 674.625 C 312.76786 673.78 294.12599 677.04038 276.44727 684.32227 C 268.65493 687.50035 261.35328 691.4021 254.50195 695.9082 L 8.9511719 594.82227 A 510 510 0 0 0 80.949219 784.24219 L 199.15625 833.01562 C 208.09568 872.96605 235.50094 908.00964 275.93359 924.86523 C 342.08553 952.50396 418.3608 921.00266 445.87891 854.82227 C 453.03951 837.52305 456.37925 819.3775 455.89648 801.27344 L 620 684 C 621.32743 684.0349 622.69517 684.07812 624.02344 684.07812 C 722.22806 684.07812 802.04688 604.0175 802.04688 505.70117 C 802.04688 407.37609 722.22806 327.38672 624.02344 327.38672 z M 624.02734 386.9043 C 689.44412 386.9043 742.66992 440.22685 742.66992 505.70312 C 742.66992 571.23201 689.44412 624.53711 624.02734 624.53711 C 558.6518 624.53711 505.42383 571.232 505.42383 505.70312 C 505.42383 440.22686 558.6518 386.9043 624.02734 386.9043 z M 624.22852 416.24414 C 575.06616 416.24414 535.15625 456.22571 535.15625 505.52148 C 535.15625 554.82048 575.06616 594.76562 624.22852 594.76562 C 673.43199 594.76562 713.33984 554.82048 713.33984 505.52148 C 713.33984 456.22571 673.43199 416.24414 624.22852 416.24414 z M 326.99219 704.31641 C 339.52074 704.41699 352.22924 706.89049 364.50586 712 C 389.26014 722.29921 408.4662 741.69066 418.64453 766.47461 C 428.82319 791.25726 428.78294 818.61426 418.48438 843.31641 C 397.18595 894.45055 338.42317 918.70818 287.3457 897.42578 C 263.78201 887.60879 245.99203 869.62692 235.72852 848.18359 L 293.68164 872.20117 C 331.34988 887.89178 374.56602 870.02933 390.22461 832.37305 C 405.93135 794.67635 388.11337 751.38771 350.46484 735.69727 L 290.55664 710.875 C 302.11505 706.48973 314.46364 704.21582 326.99219 704.31641 z "
       style="color:#000000;display:inline;overflow:visible;visibility:visible;fill:url(#linearGradient903);fill-opacity:1;fill-rule:nonzero;stroke:none;stroke-width:46.58515167;marker:none;enable-background:accumulate;opacity:0.19"
       transform="translate(0,28.36218)" />
    <circle
       style="opacity:1;fill:url(#linearGradient992);fill-opacity:1;stroke:none;stroke-width:21.31315804;stroke-linecap:square;stroke-linejoin:miter;stroke-miterlimit:4;stroke-dasharray:none;stroke-opacity:1;paint-order:stroke markers fill"
       id="path984"
       cx="625.29816"
       cy="532.88586"
       r="74.596046" />
  </g>
</svg>
