<?xml version="1.0" encoding="UTF-8" standalone="no"?>
<svg
   xmlns:dc="http://purl.org/dc/elements/1.1/"
   xmlns:cc="http://creativecommons.org/ns#"
   xmlns:rdf="http://www.w3.org/1999/02/22-rdf-syntax-ns#"
   xmlns:svg="http://www.w3.org/2000/svg"
   xmlns="http://www.w3.org/2000/svg"
   xmlns:sodipodi="http://sodipodi.sourceforge.net/DTD/sodipodi-0.dtd"
   xmlns:inkscape="http://www.inkscape.org/namespaces/inkscape"
   height="48"
   width="48"
   version="1.1"
   id="svg225"
   sodipodi:docname="system-suspend.svg"
   inkscape:version="0.92.4 5da689c313, 2019-01-14">
  <metadata
     id="metadata231">
    <rdf:RDF>
      <cc:Work
         rdf:about="">
        <dc:format>image/svg+xml</dc:format>
        <dc:type
           rdf:resource="http://purl.org/dc/dcmitype/StillImage" />
      </cc:Work>
    </rdf:RDF>
  </metadata>
  <defs
     id="defs229" />
  <sodipodi:namedview
     pagecolor="#ffffff"
     bordercolor="#666666"
     borderopacity="1"
     objecttolerance="10"
     gridtolerance="10"
     guidetolerance="10"
     inkscape:pageopacity="0"
     inkscape:pageshadow="2"
     inkscape:window-width="640"
     inkscape:window-height="480"
     id="namedview227"
     showgrid="false"
     inkscape:zoom="4.9166667"
     inkscape:cx="24"
     inkscape:cy="24"
     inkscape:window-x="0"
     inkscape:window-y="32"
     inkscape:window-maximized="0"
     inkscape:current-layer="svg225" />
  <linearGradient
     id="a"
     gradientUnits="userSpaceOnUse"
     x1="399.57144"
     x2="399.57144"
     y1="545.79797"
     y2="517.79797">
    <stop
       offset="0"
       stop-color="#e6e6e6"
       id="stop30" />
    <stop
       offset="1"
       stop-color="#cccccc"
       id="stop32" />
  </linearGradient>
  <linearGradient
     id="b"
     gradientUnits="userSpaceOnUse"
     x1="15.883406"
     x2="14.337673"
     y1="55.641636"
     y2="-7.895216">
    <stop
       offset="0"
       stop-color="#cccccc"
       id="stop35" />
    <stop
       offset="1"
       stop-color="#aaaaaa"
       id="stop37" />
  </linearGradient>
  <g
     stroke-width="1.3"
     transform="matrix(1.6383893 0 0 1.6383893 -632.272255549686 -847.229487736137)"
     id="g221">
    <circle
       cx="400.57144"
       cy="531.79797"
       fill="none"
       r="13.999958"
       id="circle217" />
    <circle
       cx="400.57138"
       cy="531.79791"
       fill="url(#a)"
       r="0"
       id="circle219" />
  </g>
  <path
     d="m290.29628 145.56018c2.824 0 5.27-1.031 7.332-3.096 2.064-2.063 3.098-4.508 3.098-7.332v-52.143996c0-2.825-1.033-5.269-3.098-7.332-2.062-2.065-4.507-3.097-7.332-3.097s-5.269 1.033-7.333 3.097c-2.064 2.063-3.096 4.508-3.096 7.332v52.143996c0 2.824 1.032 5.269 3.096 7.332 2.064 2.065 4.509 3.096 7.333 3.096zm75.09289-38.06246c0 40.32035-32.68611 73.0065-73.00645 73.0065-40.3204.00006-73.00655-32.6861-73.00655-73.0065 0-40.32039 32.68615-73.006548 73.00655-73.006496 40.32034 0 73.00645 32.686158 73.00645 73.006496z"
     fill="url(#b)"
     transform="matrix(.314183670225 0 0 .314183670225 -67.881504941806 -9.836576667225)"
     id="path223"
     style="fill:#e6e6e6" />
</svg>
