<?xml version="1.0" encoding="UTF-8" standalone="no"?>
<!-- Generator: flash2svg, http://dissentgraphics.com/tools/flash2svg -->

<svg
   xmlns:dc="http://purl.org/dc/elements/1.1/"
   xmlns:cc="http://creativecommons.org/ns#"
   xmlns:rdf="http://www.w3.org/1999/02/22-rdf-syntax-ns#"
   xmlns:svg="http://www.w3.org/2000/svg"
   xmlns="http://www.w3.org/2000/svg"
   xmlns:xlink="http://www.w3.org/1999/xlink"
   xmlns:sodipodi="http://sodipodi.sourceforge.net/DTD/sodipodi-0.dtd"
   xmlns:inkscape="http://www.inkscape.org/namespaces/inkscape"
   id="Gimp"
   image-rendering="optimizeSpeed"
   version="1.1"
   style="background-color:#ffffff"
   x="0px"
   y="0px"
   width="1024px"
   height="1024px"
   viewBox="0 0 1024 1024"
   enable-background="new 0 0 1024 1024"
   sodipodi:docname="telegram.svg"
   inkscape:version="0.92.4 (5da689c313, 2019-01-14)">
  <metadata
     id="metadata58">
    <rdf:RDF>
      <cc:Work
         rdf:about="">
        <dc:format>image/svg+xml</dc:format>
        <dc:type
           rdf:resource="http://purl.org/dc/dcmitype/StillImage" />
        <dc:title />
      </cc:Work>
    </rdf:RDF>
  </metadata>
  <sodipodi:namedview
     pagecolor="#ffffff"
     bordercolor="#666666"
     borderopacity="1"
     objecttolerance="10"
     gridtolerance="10"
     guidetolerance="10"
     inkscape:pageopacity="0"
     inkscape:pageshadow="2"
     inkscape:window-width="1920"
     inkscape:window-height="944"
     id="namedview56"
     showgrid="true"
     inkscape:zoom="0.7109375"
     inkscape:cx="257.40659"
     inkscape:cy="506.37363"
     inkscape:window-x="0"
     inkscape:window-y="25"
     inkscape:window-maximized="1"
     inkscape:current-layer="Gimp"
     inkscape:pagecheckerboard="true">
    <inkscape:grid
       type="xygrid"
       id="grid868" />
  </sodipodi:namedview>
  <defs
     transform="matrix(1 0 0 1 0 0) "
     id="defs2">
    <linearGradient
       id="linearGradient850"
       inkscape:collect="always">
      <stop
         id="stop845"
         offset="0"
         style="stop-color:#6bd2e9;stop-opacity:1" />
      <stop
         id="stop848"
         offset="1"
         style="stop-color:#1a78d4;stop-opacity:1" />
    </linearGradient>
    <linearGradient
       inkscape:collect="always"
       id="linearGradient963">
      <stop
         style="stop-color:#6bc3e9;stop-opacity:1"
         offset="0"
         id="stop959" />
      <stop
         style="stop-color:#1a7fd4;stop-opacity:1"
         offset="1"
         id="stop961" />
    </linearGradient>
    <linearGradient
       gradientTransform="translate(270.3508)"
       gradientUnits="userSpaceOnUse"
       id="b"
       x1="122.16791"
       y1="-9.6918192"
       x2="122.16791"
       y2="254.88385">
      <stop
         style="stop-color:#6bc3e9;stop-opacity:1"
         stop-color="#37aee2"
         offset="0"
         id="stop952" />
      <stop
         style="stop-color:#187ca6;stop-opacity:1"
         stop-color="#1e96c8"
         offset="1"
         id="stop954" />
    </linearGradient>
    <linearGradient
       inkscape:collect="always"
       xlink:href="#linearGradient850"
       id="linearGradient873"
       x1="520.03137"
       y1="2.0078433"
       x2="520.03137"
       y2="1026.0078"
       gradientUnits="userSpaceOnUse"
       gradientTransform="matrix(0.99609375,0,0,0.99609375,2,2)" />
    <linearGradient
       y2="254.88385"
       x2="122.16791"
       y1="-9.6918192"
       x1="122.16791"
       id="b-3"
       gradientUnits="userSpaceOnUse"
       gradientTransform="translate(270.3508)">
      <stop
         id="stop842"
         offset="0"
         stop-color="#37aee2"
         style="stop-color:#6bc3e9;stop-opacity:1" />
      <stop
         id="stop844"
         offset="1"
         stop-color="#1e96c8"
         style="stop-color:#187ca6;stop-opacity:1" />
    </linearGradient>
    <linearGradient
       y2="174.70814"
       x2="146.52715"
       y1="131.02764"
       x1="123.64119"
       id="w"
       gradientTransform="matrix(4.2811896,0,0,3.5908088,41,42.000008)"
       gradientUnits="userSpaceOnUse">
      <stop
         id="stop847"
         offset="0"
         stop-color="#eff7fc" />
      <stop
         id="stop849"
         offset="1"
         stop-color="#fff" />
    </linearGradient>
    <linearGradient
       inkscape:collect="always"
       xlink:href="#linearGradient963"
       id="linearGradient965"
       x1="520"
       y1="4"
       x2="520"
       y2="1024"
       gradientUnits="userSpaceOnUse" />
    <filter
       inkscape:collect="always"
       style="color-interpolation-filters:sRGB"
       id="filter907"
       x="-0.11032445"
       width="1.2206489"
       y="-0.1315358"
       height="1.2630716">
      <feGaussianBlur
         inkscape:collect="always"
         stdDeviation="5.9985582"
         id="feGaussianBlur909" />
    </filter>
    <radialGradient
       inkscape:collect="always"
       xlink:href="#linearGradient4657"
       id="radialGradient6921"
       cx="100"
       cy="82.38073"
       fx="100"
       fy="82.38073"
       r="100"
       gradientUnits="userSpaceOnUse"
       gradientTransform="matrix(4.705,0,0,3.533613,40.99998,118.41875)" />
    <linearGradient
       id="linearGradient4657">
      <stop
         id="stop4653"
         offset="0"
         style="stop-color:#ffffff;stop-opacity:1" />
      <stop
         id="stop4655"
         offset="1"
         style="stop-color:#ffffff;stop-opacity:0;" />
    </linearGradient>
  </defs>
  <path
     id="path"
     d="m 984.88455,316.75212 q -9.29236,-22.5286 -20.9619,-44.13877 c -4.37603,-8.15784 -9.02221,-16.26166 -13.93853,-24.20339 C 928.86017,214.15784 903.09004,181.79661 872.67373,151.38029 773.10487,51.811441 652.84428,2 512,2 371.15572,2 250.94915,51.811441 151.38029,151.38029 51.811441,250.94915 2,371.15572 2,512 2,652.84428 51.811441,773.10487 151.38029,872.67373 250.94915,972.24259 371.15572,1022 512,1022 652.84428,1022 773.10487,972.24259 872.67373,872.67373 927.50953,817.7839 967.27222,756.62712 991.90781,689.25741 1011.9513,634.31356 1022,575.26377 1022,512 c 0,-48.51483 -5.8888,-94.59852 -17.7203,-138.25106 -1.3507,-4.91631 -2.7553,-9.83263 -4.214,-14.69491 -4.43011,-14.37077 -9.50849,-28.4714 -15.18115,-42.30191 z"
     style="fill:url(#linearGradient873);fill-opacity:1;stroke-width:1.08050847"
     inkscape:connector-curvature="0" />
  <circle
     style="opacity:1;fill:url(#linearGradient965);fill-opacity:1;stroke:none;stroke-width:117.625;stroke-linecap:square;stroke-linejoin:miter;stroke-miterlimit:4;stroke-dasharray:none;stroke-opacity:1;paint-order:stroke markers fill"
     id="path957"
     cx="511.5"
     cy="512.5"
     r="470.5" />
  <circle
     style="color:#000000;display:inline;overflow:visible;visibility:visible;opacity:0.2;fill:url(#radialGradient6921);fill-opacity:1;fill-rule:nonzero;stroke:none;stroke-width:42.97708511;marker:none;enable-background:accumulate"
     id="path4188-6-4"
     cx="511.5"
     cy="512.5"
     r="470.5" />
  <g
     transform="matrix(3.9208333,0,0,3.9208333,41,92.000007)"
     style="opacity:0.25;fill:#000000;fill-opacity:1;filter:url(#filter907)"
     id="g891">
    <path
       style="fill:#000000;fill-opacity:1"
       inkscape:connector-curvature="0"
       d="m 98,175 c -3.8876,0 -3.227,-1.4679 -4.5678,-5.1695 L 82,132.2059 170,80"
       id="path882" />
    <path
       style="fill:#000000;fill-opacity:1"
       inkscape:connector-curvature="0"
       d="m 98,175 c 3,0 4.3255,-1.372 6,-3 l 16,-15.558 -19.958,-12.035"
       id="path884" />
    <path
       style="fill:#000000;fill-opacity:1"
       inkscape:connector-curvature="0"
       d="m 100.04,144.41 48.36,35.729 c 5.5185,3.0449 9.5014,1.4684 10.876,-5.1235 l 19.685,-92.763 c 2.0154,-8.0802 -3.0801,-11.745 -8.3594,-9.3482 l -115.59,44.571 c -7.8901,3.1647 -7.8441,7.5666 -1.4382,9.528 l 29.663,9.2583 68.673,-43.325 c 3.2419,-1.9659 6.2173,-0.90899 3.7752,1.2584"
       id="path886" />
  </g>
  <path
     style="fill:#c8daea;stroke-width:3.92083335"
     inkscape:connector-curvature="0"
     d="m 425.24166,728.14584 c -15.24263,0 -12.65253,-5.7554 -17.90958,-20.26875 L 362.50833,560.3573 707.54166,355.66667"
     id="path856" />
  <path
     style="fill:#a9c9dd;stroke-width:3.92083335"
     inkscape:connector-curvature="0"
     d="m 425.24166,728.14584 c 11.7625,0 16.95957,-5.37939 23.525,-11.7625 L 511.5,655.38301 433.248,608.19578"
     id="path858" />
  <path
     style="fill:url(#w);stroke-width:3.92083335"
     inkscape:connector-curvature="0"
     d="M 433.24016,608.20754 622.85166,748.295 c 21.63712,11.93854 37.25341,5.75735 42.64298,-20.08839 l 77.18161,-363.70826 c 7.90205,-31.68112 -12.07656,-46.05019 -32.77582,-36.65273 L 256.69131,502.60108 c -30.93576,12.40826 -30.75541,29.66737 -5.63894,37.3577 l 116.30368,36.30025 269.25538,-169.87011 c 12.71095,-7.70796 24.377,-3.56399 14.80193,4.93398"
     id="path860" />
</svg>
