<?xml version="1.0" encoding="UTF-8" standalone="no"?>
<!-- Created with Inkscape (http://www.inkscape.org/) -->

<svg
   xmlns:dc="http://purl.org/dc/elements/1.1/"
   xmlns:cc="http://creativecommons.org/ns#"
   xmlns:rdf="http://www.w3.org/1999/02/22-rdf-syntax-ns#"
   xmlns:svg="http://www.w3.org/2000/svg"
   xmlns="http://www.w3.org/2000/svg"
   xmlns:xlink="http://www.w3.org/1999/xlink"
   xmlns:sodipodi="http://sodipodi.sourceforge.net/DTD/sodipodi-0.dtd"
   xmlns:inkscape="http://www.inkscape.org/namespaces/inkscape"
   width="1024"
   height="1024"
   id="svg2"
   version="1.1"
   inkscape:version="0.92.4 (5da689c313, 2019-01-14)"
   sodipodi:docname="virtualbox.svg">
  <defs
     id="defs4">
    <linearGradient
       inkscape:collect="always"
       id="linearGradient8420">
      <stop
         style="stop-color:#ffffff;stop-opacity:1;"
         offset="0"
         id="stop8422" />
      <stop
         style="stop-color:#ffffff;stop-opacity:0;"
         offset="1"
         id="stop8424" />
    </linearGradient>
    <inkscape:perspective
       sodipodi:type="inkscape:persp3d"
       inkscape:vp_x="13.534465 : 111.04854 : 1"
       inkscape:vp_y="0 : 1000 : 0"
       inkscape:vp_z="213.53447 : 111.04854 : 1"
       inkscape:persp3d-origin="113.53447 : 77.71521 : 1"
       id="perspective3135" />
    <linearGradient
       id="linearGradient4829">
      <stop
         style="stop-color:#f4fbfc;stop-opacity:1;"
         offset="0"
         id="stop4831" />
      <stop
         style="stop-color:#d6d6d6;stop-opacity:1;"
         offset="1"
         id="stop4833" />
    </linearGradient>
    <clipPath
       clipPathUnits="userSpaceOnUse"
       id="clipPath4282">
      <rect
         style="color:#000000;display:inline;overflow:visible;visibility:visible;fill:#4d4d4d;fill-opacity:1;fill-rule:nonzero;stroke:none;stroke-width:9.13434315;marker:none;enable-background:accumulate"
         id="rect4284"
         width="246.875"
         height="234.375"
         x="462.5"
         y="1646.1122"
         ry="17"
         rx="17" />
    </clipPath>
    <linearGradient
       inkscape:collect="always"
       xlink:href="#linearGradient5423"
       id="linearGradient5429"
       x1="408.66196"
       y1="44.604382"
       x2="408.66196"
       y2="562.04968"
       gradientUnits="userSpaceOnUse" />
    <linearGradient
       id="linearGradient5423">
      <stop
         style="stop-color:#09bce2;stop-opacity:1;"
         offset="0"
         id="stop5425" />
      <stop
         style="stop-color:#237efe;stop-opacity:1;"
         offset="1"
         id="stop5427" />
    </linearGradient>
    <linearGradient
       inkscape:collect="always"
       xlink:href="#linearGradient3986"
       id="linearGradient3992"
       x1="78.5625"
       y1="993.6615"
       x2="120.28125"
       y2="993.6615"
       gradientUnits="userSpaceOnUse" />
    <linearGradient
       inkscape:collect="always"
       id="linearGradient3986">
      <stop
         style="stop-color:#000000;stop-opacity:1;"
         offset="0"
         id="stop3988" />
      <stop
         style="stop-color:#000000;stop-opacity:0;"
         offset="1"
         id="stop3990" />
    </linearGradient>
    <linearGradient
       inkscape:collect="always"
       xlink:href="#linearGradient5423-1"
       id="linearGradient5473-2"
       x1="99.036476"
       y1="-0.50471628"
       x2="99.036476"
       y2="199.83986"
       gradientUnits="userSpaceOnUse" />
    <linearGradient
       id="linearGradient5423-1">
      <stop
         style="stop-color:#51b9db;stop-opacity:1;"
         offset="0"
         id="stop5425-2" />
      <stop
         style="stop-color:#2fabd4;stop-opacity:1;"
         offset="1"
         id="stop5427-3" />
    </linearGradient>
    <linearGradient
       y2="199.83986"
       x2="99.036476"
       y1="-0.50471628"
       x1="99.036476"
       gradientUnits="userSpaceOnUse"
       id="linearGradient4119"
       xlink:href="#linearGradient5423-1"
       inkscape:collect="always" />
    <linearGradient
       inkscape:collect="always"
       xlink:href="#linearGradient4829"
       id="linearGradient4159"
       x1="100"
       y1="852.36218"
       x2="100"
       y2="1052.3622"
       gradientUnits="userSpaceOnUse" />
    <clipPath
       clipPathUnits="userSpaceOnUse"
       id="clipPath7446">
      <circle
         style="color:#000000;display:inline;overflow:visible;visibility:visible;fill:#3d0c34;fill-opacity:1;fill-rule:nonzero;stroke:none;stroke-width:14.00999928;marker:none;enable-background:accumulate"
         id="path7448"
         transform="translate(0,852.36218)"
         cx="-219.5898"
         cy="704.91846"
         r="32.593204" />
    </clipPath>
    <linearGradient
       inkscape:collect="always"
       xlink:href="#linearGradient3986"
       id="linearGradient8394"
       x1="-164.90503"
       y1="63.177601"
       x2="-169.71631"
       y2="56.836071"
       gradientUnits="userSpaceOnUse" />
    <clipPath
       clipPathUnits="userSpaceOnUse"
       id="clipPath8414">
      <path
         style="fill:#fff6ed;fill-opacity:1;stroke:none"
         d="m -181.20117,72.80274 17.62695,-22.2168 6.44532,6.5918 z"
         id="path8416"
         inkscape:connector-curvature="0" />
    </clipPath>
    <linearGradient
       inkscape:collect="always"
       xlink:href="#linearGradient8420"
       id="linearGradient8426"
       x1="-155.20995"
       y1="39.130112"
       x2="-149.02275"
       y2="45.803432"
       gradientUnits="userSpaceOnUse" />
    <clipPath
       clipPathUnits="userSpaceOnUse"
       id="clipPath8446">
      <path
         style="fill:#d80e0e;fill-opacity:1;stroke:none"
         d="m -139.5078,34.96486 -17.62695,22.2168 -6.34766,-1.70215 -0.0977,-4.88965 z"
         id="path8448"
         inkscape:connector-curvature="0"
         sodipodi:nodetypes="ccccc" />
    </clipPath>
    <linearGradient
       id="grd26"
       gradientUnits="userSpaceOnUse"
       x1="417"
       y1="20.837999"
       x2="417"
       y2="470.83801"
       gradientTransform="matrix(1.0000286,0,0,1.0000286,-0.95219397,-0.34826313)"
       xlink:href="#linearGradient5423">
      <stop
         offset="0"
         stop-color="#feffff"
         id="stop168"
         style="stop-color:#00cae8;stop-opacity:1" />
      <stop
         offset="1"
         stop-color="#d7d7d6"
         id="stop170"
         style="stop-color:#0577d8;stop-opacity:1" />
    </linearGradient>
    <linearGradient
       id="grd27"
       gradientUnits="userSpaceOnUse"
       x1="417"
       y1="20.837999"
       x2="417"
       y2="470.83801"
       gradientTransform="matrix(1.0000286,0,0,1.0000286,-0.95219397,-0.34826313)">
      <stop
         offset="0"
         stop-color="#f2f3f3"
         id="stop173"
         style="stop-color:#ffffff;stop-opacity:1" />
      <stop
         offset="1"
         stop-color="#b9b9b9"
         id="stop175"
         style="stop-color:#d7d7d7;stop-opacity:1" />
    </linearGradient>
    <radialGradient
       id="grd28"
       gradientUnits="userSpaceOnUse"
       cx="417"
       cy="245.838"
       r="231.55499"
       gradientTransform="matrix(1.5602693,0.04021518,-0.03931953,1.5255197,-225.12742,-146.08257)"
       fx="417"
       fy="245.838">
      <stop
         offset="0"
         stop-color="#00cef6"
         id="stop178" />
      <stop
         offset="0.45652175"
         stop-color="#009ad5"
         id="stop180" />
      <stop
         offset="1"
         stop-color="#0a55da"
         id="stop182" />
    </radialGradient>
    <linearGradient
       id="grd29"
       gradientUnits="userSpaceOnUse"
       x1="417"
       y1="49.971001"
       x2="417"
       y2="576.62701">
      <stop
         offset="0"
         stop-color="#f3f3f3"
         id="stop185" />
      <stop
         offset="1"
         stop-color="#b7b7b7"
         id="stop187" />
    </linearGradient>
    <linearGradient
       id="grd30"
       gradientUnits="userSpaceOnUse"
       x1="417"
       y1="51.537998"
       x2="417"
       y2="573.98102">
      <stop
         offset="0"
         stop-color="#f3f3f3"
         id="stop190" />
      <stop
         offset="1"
         stop-color="#b7b7b7"
         id="stop192" />
    </linearGradient>
    <filter
       x="-0.5"
       y="-0.5"
       width="2"
       height="2"
       id="flt3">
      <feGaussianBlur
         stdDeviation="2.47"
         id="feGaussianBlur195" />
    </filter>
    <clipPath
       clipPathUnits="userSpaceOnUse"
       id="cp4">
      <path
         inkscape:connector-curvature="0"
         d="m 393.1,221.44 48.79,48.79 119.15,-167.94 z M 273.96,389.38 441.9,270.23 393.11,221.44 Z"
         id="path198" />
    </clipPath>
    <filter
       inkscape:collect="always"
       style="color-interpolation-filters:sRGB"
       id="filter911"
       x="-0.038139857"
       width="1.0762797"
       y="-0.034087502"
       height="1.068175">
      <feGaussianBlur
         inkscape:collect="always"
         stdDeviation="0.32690625"
         id="feGaussianBlur913" />
    </filter>
    <linearGradient
       inkscape:collect="always"
       xlink:href="#grd28"
       id="linearGradient884"
       x1="410.75369"
       y1="-155.99115"
       x2="410.75369"
       y2="657.60077"
       gradientUnits="userSpaceOnUse" />
    <radialGradient
       inkscape:collect="always"
       xlink:href="#linearGradient8420"
       id="radialGradient6921"
       cx="100"
       cy="82.38073"
       fx="100"
       fy="82.38073"
       r="100"
       gradientUnits="userSpaceOnUse"
       gradientTransform="matrix(2.0804075,0,0,1.5624559,207.7979,71.46914)" />
  </defs>
  <sodipodi:namedview
     id="base"
     pagecolor="#ffffff"
     bordercolor="#666666"
     borderopacity="1.0"
     inkscape:pageopacity="0.0"
     inkscape:pageshadow="2"
     inkscape:zoom="0.7109375"
     inkscape:cx="512"
     inkscape:cy="512"
     inkscape:document-units="px"
     inkscape:current-layer="g1011"
     showgrid="true"
     inkscape:window-width="1920"
     inkscape:window-height="944"
     inkscape:window-x="0"
     inkscape:window-y="25"
     inkscape:window-maximized="1"
     inkscape:snap-from-guide="true"
     showguides="true"
     inkscape:guide-bbox="true"
     inkscape:pagecheckerboard="true">
    <sodipodi:guide
       position="200,0"
       orientation="-200,0"
       id="guide3766"
       inkscape:locked="false" />
    <sodipodi:guide
       position="0,200"
       orientation="200,0"
       id="guide3127"
       inkscape:locked="false" />
    <sodipodi:guide
       position="0,-2.6171874e-06"
       orientation="0,100"
       id="guide3129"
       inkscape:locked="false" />
    <sodipodi:guide
       position="100,-2.6171874e-06"
       orientation="-200,0"
       id="guide3131"
       inkscape:locked="false" />
    <sodipodi:guide
       position="100,200"
       orientation="0,-100"
       id="guide3133"
       inkscape:locked="false" />
    <inkscape:grid
       type="xygrid"
       id="grid915" />
  </sodipodi:namedview>
  <metadata
     id="metadata7">
    <rdf:RDF>
      <cc:Work
         rdf:about="">
        <dc:format>image/svg+xml</dc:format>
        <dc:type
           rdf:resource="http://purl.org/dc/dcmitype/StillImage" />
        <dc:title />
      </cc:Work>
    </rdf:RDF>
  </metadata>
  <g
     inkscape:label="Layer 1"
     inkscape:groupmode="layer"
     id="layer1"
     transform="translate(0,-28.36218)">
    <g
       id="safari"
       transform="translate(59.627166,290.64778)">
      <g
         id="g1011"
         transform="matrix(2.2615761,0,0,2.2615761,-488.57791,-305.49976)">
        <path
           inkscape:connector-curvature="0"
           style="fill:url(#grd26);stroke:none;stroke-width:1.00002861;stroke-linecap:round;fill-opacity:1.0"
           d="m 416.05973,470.50521 c 124.26356,0 225.00644,-100.74289 225.00644,-225.00644 0,-124.26356 -100.74288,-225.006437 -225.00644,-225.006437 -124.26355,0 -225.00644,100.742877 -225.00644,225.006437 0,124.26355 100.74289,225.00644 225.00644,225.00644 z"
           class="shp35"
           id="path850" />
        <path
           inkscape:connector-curvature="0"
           style="fill:url(#linearGradient884);stroke-width:0.99899524;fill-opacity:1"
           d="m 415.83865,453.76061 c 114.89444,0 208.04075,-93.14631 208.04075,-208.04076 0,-114.89444 -93.14631,-208.040747 -208.04075,-208.040747 -114.89445,0 -208.04076,93.146307 -208.04076,208.040747 0,114.89445 93.14631,208.04076 208.04076,208.04076 z"
           class="shp36"
           id="path852" />
        <circle
           style="color:#000000;display:inline;overflow:visible;visibility:visible;opacity:0.2;fill:url(#radialGradient6921);fill-opacity:1;fill-rule:nonzero;stroke:none;stroke-width:19.00315666;marker:none;enable-background:accumulate"
           id="path4188-6-4"
           cx="415.83865"
           cy="245.71986"
           r="208.04076" />
        <g
           id="g901"
           transform="matrix(10.7474,0,0,10.7474,141.50665,42.369732)"
           style="opacity:0.2;fill:#000000;fill-opacity:1;filter:url(#filter911)">
          <path
             d="m 25.546,19.394 c -0.045,0 -0.091,-0.014 -0.134,-0.038 l -8.804,-5.082 c -0.081,-0.048 -0.132,-0.137 -0.132,-0.231 0,-0.095 0.051,-0.183 0.132,-0.23 l 8.751,-5.049 c 0.082,-0.046 0.182,-0.046 0.263,0 l 8.807,5.084 c 0.082,0.047 0.131,0.135 0.131,0.23 0,0.096 -0.049,0.183 -0.131,0.23 l -8.748,5.048 c -0.043,0.024 -0.086,0.038 -0.135,0.038"
             id="path895"
             inkscape:connector-curvature="0"
             style="fill:#000000;fill-opacity:1" />
          <path
             enable-background="new    "
             d="m 24.281,31.746 c -0.05,0 -0.095,-0.012 -0.134,-0.036 L 15.369,26.644 C 15.284,26.597 15.233,26.511 15.233,26.413 V 16.247 c 0,-0.096 0.051,-0.183 0.136,-0.231 0.081,-0.049 0.181,-0.049 0.268,0 l 8.777,5.064 c 0.078,0.05 0.13,0.137 0.13,0.233 v 10.166 c 0,0.097 -0.052,0.183 -0.13,0.231 -0.044,0.024 -0.09,0.036 -0.133,0.036"
             id="path897"
             inkscape:connector-curvature="0"
             style="opacity:0.7;fill:#000000;fill-opacity:1" />
          <path
             enable-background="new    "
             d="m 26.766,31.746 c -0.048,0 -0.093,-0.012 -0.138,-0.036 -0.078,-0.048 -0.129,-0.134 -0.129,-0.231 V 21.377 c 0,-0.094 0.051,-0.182 0.129,-0.231 l 8.777,-5.064 c 0.084,-0.048 0.182,-0.048 0.264,0 0.084,0.047 0.135,0.135 0.135,0.23 v 10.101 c 0,0.098 -0.051,0.184 -0.135,0.231 l -8.774,5.066 c -0.036,0.024 -0.083,0.036 -0.129,0.036"
             id="path899"
             inkscape:connector-curvature="0"
             style="opacity:0.4;fill:#000000;fill-opacity:1" />
        </g>
        <g
           id="compass" />
        <g
           transform="matrix(10.7474,0,0,10.7474,141.50665,29.104647)"
           id="g4543">
          <path
             style="fill:#ffffff"
             inkscape:connector-curvature="0"
             id="path16"
             d="m 25.546,19.394 c -0.045,0 -0.091,-0.014 -0.134,-0.038 l -8.804,-5.082 c -0.081,-0.048 -0.132,-0.137 -0.132,-0.231 0,-0.095 0.051,-0.183 0.132,-0.23 l 8.751,-5.049 c 0.082,-0.046 0.182,-0.046 0.263,0 l 8.807,5.084 c 0.082,0.047 0.131,0.135 0.131,0.23 0,0.096 -0.049,0.183 -0.131,0.23 l -8.748,5.048 c -0.043,0.024 -0.086,0.038 -0.135,0.038" />
          <path
             style="opacity:0.7;fill:#ffffff"
             inkscape:connector-curvature="0"
             id="path18"
             d="m 24.281,31.746 c -0.05,0 -0.095,-0.012 -0.134,-0.036 L 15.369,26.644 C 15.284,26.597 15.233,26.511 15.233,26.413 V 16.247 c 0,-0.096 0.051,-0.183 0.136,-0.231 0.081,-0.049 0.181,-0.049 0.268,0 l 8.777,5.064 c 0.078,0.05 0.13,0.137 0.13,0.233 v 10.166 c 0,0.097 -0.052,0.183 -0.13,0.231 -0.044,0.024 -0.09,0.036 -0.133,0.036"
             enable-background="new    " />
          <path
             style="opacity:0.4;fill:#ffffff"
             inkscape:connector-curvature="0"
             id="path20"
             d="m 26.766,31.746 c -0.048,0 -0.093,-0.012 -0.138,-0.036 -0.078,-0.048 -0.129,-0.134 -0.129,-0.231 V 21.377 c 0,-0.094 0.051,-0.182 0.129,-0.231 l 8.777,-5.064 c 0.084,-0.048 0.182,-0.048 0.264,0 0.084,0.047 0.135,0.135 0.135,0.23 v 10.101 c 0,0.098 -0.051,0.184 -0.135,0.231 l -8.774,5.066 c -0.036,0.024 -0.083,0.036 -0.129,0.036"
             enable-background="new    " />
        </g>
      </g>
    </g>
  </g>
</svg>
