<?xml version="1.0" encoding="UTF-8" standalone="no"?>
<!-- Generator: flash2svg, http://dissentgraphics.com/tools/flash2svg -->

<svg
   xmlns:dc="http://purl.org/dc/elements/1.1/"
   xmlns:cc="http://creativecommons.org/ns#"
   xmlns:rdf="http://www.w3.org/1999/02/22-rdf-syntax-ns#"
   xmlns:svg="http://www.w3.org/2000/svg"
   xmlns="http://www.w3.org/2000/svg"
   xmlns:xlink="http://www.w3.org/1999/xlink"
   xmlns:sodipodi="http://sodipodi.sourceforge.net/DTD/sodipodi-0.dtd"
   xmlns:inkscape="http://www.inkscape.org/namespaces/inkscape"
   id="Calculator"
   image-rendering="optimizeSpeed"
   version="1.1"
   style="background-color:#FFFFFF"
   x="0px"
   y="0px"
   width="1024px"
   height="1024px"
   viewBox="0 0 1024 1024"
   enable-background="new 0 0 1024 1024"
   sodipodi:docname="vlc.svg"
   inkscape:export-filename="/home/unc/OSX/calculator-app.png"
   inkscape:export-xdpi="4.5"
   inkscape:export-ydpi="4.5"
   inkscape:version="0.92.4 (5da689c313, 2019-01-14)">
  <metadata
     id="metadata33">
    <rdf:RDF>
      <cc:Work
         rdf:about="">
        <dc:format>image/svg+xml</dc:format>
        <dc:type
           rdf:resource="http://purl.org/dc/dcmitype/StillImage" />
        <dc:title />
      </cc:Work>
    </rdf:RDF>
  </metadata>
  <sodipodi:namedview
     pagecolor="#ffffff"
     bordercolor="#666666"
     borderopacity="1"
     objecttolerance="10"
     gridtolerance="10"
     guidetolerance="10"
     inkscape:pageopacity="0"
     inkscape:pageshadow="2"
     inkscape:window-width="1920"
     inkscape:window-height="944"
     id="namedview31"
     showgrid="true"
     inkscape:pagecheckerboard="true"
     inkscape:zoom="0.7109375"
     inkscape:cx="2.8131834"
     inkscape:cy="500.74726"
     inkscape:window-x="0"
     inkscape:window-y="25"
     inkscape:window-maximized="1"
     inkscape:current-layer="Calculator">
    <inkscape:grid
       type="xygrid"
       id="grid845" />
  </sodipodi:namedview>
  <defs
     transform="matrix(1 0 0 1 0 0) "
     id="defs2">
    <linearGradient
       id="linearGradient842"
       inkscape:collect="always">
      <stop
         id="stop836"
         offset="0"
         style="stop-color:#fff697;stop-opacity:1" />
      <stop
         style="stop-color:#f29e42;stop-opacity:1"
         offset="0.56778663"
         id="stop838" />
      <stop
         id="stop840"
         offset="1"
         style="stop-color:#f38a35;stop-opacity:1" />
    </linearGradient>
    <linearGradient
       inkscape:collect="always"
       id="linearGradient1081">
      <stop
         style="stop-color:#ffffff;stop-opacity:1"
         offset="0"
         id="stop1077" />
      <stop
         style="stop-color:#d7d7d7;stop-opacity:1"
         offset="1"
         id="stop1079" />
    </linearGradient>
    <linearGradient
       inkscape:collect="always"
       xlink:href="#linearGradient842"
       id="linearGradient843"
       x1="520"
       y1="4"
       x2="520.03137"
       y2="1026.0078"
       gradientUnits="userSpaceOnUse"
       gradientTransform="matrix(0.99609375,0,0,0.99609375,2,2)" />
    <linearGradient
       inkscape:collect="always"
       xlink:href="#linearGradient1081"
       id="linearGradient1083"
       x1="500"
       y1="284"
       x2="500"
       y2="764"
       gradientUnits="userSpaceOnUse"
       gradientTransform="matrix(0.95975434,0,0,0.95975434,29.781771,12.028821)" />
    <linearGradient
       inkscape:collect="always"
       xlink:href="#linearGradient860"
       id="linearGradient854"
       gradientUnits="userSpaceOnUse"
       gradientTransform="matrix(0.99682199,0,0,0.99682199,1.07728,2.07728)"
       x1="519.6803"
       y1="-37.301823"
       x2="519.6803"
       y2="1547.7355" />
    <linearGradient
       inkscape:collect="always"
       id="linearGradient860">
      <stop
         style="stop-color:#ffda64;stop-opacity:1"
         offset="0"
         id="stop854" />
      <stop
         id="stop856"
         offset="0.40697676"
         style="stop-color:#f29e42;stop-opacity:1" />
      <stop
         style="stop-color:#f38a35;stop-opacity:1"
         offset="1"
         id="stop858" />
    </linearGradient>
    <filter
       inkscape:collect="always"
       style="color-interpolation-filters:sRGB"
       id="filter840"
       x="-0.064641016"
       width="1.129282"
       y="-0.055980762"
       height="1.1119615">
      <feGaussianBlur
         inkscape:collect="always"
         stdDeviation="11.225271"
         id="feGaussianBlur842" />
    </filter>
    <linearGradient
       id="linearGradient4657">
      <stop
         id="stop4653"
         offset="0"
         style="stop-color:#ffffff;stop-opacity:1" />
      <stop
         id="stop4655"
         offset="1"
         style="stop-color:#ffffff;stop-opacity:0;" />
    </linearGradient>
  </defs>
  <path
     id="path"
     d="m 984.88455,316.75212 q -9.29236,-22.5286 -20.9619,-44.13877 c -4.37603,-8.15784 -9.02221,-16.26166 -13.93853,-24.20339 C 928.86017,214.15784 903.09004,181.79661 872.67373,151.38029 773.10487,51.811441 652.84428,2 512,2 371.15572,2 250.94915,51.811441 151.38029,151.38029 51.811441,250.94915 2,371.15572 2,512 2,652.84428 51.811441,773.10487 151.38029,872.67373 250.94915,972.24259 371.15572,1022 512,1022 652.84428,1022 773.10487,972.24259 872.67373,872.67373 927.50953,817.7839 967.27222,756.62712 991.90781,689.25741 1011.9513,634.31356 1022,575.26377 1022,512 c 0,-48.51483 -5.8888,-94.59852 -17.7203,-138.25106 -1.3507,-4.91631 -2.7553,-9.83263 -4.214,-14.69491 -4.43011,-14.37077 -9.50849,-28.4714 -15.18115,-42.30191 z"
     style="fill:url(#linearGradient843);fill-opacity:1;stroke-width:1.08050847"
     inkscape:connector-curvature="0" />
  <path
     inkscape:connector-curvature="0"
     style="fill:url(#linearGradient854);fill-opacity:1;stroke-width:0.996822"
     d="m 967.7455,392.88136 c -1.0966,-4.33619 -2.3426,-8.97141 -3.6385,-13.55679 -0.9968,-3.38919 -1.9936,-6.82823 -3.1399,-10.46663 -1.595,-5.13363 -3.3892,-10.46663 -5.2832,-15.79962 -6.4295,-18.19201 -14.105,-35.93544 -23.0764,-53.47951 -3.7879,-7.37648 -7.9248,-14.90249 -12.2609,-22.32882 C 900.1111,242.85964 874.6921,210.26356 844.2392,179.81064 771.86992,107.44136 687.58861,63.53136 591.39529,48.1803 575.19692,45.58856 558.69952,43.79428 541.50434,42.8473 531.83517,42.29905 521.71743,42 511.5,42 c -9.32028,0 -18.54089,0.24921 -27.81133,0.74762 -117.97389,6.08061 -219.59989,51.7849 -304.87802,137.06302 Q 41,317.62129 41,512.49999 c 0,129.93576 45.9535,240.88205 137.81065,332.73921 56.5198,56.46996 120.1669,95.59522 190.49269,117.17642 36.63321,11.21425 74.56229,17.79327 114.38533,19.8866 0.14952,0 0.2492,0 0.39873,0 8.47298,0.44857 16.54724,0.69778 24.42213,0.69778 1.19619,0 2.09333,0 2.99047,0 10.26727,0 20.43485,-0.29905 30.00434,-0.79746 2.49206,-0.14952 4.73491,-0.29904 6.92791,-0.44857 20.13581,-1.44539 39.77321,-4.03713 58.51346,-7.67553 7.92473,-1.54508 15.74978,-3.28952 23.32563,-5.13363 80.54323,-20.23549 151.66647,-61.40424 213.96786,-123.70561 48.4455,-48.44556 84.1318,-102.17427 107.0088,-161.28581 18.3914,-47.49857 28.559,-98.48602 30.453,-153.01218 0.1993,-6.03078 0.299,-12.21108 0.299,-18.44122 0,-0.64792 0,-1.34571 0,-1.99364 0,-0.34889 0,-0.64794 0,-0.99682 -0.1994,-40.52081 -4.9343,-79.24735 -14.2545,-116.62817 z"
     id="path852" />
  <path
     inkscape:transform-center-x="-69.46222"
     d="m 340,785.24839 0,-481.24837 416.77332,240.62419 z"
     inkscape:randomized="0"
     inkscape:rounded="0"
     inkscape:flatsided="true"
     sodipodi:arg2="3.1415927"
     sodipodi:arg1="2.0943951"
     sodipodi:r2="138.92444"
     sodipodi:r1="277.84888"
     sodipodi:cy="544.62421"
     sodipodi:cx="478.92444"
     sodipodi:sides="3"
     id="path1085"
     style="opacity:0.2;fill:#000000;fill-opacity:0.58823529;stroke:none;stroke-width:20;stroke-linecap:square;stroke-linejoin:miter;stroke-miterlimit:4;stroke-dasharray:none;stroke-opacity:1;paint-order:stroke markers fill;filter:url(#filter840)"
     sodipodi:type="star" />
  <path
     sodipodi:type="star"
     style="opacity:1;fill:url(#linearGradient1083);fill-opacity:1;stroke:none;stroke-width:19.19508743;stroke-linecap:square;stroke-linejoin:miter;stroke-miterlimit:4;stroke-dasharray:none;stroke-opacity:1;paint-order:stroke markers fill"
     id="path1075"
     sodipodi:sides="3"
     sodipodi:cx="473.33333"
     sodipodi:cy="514.94012"
     sodipodi:r1="266.66666"
     sodipodi:r2="133.33333"
     sodipodi:arg1="2.0943951"
     sodipodi:arg2="3.1415927"
     inkscape:flatsided="true"
     inkscape:rounded="0"
     inkscape:randomized="0"
     d="m 340.00002,745.88022 -1e-5,-461.88019 L 740,514.94012 Z"
     inkscape:transform-center-x="-66.666675"
     inkscape:transform-center-y="3.520244e-06" />
</svg>
