<?xml version="1.0" encoding="UTF-8" standalone="no"?>
<svg
   xmlns:dc="http://purl.org/dc/elements/1.1/"
   xmlns:cc="http://creativecommons.org/ns#"
   xmlns:rdf="http://www.w3.org/1999/02/22-rdf-syntax-ns#"
   xmlns:svg="http://www.w3.org/2000/svg"
   xmlns="http://www.w3.org/2000/svg"
   xmlns:sodipodi="http://sodipodi.sourceforge.net/DTD/sodipodi-0.dtd"
   xmlns:inkscape="http://www.inkscape.org/namespaces/inkscape"
   aria-hidden="true"
   focusable="false"
   data-prefix="fab"
   data-icon="apple"
   class="svg-inline--fa fa-apple fa-w-12"
   role="img"
   viewBox="0 0 384 512"
   version="1.1"
   id="svg3773"
   sodipodi:docname="apple-brands.svg"
   inkscape:version="0.92.4 5da689c313, 2019-01-14">
  <metadata
     id="metadata3779">
    <rdf:RDF>
      <cc:Work
         rdf:about="">
        <dc:format>image/svg+xml</dc:format>
        <dc:type
           rdf:resource="http://purl.org/dc/dcmitype/StillImage" />
      </cc:Work>
    </rdf:RDF>
  </metadata>
  <defs
     id="defs3777" />
  <sodipodi:namedview
     pagecolor="#ffffff"
     bordercolor="#666666"
     borderopacity="1"
     objecttolerance="10"
     gridtolerance="10"
     guidetolerance="10"
     inkscape:pageopacity="0"
     inkscape:pageshadow="2"
     inkscape:window-width="1459"
     inkscape:window-height="837"
     id="namedview3775"
     showgrid="false"
     inkscape:zoom="1.1660156"
     inkscape:cx="80.428029"
     inkscape:cy="261.74634"
     inkscape:window-x="187"
     inkscape:window-y="153"
     inkscape:window-maximized="0"
     inkscape:current-layer="svg3773" />
  <path
     d="m 206.65651,63.53011 c -15.64334,38.35331 -25.07864,63.44089 -42.49546,100.65407 10.67869,11.31941 23.78627,24.50143 45.07294,39.38925 -22.88526,-9.41712 -38.49581,-18.87171 -50.16182,-28.68278 -22.29019,46.51194 -57.2125,112.76607 -128.081151,240.1026 55.700372,-32.15679 98.878311,-51.9818 139.118071,-59.54651 -1.7279,-7.43171 -2.7103,-15.47056 -2.64357,-23.85824 l 0.066,-1.78442 c 0.88385,-35.68574 19.44755,-63.12808 41.43802,-61.2648 21.9905,1.86328 39.08346,32.32015 38.19965,68.00592 -0.16623,6.71493 -0.92365,13.17462 -2.24705,19.16591 39.80288,7.78615 82.51912,27.5604 137.46584,59.28214 -10.83442,-19.94693 -20.50508,-37.92763 -29.74021,-55.05242 -14.54682,-11.27476 -29.71987,-25.9489 -60.67001,-41.83456 21.27334,5.52771 36.50479,11.90522 48.3774,19.03373 C 246.45903,162.32187 238.85546,139.09214 206.6564,63.53011 Z"
     id="path2518"
     style="fill:#ffffff;fill-opacity:1;fill-rule:evenodd;stroke:none;stroke-width:2.1148591"
     inkscape:connector-curvature="0" />
</svg>
