<?xml version="1.0" encoding="UTF-8" standalone="no"?>
<svg
   xmlns:dc="http://purl.org/dc/elements/1.1/"
   xmlns:cc="http://creativecommons.org/ns#"
   xmlns:rdf="http://www.w3.org/1999/02/22-rdf-syntax-ns#"
   xmlns:svg="http://www.w3.org/2000/svg"
   xmlns="http://www.w3.org/2000/svg"
   xmlns:sodipodi="http://sodipodi.sourceforge.net/DTD/sodipodi-0.dtd"
   xmlns:inkscape="http://www.inkscape.org/namespaces/inkscape"
   width="16"
   height="16"
   version="1.1"
   id="svg10"
   sodipodi:docname="control-center-adjusted-symbolic.svg"
   inkscape:version="1.0.2 (e86c870879, 2021-01-15)">
  <metadata
     id="metadata16">
    <rdf:RDF>
      <cc:Work
         rdf:about="">
        <dc:format>image/svg+xml</dc:format>
        <dc:type
           rdf:resource="http://purl.org/dc/dcmitype/StillImage" />
      </cc:Work>
    </rdf:RDF>
  </metadata>
  <defs
     id="defs14" />
  <sodipodi:namedview
     pagecolor="#ffffff"
     bordercolor="#666666"
     borderopacity="1"
     objecttolerance="10"
     gridtolerance="10"
     guidetolerance="10"
     inkscape:pageopacity="0"
     inkscape:pageshadow="2"
     inkscape:window-width="1920"
     inkscape:window-height="1016"
     id="namedview12"
     showgrid="false"
     inkscape:zoom="22.852191"
     inkscape:cx="6.5798965"
     inkscape:cy="13.602925"
     inkscape:window-x="0"
     inkscape:window-y="32"
     inkscape:window-maximized="1"
     inkscape:current-layer="svg10"
     inkscape:document-rotation="0" />
  <g
     fill="#dedede"
     id="g8"
     transform="matrix(0.7586318,0,0,0.7586318,1.9309456,1.5516297)">
    <path
       d="M 3.5,1 C 1.561,1 0,2.561 0,4.5 0,6.439 1.561,8 3.5,8 h 9 C 14.439,8 16,6.439 16,4.5 16,2.561 14.439,1 12.5,1 Z m 0,1 h 9 C 13.885,2 15,3.115 15,4.5 15,5.885 13.885,7 12.5,7 h -9 C 2.115,7 1,5.885 1,4.5 1,3.115 2.115,2 3.5,2 Z"
       id="path2" />
    <circle
       cx="3.5"
       cy="4.5"
       r="1.5"
       id="circle4" />
    <path
       d="M 3.5,9 C 1.5615,9 0,10.5616 0,12.5 0,14.4385 1.5615,16 3.5,16 h 9 C 14.4385,16 16,14.4384 16,12.5 16,10.5615 14.4385,9 12.5,9 Z m 9,2 A 1.5,1.5 0 0 1 14,12.5 1.5,1.5 0 0 1 12.5,14 1.5,1.5 0 0 1 11,12.5 1.5,1.5 0 0 1 12.5,11 Z"
       id="path6" />
  </g>
</svg>
