<?xml version="1.0" encoding="UTF-8" standalone="no"?>
<!-- Generator: flash2svg, http://dissentgraphics.com/tools/flash2svg -->

<svg
   xmlns:dc="http://purl.org/dc/elements/1.1/"
   xmlns:cc="http://creativecommons.org/ns#"
   xmlns:rdf="http://www.w3.org/1999/02/22-rdf-syntax-ns#"
   xmlns:svg="http://www.w3.org/2000/svg"
   xmlns="http://www.w3.org/2000/svg"
   xmlns:xlink="http://www.w3.org/1999/xlink"
   xmlns:sodipodi="http://sodipodi.sourceforge.net/DTD/sodipodi-0.dtd"
   xmlns:inkscape="http://www.inkscape.org/namespaces/inkscape"
   id="Calculator"
   image-rendering="optimizeSpeed"
   version="1.1"
   style="background-color:#FFFFFF"
   x="0px"
   y="0px"
   width="1024px"
   height="1024px"
   viewBox="0 0 1024 1024"
   enable-background="new 0 0 1024 1024"
   sodipodi:docname="addressbook.svg"
   inkscape:export-filename="/home/unc/OSX/calculator-app.png"
   inkscape:export-xdpi="4.5"
   inkscape:export-ydpi="4.5"
   inkscape:version="0.92.4 (5da689c313, 2019-01-14)">
  <metadata
     id="metadata33">
    <rdf:RDF>
      <cc:Work
         rdf:about="">
        <dc:format>image/svg+xml</dc:format>
        <dc:type
           rdf:resource="http://purl.org/dc/dcmitype/StillImage" />
        <dc:title />
      </cc:Work>
    </rdf:RDF>
  </metadata>
  <sodipodi:namedview
     pagecolor="#ffffff"
     bordercolor="#666666"
     borderopacity="1"
     objecttolerance="10"
     gridtolerance="10"
     guidetolerance="10"
     inkscape:pageopacity="0"
     inkscape:pageshadow="2"
     inkscape:window-width="1920"
     inkscape:window-height="955"
     id="namedview31"
     showgrid="true"
     inkscape:pagecheckerboard="true"
     inkscape:zoom="0.70392157"
     inkscape:cx="413.42307"
     inkscape:cy="508.44847"
     inkscape:window-x="0"
     inkscape:window-y="25"
     inkscape:window-maximized="1"
     inkscape:current-layer="Calculator">
    <inkscape:grid
       type="xygrid"
       id="grid845" />
  </sodipodi:namedview>
  <defs
     transform="matrix(1 0 0 1 0 0) "
     id="defs2">
    <linearGradient
       inkscape:collect="always"
       id="linearGradient1116">
      <stop
         style="stop-color:#bc8b3c;stop-opacity:1"
         offset="0"
         id="stop1112" />
      <stop
         style="stop-color:#ac7c3e;stop-opacity:1"
         offset="1"
         id="stop1114" />
    </linearGradient>
    <linearGradient
       id="linearGradient840"
       inkscape:collect="always">
      <stop
         id="stop835"
         offset="0"
         style="stop-color:#cb944f;stop-opacity:1" />
      <stop
         id="stop838"
         offset="1"
         style="stop-color:#ad7d3e;stop-opacity:1" />
    </linearGradient>
    <linearGradient
       inkscape:collect="always"
       xlink:href="#linearGradient840"
       id="linearGradient843"
       x1="520"
       y1="4"
       x2="520.03137"
       y2="1026.0078"
       gradientUnits="userSpaceOnUse"
       gradientTransform="matrix(0.99609375,0,0,0.99609375,2,2)" />
    <linearGradient
       inkscape:collect="always"
       xlink:href="#linearGradient1116"
       id="linearGradient899"
       gradientUnits="userSpaceOnUse"
       x1="520.31714"
       y1="-118.41902"
       x2="520"
       y2="1024"
       gradientTransform="matrix(0.99798494,0,0,0.99798494,0.73130767,2.180401)" />
    <linearGradient
       id="linearGradient4296"
       inkscape:collect="always">
      <stop
         id="stop4298"
         offset="0"
         style="stop-color:#000000;stop-opacity:1;" />
      <stop
         id="stop4300"
         offset="1"
         style="stop-color:#000000;stop-opacity:0;" />
    </linearGradient>
    <linearGradient
       id="linearGradient4243"
       inkscape:collect="always">
      <stop
         id="stop4245"
         offset="0"
         style="stop-color:#bc8b3c;stop-opacity:1" />
      <stop
         id="stop4247"
         offset="1"
         style="stop-color:#ac7c3e;stop-opacity:1" />
    </linearGradient>
    <linearGradient
       id="linearGradient5423-1">
      <stop
         style="stop-color:#51b9db;stop-opacity:1;"
         offset="0"
         id="stop4237" />
      <stop
         style="stop-color:#2fabd4;stop-opacity:1;"
         offset="1"
         id="stop4239" />
    </linearGradient>
    <inkscape:perspective
       id="perspective3135"
       inkscape:persp3d-origin="113.53447 : 77.71521 : 1"
       inkscape:vp_z="213.53447 : 111.04854 : 1"
       inkscape:vp_y="0 : 1000 : 0"
       inkscape:vp_x="13.534465 : 111.04854 : 1"
       sodipodi:type="inkscape:persp3d" />
    <linearGradient
       id="linearGradient4829">
      <stop
         id="stop4831"
         offset="0"
         style="stop-color:#f4fbfc;stop-opacity:1;" />
      <stop
         id="stop4833"
         offset="1"
         style="stop-color:#d6d6d6;stop-opacity:1;" />
    </linearGradient>
    <clipPath
       id="clipPath4282"
       clipPathUnits="userSpaceOnUse">
      <rect
         rx="17"
         ry="17"
         y="1646.1122"
         x="462.5"
         height="234.375"
         width="246.875"
         id="rect4284"
         style="color:#000000;fill:#4d4d4d;fill-opacity:1;fill-rule:nonzero;stroke:none;stroke-width:9.13434315;marker:none;visibility:visible;display:inline;overflow:visible;enable-background:accumulate" />
    </clipPath>
    <linearGradient
       gradientUnits="userSpaceOnUse"
       y2="562.04968"
       x2="408.66196"
       y1="44.604382"
       x1="408.66196"
       id="linearGradient5429"
       xlink:href="#linearGradient5423"
       inkscape:collect="always" />
    <linearGradient
       id="linearGradient5423">
      <stop
         id="stop5425"
         offset="0"
         style="stop-color:#db8451;stop-opacity:1;" />
      <stop
         id="stop5427"
         offset="1"
         style="stop-color:#c85c29;stop-opacity:1;" />
    </linearGradient>
    <linearGradient
       gradientUnits="userSpaceOnUse"
       y2="993.6615"
       x2="120.28125"
       y1="993.6615"
       x1="78.5625"
       id="linearGradient3992"
       xlink:href="#linearGradient4296"
       inkscape:collect="always" />
    <linearGradient
       gradientUnits="userSpaceOnUse"
       y2="199.83986"
       x2="99.036476"
       y1="-0.50471628"
       x1="99.036476"
       id="linearGradient5473-2"
       xlink:href="#linearGradient5423-1"
       inkscape:collect="always" />
    <clipPath
       id="clipPath3378"
       clipPathUnits="userSpaceOnUse">
      <rect
         y="1432.9845"
         x="-247.76358"
         height="148.32669"
         width="144.18349"
         id="rect3380"
         style="color:#000000;display:inline;overflow:visible;visibility:visible;opacity:0.41206031;fill:#ffffff;fill-opacity:1;fill-rule:nonzero;stroke:none;stroke-width:4.81500006;stroke-linecap:round;stroke-linejoin:miter;stroke-miterlimit:4;stroke-dasharray:none;stroke-dashoffset:0;stroke-opacity:1;marker:none;enable-background:accumulate" />
    </clipPath>
    <clipPath
       id="clipPath4277"
       clipPathUnits="userSpaceOnUse">
      <path
         id="path4279"
         d="m -229.07617,1455.911 0,105.7891 c 0,0.8891 0.71244,2.5644 1.45703,2.5644 0.0895,-0.8374 -0.48376,-1.5811 0.62695,-2.5644 l 46.27539,0 2.5586,0 23.04687,0 c 4.86914,0 8.78906,-3.92 8.78906,-8.7891 l 0,-88.2109 c 0,-4.8691 -3.91992,-8.7891 -8.78906,-8.7891 l -23.04687,0 -2.5586,0 -48.35937,0 z"
         style="color:#000000;display:inline;overflow:visible;visibility:visible;opacity:1;fill:url(#linearGradient4281);fill-opacity:1;fill-rule:nonzero;stroke:none;stroke-width:4.81500006;stroke-linecap:round;stroke-linejoin:miter;stroke-miterlimit:4;stroke-dasharray:none;stroke-dashoffset:0;stroke-opacity:1;marker:none;enable-background:accumulate"
         inkscape:connector-curvature="0" />
    </clipPath>
    <linearGradient
       y2="709.1676"
       x2="-187.35687"
       y1="603.80872"
       x1="-187.35687"
       gradientTransform="translate(0,852.36218)"
       gradientUnits="userSpaceOnUse"
       id="linearGradient4281"
       xlink:href="#linearGradient4243"
       inkscape:collect="always" />
    <clipPath
       id="clipPath4328"
       clipPathUnits="userSpaceOnUse">
      <path
         id="path4330"
         d="m -229.07617,1455.911 0,105.7891 c 0,0.8891 0.71244,2.5644 1.45703,2.5644 0.0895,-0.8374 -0.48376,-1.5811 0.62695,-2.5644 l 46.27539,0 2.5586,0 23.04687,0 c 4.86914,0 8.78906,-3.92 8.78906,-8.7891 l 0,-88.2109 c 0,-4.8691 -3.91992,-8.7891 -8.78906,-8.7891 l -23.04687,0 -2.5586,0 -48.35937,0 z"
         style="color:#000000;display:inline;overflow:visible;visibility:visible;opacity:1;fill:url(#linearGradient4281);fill-opacity:1;fill-rule:nonzero;stroke:none;stroke-width:4.81500006;stroke-linecap:round;stroke-linejoin:miter;stroke-miterlimit:4;stroke-dasharray:none;stroke-dashoffset:0;stroke-opacity:1;marker:none;enable-background:accumulate"
         inkscape:connector-curvature="0" />
    </clipPath>
    <clipPath
       id="clipPath4311-0"
       clipPathUnits="userSpaceOnUse">
      <path
         id="path4313-7"
         d="m -229.07617,1455.911 0,105.7891 c 0,0.8891 0.71244,2.5644 1.45703,2.5644 0.0895,-0.8374 -0.48376,-1.5811 0.62695,-2.5644 l 46.27539,0 2.5586,0 23.04687,0 c 4.86914,0 8.78906,-3.92 8.78906,-8.7891 l 0,-88.2109 c 0,-4.8691 -3.91992,-8.7891 -8.78906,-8.7891 l -23.04687,0 -2.5586,0 -48.35937,0 z"
         style="color:#000000;display:inline;overflow:visible;visibility:visible;opacity:1;fill:url(#linearGradient4281);fill-opacity:1;fill-rule:nonzero;stroke:none;stroke-width:4.81500006;stroke-linecap:round;stroke-linejoin:miter;stroke-miterlimit:4;stroke-dasharray:none;stroke-dashoffset:0;stroke-opacity:1;marker:none;enable-background:accumulate"
         inkscape:connector-curvature="0" />
    </clipPath>
    <clipPath
       id="clipPath4328-9"
       clipPathUnits="userSpaceOnUse">
      <path
         id="path4330-6"
         d="m -229.07617,1455.911 0,105.7891 c 0,0.8891 0.71244,2.5644 1.45703,2.5644 0.0895,-0.8374 -0.48376,-1.5811 0.62695,-2.5644 l 46.27539,0 2.5586,0 23.04687,0 c 4.86914,0 8.78906,-3.92 8.78906,-8.7891 l 0,-88.2109 c 0,-4.8691 -3.91992,-8.7891 -8.78906,-8.7891 l -23.04687,0 -2.5586,0 -48.35937,0 z"
         style="color:#000000;display:inline;overflow:visible;visibility:visible;opacity:1;fill:url(#linearGradient4281);fill-opacity:1;fill-rule:nonzero;stroke:none;stroke-width:4.81500006;stroke-linecap:round;stroke-linejoin:miter;stroke-miterlimit:4;stroke-dasharray:none;stroke-dashoffset:0;stroke-opacity:1;marker:none;enable-background:accumulate"
         inkscape:connector-curvature="0" />
    </clipPath>
    <clipPath
       id="clipPath4328-4"
       clipPathUnits="userSpaceOnUse">
      <path
         id="path4330-0"
         d="m -229.07617,1455.911 0,105.7891 c 0,0.8891 0.71244,2.5644 1.45703,2.5644 0.0895,-0.8374 -0.48376,-1.5811 0.62695,-2.5644 l 46.27539,0 2.5586,0 23.04687,0 c 4.86914,0 8.78906,-3.92 8.78906,-8.7891 l 0,-88.2109 c 0,-4.8691 -3.91992,-8.7891 -8.78906,-8.7891 l -23.04687,0 -2.5586,0 -48.35937,0 z"
         style="color:#000000;display:inline;overflow:visible;visibility:visible;opacity:1;fill:url(#linearGradient4281);fill-opacity:1;fill-rule:nonzero;stroke:none;stroke-width:4.81500006;stroke-linecap:round;stroke-linejoin:miter;stroke-miterlimit:4;stroke-dasharray:none;stroke-dashoffset:0;stroke-opacity:1;marker:none;enable-background:accumulate"
         inkscape:connector-curvature="0" />
    </clipPath>
    <clipPath
       id="clipPath4898"
       clipPathUnits="userSpaceOnUse">
      <path
         inkscape:connector-curvature="0"
         style="color:#000000;display:inline;overflow:visible;visibility:visible;opacity:1;fill:url(#linearGradient4281);fill-opacity:1;fill-rule:nonzero;stroke:none;stroke-width:4.81500006;stroke-linecap:round;stroke-linejoin:miter;stroke-miterlimit:4;stroke-dasharray:none;stroke-dashoffset:0;stroke-opacity:1;marker:none;enable-background:accumulate"
         d="m -229.07617,1455.911 0,105.7891 c 0,0.8891 0.71244,2.5644 1.45703,2.5644 0.0895,-0.8374 -0.48376,-1.5811 0.62695,-2.5644 l 46.27539,0 2.5586,0 23.04687,0 c 4.86914,0 8.78906,-3.92 8.78906,-8.7891 l 0,-88.2109 c 0,-4.8691 -3.91992,-8.7891 -8.78906,-8.7891 l -23.04687,0 -2.5586,0 -48.35937,0 z"
         id="path4900" />
    </clipPath>
    <clipPath
       id="clipPath4928"
       clipPathUnits="userSpaceOnUse">
      <path
         id="path4930"
         d="m -229.07617,1455.911 0,105.7891 c 0,0.8891 0.71244,2.5644 1.45703,2.5644 0.0895,-0.8374 -0.48376,-1.5811 0.62695,-2.5644 l 46.27539,0 2.5586,0 23.04687,0 c 4.86914,0 8.78906,-3.92 8.78906,-8.7891 l 0,-88.2109 c 0,-4.8691 -3.91992,-8.7891 -8.78906,-8.7891 l -23.04687,0 -2.5586,0 -48.35937,0 z"
         style="color:#000000;display:inline;overflow:visible;visibility:visible;opacity:1;fill:url(#linearGradient4281);fill-opacity:1;fill-rule:nonzero;stroke:none;stroke-width:4.81500006;stroke-linecap:round;stroke-linejoin:miter;stroke-miterlimit:4;stroke-dasharray:none;stroke-dashoffset:0;stroke-opacity:1;marker:none;enable-background:accumulate"
         inkscape:connector-curvature="0" />
    </clipPath>
    <clipPath
       id="clipPath5092"
       clipPathUnits="userSpaceOnUse">
      <path
         id="path5094"
         d="m -229.07617,1455.911 0,105.7891 c 0,0.8891 0.71244,2.5644 1.45703,2.5644 0.0895,-0.8374 -0.48376,-1.5811 0.62695,-2.5644 l 46.27539,0 2.5586,0 23.04687,0 c 4.86914,0 8.78906,-3.92 8.78906,-8.7891 l 0,-88.2109 c 0,-4.8691 -3.91992,-8.7891 -8.78906,-8.7891 l -23.04687,0 -2.5586,0 -48.35937,0 z"
         style="color:#000000;display:inline;overflow:visible;visibility:visible;opacity:1;fill:url(#linearGradient4281);fill-opacity:1;fill-rule:nonzero;stroke:none;stroke-width:4.81500006;stroke-linecap:round;stroke-linejoin:miter;stroke-miterlimit:4;stroke-dasharray:none;stroke-dashoffset:0;stroke-opacity:1;marker:none;enable-background:accumulate"
         inkscape:connector-curvature="0" />
    </clipPath>
    <clipPath
       id="clipPath5122"
       clipPathUnits="userSpaceOnUse">
      <path
         id="path5124"
         d="m -229.07617,1455.911 0,105.7891 c 0,0.8891 0.71244,2.5644 1.45703,2.5644 0.0895,-0.8374 -0.48376,-1.5811 0.62695,-2.5644 l 46.27539,0 2.5586,0 23.04687,0 c 4.86914,0 8.78906,-3.92 8.78906,-8.7891 l 0,-88.2109 c 0,-4.8691 -3.91992,-8.7891 -8.78906,-8.7891 l -23.04687,0 -2.5586,0 -48.35937,0 z"
         style="color:#000000;display:inline;overflow:visible;visibility:visible;opacity:1;fill:url(#linearGradient4281);fill-opacity:1;fill-rule:nonzero;stroke:none;stroke-width:4.81500006;stroke-linecap:round;stroke-linejoin:miter;stroke-miterlimit:4;stroke-dasharray:none;stroke-dashoffset:0;stroke-opacity:1;marker:none;enable-background:accumulate"
         inkscape:connector-curvature="0" />
    </clipPath>
    <clipPath
       id="clipPath5315"
       clipPathUnits="userSpaceOnUse">
      <rect
         style="color:#000000;display:inline;overflow:visible;visibility:visible;opacity:1;fill:#15bfe3;fill-opacity:1;fill-rule:nonzero;stroke:none;stroke-width:0.10575029;stroke-linecap:round;stroke-linejoin:miter;stroke-miterlimit:4;stroke-dasharray:none;stroke-dashoffset:0;stroke-opacity:1;marker:none;enable-background:accumulate"
         id="rect5317"
         width="8.7005014"
         height="24.124268"
         x="-149.37343"
         y="1487.7891"
         ry="2.783535"
         rx="2.8672121" />
    </clipPath>
    <clipPath
       id="clipPath5334"
       clipPathUnits="userSpaceOnUse">
      <rect
         style="color:#000000;display:inline;overflow:visible;visibility:visible;opacity:1;fill:#05d562;fill-opacity:1;fill-rule:nonzero;stroke:none;stroke-width:0.10575029;stroke-linecap:round;stroke-linejoin:miter;stroke-miterlimit:4;stroke-dasharray:none;stroke-dashoffset:0;stroke-opacity:1;marker:none;enable-background:accumulate"
         id="rect5336"
         width="8.7005014"
         height="24.124268"
         x="-149.37343"
         y="1509.0391"
         ry="2.783535"
         rx="2.8672121" />
    </clipPath>
    <clipPath
       id="clipPath5359"
       clipPathUnits="userSpaceOnUse">
      <rect
         style="color:#000000;display:inline;overflow:visible;visibility:visible;opacity:1;fill:#dd9201;fill-opacity:1;fill-rule:nonzero;stroke:none;stroke-width:0.10575029;stroke-linecap:round;stroke-linejoin:miter;stroke-miterlimit:4;stroke-dasharray:none;stroke-dashoffset:0;stroke-opacity:1;marker:none;enable-background:accumulate"
         id="rect5361"
         width="8.7005014"
         height="24.124268"
         x="-149.37343"
         y="1530.1641"
         ry="2.783535"
         rx="2.8672121" />
    </clipPath>
    <linearGradient
       id="linearGradient4657">
      <stop
         id="stop4653"
         offset="0"
         style="stop-color:#ffffff;stop-opacity:1" />
      <stop
         id="stop4655"
         offset="1"
         style="stop-color:#ffffff;stop-opacity:0;" />
    </linearGradient>
  </defs>
  <path
     id="path"
     d="m 984.88455,316.75212 q -9.29236,-22.5286 -20.9619,-44.13877 c -4.37603,-8.15784 -9.02221,-16.26166 -13.93853,-24.20339 C 928.86017,214.15784 903.09004,181.79661 872.67373,151.38029 773.10487,51.811441 652.84428,2 512,2 371.15572,2 250.94915,51.811441 151.38029,151.38029 51.811441,250.94915 2,371.15572 2,512 2,652.84428 51.811441,773.10487 151.38029,872.67373 250.94915,972.24259 371.15572,1022 512,1022 652.84428,1022 773.10487,972.24259 872.67373,872.67373 927.50953,817.7839 967.27222,756.62712 991.90781,689.25741 1011.9513,634.31356 1022,575.26377 1022,512 c 0,-48.51483 -5.8888,-94.59852 -17.7203,-138.25106 -1.3507,-4.91631 -2.7553,-9.83263 -4.214,-14.69491 -4.43011,-14.37077 -9.50849,-28.4714 -15.18115,-42.30191 z"
     style="fill:url(#linearGradient843);fill-opacity:1;stroke-width:1.08050847"
     inkscape:connector-curvature="0" />
  <path
     id="path1"
     d="m 982,512.5 c 0,-7.93398 -0.1996,-15.81806 -0.49899,-23.50255 Q 973.51713,309.21047 844.22818,179.77182 C 752.36367,87.957207 641.43764,42 511.5,42 381.61226,42 270.63633,87.957207 178.82172,179.77182 86.957206,271.58644 41,382.56236 41,512.5 c 0,129.88774 45.957206,240.86367 137.82172,332.67828 85.9764,86.1261 188.96845,131.88371 308.52704,137.32273 C 495.33264,982.8004 503.31652,983 511.5,983 641.43764,983 752.36367,936.99289 844.22818,845.17828 936.04279,753.36367 982,642.38774 982,512.5 Z"
     style="fill:url(#linearGradient899);fill-opacity:1.0;stroke-width:0.99798495"
     inkscape:connector-curvature="0" />
  <path
     style="opacity:0.07999998;fill:#ffffff;fill-opacity:1;fill-rule:evenodd;stroke:none;stroke-width:1px;stroke-linecap:butt;stroke-linejoin:miter;stroke-opacity:1"
     d="m -223.26897,1457.004 c 0,0 64.78866,0 67.26354,0 2.47487,0 9.63433,1.0607 9.63433,9.6344 0,8.5736 3.88908,-11.137 3.88908,-11.137 l -23.86485,-2.74 -57.09887,2.2981 z"
     id="path5068"
     inkscape:connector-curvature="0"
     clip-path="url(#clipPath5092)"
     transform="matrix(1.5804016,-0.23476905,0.23476905,1.5804016,-183.62279,-2168.2392)" />
  <path
     style="color:#000000;font-style:normal;font-variant:normal;font-weight:normal;font-stretch:normal;font-size:medium;line-height:normal;font-family:sans-serif;text-indent:0;text-align:start;text-decoration:none;text-decoration-line:none;text-decoration-style:solid;text-decoration-color:#000000;letter-spacing:normal;word-spacing:normal;text-transform:none;writing-mode:lr-tb;direction:ltr;baseline-shift:baseline;text-anchor:start;white-space:normal;clip-rule:nonzero;display:inline;overflow:visible;visibility:visible;opacity:0.75;isolation:auto;mix-blend-mode:normal;color-interpolation:sRGB;color-interpolation-filters:linearRGB;solid-color:#000000;solid-opacity:1;fill:#8a5411;fill-opacity:1;fill-rule:nonzero;stroke:none;stroke-width:32.67847443;stroke-linecap:round;stroke-linejoin:miter;stroke-miterlimit:4;stroke-dasharray:none;stroke-dashoffset:0;stroke-opacity:1;marker:none;color-rendering:auto;image-rendering:auto;shape-rendering:auto;text-rendering:auto;enable-background:accumulate"
     d="M 460.82857,201.28483 C 283.54738,227.62014 160.5111,391.7413 186.62651,567.54312 212.74182,743.34361 378.1762,864.63507 555.45739,838.3005 732.73855,811.96481 855.74931,647.82459 829.63402,472.0239 803.51858,296.22209 638.10974,174.94912 460.82857,201.28483 Z m 4.80064,32.31614 c 159.98321,-23.76543 308.1935,85.06382 331.68815,243.22341 10.04198,67.59966 -4.40189,133.15472 -36.6499,187.9755 -3.42196,-1.76304 -103.58903,-53.0362 -168.26805,-43.42826 0,0 -24.49796,-20.80635 -24.03581,-65.70782 1.2e-4,0 21.66359,-25.62195 20.497,-81.48806 0,0 2.9535,-35.10318 -4.54329,-37.55582 0,0 -1.36353,-12.51339 -0.70811,-35.53654 0.65566,-23.02297 -8.5277,-98.58856 -111.15491,-83.34326 C 369.82694,332.9856 383.00614,407.95695 390.32584,429.79543 397.64557,451.63485 400,464 400,464 c -6.45996,4.52574 6.54786,37.25806 6.54786,37.25806 15.12358,53.79319 43.29925,72.01134 43.29925,72.01134 13.4945,42.82723 -3.8752,69.85516 -3.8752,69.85516 -58.08828,8.62832 -126.13564,69.55965 -142.05286,84.39218 C 259.65024,684.89117 228.6652,628.03637 218.96529,562.73905 195.47065,404.57946 305.64599,257.36658 465.6293,233.60097 Z"
     id="path5128"
     inkscape:connector-curvature="0" />
</svg>
