<?xml version="1.0" encoding="UTF-8" standalone="no"?>
<!-- Generator: flash2svg, http://dissentgraphics.com/tools/flash2svg -->

<svg
   xmlns:dc="http://purl.org/dc/elements/1.1/"
   xmlns:cc="http://creativecommons.org/ns#"
   xmlns:rdf="http://www.w3.org/1999/02/22-rdf-syntax-ns#"
   xmlns:svg="http://www.w3.org/2000/svg"
   xmlns="http://www.w3.org/2000/svg"
   xmlns:xlink="http://www.w3.org/1999/xlink"
   xmlns:sodipodi="http://sodipodi.sourceforge.net/DTD/sodipodi-0.dtd"
   xmlns:inkscape="http://www.inkscape.org/namespaces/inkscape"
   id="Calculator"
   image-rendering="optimizeSpeed"
   version="1.1"
   style="background-color:#FFFFFF"
   x="0px"
   y="0px"
   width="1024px"
   height="1024px"
   viewBox="0 0 1024 1024"
   enable-background="new 0 0 1024 1024"
   sodipodi:docname="calc.svg"
   inkscape:export-filename="/home/unc/OSX/calculator-app.png"
   inkscape:export-xdpi="4.5"
   inkscape:export-ydpi="4.5"
   inkscape:version="0.92.4 (5da689c313, 2019-01-14)">
  <metadata
     id="metadata33">
    <rdf:RDF>
      <cc:Work
         rdf:about="">
        <dc:format>image/svg+xml</dc:format>
        <dc:type
           rdf:resource="http://purl.org/dc/dcmitype/StillImage" />
        <dc:title />
      </cc:Work>
    </rdf:RDF>
  </metadata>
  <sodipodi:namedview
     pagecolor="#ffffff"
     bordercolor="#666666"
     borderopacity="1"
     objecttolerance="10"
     gridtolerance="10"
     guidetolerance="10"
     inkscape:pageopacity="0"
     inkscape:pageshadow="2"
     inkscape:window-width="1920"
     inkscape:window-height="944"
     id="namedview31"
     showgrid="true"
     inkscape:pagecheckerboard="true"
     inkscape:zoom="0.61425781"
     inkscape:cx="217.33545"
     inkscape:cy="505.48808"
     inkscape:window-x="0"
     inkscape:window-y="25"
     inkscape:window-maximized="1"
     inkscape:current-layer="Calculator"
     showguides="true"
     inkscape:guide-bbox="true">
    <inkscape:grid
       type="xygrid"
       id="grid845" />
  </sodipodi:namedview>
  <defs
     transform="matrix(1 0 0 1 0 0) "
     id="defs2">
    <linearGradient
       id="linearGradient878"
       inkscape:collect="always">
      <stop
         style="stop-color:#f34f17;stop-opacity:1"
         offset="0"
         id="stop876" />
      <stop
         style="stop-color:#fec589;stop-opacity:1"
         offset="1"
         id="stop874" />
    </linearGradient>
    <linearGradient
       id="linearGradient899"
       inkscape:collect="always">
      <stop
         style="stop-color:#f37517;stop-opacity:1"
         offset="0"
         id="stop897" />
      <stop
         style="stop-color:#fec589;stop-opacity:1"
         offset="1"
         id="stop895" />
    </linearGradient>
    <linearGradient
       id="linearGradient840"
       inkscape:collect="always">
      <stop
         id="stop835"
         offset="0"
         style="stop-color:#f79451;stop-opacity:1" />
      <stop
         id="stop838"
         offset="1"
         style="stop-color:#f99c5b;stop-opacity:1" />
    </linearGradient>
    <linearGradient
       inkscape:collect="always"
       id="linearGradient851">
      <stop
         style="stop-color:#fec589;stop-opacity:1"
         offset="0"
         id="stop847" />
      <stop
         style="stop-color:#f34f17;stop-opacity:1"
         offset="1"
         id="stop849" />
    </linearGradient>
    <linearGradient
       inkscape:collect="always"
       xlink:href="#linearGradient840"
       id="linearGradient843"
       x1="520"
       y1="4"
       x2="520.03137"
       y2="1026.0078"
       gradientUnits="userSpaceOnUse"
       gradientTransform="matrix(0.99609375,0,0,0.99609375,2,2)" />
    <linearGradient
       inkscape:collect="always"
       xlink:href="#linearGradient851"
       id="linearGradient4661"
       gradientUnits="userSpaceOnUse"
       x1="520"
       y1="4"
       x2="520"
       y2="1024" />
    <linearGradient
       inkscape:collect="always"
       xlink:href="#linearGradient899"
       id="linearGradient856"
       x1="520"
       y1="4"
       x2="520"
       y2="1024"
       gradientUnits="userSpaceOnUse" />
    <linearGradient
       inkscape:collect="always"
       xlink:href="#linearGradient899"
       id="linearGradient876"
       gradientUnits="userSpaceOnUse"
       x1="520"
       y1="4"
       x2="519.30328"
       y2="963.71313"
       gradientTransform="matrix(1.0892857,0,0,1.0892857,-45.669623,-45.75894)" />
    <linearGradient
       inkscape:collect="always"
       xlink:href="#linearGradient878"
       id="linearGradient890"
       x1="760"
       y1="424"
       x2="761.65967"
       y2="1747.6045"
       gradientUnits="userSpaceOnUse" />
    <filter
       inkscape:collect="always"
       style="color-interpolation-filters:sRGB"
       id="filter980"
       x="-0.036292574"
       width="1.0725851"
       y="-0.035712106"
       height="1.0714242">
      <feGaussianBlur
         inkscape:collect="always"
         stdDeviation="7.3190024"
         id="feGaussianBlur982" />
    </filter>
    <linearGradient
       inkscape:collect="always"
       xlink:href="#linearGradient878"
       id="linearGradient884"
       gradientUnits="userSpaceOnUse"
       x1="760"
       y1="424"
       x2="761.65967"
       y2="1747.6045"
       gradientTransform="rotate(-180,512,513)" />
    <radialGradient
       inkscape:collect="always"
       xlink:href="#linearGradient4657"
       id="radialGradient6921"
       cx="100"
       cy="82.38073"
       fx="100"
       fy="82.38073"
       r="100"
       gradientUnits="userSpaceOnUse"
       gradientTransform="matrix(4.705,0,0,3.533613,41.00003,118.41878)" />
    <linearGradient
       id="linearGradient4657">
      <stop
         id="stop4653"
         offset="0"
         style="stop-color:#ffffff;stop-opacity:1" />
      <stop
         id="stop4655"
         offset="1"
         style="stop-color:#ffffff;stop-opacity:0;" />
    </linearGradient>
  </defs>
  <path
     id="path"
     d="m 984.88455,316.75212 q -9.29236,-22.5286 -20.9619,-44.13877 c -4.37603,-8.15784 -9.02221,-16.26166 -13.93853,-24.20339 C 928.86017,214.15784 903.09004,181.79661 872.67373,151.38029 773.10487,51.811441 652.84428,2 512,2 371.15572,2 250.94915,51.811441 151.38029,151.38029 51.811441,250.94915 2,371.15572 2,512 2,652.84428 51.811441,773.10487 151.38029,872.67373 250.94915,972.24259 371.15572,1022 512,1022 652.84428,1022 773.10487,972.24259 872.67373,872.67373 927.50953,817.7839 967.27222,756.62712 991.90781,689.25741 1011.9513,634.31356 1022,575.26377 1022,512 c 0,-48.51483 -5.8888,-94.59852 -17.7203,-138.25106 -1.3507,-4.91631 -2.7553,-9.83263 -4.214,-14.69491 -4.43011,-14.37077 -9.50849,-28.4714 -15.18115,-42.30191 z"
     style="fill:url(#linearGradient843);fill-opacity:1;stroke-width:1.08050847"
     inkscape:connector-curvature="0" />
  <circle
     r="470.5"
     cy="512.5"
     cx="511.5"
     id="circle874"
     style="opacity:1;fill:url(#linearGradient876);fill-opacity:1;fill-rule:nonzero;stroke:none;stroke-width:84.01786041;stroke-linecap:square;stroke-linejoin:miter;stroke-miterlimit:4;stroke-dasharray:none;stroke-opacity:0.004717;paint-order:stroke markers fill" />
  <circle
     style="opacity:1;fill:url(#linearGradient856);fill-opacity:1.0;fill-rule:nonzero;stroke:none;stroke-width:77.13114929;stroke-linecap:square;stroke-linejoin:miter;stroke-miterlimit:4;stroke-dasharray:none;stroke-opacity:0.004717;paint-order:stroke markers fill"
     id="path848"
     cx="511.5"
     cy="512.5"
     r="431.93442" />
  <path
     inkscape:connector-curvature="0"
     id="path882"
     d="M 512,514 V 43.0019 C 382.2782,43.1201 271.5179,89.1257 179.7715,180.82227 87.9569,272.63688 42,383.61226 42,513.5 c 0,0.16698 0,0.33307 0,0.5 z"
     style="opacity:0.2;fill:url(#linearGradient884);fill-opacity:1;stroke-width:18.2857151" />
  <circle
     style="color:#000000;display:inline;overflow:visible;visibility:visible;opacity:0.2;fill:url(#radialGradient6921);fill-opacity:1;fill-rule:nonzero;stroke:none;stroke-width:42.97708511;marker:none;enable-background:accumulate"
     id="path4188-6-4"
     cx="511.5"
     cy="512.5"
     r="470.5" />
  <path
     style="fill:url(#linearGradient890);fill-opacity:1;stroke-width:18.2857151;opacity:0.21"
     d="M 512,512 V 982.9981 C 641.7218,982.8799 752.4821,936.8743 844.2285,845.17773 936.0431,753.36312 982,642.38774 982,512.5 c 0,-0.16698 0,-0.33307 0,-0.5 z"
     id="rect8"
     inkscape:connector-curvature="0" />
  <g
     id="g966"
     style="opacity:0.2;fill:#000000;fill-opacity:1;filter:url(#filter980)"
     transform="translate(0,10)">
    <path
       inkscape:connector-curvature="0"
       style="fill:#000000;fill-opacity:1;stroke-width:10.2857151"
       d="M 740,724 H 616.57142 c -5.67771,0 -10.28571,-4.59772 -10.28571,-10.28572 0,-5.688 4.608,-10.28571 10.28571,-10.28571 H 740 c 5.67771,0 10.28571,4.59771 10.28571,10.28571 0,5.688 -4.608,10.28572 -10.28571,10.28572 z"
       id="path948" />
    <path
       inkscape:connector-curvature="0"
       style="fill:#000000;fill-opacity:1;stroke-width:10.2857151"
       d="M 740,662.28571 H 616.57142 c -5.67771,0 -10.28571,-4.59771 -10.28571,-10.28571 0,-5.688 4.608,-10.28572 10.28571,-10.28572 H 740 c 5.67771,0 10.28571,4.59772 10.28571,10.28572 0,5.688 -4.608,10.28571 -10.28571,10.28571 z"
       id="path950" />
    <path
       inkscape:connector-curvature="0"
       style="fill:#000000;fill-opacity:1;stroke-width:9.91625404"
       d="m 340,704 c -2.53856,0 -5.07712,-0.97179 -7.01079,-2.90546 -3.87725,-3.87725 -3.87725,-10.14433 0,-14.02158 l 49.58126,-49.58127 c 3.87726,-3.87726 10.14433,-3.87726 14.02159,0 3.87725,3.87725 3.87725,10.14433 0,14.02158 l -49.58127,49.58127 C 345.07712,703.02821 342.53856,704 340,704 Z"
       id="path952" />
    <path
       inkscape:connector-curvature="0"
       style="fill:#000000;fill-opacity:1;stroke-width:9.91625404"
       d="m 290.41873,753.58127 c -2.53855,0 -5.07712,-0.97179 -7.01079,-2.90547 -3.87725,-3.87725 -3.87725,-10.14432 0,-14.02158 l 49.58127,-49.58126 c 3.87725,-3.87726 10.14433,-3.87726 14.02158,0 3.87725,3.87725 3.87725,10.14433 0,14.02158 l -49.58126,49.58126 c -1.93368,1.93368 -4.47224,2.90547 -7.0108,2.90547 z"
       id="path954" />
    <path
       inkscape:connector-curvature="0"
       style="fill:#000000;fill-opacity:1;stroke-width:9.91625404"
       d="m 389.58127,753.58127 c -2.53856,0 -5.07712,-0.97179 -7.0108,-2.90547 l -49.58126,-49.58126 c -3.87725,-3.87725 -3.87725,-10.14433 0,-14.02158 3.87725,-3.87726 10.14433,-3.87726 14.02158,0 l 49.58127,49.58126 c 3.87725,3.87726 3.87725,10.14433 0,14.02158 -1.93367,1.93368 -4.47224,2.90547 -7.01079,2.90547 z"
       id="path956" />
    <path
       inkscape:connector-curvature="0"
       style="fill:#000000;fill-opacity:1;stroke-width:9.91625404"
       d="m 340,704 c -2.53856,0 -5.07712,-0.97179 -7.01079,-2.90546 l -49.58127,-49.58127 c -3.87725,-3.87725 -3.87725,-10.14433 0,-14.02158 3.87726,-3.87726 10.14433,-3.87726 14.02159,0 l 49.58126,49.58127 c 3.87725,3.87725 3.87725,10.14433 0,14.02158 C 345.07712,703.02821 342.53856,704 340,704 Z"
       id="path958" />
    <path
       inkscape:connector-curvature="0"
       style="fill:#000000;fill-opacity:1;stroke-width:10.2857151"
       d="M 400,344 H 276.57142 c -5.67771,0 -10.28571,-4.59771 -10.28571,-10.28571 0,-5.688 4.608,-10.28571 10.28571,-10.28571 H 400 c 5.67771,0 10.28571,4.59771 10.28571,10.28571 0,5.688 -4.608,10.28571 -10.28571,10.28571 z"
       id="path960" />
    <path
       inkscape:connector-curvature="0"
       style="fill:#000000;fill-opacity:1;stroke-width:10.2857151"
       d="M 338.28571,405.71429 C 332.608,405.71429 328,401.11658 328,395.42858 V 272 c 0,-5.688 4.608,-10.28571 10.28571,-10.28571 5.67771,0 10.28571,4.59771 10.28571,10.28571 v 123.42858 c 0,5.688 -4.608,10.28571 -10.28571,10.28571 z"
       id="path962" />
    <path
       inkscape:connector-curvature="0"
       style="fill:#000000;fill-opacity:1;stroke-width:10.2857151"
       d="M 740,344 H 616.57142 c -5.67771,0 -10.28571,-4.59771 -10.28571,-10.28571 0,-5.688 4.608,-10.28571 10.28571,-10.28571 H 740 c 5.67771,0 10.28571,4.59771 10.28571,10.28571 0,5.688 -4.608,10.28571 -10.28571,10.28571 z"
       id="path964" />
  </g>
  <g
     id="g946">
    <path
       id="path10"
       d="M 740,724 H 616.57142 c -5.67771,0 -10.28571,-4.59772 -10.28571,-10.28572 0,-5.688 4.608,-10.28571 10.28571,-10.28571 H 740 c 5.67771,0 10.28571,4.59771 10.28571,10.28571 0,5.688 -4.608,10.28572 -10.28571,10.28572 z"
       style="fill:#ffffff;stroke-width:10.2857151"
       inkscape:connector-curvature="0" />
    <path
       id="path12"
       d="M 740,662.28571 H 616.57142 c -5.67771,0 -10.28571,-4.59771 -10.28571,-10.28571 0,-5.688 4.608,-10.28572 10.28571,-10.28572 H 740 c 5.67771,0 10.28571,4.59772 10.28571,10.28572 0,5.688 -4.608,10.28571 -10.28571,10.28571 z"
       style="fill:#ffffff;stroke-width:10.2857151"
       inkscape:connector-curvature="0" />
    <path
       id="path14"
       d="m 340,704 c -2.53856,0 -5.07712,-0.97179 -7.01079,-2.90546 -3.87725,-3.87725 -3.87725,-10.14433 0,-14.02158 l 49.58126,-49.58127 c 3.87726,-3.87726 10.14433,-3.87726 14.02159,0 3.87725,3.87725 3.87725,10.14433 0,14.02158 l -49.58127,49.58127 C 345.07712,703.02821 342.53856,704 340,704 Z"
       style="fill:#ffffff;stroke-width:9.91625404"
       inkscape:connector-curvature="0" />
    <path
       id="path16"
       d="m 290.41873,753.58127 c -2.53855,0 -5.07712,-0.97179 -7.01079,-2.90547 -3.87725,-3.87725 -3.87725,-10.14432 0,-14.02158 l 49.58127,-49.58126 c 3.87725,-3.87726 10.14433,-3.87726 14.02158,0 3.87725,3.87725 3.87725,10.14433 0,14.02158 l -49.58126,49.58126 c -1.93368,1.93368 -4.47224,2.90547 -7.0108,2.90547 z"
       style="fill:#ffffff;stroke-width:9.91625404"
       inkscape:connector-curvature="0" />
    <path
       id="path18"
       d="m 389.58127,753.58127 c -2.53856,0 -5.07712,-0.97179 -7.0108,-2.90547 l -49.58126,-49.58126 c -3.87725,-3.87725 -3.87725,-10.14433 0,-14.02158 3.87725,-3.87726 10.14433,-3.87726 14.02158,0 l 49.58127,49.58126 c 3.87725,3.87726 3.87725,10.14433 0,14.02158 -1.93367,1.93368 -4.47224,2.90547 -7.01079,2.90547 z"
       style="fill:#ffffff;stroke-width:9.91625404"
       inkscape:connector-curvature="0" />
    <path
       id="path20"
       d="m 340,704 c -2.53856,0 -5.07712,-0.97179 -7.01079,-2.90546 l -49.58127,-49.58127 c -3.87725,-3.87725 -3.87725,-10.14433 0,-14.02158 3.87726,-3.87726 10.14433,-3.87726 14.02159,0 l 49.58126,49.58127 c 3.87725,3.87725 3.87725,10.14433 0,14.02158 C 345.07712,703.02821 342.53856,704 340,704 Z"
       style="fill:#ffffff;stroke-width:9.91625404"
       inkscape:connector-curvature="0" />
    <path
       id="path22"
       d="M 400,344 H 276.57142 c -5.67771,0 -10.28571,-4.59771 -10.28571,-10.28571 0,-5.688 4.608,-10.28571 10.28571,-10.28571 H 400 c 5.67771,0 10.28571,4.59771 10.28571,10.28571 0,5.688 -4.608,10.28571 -10.28571,10.28571 z"
       style="fill:#f1f1f1;fill-opacity:1;stroke-width:10.2857151"
       inkscape:connector-curvature="0" />
    <path
       id="path24"
       d="M 338.28571,405.71429 C 332.608,405.71429 328,401.11658 328,395.42858 V 272 c 0,-5.688 4.608,-10.28571 10.28571,-10.28571 5.67771,0 10.28571,4.59771 10.28571,10.28571 v 123.42858 c 0,5.688 -4.608,10.28571 -10.28571,10.28571 z"
       style="fill:#ffffff;fill-opacity:1;stroke-width:10.2857151"
       inkscape:connector-curvature="0" />
    <path
       id="path26"
       d="M 740,344 H 616.57142 c -5.67771,0 -10.28571,-4.59771 -10.28571,-10.28571 0,-5.688 4.608,-10.28571 10.28571,-10.28571 H 740 c 5.67771,0 10.28571,4.59771 10.28571,10.28571 0,5.688 -4.608,10.28571 -10.28571,10.28571 z"
       style="fill:#ffffff;stroke-width:10.2857151"
       inkscape:connector-curvature="0" />
  </g>
  <g
     id="g4655"
     style="fill:url(#linearGradient4661);fill-opacity:1"
     transform="matrix(0.99798494,0,0,0.99798494,0.73130767,2.180401)" />
</svg>
