<?xml version="1.0" encoding="UTF-8" standalone="no"?>
<svg
   xmlns:dc="http://purl.org/dc/elements/1.1/"
   xmlns:cc="http://creativecommons.org/ns#"
   xmlns:rdf="http://www.w3.org/1999/02/22-rdf-syntax-ns#"
   xmlns:svg="http://www.w3.org/2000/svg"
   xmlns="http://www.w3.org/2000/svg"
   xmlns:sodipodi="http://sodipodi.sourceforge.net/DTD/sodipodi-0.dtd"
   xmlns:inkscape="http://www.inkscape.org/namespaces/inkscape"
   width="256"
   height="256"
   viewBox="0 0 256 256"
   fill="none"
   version="1.1"
   id="svg58"
   sodipodi:docname="code-oss.svg"
   inkscape:version="0.92.4 5da689c313, 2019-01-14">
  <metadata
     id="metadata62">
    <rdf:RDF>
      <cc:Work
         rdf:about="">
        <dc:format>image/svg+xml</dc:format>
        <dc:type
           rdf:resource="http://purl.org/dc/dcmitype/StillImage" />
      </cc:Work>
    </rdf:RDF>
  </metadata>
  <sodipodi:namedview
     pagecolor="#ffffff"
     bordercolor="#666666"
     borderopacity="1"
     objecttolerance="10"
     gridtolerance="10"
     guidetolerance="10"
     inkscape:pageopacity="0"
     inkscape:pageshadow="2"
     inkscape:window-width="1124"
     inkscape:window-height="752"
     id="namedview60"
     showgrid="false"
     inkscape:zoom="2.6074563"
     inkscape:cx="131.21648"
     inkscape:cy="188.31864"
     inkscape:window-x="257"
     inkscape:window-y="120"
     inkscape:window-maximized="0"
     inkscape:current-layer="svg58" />
  <mask
     id="mask0"
     mask-type="alpha"
     maskUnits="userSpaceOnUse"
     x="0"
     y="0"
     width="256"
     height="256">
    <path
       fill-rule="evenodd"
       clip-rule="evenodd"
       d="M181.534 254.252C185.566 255.823 190.164 255.722 194.234 253.764L246.94 228.403C252.478 225.738 256 220.132 256 213.983V42.0181C256 35.8689 252.478 30.2638 246.94 27.5988L194.234 2.23681C188.893 -0.333132 182.642 0.296344 177.955 3.70418C177.285 4.191 176.647 4.73454 176.049 5.33354L75.149 97.3862L31.1992 64.0247C27.1079 60.9191 21.3853 61.1735 17.5855 64.63L3.48936 77.4525C-1.15853 81.6805 -1.16386 88.9926 3.47785 93.2274L41.5926 128L3.47785 162.773C-1.16386 167.008 -1.15853 174.32 3.48936 178.548L17.5855 191.37C21.3853 194.827 27.1079 195.081 31.1992 191.976L75.149 158.614L176.049 250.667C177.645 252.264 179.519 253.467 181.534 254.252ZM192.039 69.8853L115.479 128L192.039 186.115V69.8853Z"
       fill="white"
       id="path2" />
  </mask>
  <path
     style="fill:#0065a9"
     inkscape:connector-curvature="0"
     id="path5"
     d="M 246.94,27.6383 194.193,2.24138 C 188.088,-0.698302 180.791,0.541721 175.999,5.33332 L 3.32371,162.773 c -4.64453,4.235 -4.63919,11.547 0.01152,15.775 L 17.4399,191.37 c 3.8022,3.457 9.5283,3.711 13.622,0.606 L 239.003,34.2269 c 6.976,-5.2922 16.996,-0.3166 16.996,8.4398 v -0.6124 c 0,-6.1465 -3.521,-11.7496 -9.059,-14.416 z" />
  <g
     style="filter:url(#filter0_d)"
     id="g9">
    <path
       style="fill:#007acc"
       inkscape:connector-curvature="0"
       id="path7"
       d="m 246.94,228.362 -52.747,25.397 c -6.105,2.939 -13.402,1.699 -18.194,-3.092 L 3.32371,93.2272 C -1.32082,88.9925 -1.31548,81.6802 3.33523,77.4523 L 17.4399,64.6298 c 3.8022,-3.4565 9.5283,-3.711 13.622,-0.6053 L 239.003,221.773 c 6.976,5.292 16.996,0.317 16.996,-8.44 v 0.613 c 0,6.146 -3.521,11.749 -9.059,14.416 z" />
  </g>
  <g
     style="filter:url(#filter1_d)"
     id="g13">
    <path
       style="fill:#1f9cf0"
       inkscape:connector-curvature="0"
       id="path11"
       d="m 194.196,253.763 c -6.107,2.937 -13.404,1.696 -18.196,-3.096 5.904,5.904 16,1.722 16,-6.628 V 11.9606 c 0,-8.35003 -10.096,-12.531775 -16,-6.62739 4.792,-4.792044 12.089,-6.033817 18.196,-3.09673 l 52.738,25.36202 c 5.542,2.665 9.066,8.2701 9.066,14.4193 V 213.983 c 0,6.149 -3.524,11.754 -9.066,14.419 z" />
  </g>
  <defs
     id="defs56">
    <filter
       id="filter0_d"
       x="-21.4896"
       y="40.5225"
       width="298.822"
       height="236.149"
       filterUnits="userSpaceOnUse"
       color-interpolation-filters="sRGB">
      <feFlood
         flood-opacity="0"
         result="BackgroundImageFix"
         id="feFlood21" />
      <feColorMatrix
         in="SourceAlpha"
         type="matrix"
         values="0 0 0 0 0 0 0 0 0 0 0 0 0 0 0 0 0 0 127 0"
         id="feColorMatrix23" />
      <feOffset
         id="feOffset25" />
      <feGaussianBlur
         stdDeviation="10.6667"
         id="feGaussianBlur27" />
      <feColorMatrix
         type="matrix"
         values="0 0 0 0 0 0 0 0 0 0 0 0 0 0 0 0 0 0 0.25 0"
         id="feColorMatrix29" />
      <feBlend
         mode="overlay"
         in2="BackgroundImageFix"
         result="effect1_dropShadow"
         id="feBlend31" />
      <feBlend
         mode="normal"
         in="SourceGraphic"
         in2="effect1_dropShadow"
         result="shape"
         id="feBlend33" />
    </filter>
    <filter
       id="filter1_d"
       x="154.667"
       y="-20.6735"
       width="122.667"
       height="297.347"
       filterUnits="userSpaceOnUse"
       color-interpolation-filters="sRGB">
      <feFlood
         flood-opacity="0"
         result="BackgroundImageFix"
         id="feFlood36" />
      <feColorMatrix
         in="SourceAlpha"
         type="matrix"
         values="0 0 0 0 0 0 0 0 0 0 0 0 0 0 0 0 0 0 127 0"
         id="feColorMatrix38" />
      <feOffset
         id="feOffset40" />
      <feGaussianBlur
         stdDeviation="10.6667"
         id="feGaussianBlur42" />
      <feColorMatrix
         type="matrix"
         values="0 0 0 0 0 0 0 0 0 0 0 0 0 0 0 0 0 0 0.25 0"
         id="feColorMatrix44" />
      <feBlend
         mode="overlay"
         in2="BackgroundImageFix"
         result="effect1_dropShadow"
         id="feBlend46" />
      <feBlend
         mode="normal"
         in="SourceGraphic"
         in2="effect1_dropShadow"
         result="shape"
         id="feBlend48" />
    </filter>
    <linearGradient
       id="paint0_linear"
       x1="127.844"
       y1="0.659988"
       x2="127.844"
       y2="255.34"
       gradientUnits="userSpaceOnUse">
      <stop
         stop-color="white"
         id="stop51" />
      <stop
         offset="1"
         stop-color="white"
         stop-opacity="0"
         id="stop53" />
    </linearGradient>
  </defs>
</svg>
