<?xml version="1.0" encoding="UTF-8" standalone="no"?>
<!-- Created with Inkscape (http://www.inkscape.org/) -->

<svg
   xmlns:dc="http://purl.org/dc/elements/1.1/"
   xmlns:cc="http://creativecommons.org/ns#"
   xmlns:rdf="http://www.w3.org/1999/02/22-rdf-syntax-ns#"
   xmlns:svg="http://www.w3.org/2000/svg"
   xmlns="http://www.w3.org/2000/svg"
   xmlns:xlink="http://www.w3.org/1999/xlink"
   xmlns:sodipodi="http://sodipodi.sourceforge.net/DTD/sodipodi-0.dtd"
   xmlns:inkscape="http://www.inkscape.org/namespaces/inkscape"
   width="1024"
   height="1024"
   id="svg2"
   version="1.1"
   inkscape:version="0.92.4 (5da689c313, 2019-01-14)"
   sodipodi:docname="deja-dup.svg">
  <defs
     id="defs4">
    <linearGradient
       id="linearGradient876">
      <stop
         style="stop-color:#19987a;stop-opacity:1"
         offset="0"
         id="stop872" />
      <stop
         style="stop-color:#003739;stop-opacity:1"
         offset="1"
         id="stop874" />
    </linearGradient>
    <linearGradient
       id="linearGradient4657">
      <stop
         id="stop4653"
         offset="0"
         style="stop-color:#ffffff;stop-opacity:1" />
      <stop
         id="stop4655"
         offset="1"
         style="stop-color:#ffffff;stop-opacity:0;" />
    </linearGradient>
    <linearGradient
       id="linearGradient915">
      <stop
         id="stop911"
         offset="0"
         style="stop-color:#ffffff;stop-opacity:1" />
      <stop
         id="stop913"
         offset="1"
         style="stop-color:#d7d7d7;stop-opacity:1" />
    </linearGradient>
    <inkscape:perspective
       sodipodi:type="inkscape:persp3d"
       inkscape:vp_x="13.534465 : 111.04854 : 1"
       inkscape:vp_y="0 : 1000 : 0"
       inkscape:vp_z="213.53447 : 111.04854 : 1"
       inkscape:persp3d-origin="113.53447 : 77.71521 : 1"
       id="perspective3135" />
    <linearGradient
       id="linearGradient4829">
      <stop
         style="stop-color:#f4fbfc;stop-opacity:1;"
         offset="0"
         id="stop4831" />
      <stop
         style="stop-color:#d6d6d6;stop-opacity:1;"
         offset="1"
         id="stop4833" />
    </linearGradient>
    <clipPath
       clipPathUnits="userSpaceOnUse"
       id="clipPath4282">
      <rect
         style="color:#000000;display:inline;overflow:visible;visibility:visible;fill:#4d4d4d;fill-opacity:1;fill-rule:nonzero;stroke:none;stroke-width:9.13434315;marker:none;enable-background:accumulate"
         id="rect4284"
         width="246.875"
         height="234.375"
         x="462.5"
         y="1646.1122"
         ry="17"
         rx="17" />
    </clipPath>
    <linearGradient
       inkscape:collect="always"
       xlink:href="#linearGradient876"
       id="linearGradient4835"
       x1="102.29776"
       y1="-0.42686829"
       x2="102.29776"
       y2="199.16539"
       gradientUnits="userSpaceOnUse"
       gradientTransform="matrix(5.1,0,0,5.1,2,30.362187)" />
    <linearGradient
       inkscape:collect="always"
       xlink:href="#linearGradient5423"
       id="linearGradient5429"
       x1="408.66196"
       y1="44.604382"
       x2="408.66196"
       y2="562.04968"
       gradientUnits="userSpaceOnUse" />
    <linearGradient
       id="linearGradient5423">
      <stop
         style="stop-color:#00847b;stop-opacity:1;"
         offset="0"
         id="stop5425" />
      <stop
         style="stop-color:#002126;stop-opacity:1;"
         offset="1"
         id="stop5427" />
    </linearGradient>
    <linearGradient
       inkscape:collect="always"
       xlink:href="#linearGradient5423-14"
       id="linearGradient5473"
       x1="99.036476"
       y1="-0.50471628"
       x2="101.80659"
       y2="242.72052"
       gradientUnits="userSpaceOnUse"
       gradientTransform="matrix(4.7049999,0,0,4.7049999,41.000018,70.36213)" />
    <linearGradient
       inkscape:collect="always"
       xlink:href="#linearGradient3986"
       id="linearGradient3992"
       x1="78.5625"
       y1="993.6615"
       x2="120.28125"
       y2="993.6615"
       gradientUnits="userSpaceOnUse" />
    <linearGradient
       id="linearGradient3986">
      <stop
         style="stop-color:#ffffff;stop-opacity:1;"
         offset="0"
         id="stop3988" />
      <stop
         style="stop-color:#ffffff;stop-opacity:0;"
         offset="1"
         id="stop3990" />
    </linearGradient>
    <linearGradient
       inkscape:collect="always"
       xlink:href="#linearGradient5423-1"
       id="linearGradient5473-2"
       x1="99.036476"
       y1="-0.50471628"
       x2="99.036476"
       y2="199.83986"
       gradientUnits="userSpaceOnUse" />
    <linearGradient
       id="linearGradient5423-1">
      <stop
         style="stop-color:#51b9db;stop-opacity:1;"
         offset="0"
         id="stop5425-2" />
      <stop
         style="stop-color:#2fabd4;stop-opacity:1;"
         offset="1"
         id="stop5427-3" />
    </linearGradient>
    <linearGradient
       y2="199.83986"
       x2="99.036476"
       y1="-0.50471628"
       x1="99.036476"
       gradientUnits="userSpaceOnUse"
       id="linearGradient4119"
       xlink:href="#linearGradient5423-1"
       inkscape:collect="always" />
    <linearGradient
       inkscape:collect="always"
       xlink:href="#linearGradient4829"
       id="linearGradient4159"
       x1="100"
       y1="852.36218"
       x2="100"
       y2="1052.3622"
       gradientUnits="userSpaceOnUse" />
    <linearGradient
       inkscape:collect="always"
       xlink:href="#linearGradient5423-14"
       id="linearGradient5473-6"
       x1="99.036476"
       y1="-0.50471628"
       x2="99.036476"
       y2="199.83986"
       gradientUnits="userSpaceOnUse" />
    <linearGradient
       id="linearGradient5423-14">
      <stop
         style="stop-color:#00847b;stop-opacity:1;"
         offset="0"
         id="stop5425-6" />
      <stop
         style="stop-color:#002126;stop-opacity:1;"
         offset="1"
         id="stop5427-2" />
    </linearGradient>
    <radialGradient
       inkscape:collect="always"
       xlink:href="#linearGradient4657"
       id="radialGradient6921"
       cx="100"
       cy="82.38073"
       fx="100"
       fy="82.38073"
       r="100"
       gradientUnits="userSpaceOnUse"
       gradientTransform="matrix(4.7049999,0,0,3.5336129,40.999987,146.78094)" />
    <linearGradient
       id="grd8"
       gradientUnits="userSpaceOnUse"
       x1="1703.453"
       y1="1315.092"
       x2="1703.453"
       y2="1592.585">
      <stop
         id="stop41"
         stop-color="#cdcdcd"
         offset="0" />
      <stop
         id="stop39"
         stop-color="#ffffff"
         offset="1" />
    </linearGradient>
    <radialGradient
       id="grd7"
       gradientUnits="userSpaceOnUse"
       cx="1708"
       cy="1365.14"
       r="344.901">
      <stop
         offset="0"
         stop-color="#0f7773"
         id="stop34" />
      <stop
         offset="1"
         stop-color="#021e23"
         id="stop36" />
    </radialGradient>
    <linearGradient
       inkscape:collect="always"
       xlink:href="#linearGradient915"
       id="linearGradient4609"
       gradientUnits="userSpaceOnUse"
       x1="536.5"
       y1="28.113735"
       x2="536.5"
       y2="1008.2078" />
    <linearGradient
       inkscape:collect="always"
       xlink:href="#linearGradient915"
       id="linearGradient4611"
       gradientUnits="userSpaceOnUse"
       x1="536.5"
       y1="28.113735"
       x2="536.5"
       y2="1008.2078" />
    <linearGradient
       inkscape:collect="always"
       xlink:href="#linearGradient915"
       id="linearGradient4613"
       gradientUnits="userSpaceOnUse"
       x1="536.5"
       y1="28.113735"
       x2="536.5"
       y2="1008.2078" />
    <filter
       inkscape:collect="always"
       style="color-interpolation-filters:sRGB"
       id="filter4686"
       x="-0.035944962"
       width="1.0718899"
       y="-0.036055207"
       height="1.0721104">
      <feGaussianBlur
         inkscape:collect="always"
         stdDeviation="14.678935"
         id="feGaussianBlur4688" />
    </filter>
  </defs>
  <sodipodi:namedview
     id="base"
     pagecolor="#ffffff"
     bordercolor="#666666"
     borderopacity="1.0"
     inkscape:pageopacity="0.0"
     inkscape:pageshadow="2"
     inkscape:zoom="0.7109375"
     inkscape:cx="257.40659"
     inkscape:cy="502.15385"
     inkscape:document-units="px"
     inkscape:current-layer="g6938"
     showgrid="true"
     inkscape:window-width="1920"
     inkscape:window-height="944"
     inkscape:window-x="0"
     inkscape:window-y="25"
     inkscape:window-maximized="1"
     inkscape:snap-from-guide="true"
     showguides="true"
     inkscape:guide-bbox="true"
     inkscape:pagecheckerboard="true">
    <sodipodi:guide
       position="0,200"
       orientation="200,0"
       id="guide3127"
       inkscape:locked="false" />
    <sodipodi:guide
       position="0,-2.6171874e-06"
       orientation="0,100"
       id="guide3129"
       inkscape:locked="false" />
    <sodipodi:guide
       position="100,200"
       orientation="0,-100"
       id="guide3133"
       inkscape:locked="false" />
    <inkscape:grid
       type="xygrid"
       id="grid925" />
  </sodipodi:namedview>
  <metadata
     id="metadata7">
    <rdf:RDF>
      <cc:Work
         rdf:about="">
        <dc:format>image/svg+xml</dc:format>
        <dc:type
           rdf:resource="http://purl.org/dc/dcmitype/StillImage" />
        <dc:title />
      </cc:Work>
    </rdf:RDF>
  </metadata>
  <g
     inkscape:label="Layer 1"
     inkscape:groupmode="layer"
     id="layer1"
     transform="translate(0,-28.36218)">
    <circle
       style="color:#000000;display:inline;overflow:visible;visibility:visible;fill:url(#linearGradient4835);fill-opacity:1;fill-rule:nonzero;stroke:none;stroke-width:46.58515167;marker:none;enable-background:accumulate"
       id="path4188"
       cx="512"
       cy="540.36218"
       r="510" />
    <circle
       style="color:#000000;display:inline;overflow:visible;visibility:visible;fill:url(#linearGradient5473);fill-opacity:1.0;fill-rule:nonzero;stroke:none;stroke-width:42.97708511;marker:none;enable-background:accumulate"
       id="path4188-6"
       cx="511.5"
       cy="540.86218"
       r="470.5" />
    <circle
       style="color:#000000;display:inline;overflow:visible;visibility:visible;opacity:0.2;fill:url(#radialGradient6921);fill-opacity:1;fill-rule:nonzero;stroke:none;stroke-width:42.97700119;stroke-miterlimit:4;stroke-dasharray:none;marker:none;enable-background:accumulate"
       id="path4188-6-4"
       cx="511.5"
       cy="540.86218"
       r="470.5" />
    <g
       id="g6938"
       transform="matrix(9.7888005,0,0,9.7888005,-624.88888,-8897.4041)">
      <g
         id="g68"
         transform="matrix(0.05348294,0,0,0.05348294,90.308611,940.68209)"
         style="opacity:0.2;fill:#000000;fill-opacity:1;filter:url(#filter4686)">
        <path
           id="path64"
           d="m 531.2,12.6 c -77.5,-5.4 -156,7 -226.4,41 -184.1,83.7 -314.4,285.3 -292.4,489.7 1.4,23.7 6.9,46.8 11.3,70 C 102.4,557.9 215.8,474 215.8,474 215.8,474 134.8,446.2 79,421.5 118.2,219.7 318.6,55.2 527.3,73.4 624.5,81 720.9,117.8 790.5,187.6 922.5,313.3 972.7,528.2 883,691.8 813.9,845.2 642.5,934.5 477.8,927.2 395.6,924.5 313.5,898.2 247.4,848.6 l -54.7,31.7 C 350.5,1019.1 598.4,1019.9 771,908.1 881.3,839.9 954,721.6 981.5,596.5 1031.2,348.6 859.3,73.3 608,23.9 582.8,18.2 557.1,14.4 531.2,12.6 Z"
           inkscape:connector-curvature="0"
           style="fill:#000000;fill-opacity:1" />
        <path
           id="path66"
           d="m 500.1,199.5 c -22.5,-0.8 -39.8,21.4 -36.8,43 0.1,97.3 -0.1,194.7 0.1,292 0.6,20.2 19.8,29.8 34.4,39.6 45.7,30.5 91.2,61.5 137.1,91.7 23,13.7 55.2,-5.8 53.9,-32.5 0.9,-18.4 -14.3,-30.1 -28.5,-38.6 -41.2,-27.7 -82.4,-55.3 -123.6,-83 -0.1,-93.1 0.3,-186.3 -0.2,-279.4 -1.5,-18.1 -18.1,-33.2 -36.4,-32.8 z"
           inkscape:connector-curvature="0"
           style="fill:#000000;fill-opacity:1" />
      </g>
      <g
         style="fill:url(#linearGradient4613);fill-opacity:1"
         transform="matrix(0.05348294,0,0,0.05348294,90.308611,937.54689)"
         id="g4607">
        <path
           style="fill:url(#linearGradient4609);fill-opacity:1"
           inkscape:connector-curvature="0"
           d="m 531.2,12.6 c -77.5,-5.4 -156,7 -226.4,41 -184.1,83.7 -314.4,285.3 -292.4,489.7 1.4,23.7 6.9,46.8 11.3,70 C 102.4,557.9 215.8,474 215.8,474 215.8,474 134.8,446.2 79,421.5 118.2,219.7 318.6,55.2 527.3,73.4 624.5,81 720.9,117.8 790.5,187.6 922.5,313.3 972.7,528.2 883,691.8 813.9,845.2 642.5,934.5 477.8,927.2 395.6,924.5 313.5,898.2 247.4,848.6 l -54.7,31.7 C 350.5,1019.1 598.4,1019.9 771,908.1 881.3,839.9 954,721.6 981.5,596.5 1031.2,348.6 859.3,73.3 608,23.9 582.8,18.2 557.1,14.4 531.2,12.6 Z"
           id="path4603" />
        <path
           style="fill:url(#linearGradient4611);fill-opacity:1"
           inkscape:connector-curvature="0"
           d="m 500.1,199.5 c -22.5,-0.8 -39.8,21.4 -36.8,43 0.1,97.3 -0.1,194.7 0.1,292 0.6,20.2 19.8,29.8 34.4,39.6 45.7,30.5 91.2,61.5 137.1,91.7 23,13.7 55.2,-5.8 53.9,-32.5 0.9,-18.4 -14.3,-30.1 -28.5,-38.6 -41.2,-27.7 -82.4,-55.3 -123.6,-83 -0.1,-93.1 0.3,-186.3 -0.2,-279.4 -1.5,-18.1 -18.1,-33.2 -36.4,-32.8 z"
           id="path4605" />
      </g>
    </g>
  </g>
</svg>
