<?xml version="1.0" encoding="UTF-8" standalone="no"?>
<!-- Generator: flash2svg, http://dissentgraphics.com/tools/flash2svg -->

<svg
   xmlns:dc="http://purl.org/dc/elements/1.1/"
   xmlns:cc="http://creativecommons.org/ns#"
   xmlns:rdf="http://www.w3.org/1999/02/22-rdf-syntax-ns#"
   xmlns:svg="http://www.w3.org/2000/svg"
   xmlns="http://www.w3.org/2000/svg"
   xmlns:xlink="http://www.w3.org/1999/xlink"
   xmlns:sodipodi="http://sodipodi.sourceforge.net/DTD/sodipodi-0.dtd"
   xmlns:inkscape="http://www.inkscape.org/namespaces/inkscape"
   id="Apps-Visual-Studio-Community"
   image-rendering="optimizeSpeed"
   version="1.1"
   style="background-color:#ffffff"
   x="0px"
   y="0px"
   width="1024px"
   height="1024px"
   viewBox="0 0 1024 1024"
   enable-background="new 0 0 1024 1024"
   sodipodi:docname="file-manager.svg"
   inkscape:export-filename="/home/unc/OSX/filemanager-app.png"
   inkscape:export-xdpi="4.5"
   inkscape:export-ydpi="4.5"
   inkscape:version="0.92.4 (5da689c313, 2019-01-14)">
  <metadata
     id="metadata24">
    <rdf:RDF>
      <cc:Work
         rdf:about="">
        <dc:format>image/svg+xml</dc:format>
        <dc:type
           rdf:resource="http://purl.org/dc/dcmitype/StillImage" />
        <dc:title />
      </cc:Work>
    </rdf:RDF>
  </metadata>
  <sodipodi:namedview
     pagecolor="#ffffff"
     bordercolor="#666666"
     borderopacity="1"
     objecttolerance="10"
     gridtolerance="10"
     guidetolerance="10"
     inkscape:pageopacity="0"
     inkscape:pageshadow="2"
     inkscape:window-width="1920"
     inkscape:window-height="944"
     id="namedview22"
     showgrid="true"
     inkscape:pagecheckerboard="true"
     inkscape:zoom="0.7109375"
     inkscape:cx="512"
     inkscape:cy="507.78022"
     inkscape:window-x="0"
     inkscape:window-y="25"
     inkscape:window-maximized="1"
     inkscape:current-layer="Apps-Visual-Studio-Community">
    <inkscape:grid
       type="xygrid"
       id="grid848" />
  </sodipodi:namedview>
  <defs
     transform="matrix(1 0 0 1 0 0) "
     id="defs2">
    <linearGradient
       inkscape:collect="always"
       id="linearGradient1045">
      <stop
         style="stop-color:#d9d5d5;stop-opacity:1;"
         offset="0"
         id="stop1041" />
      <stop
         style="stop-color:#d9d5d5;stop-opacity:0;"
         offset="1"
         id="stop1043" />
    </linearGradient>
    <linearGradient
       inkscape:collect="always"
       id="linearGradient857">
      <stop
         id="stop854"
         offset="0"
         style="stop-color:#00ccff;stop-opacity:1" />
      <stop
         id="stop849"
         offset="1"
         style="stop-color:#0066ff;stop-opacity:1" />
    </linearGradient>
    <linearGradient
       id="linearGradient855">
      <stop
         id="stop851"
         offset="0"
         style="stop-color:#00cbff;stop-opacity:1" />
      <stop
         id="stop853"
         offset="1"
         style="stop-color:#006eff;stop-opacity:1" />
    </linearGradient>
    <linearGradient
       inkscape:collect="always"
       id="linearGradient889">
      <stop
         style="stop-color:#000000;stop-opacity:1;"
         offset="0"
         id="stop885" />
      <stop
         style="stop-color:#464646;stop-opacity:1"
         offset="1"
         id="stop887" />
    </linearGradient>
    <linearGradient
       inkscape:collect="always"
       id="linearGradient862">
      <stop
         style="stop-color:#ffffff;stop-opacity:1"
         offset="0"
         id="stop858" />
      <stop
         style="stop-color:#d7d7d7;stop-opacity:1"
         offset="1"
         id="stop860" />
    </linearGradient>
    <linearGradient
       inkscape:collect="always"
       xlink:href="#linearGradient3912"
       id="linearGradient3918"
       x1="440"
       y1="509.37595"
       x2="965.06538"
       y2="509.37595"
       gradientUnits="userSpaceOnUse"
       gradientTransform="matrix(5.2367436,0,0,4.9626223,-16.253633,21.382464)" />
    <linearGradient
       id="linearGradient3912">
      <stop
         style="stop-color:#ffffff;stop-opacity:1"
         offset="0"
         id="stop3914" />
      <stop
         style="stop-color:#d9d5d5;stop-opacity:1"
         offset="1"
         id="stop3916" />
    </linearGradient>
    <linearGradient
       gradientTransform="matrix(4.6950762,0,0,4.6871456,40.999895,45.571012)"
       inkscape:collect="always"
       xlink:href="#linearGradient855"
       id="linearGradient6197"
       gradientUnits="userSpaceOnUse"
       x1="-0.21296664"
       y1="85.004608"
       x2="170.1783"
       y2="85.004608" />
    <linearGradient
       id="linearGradient5423">
      <stop
         style="stop-color:#15c4fc;stop-opacity:1;"
         offset="0"
         id="stop5425" />
      <stop
         style="stop-color:#1863ee;stop-opacity:1"
         offset="1"
         id="stop5427" />
    </linearGradient>
    <linearGradient
       inkscape:collect="always"
       xlink:href="#linearGradient3912"
       id="linearGradient856"
       x1="540.1098"
       y1="2.0078433"
       x2="540.1098"
       y2="1041.9823"
       gradientUnits="userSpaceOnUse"
       gradientTransform="matrix(0.99609375,0,0,0.99609375,2,2)" />
    <linearGradient
       inkscape:collect="always"
       xlink:href="#linearGradient889"
       id="linearGradient891"
       x1="272.14883"
       y1="364.09537"
       x2="328.60097"
       y2="364.09537"
       gradientUnits="userSpaceOnUse" />
    <linearGradient
       inkscape:collect="always"
       xlink:href="#linearGradient889"
       id="linearGradient899"
       x1="734.59076"
       y1="364.09537"
       x2="791.04291"
       y2="364.09537"
       gradientUnits="userSpaceOnUse" />
    <linearGradient
       inkscape:collect="always"
       xlink:href="#linearGradient889"
       id="linearGradient915"
       x1="240.0564"
       y1="602.34344"
       x2="863.34766"
       y2="864.16589"
       gradientUnits="userSpaceOnUse" />
    <linearGradient
       inkscape:collect="always"
       xlink:href="#linearGradient857"
       id="linearGradient945"
       gradientUnits="userSpaceOnUse"
       x1="40.049999"
       y1="512.04999"
       x2="984.04999"
       y2="512.04999"
       gradientTransform="matrix(0.99471953,0,0,0.99303933,1.1614828,5.7499951)" />
    <linearGradient
       inkscape:collect="always"
       xlink:href="#linearGradient862"
       id="linearGradient979"
       gradientUnits="userSpaceOnUse"
       gradientTransform="matrix(0.99471953,0,0,0.99303933,1.1614828,5.7499951)"
       x1="762.86682"
       y1="78.798492"
       x2="736.58942"
       y2="1043.2198" />
    <linearGradient
       inkscape:collect="always"
       xlink:href="#linearGradient857"
       id="linearGradient987"
       gradientUnits="userSpaceOnUse"
       gradientTransform="matrix(0.99471953,0,0,0.99303933,1.1614828,5.7499951)"
       x1="-61.48616"
       y1="501.74246"
       x2="803.07916"
       y2="501.74246" />
    <linearGradient
       inkscape:collect="always"
       xlink:href="#linearGradient862"
       id="linearGradient997"
       gradientUnits="userSpaceOnUse"
       gradientTransform="matrix(1.0442295,0,0,1.0424657,-34.354525,-18.30462)"
       x1="762.86682"
       y1="78.798492"
       x2="736.58942"
       y2="1043.2198" />
    <linearGradient
       inkscape:collect="always"
       xlink:href="#linearGradient857"
       id="linearGradient1001"
       gradientUnits="userSpaceOnUse"
       gradientTransform="matrix(1.1258652,0,0,1.1239635,-56.695811,-63.35865)"
       x1="352.34753"
       y1="59.929569"
       x2="352.34753"
       y2="967.43237" />
    <linearGradient
       inkscape:collect="always"
       xlink:href="#linearGradient1045"
       id="linearGradient1047"
       x1="1.7999992"
       y1="512.95093"
       x2="1020.2981"
       y2="512.95093"
       gradientUnits="userSpaceOnUse" />
    <filter
       inkscape:collect="always"
       style="color-interpolation-filters:sRGB"
       id="filter1103"
       x="-0.10122571"
       width="1.2024514"
       y="-0.045101181"
       height="1.0902024">
      <feGaussianBlur
         inkscape:collect="always"
         stdDeviation="18.259921"
         id="feGaussianBlur1105" />
    </filter>
    <filter
       inkscape:collect="always"
       style="color-interpolation-filters:sRGB"
       id="filter888"
       x="-0.033609261"
       width="1.0672185"
       y="-0.03876196"
       height="1.0775239">
      <feGaussianBlur
         inkscape:collect="always"
         stdDeviation="8.2378095"
         id="feGaussianBlur890" />
    </filter>
    <linearGradient
       inkscape:collect="always"
       xlink:href="#linearGradient889"
       id="linearGradient892"
       gradientUnits="userSpaceOnUse"
       x1="272.14883"
       y1="364.09537"
       x2="328.60097"
       y2="364.09537" />
    <linearGradient
       inkscape:collect="always"
       xlink:href="#linearGradient889"
       id="linearGradient894"
       gradientUnits="userSpaceOnUse"
       x1="734.59076"
       y1="364.09537"
       x2="791.04291"
       y2="364.09537" />
    <linearGradient
       inkscape:collect="always"
       xlink:href="#linearGradient889"
       id="linearGradient896"
       gradientUnits="userSpaceOnUse"
       x1="240.0564"
       y1="602.34344"
       x2="863.34766"
       y2="864.16589" />
  </defs>
  <path
     id="path"
     style="fill:url(#linearGradient856);fill-opacity:1;stroke-width:1.08050847"
     d="m 512,2 c -9.4434,0 -18.79102,0.2317189 -28.04883,0.6796875 -9.61371,10.3419875 -14.87829,19.0704965 -0.91992,21.1328125 0.77753,-0.102517 1.77643,-0.268306 3.25977,-0.546875 1.84517,-1.064832 12.21469,-6.435095 2.07031,-0.585937 0.6603,-0.234163 1.14649,-0.423723 0.72851,-0.263672 -0.20182,0.07728 -0.59254,0.235076 -0.89843,0.359375 -0.7996,0.42077 -1.58594,0.868826 -2.36524,1.330078 1.36006,0.102396 2.8495,0.160873 4.4961,0.164062 0.48765,-0.0084 0.97568,-0.02015 1.46289,-0.02539 0.97724,0.0021 1.24066,-0.0049 0.79296,0.0059 -0.7889,0.01891 -1.52571,0.02095 -2.25585,0.01953 -1.61802,0.02793 -3.2369,0.05535 -4.85547,0.05469 -1.91042,1.143588 -3.78645,2.353382 -5.71289,3.455078 -0.0353,0.02017 -0.11495,0.06482 -0.15821,0.08984 -2.74795,2.44568 2.24763,-2.255616 -13.52734,8.447265 -1.5849,1.075307 3.42946,-1.70522 5.12305,-2.599609 1.21438,-0.641317 -2.17181,1.753064 -3.45508,2.242187 -5.38,4.097327 -7.41171,6.040185 -15.28711,8.654297 -5.88224,1.952516 -11.44324,1.812638 -17.36328,1.773438 -3.61669,0.04532 -7.23784,0.153245 -10.85156,0.02148 -0.29123,0.235992 -0.5237,0.417876 -0.82618,0.664063 -7.35286,2.285682 -4.35032,1.644441 -13.85742,2.876953 -0.38527,0.04995 3.02938,-0.954282 1.73633,-0.673828 -11.67774,2.532812 5.52278,0.08902 -16.04883,2.435547 -1.42924,-0.09988 -2.85906,-0.183696 -4.28711,-0.298829 -5.44018,1.940399 -5.24069,2.016073 -11.55078,3.466797 -0.86726,0.199386 -1.81029,0.779071 -2.63281,0.439453 -0.24866,-0.102671 0.17348,-0.324569 0.64453,-0.523437 -3.4425,1.315646 -6.65993,3.229537 -10.30273,4.02539 -2.93781,0.717318 -5.83563,1.629057 -8.81446,2.150391 -2.59938,0.454925 -5.24696,0.578291 -7.8789,0.769531 -1.73273,0.125902 -1.12357,-0.290634 -2.72657,-0.08984 -1.26773,0.158793 -2.50212,0.665613 -3.77929,0.630859 -0.5852,-0.01592 1.07674,-0.459808 1.61523,-0.689453 -0.27016,0.03998 -0.5447,0.183609 -0.81055,0.121094 -0.10145,-0.02386 0.23896,-0.325405 0.14649,-0.277344 -5.24131,2.723923 -10.37849,6.42248 -16.23242,7.667969 -3.50644,1.352102 -0.5611,0.132572 -6.27539,3.146484 -0.9272,0.489034 -1.90282,0.887322 -2.8125,1.408203 -2.10231,1.203772 -3.86062,3.200478 -6.2168,3.763672 -0.0911,0.02176 -0.15018,0.02072 -0.18555,0.0059 -0.36958,0.360262 -0.73735,0.723073 -1.11328,1.076172 -1.41469,1.138475 -2.81143,2.300308 -4.24414,3.416016 -0.18964,0.147674 -0.61501,0.484712 -0.80078,0.591797 -4.04414,4.579728 -3.78513,4.117871 -8.75391,8.77539 -5.43894,4.340601 -7.17416,5.968372 -13.61914,9.845701 -7.55334,4.54413 -15.84603,7.70853 -24.17969,10.58008 1.81819,3.92184 3.11855,8.68368 3.75,14.46289 1.33136,12.18491 -15.68358,19.31521 -20.27148,30.68164 -1.17415,2.90893 3.09437,-0.90353 6.92187,-4.16992 1.44797,-1.83568 2.89997,-3.66922 4.3711,-5.48633 1.60327,-1.98033 -1.37788,1.89426 -3.99219,5.16406 0.93716,-0.79638 1.78967,-1.48702 2.56055,-2.07812 4.24301,-5.02419 7.18298,-9.11359 0.97265,-0.73047 -0.27998,0.18864 -0.63699,0.47309 -0.97265,0.73047 -1.20922,1.43185 -2.5097,2.9316 -3.75196,4.25 -0.42804,0.45429 -0.91501,0.8469 -1.42187,1.21484 -0.47514,0.53405 -1.04007,1.15493 -1.34961,1.47461 0.31295,-0.39442 0.62335,-0.79052 0.93555,-1.18554 -0.18328,0.12614 -0.36723,0.24999 -0.55274,0.37304 -1.93496,1.83232 -3.83009,3.70818 -5.75195,5.55469 -0.0137,0.0127 -0.0173,0.0164 -0.0312,0.0293 -0.012,0.0115 -0.0251,0.0217 -0.0371,0.0332 -0.55382,0.53161 -1.10596,1.06498 -1.66797,1.58789 -0.0468,0.0436 -0.1279,0.0853 -0.1875,0.12891 -0.011,0.011 -0.0384,0.0344 -0.0488,0.0449 -3.34419,3.14172 -3.2554,3.1319 -6.91601,6.24805 -0.11842,0.1008 -0.3315,0.28764 -0.52539,0.45703 -2.24606,2.7646 -3.18978,3.2494 -8.16406,7.63672 -2.95762,1.72699 0.65437,-0.46496 -4.81055,3.65234 -0.1807,0.13614 -0.46127,0.0983 -0.63086,0.24805 -4.63762,4.09549 -7.31605,7.50146 -12.40039,10.42578 -0.20406,0.11737 0.14599,-0.44604 0.21875,-0.66992 -0.8176,0.76069 -4.68384,4.45014 -6.01953,5.41015 -2.97204,2.13614 -6.04828,4.12557 -9.07227,6.1875 0.42302,-0.31306 1.72433,-1.20424 1.26953,-0.93945 -11.57794,6.74083 0.75805,-0.0844 -5.93554,3.58984 -1.90937,0.6148 -7.34709,5.56265 -8.40625,6.36328 -5.54687,4.19291 -11.28233,7.83138 -17.2793,11.33008 -4.47674,2.47259 -8.25714,4.66601 -12.9707,6.78516 -13.99808,6.29334 -2.54014,1.02165 -10.53907,3.89453 -5.4436,1.95511 -2.64441,1.58393 -5.11328,1.84766 -2.02757,1.13734 -4.01588,2.34642 -6.08203,3.41211 -4.00531,2.06585 0.98148,-1.02767 -2.42187,0.86718 -1.77097,0.986 -3.13375,2.43633 -4.54493,3.86133 -2.28016,2.56865 -4.55968,5.13643 -6.83984,7.70508 -0.0651,-0.0672 -0.1286,-0.26678 -0.19531,-0.20117 -2.54849,2.5068 -4.51751,5.56768 -7.26367,7.89062 -2.01632,1.94137 -4.10724,3.80776 -6.265629,5.58985 -0.491837,0.40609 0.833199,-0.96643 1.249999,-1.44922 -0.21788,0.18058 -0.540721,0.23395 -0.714843,0.45703 -2.163682,2.77202 -4.567699,6.55836 -7.220703,8.71875 -3.941678,6.72509 -7.456956,13.68191 -11.361328,20.42969 -0.537831,1.22569 -1.668191,3.0434 -2.039063,4.06054 -0.689695,1.89153 -1.865913,3.58835 -2.300781,5.58399 -0.677783,1.50899 -3.019024,7.08932 -4.371094,9.12695 -0.141941,0.21391 -0.327297,-0.68787 -0.447266,-1.44531 -1.138677,4.63767 -0.165764,9.70426 -2.730468,14.07031 -0.635974,1.72235 -2.725915,7.40786 -2.982422,7.89258 -0.434768,0.82158 0.902097,-3.60406 0.625,-2.7168 -1.175111,3.76267 -2.111851,7.51328 -3.248047,11.2793 -0.608454,2.08613 -0.121216,4.91048 -1.826172,6.25781 -0.0054,0.004 -0.0084,0.002 -0.01367,0.006 -0.313084,2.5136 -0.506561,3.7473 -1.857422,7.9668 -0.02085,0.0651 -0.166646,-0.14716 -0.1875,-0.082 -0.241188,0.75337 -0.351892,1.54311 -0.527343,2.31445 -1.289467,5.73965 -2.068073,8.70083 -3.980469,13.89062 -0.446119,1.76126 -0.891772,3.52389 -1.337891,5.28516 -0.217879,0.64971 -2.449926,7.68311 -3.392578,9.57617 -0.05961,0.11972 -0.08149,-0.25375 -0.123047,-0.38086 0.03977,-0.993 0.07937,-1.98551 0.119141,-2.97851 -0.781171,9.50009 0.236906,1.59364 -0.964844,9.88281 0.01855,-0.33363 0.123943,-1.32729 0.05664,-1 -0.608762,2.96035 -0.86929,5.99963 -1.683594,8.91016 -0.615729,2.20076 -1.55372,4.29419 -2.449219,6.40039 -0.05104,1.31205 -0.11949,2.62303 -0.261718,3.92773 -0.7624,6.99365 -2.726494,15.88591 -6.53125,22.03711 -0.06713,1.04219 -0.133037,2.08423 -0.238282,3.12305 -0.402997,3.97776 -1.694715,12.32272 -2.34375,15.5 -0.410326,2.0087 -1.058357,3.96078 -1.58789,5.9414 -0.642499,2.28669 -1.378904,4.54777 -1.964844,6.84961 -0.05264,0.20678 -0.10516,0.53504 -0.158203,0.85742 0.04351,2.06455 0.177295,4.13069 0.08789,6.19336 -0.189019,4.3611 -1.010387,8.40067 -2.023437,12.64063 -0.02628,0.11 -0.0982,-0.42329 -0.128906,-0.31445 -0.188876,0.66974 -0.0012,1.45924 -0.361328,2.05468 -0.190205,0.31451 -0.152584,-0.7185 -0.228516,-1.07812 0.05961,5.6066 0.194137,6.27438 -0.283203,12.00195 -0.141853,1.70209 -0.400104,3.39356 -0.59961,5.08984 -0.13738,0.77551 -0.325522,1.54341 -0.412109,2.32618 -1.268189,11.46474 -0.143835,4.76495 -1.546875,12.30859 1.57e-4,3.19886 6.9e-4,6.39685 0,9.5957 -9.93e-4,5.01504 -6.8e-4,10.02989 0.0039,15.04493 -0.004,7.08511 -0.04808,14.17088 0.0098,21.25586 0.04738,5.15682 0.111888,10.3113 -0.126953,15.46484 -0.02429,0.52396 0.36991,1.51326 0.03906,1.7168 0.232612,1.29476 0.464992,2.58993 0.697266,3.88476 -0.09707,-0.21229 -0.317037,-0.86869 -0.291016,-0.63672 0.08888,0.79229 0.423507,1.54672 0.482422,2.3418 0.0081,0.10981 -0.211042,-0.0637 -0.316406,-0.0957 3.365345,8.49299 3.030807,6.81419 5.330078,16.83593 0.05083,0.22153 -0.181318,0.44141 -0.146484,0.66602 0.145872,0.94057 0.436901,1.85311 0.679687,2.77344 0.186332,0.70633 1.270852,1.79972 0.607422,2.10547 -0.08688,0.04 -0.162067,0.0437 -0.230469,0.0254 2.489826,5.49889 4.147014,9.47012 6.365235,15.66406 2.88194,8.04725 -0.251888,0.46073 1.486328,5.7832 0.379948,1.16342 0.865513,2.28899 1.298828,3.4336 1.812151,4.45124 2.931765,7.07674 4.609375,11.83789 1.849386,5.24867 2.972779,10.60317 6.154297,15.375 1.647208,4.73555 3.53866,9.43143 5.021484,14.21875 0.08823,0.28485 -0.07428,0.61638 0.0332,0.89453 1.401768,3.62756 3.768685,6.84464 5.107422,10.49023 3.266459,7.74594 6.904265,15.31628 10.642578,22.83789 1.005293,1.91187 2.04449,3.80688 3.015625,5.73633 0.619698,1.23122 1.01805,2.57313 1.722657,3.75781 3.018454,5.07501 6.050657,10.04302 8.855468,15.2461 1.222375,3.21302 0.02969,0.30782 3.619141,6.34375 4.050284,6.81084 7.790695,13.78991 12.173833,20.40625 1.42346,4.25164 4.99472,8.07151 7.17187,11.85351 2.97117,5.16133 5.22957,10.5616 7.05078,16.18555 0.81634,0.97996 1.6272,1.96388 2.41211,2.96875 0.26532,0.33968 0.37502,0.77785 0.5918,1.15039 1.42568,2.45001 3.07142,4.76796 4.4082,7.27148 -0.70151,-0.6985 -2.93755,-2.64326 -2.2832,-1.90039 2.17331,2.46733 4.56862,4.73093 6.79297,7.15235 0.16164,0.17596 0.2045,0.43669 0.35156,0.625 1.13906,1.45855 2.3631,2.84989 3.50195,4.30859 0.54099,0.69293 1.02315,1.42992 1.53516,2.14453 1.37335,1.85337 2.79138,3.67562 4.12109,5.56055 0.63119,0.89474 1.17335,1.84874 1.75977,2.77344 0.3296,0.51527 0.63675,1.04437 0.98828,1.54492 1.01994,1.45231 2.14723,2.83148 3.125,4.3125 0.14525,0.22 -0.40789,-0.33623 -0.61133,-0.50391 l 1.27344,1.5293 c -0.46083,-0.37555 -1.80628,-1.54023 -1.38086,-1.125 4.49378,4.38606 6.84923,6.4836 11.15039,11.12891 1.14824,1.24012 -0.77589,0.22127 -0.8457,0.19531 5.05614,3.48284 4.93643,3.2936 9.72851,7.01367 1.20579,0.93605 2.39869,1.88833 3.56836,2.86914 0.50874,0.4266 0.9177,0.97548 1.46485,1.35156 3.69333,2.53862 7.80778,4.44029 11.24218,7.375 1.967,1.62889 3.98124,3.20172 5.90039,4.88672 4.46822,3.92307 8.37205,8.49929 12.37305,12.87891 3.29241,3.61328 5.01183,5.46475 5.99219,6.5039 0.421,0.29618 2.05324,2.17638 0,0 -0.21648,-0.15229 -0.0859,0.14487 1.12109,1.72852 0.53899,0.70715 1.25157,1.2932 1.71094,2.04883 0.78029,0.54519 1.56212,1.08924 2.33789,1.64062 2.72314,2.42747 5.1443,4.46982 7.45508,7.22071 0.0724,0.0281 0.12246,0.0479 0.19531,0.0762 1.42451,1.4389 2.86496,2.86177 4.2793,4.31055 1.04432,0.90767 2.09225,1.81184 2.99804,2.85351 0.0251,0.0289 -6.76251,-3.99789 0.7461,0.54883 1.58457,0.87041 3.19802,1.69061 4.7539,2.61133 0.43164,0.25542 0.75735,0.66927 1.19727,0.91015 2.67636,1.46545 9.52924,4.18149 11.22266,4.95313 1.16825,0.53234 2.25153,1.23628 3.41211,1.78515 2.00165,0.94665 4.04708,1.79961 6.07031,2.69922 11.28196,5.67815 22.89629,10.72193 33.85156,17.01368 -2.88772,-0.66458 -0.49342,-0.18404 4.73437,2.69726 0.31291,0.17244 -1.31745,-0.54862 -1,-0.38476 6.12949,3.16375 0.47641,-0.0945 7.26758,3.58789 1.3542,0.73429 2.6711,1.53758 4.00586,2.30664 0.67533,0.43562 1.42475,0.77273 2.02539,1.30664 0.0921,0.0819 -0.0156,0.0426 -0.18164,-0.0332 1.96076,1.01186 6.28443,3.18484 9.6543,5.1836 0.77684,0.25291 1.55088,0.51699 2.31836,0.79883 0.005,0.002 0.014,0.006 0.0195,0.008 1.24164,0.32315 2.8417,0.84426 5.83789,1.80273 0.56067,0.17936 1.11775,0.3902 1.62695,0.68555 2.1144,1.22641 4.18812,2.52059 6.26954,3.80273 0.26825,0.0318 0.69202,0.20803 1.18554,0.46875 0.55178,0.19666 1.08767,0.41761 1.53906,0.7793 0.0651,0.0522 0.0895,0.0834 0.0859,0.0996 9.53968,2.45833 2.08308,0.29195 8.34375,2.32227 0.75308,0.24422 1.5162,0.46236 2.27344,0.69336 5.7066,1.44005 4.92147,1.16118 12.75391,3.86718 0.0522,0.0181 0.1397,0.071 0.21679,0.10938 1.39964,0.16753 3.16756,0.38724 5.41602,0.67578 2.44744,0.53696 4.91272,1.00434 7.34375,1.61133 0.0584,0.0146 0.0344,0.0128 0.0527,0.0195 0.74109,0.14261 1.46232,0.2871 2.14844,0.4375 5.49924,0.11668 4.13016,-0.061 11.30859,1.24804 0.30316,0.0553 1.19664,0.24845 0.88868,0.25977 -0.47483,0.0174 -1.42221,-0.0556 -2.13282,-0.11914 7.78944,0.80885 1.75735,-0.10555 8.61524,1.01953 -3.74766,0.15899 0.95352,-0.0896 7.03515,1.08203 1.86789,0.35987 3.68826,0.93187 5.50782,1.49024 6.3277,0.22947 12.43037,1.73669 18.19336,4.41992 1.42183,0.66201 3.01066,1.06829 4.23632,2.04687 -0.0881,-0.0724 -0.18008,-0.13965 -0.26757,-0.21289 -1.80993,-1.51505 4.4478,1.58072 6.67187,2.3711 0.33432,0.15996 3.4916,1.67402 4.58789,2.20898 0.12226,0.0322 0.34122,0.0973 0.44141,0.12109 8.81495,2.09003 7.51411,1.77388 14.17187,4.49415 0.88897,-0.0136 1.68391,0.004 1.37696,0.53125 -0.01,0.0166 -0.0274,0.0277 -0.0391,0.043 3.23351,0.145 0.99319,-0.0926 7.3086,0.7793 0.0147,0.003 0.0492,0.008 0.0664,0.0117 6.97037,-0.3233 14.01193,0.99232 20.38672,3.81836 0.99996,0.2579 1.93051,0.523 2.66992,0.77148 0.38521,0.12946 0.71189,0.41843 1.10743,0.51172 2.37508,0.56019 4.78534,0.96047 7.17773,1.44141 24.35719,4.89646 36.99527,17.47963 39.60352,30.19923 133.48574,-3.8955 248.03307,-53.56238 343.53906,-149.06837 C 927.50963,817.784 967.27261,756.62752 991.9082,689.25781 1011.9517,634.31396 1022,575.26377 1022,512 c 0,-48.51483 -5.8892,-94.59941 -17.7207,-138.25195 -1.3507,-4.91631 -2.7542,-9.83108 -4.2129,-14.69336 -4.43009,-14.37077 -9.50897,-28.47223 -15.18163,-42.30274 -6.19491,-15.01906 -13.18321,-29.73189 -20.96289,-44.13867 -4.37604,-8.15784 -9.0212,-16.26139 -13.9375,-24.20312 -21.12396,-34.25212 -46.89424,-66.61298 -77.31055,-97.0293 C 773.10497,51.812009 652.84428,2 512,2 Z m -88.12891,972.65234 c 0.84541,0.67499 -2.03514,-0.73437 -3.05273,-1.10156 -0.7587,-0.0665 -1.52184,-0.10308 -2.28516,-0.14062 3.1089,1.19952 6.14503,2.58539 9.1543,4.03515 -1.31725,-0.86987 -2.59686,-1.79102 -3.81641,-2.79297 z m -93.82617,-22.0625 c -0.35435,-0.12629 -0.70966,-0.25026 -1.05664,-0.38867 0.49477,0.30456 0.98973,0.60869 1.48633,0.91016 0.2049,0.0689 0.41528,0.14247 0.60156,0.20703 -0.1128,-0.0292 -0.10174,-0.0243 -0.21875,-0.0547 -0.0551,-0.0143 -0.16647,-0.0467 -0.24609,-0.0684 0.84883,0.51437 1.70255,1.02398 2.5625,1.51953 0.82511,0.47547 -0.33057,-0.40537 -1.6875,-1.26953 -0.10699,-0.0277 -0.22965,-0.0638 -0.40625,-0.125 0.17926,0.0465 0.17877,0.0443 0.34765,0.0879 -0.46629,-0.29545 -0.9442,-0.58664 -1.38281,-0.81836 z m 0.56641,0.60547 c -0.0457,-0.0277 -0.091,-0.0562 -0.13672,-0.084 -0.28586,-0.0961 -0.55914,-0.18042 -0.74219,-0.20703 -0.33354,-0.0485 0.40723,0.16288 0.87891,0.29101 z m -1.62305,-0.99414 c -0.0431,-0.0265 -0.0858,-0.0535 -0.1289,-0.0801 -0.0415,-0.005 -0.0897,-0.0164 -0.12305,-0.0137 0.0811,0.036 0.1691,0.0607 0.25195,0.0937 z M 248.17969,156.04102 c 0.13894,-0.0956 0.27785,-0.19019 0.41406,-0.28907 0.62434,-0.70175 1.0961,-1.2612 0.66406,-0.86718 -0.16236,0.14807 -0.31905,0.30208 -0.48047,0.45117 -0.0194,0.0227 -0.0573,0.0699 -0.0762,0.0918 -0.0284,0.0329 -0.0947,0.0843 -0.13086,0.1211 -0.1298,0.16443 -0.26073,0.32783 -0.39062,0.49219 z m 0.39062,-0.49219 c 0.0184,-0.0233 0.0363,-0.047 0.0547,-0.0703 -0.19831,0.18383 -0.39471,0.36954 -0.5918,0.55468 0.22129,-0.17927 0.39191,-0.33672 0.53711,-0.48437 z m 0.0547,-0.0703 c 0.051,-0.0473 0.10124,-0.0954 0.15234,-0.14258 0.6163,-0.71898 1.48878,-1.79388 2.42969,-2.97071 -0.12674,0.10771 -0.25095,0.21309 -0.37891,0.32227 -0.73417,0.93078 -1.46863,1.86049 -2.20312,2.79102 z M 437.74805,36.462891 c -0.72342,0.110752 -4.04277,2.340153 -11.77344,8.542968 1.38793,-0.401938 2.74655,-0.938635 4.07617,-1.666015 3.4754,-1.901251 8.86851,-7.056266 7.69727,-6.876953 z m -38.76758,10.925781 c -0.0136,-0.005 -0.043,-0.0025 -0.0879,0.0098 -0.3508,0.09539 -1.93261,0.879363 -5.0957,2.583984 0.49992,-0.12937 1.00336,-0.243762 1.49804,-0.390625 0.76334,-0.226621 3.89014,-2.127429 3.68555,-2.203125 z M 94.537109,269.68945 c 0.01377,-0.042 -0.293917,0.4225 -0.683593,1.01758 0.218867,-0.30265 0.44459,-0.61292 0.570312,-0.82226 0.07249,-0.12072 0.10904,-0.18238 0.113281,-0.19532 z m -49.09375,133.6875 c -0.03923,0.74735 -0.06032,1.4957 -0.08594,2.24414 0.807467,-2.14714 1.541176,-1.98417 0.08594,-2.24414 z m -6.1875,24.13867 c -0.02439,-9.6e-4 -0.06053,0.0274 -0.109375,0.0938 -0.46823,0.63621 -0.311918,1.55188 -0.390625,2.33789 -0.0012,0.0117 -7.45e-4,0.0236 -0.002,0.0351 0.08741,-0.13378 0.185014,-0.26348 0.269532,-0.39844 0.03576,-0.57568 0.403192,-2.06153 0.232421,-2.06836 z m -7.064453,38.19727 c -0.0329,0.20177 -0.06531,0.37412 -0.09766,0.58984 0.07584,1.14629 0.129294,1.58069 0.09766,-0.58984 z m -6.09375,111.09961 c -0.08039,-0.32016 0.08204,0.65526 0.138672,0.98047 0.03437,0.19738 0.07073,0.39448 0.105469,0.5918 0.0011,-0.0395 0.0143,-0.0913 0.01172,-0.12696 -0.08519,-0.48173 -0.136717,-0.97084 -0.25586,-1.44531 z m 86.410154,204.63086 c -0.004,0.0164 0.02,0.0625 0.082,0.14453 1.04081,1.37657 2.13825,2.7078 3.24414,4.0332 -0.45649,-0.79784 -0.92467,-1.588 -1.43359,-2.35351 -0.39878,-0.59984 -1.86459,-1.9388 -1.89258,-1.82422 z m 91.19336,99.36914 c 0.007,0.0118 0.0587,0.055 0.16797,0.13672 1.10061,0.8236 2.22349,1.61763 3.34961,2.40625 -0.22774,-0.24064 -0.45801,-0.47776 -0.61914,-0.59766 -0.7664,-0.57024 -2.9498,-2.02786 -2.89844,-1.94531 z m -5.73047,3.23047 c -1.09408,-10e-4 2.17246,1.69679 15.47852,6.94141 -0.85849,-0.94498 -1.75062,-1.85346 -2.73828,-2.65821 -1.20271,-0.97997 -11.18772,-4.28152 -12.74024,-4.2832 z m 100.60157,56.58984 c -0.43486,0.0182 -0.87963,0.0738 -1.33399,0.17188 2.56047,0.71923 5.14853,1.35475 7.72852,2.01367 -1.98545,-1.29358 -4.0561,-2.28357 -6.39453,-2.18555 z m 8.41992,3.73438 c -0.71481,0.0422 -1.45303,0.20088 -2.22071,0.50781 1.57223,0.11628 2.37856,0.15176 3.41797,0.21094 -0.33019,-0.23796 -0.6617,-0.47404 -0.99218,-0.71485 -0.0689,0.002 -0.13571,-0.008 -0.20508,-0.004 z m 140.70508,39.14453 c 0.009,0.007 0.0625,0.0229 0.16992,0.0508 0.16014,0.0416 0.3681,0.059 0.58984,0.0684 -0.44122,-0.0822 -0.78506,-0.13951 -0.75976,-0.11914 z" />
  <ellipse
     cy="514.28546"
     cx="510.50763"
     style="color:#000000;display:inline;overflow:visible;visibility:visible;fill:url(#linearGradient6197);fill-opacity:1;fill-rule:nonzero;stroke:none;stroke-width:42.85020447;marker:none;enable-background:accumulate"
     id="path4188-6"
     rx="469.50763"
     ry="468.71457" />
  <path
     style="fill:url(#linearGradient945);fill-opacity:1;stroke-width:0.99387908"
     d="M 979.93945 518.89453 C 979.95224 517.3288 980.01562 515.81006 980.01562 514.23633 L 980.01562 512.25 L 980.01562 511.25586 C 980.00284 508.66201 979.80994 506.1378 979.75977 503.55859 C 979.85524 508.6276 979.91445 513.73951 979.93945 518.89453 z "
     id="path977" />
  <path
     style="fill:url(#linearGradient987);fill-opacity:1;stroke-width:0.99387908"
     d="M 529.23242 46.048828 C 523.01913 45.827949 516.88405 45.521484 510.50781 45.521484 C 501.20718 45.521484 492.00675 45.769105 482.75586 46.265625 C 365.03081 52.323165 263.61779 97.854077 178.51953 182.80859 C 86.839551 274.33372 41 384.81021 41 514.23633 C 41 643.67901 86.856131 754.20432 178.51953 845.71289 C 234.92013 901.96857 298.43386 940.94405 368.61133 962.44336 C 405.16727 973.61505 443.01682 980.17048 482.75586 982.25586 L 483.15234 982.25586 C 491.60746 982.70273 499.66516 982.95117 507.52344 982.95117 L 510.50781 982.95117 C 520.75342 982.95117 530.89991 982.65277 540.44922 982.15625 C 542.93601 982.00729 545.17294 981.85793 547.36133 981.70898 C 567.45466 980.26907 587.05123 977.68709 605.75195 974.0625 C 609.47244 973.33834 613.04221 972.45798 616.70312 971.65625 C 616.49395 970.83542 616.26524 970.07728 616.05859 969.24805 C 614.79291 964.16898 613.57485 958.93323 612.40234 953.55664 C 610.05732 942.80347 607.89563 931.48525 605.90234 919.72656 C 603.90906 907.96788 602.08353 895.76815 600.41406 883.25 C 598.7446 870.73185 597.23098 857.89483 595.85742 844.86328 C 594.48386 831.83173 593.25205 818.60554 592.14648 805.30664 C 591.04092 792.00774 590.0608 778.63659 589.19531 765.31641 C 588.32982 751.99622 587.57715 738.72823 586.92383 725.63281 C 586.2705 712.53739 585.71712 699.61483 585.24805 686.99023 C 584.3099 661.74103 583.71239 637.68059 583.34375 615.79102 C 582.97511 593.90144 582.83495 574.18259 582.8125 557.62109 C 582.76761 524.49809 583.19141 504 583.19141 504 L 440 504 C 440 488.86301 440.27067 473.9642 440.78711 459.32031 C 441.30355 444.67642 442.06502 430.28793 443.04492 416.16797 C 444.02482 402.04801 445.22484 388.19801 446.61523 374.63281 C 448.00563 361.06762 449.58801 347.78624 451.33594 334.80664 C 453.08386 321.82704 454.99634 309.14832 457.04883 296.78516 C 459.10131 284.42199 461.29358 272.37411 463.59766 260.6582 C 465.90173 248.9423 468.31762 237.55929 470.82031 226.52148 C 473.323 215.48368 475.91221 204.79177 478.56055 194.46289 C 481.20889 184.13401 483.91718 174.16725 486.6582 164.57812 C 489.39922 154.989 492.17239 145.77751 494.95312 136.95898 C 497.73386 128.14046 500.52159 119.71437 503.28906 111.69727 C 506.05654 103.68016 508.80462 96.071564 511.50586 88.886719 C 514.2071 81.701874 516.86131 74.940895 519.44336 68.619141 C 522.02541 62.297387 524.53543 56.416112 526.94531 50.988281 C 527.74391 49.189583 528.4566 47.747106 529.23242 46.048828 z "
     id="path975" />
  <path
     style="fill:url(#linearGradient979);fill-opacity:1;stroke-width:0.99387908"
     d="M 529.23242 46.048828 C 528.4566 47.747106 527.74391 49.189583 526.94531 50.988281 C 524.53543 56.416112 522.02541 62.297387 519.44336 68.619141 C 516.86131 74.940895 514.2071 81.701874 511.50586 88.886719 C 508.80462 96.071564 506.05654 103.68016 503.28906 111.69727 C 500.52159 119.71437 497.73386 128.14046 494.95312 136.95898 C 492.17239 145.77751 489.39922 154.989 486.6582 164.57812 C 483.91718 174.16725 481.20889 184.13401 478.56055 194.46289 C 475.91221 204.79177 473.323 215.48368 470.82031 226.52148 C 468.31762 237.55929 465.90173 248.9423 463.59766 260.6582 C 461.29358 272.37411 459.10131 284.42199 457.04883 296.78516 C 454.99634 309.14832 453.08386 321.82704 451.33594 334.80664 C 449.58801 347.78624 448.00563 361.06762 446.61523 374.63281 C 445.22484 388.19801 444.02482 402.04801 443.04492 416.16797 C 442.06502 430.28793 441.30355 444.67642 440.78711 459.32031 C 440.27067 473.9642 440 488.86301 440 504 L 583.19141 504 C 583.19141 504 582.76761 524.49809 582.8125 557.62109 C 582.83495 574.18259 582.97511 593.90144 583.34375 615.79102 C 583.71239 637.68059 584.3099 661.74103 585.24805 686.99023 C 585.71712 699.61483 586.2705 712.53739 586.92383 725.63281 C 587.57715 738.72823 588.32982 751.99622 589.19531 765.31641 C 590.0608 778.63659 591.04092 792.00774 592.14648 805.30664 C 593.25205 818.60554 594.48386 831.83173 595.85742 844.86328 C 597.23098 857.89483 598.7446 870.73185 600.41406 883.25 C 602.08353 895.76815 603.90906 907.96788 605.90234 919.72656 C 607.89563 931.48525 610.05732 942.80347 612.40234 953.55664 C 613.57485 958.93323 614.79291 964.16898 616.05859 969.24805 C 616.26524 970.07728 616.49395 970.83542 616.70312 971.65625 C 620.8236 970.75387 625.02612 969.92203 629.0293 968.94922 C 709.40264 948.79052 780.37495 907.77785 842.54492 845.71289 C 890.88829 797.45118 926.49932 743.92629 949.32812 685.03906 C 967.6807 637.72073 977.82683 586.92667 979.7168 532.60742 C 979.86529 528.1229 979.9018 523.50374 979.93945 518.89453 C 979.91445 513.73951 979.85524 508.6276 979.75977 503.55859 C 979.02913 465.99862 974.49401 429.91644 965.79102 395.07031 C 964.69683 390.75059 963.4533 386.13439 962.16016 381.56641 C 961.16544 378.19008 960.17127 374.76326 959.02734 371.13867 C 957.43579 366.02451 955.64388 360.7112 953.75391 355.39844 C 947.33797 337.27548 939.67904 319.60055 930.72656 302.12305 C 926.94663 294.77456 922.81922 287.27706 918.49219 279.87891 C 898.29939 245.61906 872.9336 213.14594 842.54492 182.80859 C 770.32828 110.71393 686.22481 66.97054 590.23438 51.677734 C 574.07019 49.095832 557.60813 47.308621 540.44922 46.365234 C 536.83454 46.160625 532.95444 46.181144 529.23242 46.048828 z "
     id="path1" />
  <g
     transform="matrix(0.99471953,0,0,0.99303933,46.35779,-132.9513)"
     style="opacity:1"
     id="g855" />
  <path
     id="path995"
     d="m 520,24 c -0.81444,1.782806 -1.5626,3.29708 -2.40095,5.185304 -2.52982,5.697989 -5.16477,11.871992 -7.87534,18.508398 -2.71057,6.636405 -5.49689,13.733897 -8.33257,21.276352 -2.83569,7.542455 -5.72055,15.529751 -8.62578,23.9459 -2.90521,8.416126 -5.83169,17.261606 -8.75083,26.519056 -2.91915,9.25746 -5.83034,18.92743 -8.70779,28.99383 -2.87745,10.06641 -5.72053,20.52924 -8.50069,31.37222 -2.78016,10.84297 -5.49824,22.06705 -8.1255,33.65423 -2.62725,11.58719 -5.16339,23.53676 -7.58214,35.83581 -2.41876,12.29904 -4.72015,24.94658 -6.87478,37.92509 -2.15465,12.97851 -4.16232,26.28829 -5.99724,39.91392 -1.83493,13.62563 -3.49607,27.56806 -4.95567,41.80843 -1.45959,14.24038 -2.71935,28.77974 -3.74801,43.60249 -1.02868,14.82274 -1.82805,29.92739 -2.37019,45.30015 -0.54215,15.37276 -0.82629,31.01312 -0.82629,46.90352 h 150.31845 c 0,0 -0.44489,21.51834 -0.39777,56.28996 0.0236,17.38582 0.1707,38.08613 0.55769,61.06522 0.387,22.97907 1.01424,48.23707 1.99908,74.743 0.49242,13.25296 1.07335,26.81871 1.75919,40.56592 0.68584,13.74722 1.47597,27.6756 2.38454,41.65878 0.90857,13.98315 1.93748,28.01983 3.09806,41.98065 1.16059,13.96082 2.45372,27.84531 3.89564,41.52549 1.44193,13.68017 3.03088,27.15612 4.78345,40.29733 1.75256,13.14122 3.66894,25.94816 5.76144,38.2921 2.0925,12.34396 4.36179,24.22551 6.82352,35.5139 1.23087,5.6442 2.50956,11.14055 3.83823,16.47241 0.21693,0.87051 0.45703,1.66638 0.67661,2.52807 4.32557,-0.94729 8.73726,-1.82054 12.93969,-2.84177 C 709.1378,971.67371 783.6426,928.61972 848.90695,863.46561 899.6565,812.80178 937.04,756.6128 961.00506,694.79459 c 19.26603,-49.6735 29.91716,-102.99572 31.90121,-160.01859 0.15588,-4.70773 0.1942,-9.5568 0.23372,-14.39543 -0.0262,-5.41159 -0.0884,-10.77793 -0.18862,-16.09924 -0.76701,-39.42945 -5.52785,-77.30753 -14.66402,-113.88806 -1.14865,-4.53472 -2.45407,-9.38068 -3.81157,-14.17602 -1.04423,-3.54438 -2.08788,-7.14177 -3.28875,-10.94676 -1.67077,-5.36871 -3.55187,-10.94647 -5.5359,-16.52366 -6.73528,-19.025 -14.77542,-37.57966 -24.17349,-55.92707 -3.96807,-7.71424 -8.30091,-15.58491 -12.84331,-23.35129 C 907.43648,233.50342 880.80816,199.41401 848.90695,167.56669 773.09588,91.883664 684.80634,45.963046 584.0382,29.909073 567.06947,27.198662 549.78805,25.322496 531.77509,24.332155 527.9805,24.117362 523.90728,24.138902 520,24 Z"
     style="fill:url(#linearGradient997);fill-opacity:1;stroke-width:1.04334724"
     inkscape:connector-curvature="0" />
  <path
     style="fill:url(#linearGradient1001);fill-opacity:1;stroke-width:1.12491405"
     d="M 532.19336,2.4511719 C 525.49619,2.2194402 518.79294,2 512,2 c -8.80277,0 -17.52448,0.1948457 -26.16602,0.5839844 -8.64153,0.3891387 -17.20329,0.971749 -25.68359,1.75 -8.4803,0.778251 -16.88015,1.7525849 -25.19922,2.9199218 -8.31907,1.167337 -16.557,2.527588 -24.71484,4.0839848 -8.15784,1.556396 -16.23582,3.308476 -24.23242,5.253906 -7.99661,1.945429 -15.91268,4.085485 -23.74805,6.419922 -7.83538,2.334436 -15.58953,4.86252 -23.26367,7.585937 -7.67415,2.723417 -15.26834,5.641536 -22.78125,8.753906 -7.51291,3.112371 -14.9452,6.418624 -22.29688,9.919922 -7.35168,3.501299 -14.62205,7.197691 -21.8125,11.087891 -7.19044,3.8902 -14.30086,7.974832 -21.33008,12.253906 -7.02921,4.279075 -13.97772,8.751999 -20.8457,13.419922 -6.86798,4.667923 -13.65458,9.531146 -20.36133,14.587887 -6.70675,5.05675 -13.33339,10.30837 -19.8789,15.75391 -6.54552,5.44554 -13.01025,11.08561 -19.39453,16.91992 -6.38429,5.83431 -12.68711,11.86289 -18.91016,18.08594 -6.22305,6.22305 -12.25163,12.52587 -18.08594,18.91016 -5.83431,6.38428 -11.47438,12.84901 -16.91992,19.39453 -5.44554,6.54551 -10.69716,13.17215 -15.75391,19.8789 -5.05674,6.70675 -9.91996,13.49335 -14.58789,20.36133 -4.66792,6.86798 -9.14084,13.81649 -13.41992,20.8457 -4.27907,7.02922 -8.3637,14.13964 -12.2539,21.33008 -3.890205,7.19045 -7.586597,14.46082 -11.087896,21.8125 -3.501298,7.35168 -6.807551,14.78397 -9.919922,22.29688 -3.11237,7.51291 -6.030489,15.1071 -8.753906,22.78125 -2.723417,7.67414 -5.251501,15.42829 -7.585937,23.26367 -2.334437,7.83537 -4.474493,15.75144 -6.419922,23.74805 -1.94543,7.9966 -3.69751,16.07458 -5.253906,24.23242 -1.556397,8.15784 -2.916648,16.39577 -4.083985,24.71484 -1.167337,8.31907 -2.141671,16.71892 -2.919922,25.19922 -0.778251,8.4803 -1.360861,17.04206 -1.75,25.68359 C 2.194846,494.47552 2,503.19723 2,512 c 0,8.80277 0.194846,17.52604 0.583984,26.16797 0.389139,8.64193 0.971749,17.20255 1.75,25.68359 0.778251,8.48104 1.752585,16.88107 2.919922,25.20117 1.167337,8.3201 2.527588,16.55965 4.083985,24.71875 1.556396,8.15911 3.308476,16.23827 5.253906,24.23633 1.945429,7.99806 4.085485,15.915 6.419922,23.75196 2.334436,7.83695 4.86252,15.59372 7.585937,23.26953 2.723417,7.6758 5.641536,15.27055 8.753906,22.78515 3.112371,7.5146 6.418624,14.9494 9.919922,22.30274 3.501299,7.35334 7.197691,14.62633 11.087896,21.81836 3.89019,7.19203 7.97483,14.30332 12.2539,21.33398 4.27908,7.03067 8.752,13.98036 13.41992,20.84961 4.66793,6.86925 9.53115,13.65746 14.58789,20.36524 5.05675,6.70777 10.30837,13.3346 15.75391,19.88085 5.44554,6.54626 11.08561,13.01181 16.91992,19.39649 5.83431,6.38468 11.86289,12.68905 18.08594,18.91211 6.22305,6.22305 12.52587,12.25202 18.91016,18.08594 6.38428,5.83391 12.84901,11.47316 19.39453,16.91796 6.54551,5.44481 13.17215,10.69429 19.8789,15.75 6.70675,5.05572 13.49335,9.91733 20.36133,14.58399 6.86798,4.66666 13.81649,9.13839 20.8457,13.41601 7.02922,4.27763 14.13964,8.36139 21.33008,12.25 7.19045,3.88862 14.46082,7.5824 21.8125,11.08204 7.35168,3.49963 14.78397,6.80533 22.29688,9.91601 7.51291,3.11068 15.1071,6.02629 22.78125,8.74805 7.67414,2.72175 15.42829,5.24918 23.26367,7.58207 7.83537,2.3328 15.75144,4.472 23.74805,6.416 7.9966,1.944 16.07458,3.6929 24.23242,5.248 8.15784,1.5552 16.39577,2.9157 24.71484,4.0821 8.31907,1.1663 16.71892,2.1385 25.19922,2.916 8.4803,0.7775 17.04206,1.3593 25.68359,1.748 8.64154,0.3888 17.36325,0.584 26.16602,0.584 8.80277,0 17.52604,-0.1952 26.16797,-0.584 8.64193,-0.3887 17.20255,-0.9705 25.68359,-1.748 8.48104,-0.7775 16.88107,-1.7497 25.20117,-2.916 8.3201,-1.1664 16.55965,-2.5269 24.71875,-4.0821 7.10638,-1.3545 14.12517,-2.9208 21.10938,-4.5703 -2.54979,-11.79694 -4.92649,-24.12639 -7.10547,-36.98046 -2.25608,-13.30897 -4.32332,-27.11854 -6.21289,-41.28711 -1.88956,-14.16857 -3.60159,-28.69762 -5.15625,-43.44726 -1.55465,-14.74966 -2.94983,-29.71925 -4.20117,-44.77149 -1.25132,-15.05225 -2.36026,-30.18734 -3.33985,-45.26367 -0.9796,-15.07635 -1.83085,-30.09212 -2.57031,-44.91406 -0.73947,-14.82195 -1.36556,-29.44923 -1.89648,-43.73828 -1.06183,-28.5781 -1.73901,-55.81041 -2.15625,-80.58594 -0.41725,-24.77554 -0.57617,-47.09486 -0.60157,-65.83985 -0.0508,-37.49001 0.42969,-60.68945 0.42969,-60.68945 H 440 c 0,-17.13268 0.30609,-33.99574 0.89062,-50.57031 0.58453,-16.57456 1.44756,-32.86024 2.55665,-48.8418 1.1091,-15.98157 2.46732,-31.65806 4.04101,-47.01172 1.57372,-15.35365 3.36342,-30.3853 5.3418,-45.07617 1.97837,-14.69085 4.14371,-29.042 6.4668,-43.03515 2.32308,-13.99314 4.80424,-27.63006 7.4121,-40.89063 2.60785,-13.26054 5.34118,-26.14367 8.17383,-38.63672 2.83264,-12.49305 5.76422,-24.5945 8.76172,-36.28515 2.99749,-11.69068 6.06362,-22.97083 9.16602,-33.82422 3.10241,-10.85337 6.24132,-21.280551 9.38867,-31.261722 3.14736,-9.981173 6.30124,-19.517707 9.43359,-28.591797 3.13234,-9.074102 6.24341,-17.686253 9.30078,-25.81836 3.05738,-8.132109 6.06191,-15.784227 8.98438,-22.9394529 0.78318,-1.9175088 1.50453,-3.5020389 2.27539,-5.3476562 z"
     id="path1035"
     inkscape:connector-curvature="0" />
  <g
     transform="matrix(0.99471953,0,0,0.99303933,1.2112188,25.849299)"
     id="g870"
     style="opacity:0.32;filter:url(#filter888)">
    <path
       style="fill:none;fill-opacity:1;stroke:url(#linearGradient892);stroke-width:56.44649124;stroke-linecap:round;stroke-linejoin:miter;stroke-miterlimit:4;stroke-dasharray:none;stroke-opacity:1"
       d="m 300.3749,327.24923 v 73.69229"
       id="path864"
       inkscape:connector-curvature="0"
       sodipodi:nodetypes="cc" />
    <path
       style="fill:none;stroke:url(#linearGradient894);stroke-width:56.44649124;stroke-linecap:round;stroke-linejoin:miter;stroke-miterlimit:4;stroke-dasharray:none;stroke-opacity:1"
       d="m 762.81681,327.24923 v 73.69229"
       id="path866"
       inkscape:connector-curvature="0"
       sodipodi:nodetypes="cc" />
    <path
       style="color:#000000;display:inline;overflow:visible;visibility:visible;fill:none;stroke:url(#linearGradient896);stroke-width:47.36750793;stroke-linecap:round;stroke-linejoin:miter;stroke-miterlimit:4;stroke-dasharray:none;stroke-dashoffset:0;stroke-opacity:1;marker:none;enable-background:accumulate"
       d="m 254.98867,782.39731 c 0,0 117.19571,93.01478 326.55434,36.91731 C 778.18902,766.62348 843.24149,622.4836 843.24149,622.4836"
       id="path868"
       inkscape:connector-curvature="0"
       sodipodi:nodetypes="ccc" />
  </g>
  <circle
     style="opacity:0.2;fill:none;fill-opacity:1;fill-rule:evenodd;stroke:url(#linearGradient1047);stroke-width:62.40000153;stroke-linecap:round;stroke-linejoin:round;stroke-miterlimit:4;stroke-dasharray:none;stroke-opacity:1;paint-order:stroke markers fill"
     id="path1039"
     cx="511.04907"
     cy="512.95093"
     r="478.04907" />
  <g
     id="g847"
     transform="matrix(0.99471953,0,0,0.99303933,1.2112188,5.849299)">
    <path
       sodipodi:nodetypes="cc"
       inkscape:connector-curvature="0"
       id="path3873"
       d="m 300.3749,327.24923 v 73.69229"
       style="fill:none;fill-opacity:1;stroke:url(#linearGradient891);stroke-width:56.44649124;stroke-linecap:round;stroke-linejoin:miter;stroke-miterlimit:4;stroke-dasharray:none;stroke-opacity:1" />
    <path
       sodipodi:nodetypes="cc"
       inkscape:connector-curvature="0"
       id="path3873-4"
       d="m 762.81681,327.24923 v 73.69229"
       style="fill:none;stroke:url(#linearGradient899);stroke-width:56.44649124;stroke-linecap:round;stroke-linejoin:miter;stroke-miterlimit:4;stroke-dasharray:none;stroke-opacity:1" />
    <path
       sodipodi:nodetypes="ccc"
       inkscape:connector-curvature="0"
       id="path3893"
       d="m 254.98867,782.39731 c 0,0 117.19571,93.01478 326.55434,36.91731 C 778.18902,766.62348 843.24149,622.4836 843.24149,622.4836"
       style="color:#000000;display:inline;overflow:visible;visibility:visible;fill:none;stroke:url(#linearGradient915);stroke-width:47.36750793;stroke-linecap:round;stroke-linejoin:miter;stroke-miterlimit:4;stroke-dasharray:none;stroke-dashoffset:0;stroke-opacity:1;marker:none;enable-background:accumulate" />
  </g>
  <path
     style="opacity:0.2;fill:#100000;fill-opacity:1;stroke-width:1.04334724;filter:url(#filter1103)"
     d="M 500 44 C 499.18556 45.782806 498.43796 47.297323 497.59961 49.185547 C 495.06979 54.883536 492.43518 61.056959 489.72461 67.693359 C 487.01404 74.329769 484.2263 81.428253 481.39062 88.970703 C 478.55494 96.513163 475.67085 104.49988 472.76562 112.91602 C 469.86041 121.33215 466.93281 130.1781 464.01367 139.43555 C 461.09452 148.69301 458.18409 158.36329 455.30664 168.42969 C 452.42919 178.4961 449.5868 188.9578 446.80664 199.80078 C 444.02648 210.64375 441.30695 221.8679 438.67969 233.45508 C 436.05244 245.04227 433.51641 256.99197 431.09766 269.29102 C 428.6789 281.59006 426.37729 294.23829 424.22266 307.2168 C 422.06801 320.19531 420.06148 333.50523 418.22656 347.13086 C 416.39163 360.75649 414.73108 374.69908 413.27148 388.93945 C 411.81189 403.17983 410.5521 417.71827 409.52344 432.54102 C 408.49476 447.36376 407.69448 462.46904 407.15234 477.8418 C 406.61019 493.21456 406.32617 508.85374 406.32617 524.74414 L 556.64453 524.74414 C 556.64453 524.74414 556.19897 546.26354 556.24609 581.03516 C 556.26969 598.42098 556.4177 619.12052 556.80469 642.09961 C 557.19169 665.07868 557.81789 690.33782 558.80273 716.84375 C 559.29515 730.09671 559.87666 743.66099 560.5625 757.4082 C 561.24834 771.15542 562.0387 785.08518 562.94727 799.06836 C 563.85584 813.05151 564.88434 827.08801 566.04492 841.04883 C 567.20551 855.00965 568.49949 868.89404 569.94141 882.57422 C 571.38334 896.25439 572.97204 909.72988 574.72461 922.87109 C 576.47717 936.01231 578.39383 948.82017 580.48633 961.16406 C 582.57883 973.50806 584.84686 985.38933 587.30859 996.67773 C 588.53946 1002.3218 589.81977 1007.8185 591.14844 1013.1504 C 591.36537 1014.0209 591.60464 1014.816 591.82422 1015.6777 C 596.14979 1014.7304 600.56124 1013.8571 604.76367 1012.8359 C 689.13742 991.67384 763.6419 948.61895 828.90625 883.46484 C 832.42332 879.95372 835.86915 876.41384 839.25781 872.84961 C 776.32407 932.76216 705.0113 972.70877 624.76367 992.83594 C 620.56124 993.85717 616.14979 994.73044 611.82422 995.67773 C 611.60464 994.81604 611.36537 994.0209 611.14844 993.15039 C 609.81977 987.81853 608.53946 982.32193 607.30859 976.67773 C 604.84686 965.38934 602.57883 953.50802 600.48633 941.16406 C 598.39383 928.82012 596.47717 916.01231 594.72461 902.87109 C 592.97204 889.72988 591.38334 876.25439 589.94141 862.57422 C 588.49949 848.89404 587.20551 835.00965 586.04492 821.04883 C 584.88434 807.08801 583.85584 793.05151 582.94727 779.06836 C 582.0387 765.08518 581.24834 751.15542 580.5625 737.4082 C 579.87666 723.66099 579.29515 710.09671 578.80273 696.84375 C 577.81789 670.33782 577.19169 645.07868 576.80469 622.09961 C 576.4177 599.12052 576.26969 578.42098 576.24609 561.03516 C 576.19897 526.26354 576.64453 504.74414 576.64453 504.74414 L 426.32617 504.74414 C 426.32617 488.85374 426.61019 473.21456 427.15234 457.8418 C 427.69448 442.46904 428.49476 427.36376 429.52344 412.54102 C 430.5521 397.71827 431.81189 383.17983 433.27148 368.93945 C 434.73108 354.69908 436.39163 340.75649 438.22656 327.13086 C 440.06148 313.50523 442.06801 300.19531 444.22266 287.2168 C 446.37729 274.23829 448.6789 261.59006 451.09766 249.29102 C 453.51641 236.99197 456.05244 225.04227 458.67969 213.45508 C 461.30695 201.8679 464.02648 190.64375 466.80664 179.80078 C 469.5868 168.9578 472.42919 158.4961 475.30664 148.42969 C 478.18409 138.36329 481.09452 128.69301 484.01367 119.43555 C 486.93281 110.1781 489.86041 101.33214 492.76562 92.916016 C 495.67086 84.499867 498.55494 76.513158 501.39062 68.970703 C 504.22631 61.428248 507.01404 54.329764 509.72461 47.693359 C 510.20271 46.522795 510.66348 45.446405 511.13672 44.304688 C 507.52393 44.125282 503.69145 44.131229 500 44 z "
     id="path1049" />
</svg>
