<?xml version="1.0" encoding="UTF-8" standalone="no"?>
<!-- Generator: flash2svg, http://dissentgraphics.com/tools/flash2svg -->

<svg
   xmlns:dc="http://purl.org/dc/elements/1.1/"
   xmlns:cc="http://creativecommons.org/ns#"
   xmlns:rdf="http://www.w3.org/1999/02/22-rdf-syntax-ns#"
   xmlns:svg="http://www.w3.org/2000/svg"
   xmlns="http://www.w3.org/2000/svg"
   xmlns:xlink="http://www.w3.org/1999/xlink"
   xmlns:sodipodi="http://sodipodi.sourceforge.net/DTD/sodipodi-0.dtd"
   xmlns:inkscape="http://www.inkscape.org/namespaces/inkscape"
   id="Sketch"
   image-rendering="optimizeSpeed"
   version="1.1"
   style="background-color:#ffffff"
   x="0px"
   y="0px"
   width="1024px"
   height="1024px"
   viewBox="0 0 1024 1024"
   enable-background="new 0 0 1024 1024"
   sodipodi:docname="inkscape.svg"
   inkscape:version="0.92.4 (5da689c313, 2019-01-14)">
  <metadata
     id="metadata28">
    <rdf:RDF>
      <cc:Work
         rdf:about="">
        <dc:format>image/svg+xml</dc:format>
        <dc:type
           rdf:resource="http://purl.org/dc/dcmitype/StillImage" />
        <dc:title />
      </cc:Work>
    </rdf:RDF>
  </metadata>
  <sodipodi:namedview
     pagecolor="#ffffff"
     bordercolor="#666666"
     borderopacity="1"
     objecttolerance="10"
     gridtolerance="10"
     guidetolerance="10"
     inkscape:pageopacity="0"
     inkscape:pageshadow="2"
     inkscape:window-width="1920"
     inkscape:window-height="944"
     id="namedview26"
     showgrid="true"
     inkscape:zoom="0.7109375"
     inkscape:cx="512"
     inkscape:cy="507.78022"
     inkscape:window-x="0"
     inkscape:window-y="25"
     inkscape:window-maximized="1"
     inkscape:current-layer="Sketch"
     inkscape:pagecheckerboard="true">
    <inkscape:grid
       type="xygrid"
       id="grid835" />
  </sodipodi:namedview>
  <defs
     transform="matrix(1 0 0 1 0 0) "
     id="defs2">
    <linearGradient
       inkscape:collect="always"
       id="linearGradient847">
      <stop
         style="stop-color:#5a5a5a;stop-opacity:1"
         offset="0"
         id="stop843" />
      <stop
         style="stop-color:#333333;stop-opacity:1"
         offset="1"
         id="stop845" />
    </linearGradient>
    <linearGradient
       inkscape:collect="always"
       id="linearGradient837">
      <stop
         style="stop-color:#ffffff;stop-opacity:1;"
         offset="0"
         id="stop833" />
      <stop
         style="stop-color:#d7d7d7;stop-opacity:1"
         offset="1"
         id="stop835" />
    </linearGradient>
    <linearGradient
       gradientTransform="matrix(3.5223332,0,0,3.5223332,162.38344,167.0873)"
       inkscape:collect="always"
       xlink:href="#linearGradient837"
       id="linearGradient6211"
       x1="101.52832"
       y1="-74.6912"
       x2="101.52832"
       y2="180.82126"
       gradientUnits="userSpaceOnUse" />
    <linearGradient
       id="linearGradient4829">
      <stop
         style="stop-color:#f4fbfc;stop-opacity:1;"
         offset="0"
         id="stop4831" />
      <stop
         style="stop-color:#d6d6d6;stop-opacity:1;"
         offset="1"
         id="stop4833" />
    </linearGradient>
    <linearGradient
       gradientTransform="matrix(0.99609375,0,0,0.99609375,2.00045,1.89995)"
       inkscape:collect="always"
       xlink:href="#linearGradient855"
       id="linearGradient857"
       x1="540.1098"
       y1="2.0078433"
       x2="540.1098"
       y2="1026.0078"
       gradientUnits="userSpaceOnUse" />
    <linearGradient
       inkscape:collect="always"
       id="linearGradient855">
      <stop
         id="stop853"
         offset="0"
         style="stop-color:#4a4a4a;stop-opacity:1" />
      <stop
         style="stop-color:#333333;stop-opacity:1"
         offset="0.80325711"
         id="stop4553" />
      <stop
         id="stop851"
         offset="1"
         style="stop-color:#333333;stop-opacity:1" />
    </linearGradient>
    <linearGradient
       inkscape:collect="always"
       xlink:href="#linearGradient847"
       id="linearGradient849"
       x1="520"
       y1="4"
       x2="520"
       y2="1024"
       gradientUnits="userSpaceOnUse" />
    <filter
       inkscape:collect="always"
       style="color-interpolation-filters:sRGB"
       id="filter878"
       x="-0.035762813"
       width="1.0715256"
       y="-0.036240354"
       height="1.0724807">
      <feGaussianBlur
         inkscape:collect="always"
         stdDeviation="8.3715539"
         id="feGaussianBlur880" />
    </filter>
    <linearGradient
       id="linearGradient4657">
      <stop
         id="stop4653"
         offset="0"
         style="stop-color:#ffffff;stop-opacity:1" />
      <stop
         id="stop4655"
         offset="1"
         style="stop-color:#ffffff;stop-opacity:0;" />
    </linearGradient>
  </defs>
  <path
     id="path"
     d="m 984.88455,316.75212 q -9.29236,-22.5286 -20.9619,-44.13877 c -4.37603,-8.15784 -9.02221,-16.26166 -13.93853,-24.20339 C 928.86017,214.15784 903.09004,181.79661 872.67373,151.38029 773.10487,51.811441 652.84428,2 512,2 371.15572,2 250.94915,51.811441 151.38029,151.38029 51.811441,250.94915 2,371.15572 2,512 2,652.84428 51.811441,773.10487 151.38029,872.67373 250.94915,972.24259 371.15572,1022 512,1022 652.84428,1022 773.10487,972.24259 872.67373,872.67373 927.50953,817.7839 967.27222,756.62712 991.90781,689.25741 1011.9513,634.31356 1022,575.26377 1022,512 c 0,-48.51483 -5.8888,-94.59852 -17.7203,-138.25106 -1.3507,-4.91631 -2.7553,-9.83263 -4.214,-14.69491 -4.43011,-14.37077 -9.50849,-28.4714 -15.18115,-42.30191 z"
     style="fill:url(#linearGradient849);fill-opacity:1;stroke-width:1.08050847"
     inkscape:connector-curvature="0" />
  <g
     id="shape2"
     transform="matrix(1.0007311,0,0,1.0007311,-0.9246287,0.1759823)">
    <path
       inkscape:connector-curvature="0"
       style="fill:url(#linearGradient857);fill-opacity:1;stroke:none;stroke-width:0.99609375;stroke-opacity:1"
       d="m 967.96235,392.4185 c -1.0957,-4.33301 -2.3408,-8.96484 -3.6357,-13.54688 -0.9961,-3.38671 -1.9922,-6.82324 -3.1377,-10.45898 -1.5938,-5.12988 -3.3867,-10.45898 -5.2793,-15.78809 -6.4248,-18.17871 -14.0947,-35.90918 -23.0596,-53.44043 -3.7851,-7.37109 -7.9189,-14.8916 -12.2519,-22.3125 -20.2207,-34.36523 -45.6211,-66.93749 -76.0518,-97.36816 -72.3164,-72.3164 -156.5361,-116.19433 -252.65919,-131.53418 -16.18652,-2.58984 -32.67187,-4.38281 -49.85449,-5.3291 -9.66211,-0.54785 -19.77245,-0.84668 -29.98242,-0.84668 -9.31348,0 -18.52734,0.24902 -27.79102,0.74707 C 366.37154,48.61674 264.81979,94.28764 179.60397,179.50346 Q 41.894,317.21342 41.894,511.94975 c 0,129.84082 45.91993,240.70605 137.70997,332.49609 56.47852,56.42871 120.07909,95.52539 190.35352,117.09086 36.60644,11.206 74.5078,17.7802 114.30174,19.872 0.14942,0 0.24903,0 0.39844,0 8.4668,0.4483 16.53517,0.6973 24.4043,0.6973 1.19531,0 2.0918,0 2.98828,0 10.25977,0 20.41992,-0.2988 29.98242,-0.7969 2.49024,-0.1494 4.73145,-0.2988 6.92285,-0.4482 20.1211,-1.4443 39.74414,-4.0342 58.47071,-7.6699 7.91894,-1.544 15.73828,-3.2872 23.30859,-5.1299 80.48443,-20.22073 151.55563,-61.3594 213.81153,-123.61526 48.4102,-48.41015 84.0703,-102.09961 106.9307,-161.16797 18.3779,-47.46386 28.538,-98.41406 30.4306,-152.90039 0.1992,-6.02636 0.2989,-12.20214 0.2989,-18.42773 0,-0.64746 0,-1.34473 0,-1.99219 0,-0.34863 0,-0.64746 0,-0.99609 -0.1993,-40.49121 -4.9307,-79.18945 -14.2442,-116.54297 z"
       id="path1-3" />
  </g>
  <path
     d="m 507.90234,281.9375 c -17.37345,-0.0352 -34.6438,6.28213 -47.11132,19.04297 L 253.41406,513.19922 c -70.08051,86.78624 47.69793,76.71221 98.18555,101.70898 18.11071,18.51215 -69.40563,32.10524 -51.29492,50.63282 18.11071,18.51212 109.43265,35.64413 127.57422,54.15625 18.11071,18.51201 -37.04235,38.17552 -18.93164,56.6875 18.11071,18.51233 59.96136,0.96238 67.80468,43.69921 5.58917,30.53969 75.55882,13.12342 109.74219,-11.88867 18.11071,-18.52747 -34.62243,-16.71069 -16.51172,-35.22265 45.0374,-46.05662 86.96036,-16.81376 102.36914,-62.96289 7.61172,-22.80432 -66.35446,-35.09335 -48.21289,-53.60547 52.10881,-30.43154 232.18694,-50.26033 146.72852,-135.71875 L 555.89453,300.98047 c -13.14686,-12.6219 -30.61874,-19.00824 -47.99219,-19.04297 z m 1.76172,20.14258 c 12.40383,0.0655 24.78071,4.74301 33.68164,13.75976 l 82.11524,83.32422 c 7.78158,7.95143 7.65478,23.30711 3.30078,27.73828 L 588.03516,394.32227 580,442.64258 l -34.01172,-17.94141 -54.59766,34.34375 -18.05078,-72.53906 -29.27929,50.63476 h -44.68946 c -18.24966,0 -20.43568,-23.15417 -3.85351,-39.73632 28.96477,-31.26529 62.17974,-63.09862 80.24414,-81.56446 9.07849,-9.27919 21.49851,-13.82539 33.90234,-13.75976 z m -98.51562,324.27539 c 5.54285,3.44304 89.36314,20.48802 109.85156,23.88476 7.10222,1.49766 2.08366,8.81911 -7.70508,13.75977 -22.07869,5.86709 -129.16584,-37.64453 -102.14648,-37.64453 z m 365.26953,80.77148 c -0.0257,0.75935 -0.044,1.51813 -0.0586,2.27735 0.151,-0.57844 0.23046,-1.18265 0.23046,-1.81446 -0.0541,-0.15659 -0.11557,-0.30793 -0.17187,-0.46289 z"
     style="opacity:0.2;fill:#000000;fill-opacity:1;stroke-width:3.52233338;filter:url(#filter878)"
     id="path856"
     inkscape:connector-curvature="0" />
  <path
     id="path5650"
     style="fill:url(#linearGradient6211);fill-opacity:1;stroke-width:3.52233338"
     d="m 507.90234,241.9375 c -17.37345,-0.0352 -34.6438,6.28213 -47.11132,19.04297 L 253.41406,473.19922 c -70.08051,86.78624 47.69793,76.71221 98.18555,101.70898 18.11071,18.51215 -69.40563,32.10524 -51.29492,50.63282 18.11071,18.51212 109.43265,35.64413 127.57422,54.15625 18.11071,18.51201 -37.04235,38.17552 -18.93164,56.6875 18.11071,18.51233 59.96136,0.96238 67.80468,43.69921 5.58917,30.53969 75.55882,13.12342 109.74219,-11.88867 18.11071,-18.52747 -34.62243,-16.71069 -16.51172,-35.22265 45.0374,-46.05662 86.96036,-16.81376 102.36914,-62.96289 7.61172,-22.80432 -66.35446,-35.09335 -48.21289,-53.60547 52.10881,-30.43154 232.18694,-50.26033 146.72852,-135.71875 L 555.89453,260.98047 c -13.14686,-12.6219 -30.61874,-19.00824 -47.99219,-19.04297 z m 1.76172,20.14258 c 12.40383,0.0655 24.78071,4.74301 33.68164,13.75976 l 82.11524,83.32422 c 7.78158,7.95143 7.65478,23.30711 3.30078,27.73828 L 588.03516,354.32227 580,402.64258 l -34.01172,-17.94141 -54.59766,34.34375 -18.05078,-72.53906 -29.27929,50.63476 h -44.68946 c -18.24966,0 -20.43568,-23.15417 -3.85351,-39.73632 28.96477,-31.26529 62.17974,-63.09862 80.24414,-81.56446 9.07849,-9.27919 21.49851,-13.82539 33.90234,-13.75976 z m -98.51562,324.27539 c 5.54285,3.44304 89.36314,20.48802 109.85156,23.88476 7.10222,1.49766 2.08366,8.81911 -7.70508,13.75977 -22.07869,5.86709 -129.16584,-37.64453 -102.14648,-37.64453 z m 365.26953,80.77148 c -0.0257,0.75935 -0.044,1.51813 -0.0586,2.27735 0.151,-0.57844 0.23046,-1.18265 0.23046,-1.81446 -0.0541,-0.15659 -0.11557,-0.30793 -0.17187,-0.46289 z" />
</svg>
