<?xml version="1.0" encoding="UTF-8" standalone="no"?>
<svg
   xmlns:dc="http://purl.org/dc/elements/1.1/"
   xmlns:cc="http://creativecommons.org/ns#"
   xmlns:rdf="http://www.w3.org/1999/02/22-rdf-syntax-ns#"
   xmlns:svg="http://www.w3.org/2000/svg"
   xmlns="http://www.w3.org/2000/svg"
   xmlns:sodipodi="http://sodipodi.sourceforge.net/DTD/sodipodi-0.dtd"
   xmlns:inkscape="http://www.inkscape.org/namespaces/inkscape"
   height="48"
   viewBox="0 0 48 48"
   width="48"
   version="1.1"
   id="svg89"
   sodipodi:docname="system-log-out.svg"
   inkscape:version="0.92.4 5da689c313, 2019-01-14">
  <metadata
     id="metadata95">
    <rdf:RDF>
      <cc:Work
         rdf:about="">
        <dc:format>image/svg+xml</dc:format>
        <dc:type
           rdf:resource="http://purl.org/dc/dcmitype/StillImage" />
      </cc:Work>
    </rdf:RDF>
  </metadata>
  <defs
     id="defs93" />
  <sodipodi:namedview
     pagecolor="#ffffff"
     bordercolor="#666666"
     borderopacity="1"
     objecttolerance="10"
     gridtolerance="10"
     guidetolerance="10"
     inkscape:pageopacity="0"
     inkscape:pageshadow="2"
     inkscape:window-width="640"
     inkscape:window-height="480"
     id="namedview91"
     showgrid="false"
     inkscape:zoom="4.9166667"
     inkscape:cx="24"
     inkscape:cy="24"
     inkscape:window-x="0"
     inkscape:window-y="32"
     inkscape:window-maximized="0"
     inkscape:current-layer="svg89" />
<linearGradient
     id="a"
     gradientUnits="userSpaceOnUse"
     x1="399.57144"
     x2="399.57144"
     y1="545.79797"
     y2="517.79797">
    <stop
       offset="0"
       stop-color="#e6e6e6"
       id="stop30" />
    <stop
       offset="1"
       stop-color="#cccccc"
       id="stop32" />
  </linearGradient>
  <linearGradient
     id="b"
     gradientUnits="userSpaceOnUse"
     x1="15.883406"
     x2="14.337673"
     y1="55.641636"
     y2="-7.895216">
    <stop
       offset="0"
       stop-color="#cccccc"
       id="stop35" />
    <stop
       offset="1"
       stop-color="#aaaaaa"
       id="stop37" />
  </linearGradient>
  <path
     d="m37.393 64.549782 39.595-39.596c2.011-2.01 3.015-4.468 3.015-7.374s-1.004-5.363-3.015-7.373l-6.11-6.1110002c-2.009-2.009-4.467-3.014-7.372-3.014-2.906 0-5.363 1.005-7.374 3.014l-53.12 53.0390002c-2.01 2.01-3.015 4.468-3.015 7.374s1.005 5.363 3.015 7.373l53.12 53.038998c2.011 2.01 4.468 3.015 7.374 3.015 2.905 0 5.363-1.005 7.372-3.015l6.11-6.11c2.011-2.009 3.015-4.454 3.015-7.333 0-2.878-1.004-5.35-3.015-7.414zm138.47748-.0563a128.00961 128.00961 0 0 1 -128.009609 128.009608 128.00961 128.00961 0 0 1 -128.009605-128.00961 128.00961 128.00961 0 0 1 128.009605-128.009606 128.00961 128.00961 0 0 1 128.009609 128.009606z"
     fill="url(#a)"
     transform="matrix(.179674016 0 0 .179674016 15.400640481356 12.412194845703)"
     id="path87"
     style="fill:#e6e6e6" />
</svg>
