<?xml version="1.0" encoding="UTF-8" standalone="no"?>
<!-- Created with Inkscape (http://www.inkscape.org/) -->

<svg
   xmlns:dc="http://purl.org/dc/elements/1.1/"
   xmlns:cc="http://creativecommons.org/ns#"
   xmlns:rdf="http://www.w3.org/1999/02/22-rdf-syntax-ns#"
   xmlns:svg="http://www.w3.org/2000/svg"
   xmlns="http://www.w3.org/2000/svg"
   xmlns:xlink="http://www.w3.org/1999/xlink"
   xmlns:sodipodi="http://sodipodi.sourceforge.net/DTD/sodipodi-0.dtd"
   xmlns:inkscape="http://www.inkscape.org/namespaces/inkscape"
   width="1024"
   height="1024"
   id="svg2"
   version="1.1"
   inkscape:version="0.92.4 (5da689c313, 2019-01-14)"
   sodipodi:docname="web-browser.svg">
  <defs
     id="defs4">
    <linearGradient
       inkscape:collect="always"
       id="linearGradient8420">
      <stop
         style="stop-color:#ffffff;stop-opacity:1;"
         offset="0"
         id="stop8422" />
      <stop
         style="stop-color:#ffffff;stop-opacity:0;"
         offset="1"
         id="stop8424" />
    </linearGradient>
    <inkscape:perspective
       sodipodi:type="inkscape:persp3d"
       inkscape:vp_x="13.534465 : 111.04854 : 1"
       inkscape:vp_y="0 : 1000 : 0"
       inkscape:vp_z="213.53447 : 111.04854 : 1"
       inkscape:persp3d-origin="113.53447 : 77.71521 : 1"
       id="perspective3135" />
    <linearGradient
       id="linearGradient4829">
      <stop
         style="stop-color:#f4fbfc;stop-opacity:1;"
         offset="0"
         id="stop4831" />
      <stop
         style="stop-color:#d6d6d6;stop-opacity:1;"
         offset="1"
         id="stop4833" />
    </linearGradient>
    <clipPath
       clipPathUnits="userSpaceOnUse"
       id="clipPath4282">
      <rect
         style="color:#000000;display:inline;overflow:visible;visibility:visible;fill:#4d4d4d;fill-opacity:1;fill-rule:nonzero;stroke:none;stroke-width:9.13434315;marker:none;enable-background:accumulate"
         id="rect4284"
         width="246.875"
         height="234.375"
         x="462.5"
         y="1646.1122"
         ry="17"
         rx="17" />
    </clipPath>
    <linearGradient
       inkscape:collect="always"
       xlink:href="#linearGradient5423"
       id="linearGradient5429"
       x1="408.66196"
       y1="44.604382"
       x2="408.66196"
       y2="562.04968"
       gradientUnits="userSpaceOnUse" />
    <linearGradient
       id="linearGradient5423">
      <stop
         style="stop-color:#09bce2;stop-opacity:1;"
         offset="0"
         id="stop5425" />
      <stop
         style="stop-color:#237efe;stop-opacity:1;"
         offset="1"
         id="stop5427" />
    </linearGradient>
    <linearGradient
       inkscape:collect="always"
       xlink:href="#linearGradient3986"
       id="linearGradient3992"
       x1="78.5625"
       y1="993.6615"
       x2="120.28125"
       y2="993.6615"
       gradientUnits="userSpaceOnUse" />
    <linearGradient
       inkscape:collect="always"
       id="linearGradient3986">
      <stop
         style="stop-color:#000000;stop-opacity:1;"
         offset="0"
         id="stop3988" />
      <stop
         style="stop-color:#000000;stop-opacity:0;"
         offset="1"
         id="stop3990" />
    </linearGradient>
    <linearGradient
       inkscape:collect="always"
       xlink:href="#linearGradient5423-1"
       id="linearGradient5473-2"
       x1="99.036476"
       y1="-0.50471628"
       x2="99.036476"
       y2="199.83986"
       gradientUnits="userSpaceOnUse" />
    <linearGradient
       id="linearGradient5423-1">
      <stop
         style="stop-color:#51b9db;stop-opacity:1;"
         offset="0"
         id="stop5425-2" />
      <stop
         style="stop-color:#2fabd4;stop-opacity:1;"
         offset="1"
         id="stop5427-3" />
    </linearGradient>
    <linearGradient
       y2="199.83986"
       x2="99.036476"
       y1="-0.50471628"
       x1="99.036476"
       gradientUnits="userSpaceOnUse"
       id="linearGradient4119"
       xlink:href="#linearGradient5423-1"
       inkscape:collect="always" />
    <linearGradient
       inkscape:collect="always"
       xlink:href="#linearGradient4829"
       id="linearGradient4159"
       x1="100"
       y1="852.36218"
       x2="100"
       y2="1052.3622"
       gradientUnits="userSpaceOnUse" />
    <clipPath
       clipPathUnits="userSpaceOnUse"
       id="clipPath7446">
      <circle
         style="color:#000000;display:inline;overflow:visible;visibility:visible;fill:#3d0c34;fill-opacity:1;fill-rule:nonzero;stroke:none;stroke-width:14.00999928;marker:none;enable-background:accumulate"
         id="path7448"
         transform="translate(0,852.36218)"
         cx="-219.5898"
         cy="704.91846"
         r="32.593204" />
    </clipPath>
    <linearGradient
       inkscape:collect="always"
       xlink:href="#linearGradient3986"
       id="linearGradient8394"
       x1="-164.90503"
       y1="63.177601"
       x2="-169.71631"
       y2="56.836071"
       gradientUnits="userSpaceOnUse" />
    <clipPath
       clipPathUnits="userSpaceOnUse"
       id="clipPath8414">
      <path
         style="fill:#fff6ed;fill-opacity:1;stroke:none"
         d="m -181.20117,72.80274 17.62695,-22.2168 6.44532,6.5918 z"
         id="path8416"
         inkscape:connector-curvature="0" />
    </clipPath>
    <linearGradient
       inkscape:collect="always"
       xlink:href="#linearGradient8420"
       id="linearGradient8426"
       x1="-155.20995"
       y1="39.130112"
       x2="-149.02275"
       y2="45.803432"
       gradientUnits="userSpaceOnUse" />
    <clipPath
       clipPathUnits="userSpaceOnUse"
       id="clipPath8446">
      <path
         style="fill:#d80e0e;fill-opacity:1;stroke:none"
         d="m -139.5078,34.96486 -17.62695,22.2168 -6.34766,-1.70215 -0.0977,-4.88965 z"
         id="path8448"
         inkscape:connector-curvature="0"
         sodipodi:nodetypes="ccccc" />
    </clipPath>
    <linearGradient
       id="grd26"
       gradientUnits="userSpaceOnUse"
       x1="417"
       y1="20.837999"
       x2="417"
       y2="470.83801"
       gradientTransform="matrix(1.0000286,0,0,1.0000286,-0.95219397,-0.34826313)">
      <stop
         offset="0"
         stop-color="#feffff"
         id="stop168"
         style="stop-color:#01cff3;stop-opacity:1" />
      <stop
         offset="1"
         stop-color="#d7d7d6"
         id="stop170"
         style="stop-color:#0982de;stop-opacity:1" />
    </linearGradient>
    <linearGradient
       id="grd27"
       gradientUnits="userSpaceOnUse"
       x1="417"
       y1="20.837999"
       x2="417"
       y2="470.83801"
       gradientTransform="matrix(1.0000286,0,0,1.0000286,-0.95219397,-0.34826313)">
      <stop
         offset="0"
         stop-color="#f2f3f3"
         id="stop173"
         style="stop-color:#ffffff;stop-opacity:1" />
      <stop
         offset="1"
         stop-color="#b9b9b9"
         id="stop175"
         style="stop-color:#d7d7d7;stop-opacity:1" />
    </linearGradient>
    <radialGradient
       id="grd28"
       gradientUnits="userSpaceOnUse"
       cx="417"
       cy="245.838"
       r="231.55499"
       gradientTransform="matrix(0.99899522,0,0,0.99899522,-0.74236187,0.12687307)">
      <stop
         offset="0"
         stop-color="#00cef6"
         id="stop178"
         style="stop-color:#00b9f6;stop-opacity:1" />
      <stop
         offset="1"
         stop-color="#0a55da"
         id="stop182"
         style="stop-color:#0a7ada;stop-opacity:1" />
    </radialGradient>
    <linearGradient
       id="grd29"
       gradientUnits="userSpaceOnUse"
       x1="417"
       y1="49.971001"
       x2="417"
       y2="576.62701">
      <stop
         offset="0"
         stop-color="#f3f3f3"
         id="stop185" />
      <stop
         offset="1"
         stop-color="#b7b7b7"
         id="stop187" />
    </linearGradient>
    <linearGradient
       id="grd30"
       gradientUnits="userSpaceOnUse"
       x1="417"
       y1="51.537998"
       x2="417"
       y2="573.98102">
      <stop
         offset="0"
         stop-color="#f3f3f3"
         id="stop190" />
      <stop
         offset="1"
         stop-color="#b7b7b7"
         id="stop192" />
    </linearGradient>
    <filter
       x="-0.5"
       y="-0.5"
       width="2"
       height="2"
       id="flt3">
      <feGaussianBlur
         stdDeviation="2.47"
         id="feGaussianBlur195" />
    </filter>
    <clipPath
       clipPathUnits="userSpaceOnUse"
       id="cp4">
      <path
         inkscape:connector-curvature="0"
         d="m 393.1,221.44 48.79,48.79 119.15,-167.94 z M 273.96,389.38 441.9,270.23 393.11,221.44 Z"
         id="path198" />
    </clipPath>
    <linearGradient
       inkscape:collect="always"
       xlink:href="#grd28"
       id="linearGradient883"
       x1="418.01791"
       y1="33.012035"
       x2="416.05972"
       y2="470.50522"
       gradientUnits="userSpaceOnUse" />
    <radialGradient
       inkscape:collect="always"
       xlink:href="#linearGradient8420"
       id="radialGradient6921"
       cx="100"
       cy="82.38073"
       fx="100"
       fy="82.38073"
       r="100"
       gradientUnits="userSpaceOnUse"
       gradientTransform="matrix(2.0804075,0,0,1.5624559,207.79788,71.469143)" />
  </defs>
  <sodipodi:namedview
     id="base"
     pagecolor="#ffffff"
     bordercolor="#666666"
     borderopacity="1.0"
     inkscape:pageopacity="0.0"
     inkscape:pageshadow="2"
     inkscape:zoom="0.7109375"
     inkscape:cx="512"
     inkscape:cy="507.78022"
     inkscape:document-units="px"
     inkscape:current-layer="compass"
     showgrid="false"
     inkscape:window-width="1920"
     inkscape:window-height="944"
     inkscape:window-x="0"
     inkscape:window-y="25"
     inkscape:window-maximized="1"
     inkscape:snap-from-guide="true"
     showguides="false"
     inkscape:guide-bbox="true"
     inkscape:pagecheckerboard="true">
    <sodipodi:guide
       position="200,0"
       orientation="-200,0"
       id="guide3766"
       inkscape:locked="false" />
    <sodipodi:guide
       position="0,200"
       orientation="200,0"
       id="guide3127"
       inkscape:locked="false" />
    <sodipodi:guide
       position="0,-2.6171874e-06"
       orientation="0,100"
       id="guide3129"
       inkscape:locked="false" />
    <sodipodi:guide
       position="100,-2.6171874e-06"
       orientation="-200,0"
       id="guide3131"
       inkscape:locked="false" />
    <sodipodi:guide
       position="100,200"
       orientation="0,-100"
       id="guide3133"
       inkscape:locked="false" />
  </sodipodi:namedview>
  <metadata
     id="metadata7">
    <rdf:RDF>
      <cc:Work
         rdf:about="">
        <dc:format>image/svg+xml</dc:format>
        <dc:type
           rdf:resource="http://purl.org/dc/dcmitype/StillImage" />
        <dc:title />
      </cc:Work>
    </rdf:RDF>
  </metadata>
  <g
     inkscape:label="Layer 1"
     inkscape:groupmode="layer"
     id="layer1"
     transform="translate(0,-28.36218)">
    <g
       id="safari"
       transform="translate(59.627166,290.64778)">
      <g
         id="g1011"
         transform="matrix(2.2615761,0,0,2.2615761,-488.57791,-305.49976)">
        <path
           inkscape:connector-curvature="0"
           style="fill:url(#grd26);stroke:none;stroke-width:1.00002861;stroke-linecap:round"
           d="m 416.05973,470.50521 c 124.26356,0 225.00644,-100.74289 225.00644,-225.00644 0,-124.26356 -100.74288,-225.006437 -225.00644,-225.006437 -124.26355,0 -225.00644,100.742877 -225.00644,225.006437 0,124.26355 100.74289,225.00644 225.00644,225.00644 z"
           class="shp35"
           id="path850" />
        <path
           inkscape:connector-curvature="0"
           style="fill:url(#linearGradient883);stroke-width:0.99899524;fill-opacity:1;stroke:none"
           d="m 415.83865,453.76061 c 114.89444,0 208.04075,-93.14631 208.04075,-208.04076 0,-114.89444 -93.14631,-208.040747 -208.04075,-208.040747 -114.89445,0 -208.04076,93.146307 -208.04076,208.040747 0,114.89445 93.14631,208.04076 208.04076,208.04076 z"
           class="shp36"
           id="path852" />
        <circle
           style="color:#000000;display:inline;overflow:visible;visibility:visible;opacity:0.2;fill:url(#radialGradient6921);fill-opacity:1;fill-rule:nonzero;stroke:none;stroke-width:19.00315666;marker:none;enable-background:accumulate"
           id="path4188-6-4"
           cx="415.83865"
           cy="245.71986"
           r="208.04076" />
        <path
           inkscape:connector-curvature="0"
           style="fill:none;stroke:url(#grd29);stroke-width:6;stroke-linecap:round"
           d="m 417,49.97 v 36.6 m 38.13,-32.85 -6.98,35.93 M 492.1,64.94 477.8,98.63 m 48.08,-15.6 -20.47,30.34 m 50.09,-6.03 -25.88,25.88 m 50.19,3.73 -30.34,20.47 m 48.55,13.61 -33.94,13.71 m 45.04,22.96 -35.93,6.98 m 39.68,31.16 h -36.6 m 32.85,38.13 -35.93,-6.98 m 24.71,43.95 -33.69,-14.3 m 15.6,48.08 -30.34,-20.47 m 6.03,50.09 -25.88,-25.88 m -3.74,50.19 -20.47,-30.34 m -13.6,48.55 -13.71,-33.94 m -22.97,45.04 -6.98,-35.93 M 417,441.71 v -36.6 m -38.13,32.85 6.98,-35.93 m -43.95,24.7 14.3,-33.69 m -48.08,15.61 20.47,-30.34 m -50.09,6.03 25.88,-25.88 m -50.19,-3.74 30.34,-20.47 m -48.43,-13.31 33.69,-14.3 m -44.91,-22.67 35.93,-6.98 m -39.68,-31.15 h 36.6 m -32.85,-38.14 35.93,6.98 m -24.71,-43.94 33.69,14.3 m -15.6,-48.09 30.34,20.47 m -6.03,-50.08 25.88,25.88 m 3.74,-50.19 20.47,30.34 m 13.6,-48.55 13.71,33.94 m 22.97,-45.04 6.98,35.93"
           class="shp37"
           id="Path 35" />
        <path
           inkscape:connector-curvature="0"
           style="fill:none;stroke:url(#grd30);stroke-width:6;stroke-linecap:round"
           d="m 436.1,51.54 -1.5,14.8 m 39.01,-7.35 -4.3,14.24 m 39.75,0.44 -7.16,13.04 m 38.95,8.21 -9.52,11.43 m 36.57,15.6 -11.53,9.4 m 32.78,22.39 -13.11,7.03 m 27.8,28.42 -14.28,4.15 m 21.74,33.36 -14.81,1.35 m 14.81,36.89 -14.8,-1.5 m 7.35,39.01 -14.24,-4.3 m -0.44,39.75 -13.04,-7.16 m -8.21,38.95 -11.43,-9.52 m -15.6,36.56 -9.4,-11.53 m -22.4,32.79 -7.03,-13.11 m -28.41,27.8 -4.15,-14.28 m -33.36,21.73 -1.35,-14.81 m -36.89,14.82 1.5,-14.8 m -39.01,7.35 4.3,-14.24 m -39.75,-0.44 7.16,-13.04 m -38.95,-8.21 9.52,-11.43 m -36.57,-15.61 11.53,-9.4 m -32.78,-22.39 13.11,-7.03 m -27.76,-28.29 14.21,-4.4 m -21.71,-33.23 14.81,-1.35 m -14.81,-36.89 14.8,1.5 m -7.35,-39.01 14.24,4.3 m 0.44,-39.75 13.04,7.16 m 8.21,-38.96 11.43,9.52 m 15.6,-36.56 9.4,11.53 m 22.4,-32.78 7.03,13.11 M 360.35,59 364.5,73.28 m 33.36,-21.74 1.35,14.81"
           class="shp38"
           id="path855" />
        <g
           id="compass">
          <path
             style="fill:#000000;fill-opacity:0.50199998;filter:url(#flt3)"
             inkscape:connector-curvature="0"
             d="m 399.1,226.44 44.29,44.29 123.67,-167.96 z M 275.43,394.41 443.39,270.74 399.1,226.45 Z"
             class="shp39"
             id="Mask" />
          <path
             style="fill:#fe504d"
             inkscape:connector-curvature="0"
             d="m 393.1,221.44 48.79,48.79 119.15,-167.94 z M 273.96,389.38 441.9,270.23 393.11,221.44 Z"
             class="shp40"
             id="path858" />
          <g
             clip-path="url(#cp4)"
             id="Mask by Mask">
            <path
               style="fill:#eeeeee"
               inkscape:connector-curvature="0"
               d="m 234.01,349.43 82.73,82.73 143.54,-143.54 -82.73,-82.73 z"
               class="shp41"
               id="Rectangle 32" />
            <path
               style="fill:#000000;fill-opacity:0.25100002"
               inkscape:connector-curvature="0"
               d="m 273.96,389.38 89.1,89.1 294.51,-294.51 -89.1,-89.1 z"
               class="shp42"
               id="path861" />
          </g>
        </g>
      </g>
    </g>
  </g>
</svg>
