<?xml version="1.0" encoding="UTF-8" standalone="no"?>
<svg
   xmlns:dc="http://purl.org/dc/elements/1.1/"
   xmlns:cc="http://creativecommons.org/ns#"
   xmlns:rdf="http://www.w3.org/1999/02/22-rdf-syntax-ns#"
   xmlns:svg="http://www.w3.org/2000/svg"
   xmlns="http://www.w3.org/2000/svg"
   xmlns:sodipodi="http://sodipodi.sourceforge.net/DTD/sodipodi-0.dtd"
   xmlns:inkscape="http://www.inkscape.org/namespaces/inkscape"
   width="22"
   height="22"
   version="1.1"
   id="svg9"
   sodipodi:docname="start-here-macos-adjusted.svg"
   inkscape:version="1.0.2 (e86c870879, 2021-01-15)">
  <metadata
     id="metadata13">
    <rdf:RDF>
      <cc:Work
         rdf:about="">
        <dc:format>image/svg+xml</dc:format>
        <dc:type
           rdf:resource="http://purl.org/dc/dcmitype/StillImage" />
      </cc:Work>
    </rdf:RDF>
  </metadata>
  <sodipodi:namedview
     pagecolor="#ffffff"
     bordercolor="#666666"
     borderopacity="1"
     objecttolerance="10"
     gridtolerance="10"
     guidetolerance="10"
     inkscape:pageopacity="0"
     inkscape:pageshadow="2"
     inkscape:window-width="724"
     inkscape:window-height="480"
     id="namedview11"
     showgrid="false"
     inkscape:zoom="12.931977"
     inkscape:cx="6.0548403"
     inkscape:cy="9.0162684"
     inkscape:window-x="0"
     inkscape:window-y="32"
     inkscape:window-maximized="0"
     inkscape:current-layer="svg9"
     inkscape:document-rotation="0" />
  <defs
     id="defs3">
    <style
       id="current-color-scheme"
       type="text/css">.ColorScheme-Text { color:#dedede; }</style>
  </defs>
  <g
     class="ColorScheme-Text"
     transform="matrix(0.76107791,0,0,0.76107791,4.9113783,-211.23438)"
     fill="currentColor"
     id="g7">
    <path
       d="m 10.356,286.57 c 0.55189,-0.68713 0.92608,-1.6207 0.82284,-2.5669 -0.79488,0.0333 -1.7852,0.55212 -2.359,1.2192 -0.50682,0.5919 -0.95705,1.5594 -0.84044,2.4713 0.89204,0.0666 1.8056,-0.45138 2.3766,-1.1236 z m 2.0112,5.9448 c -0.01907,-2.0235 1.6557,-3.0059 1.7315,-3.0528 -0.94747,-1.3829 -2.4166,-1.5702 -2.9346,-1.5873 -1.2347,-0.12579 -2.4298,0.74182 -3.0597,0.74182 -0.641,-8e-5 -1.609,-0.7268 -2.6516,-0.70614 -1.3438,0.0201 -2.6022,0.7982 -3.2911,2.0031 -1.4182,2.4628 -0.36096,6.0799 1.0012,8.0658 0.68235,0.97755 1.4772,2.0656 2.5198,2.0226 1.0197,-0.0388 1.3998,-0.64742 2.6322,-0.64742 1.2195,0 1.5768,0.64742 2.6407,0.62659 1.095,-0.018 1.7836,-0.97932 2.4423,-1.9609 0.78451,-1.1198 1.1013,-2.2176 1.1139,-2.276 -0.02441,-0.009 -2.1224,-0.80693 -2.1448,-3.2293 z"
       id="path5" />
  </g>
</svg>
